%FSLAX24Y24*%
%MOIN*%
G70*
G01*
G75*
G04 Layer_Color=8421504*
%ADD10C,0.0050*%
%ADD11R,0.0500X0.0500*%
%ADD12R,0.0860X0.0921*%
%ADD13R,0.0100X0.0866*%
%ADD14R,0.0866X0.0100*%
%ADD15R,0.0300X0.0300*%
%ADD16R,0.0300X0.0300*%
%ADD17R,0.0374X0.0354*%
%ADD18R,0.0374X0.0354*%
%ADD19R,0.0500X0.0600*%
%ADD20R,0.0591X0.0512*%
%ADD21R,0.0512X0.0591*%
%ADD22R,0.0591X0.1260*%
%ADD23R,0.1260X0.0591*%
%ADD24R,0.0236X0.0866*%
G04:AMPARAMS|DCode=25|XSize=150mil|YSize=65mil|CornerRadius=0mil|HoleSize=0mil|Usage=FLASHONLY|Rotation=0.000|XOffset=0mil|YOffset=0mil|HoleType=Round|Shape=Octagon|*
%AMOCTAGOND25*
4,1,8,0.0750,-0.0163,0.0750,0.0163,0.0588,0.0325,-0.0588,0.0325,-0.0750,0.0163,-0.0750,-0.0163,-0.0588,-0.0325,0.0588,-0.0325,0.0750,-0.0163,0.0*
%
%ADD25OCTAGOND25*%

%ADD26O,0.1500X0.0650*%
%ADD27R,0.1000X0.1000*%
%ADD28R,0.0984X0.0787*%
%ADD29R,0.0906X0.0197*%
%ADD30R,0.0984X0.0787*%
%ADD31C,0.0150*%
%ADD32C,0.0060*%
%ADD33C,0.0200*%
%ADD34C,0.0300*%
%ADD35C,0.0120*%
%ADD36C,0.0400*%
%ADD37C,0.0600*%
%ADD38R,0.0870X0.0290*%
%ADD39R,0.1156X0.0353*%
%ADD40C,0.1181*%
%ADD41C,0.0500*%
%ADD42O,0.0400X0.0500*%
%ADD43C,0.0591*%
%ADD44R,0.0591X0.0591*%
%ADD45R,0.0591X0.0591*%
%ADD46C,0.0620*%
%ADD47C,0.0236*%
%ADD48C,0.0433*%
%ADD49C,0.0240*%
%ADD50O,0.0984X0.2362*%
G04:AMPARAMS|DCode=51|XSize=98.4mil|YSize=236.2mil|CornerRadius=0mil|HoleSize=0mil|Usage=FLASHONLY|Rotation=180.000|XOffset=0mil|YOffset=0mil|HoleType=Round|Shape=Octagon|*
%AMOCTAGOND51*
4,1,8,0.0246,-0.1181,-0.0246,-0.1181,-0.0492,-0.0935,-0.0492,0.0935,-0.0246,0.1181,0.0246,0.1181,0.0492,0.0935,0.0492,-0.0935,0.0246,-0.1181,0.0*
%
%ADD51OCTAGOND51*%

%ADD52R,0.0550X0.0650*%
%ADD53R,0.0520X0.0715*%
%ADD54C,0.0100*%
%ADD55C,0.0080*%
%ADD56C,0.0079*%
%ADD57C,0.0098*%
%ADD58R,0.0100X0.0300*%
%ADD59R,0.0300X0.0100*%
%ADD60R,0.0107X0.0800*%
%ADD61R,0.0800X0.0107*%
D11*
X4697Y13491D02*
D03*
X9224D02*
D03*
X17973Y21071D02*
D03*
X13446D02*
D03*
D12*
X19630Y22425D02*
D03*
D13*
X17572Y16561D02*
D03*
X17769Y16561D02*
D03*
X17966Y16561D02*
D03*
X18163D02*
D03*
X18359Y16561D02*
D03*
X18556Y16561D02*
D03*
X18753D02*
D03*
X18950Y16561D02*
D03*
X19147Y16561D02*
D03*
X19344D02*
D03*
X19541D02*
D03*
X19737Y16561D02*
D03*
X19934Y16561D02*
D03*
X20131D02*
D03*
X20328Y16561D02*
D03*
X20525Y16561D02*
D03*
X20525Y12269D02*
D03*
X20328D02*
D03*
X20131D02*
D03*
X19934Y12269D02*
D03*
X19737Y12269D02*
D03*
X19541D02*
D03*
X19344Y12269D02*
D03*
X19147Y12269D02*
D03*
X18950D02*
D03*
X18753Y12269D02*
D03*
X18556Y12269D02*
D03*
X18359D02*
D03*
X18163D02*
D03*
X17966Y12269D02*
D03*
X17769Y12269D02*
D03*
X17572D02*
D03*
D14*
X21194Y15891D02*
D03*
X21194Y15694D02*
D03*
X21194Y15498D02*
D03*
X21194Y15301D02*
D03*
Y15104D02*
D03*
X21194Y14907D02*
D03*
Y14710D02*
D03*
X21194Y14513D02*
D03*
X21194Y14316D02*
D03*
X21194Y14120D02*
D03*
X21194Y13923D02*
D03*
X21194Y13726D02*
D03*
X21194Y13529D02*
D03*
X21194Y13332D02*
D03*
X21194Y13135D02*
D03*
X21194Y12939D02*
D03*
X16903D02*
D03*
X16903Y13135D02*
D03*
X16903Y13332D02*
D03*
Y13529D02*
D03*
X16903Y13726D02*
D03*
Y13923D02*
D03*
X16903Y14120D02*
D03*
Y14316D02*
D03*
X16903Y14513D02*
D03*
X16903Y14710D02*
D03*
Y14907D02*
D03*
X16903Y15104D02*
D03*
X16903Y15301D02*
D03*
X16903Y15498D02*
D03*
X16903Y15694D02*
D03*
X16903Y15891D02*
D03*
D15*
X5015Y11690D02*
D03*
X4470Y11691D02*
D03*
X28420Y16200D02*
D03*
X27875Y16201D02*
D03*
X28420Y15165D02*
D03*
X27875Y15166D02*
D03*
X7735Y5460D02*
D03*
X7190Y5461D02*
D03*
X28420Y14130D02*
D03*
X27875Y14131D02*
D03*
X28420Y13130D02*
D03*
X27875Y13131D02*
D03*
X28420Y12130D02*
D03*
X27875Y12131D02*
D03*
X7180Y4891D02*
D03*
X7725Y4890D02*
D03*
X15855Y19361D02*
D03*
X15310Y19361D02*
D03*
X1515Y6900D02*
D03*
X970Y6901D02*
D03*
X2245Y6891D02*
D03*
X2790Y6891D02*
D03*
X9845Y5490D02*
D03*
X9300Y5491D02*
D03*
X9845Y4815D02*
D03*
X9300Y4816D02*
D03*
X9845Y4140D02*
D03*
X9300Y4141D02*
D03*
X4980Y15171D02*
D03*
X5525Y15170D02*
D03*
X9800Y20991D02*
D03*
X10345Y20990D02*
D03*
X7500Y11691D02*
D03*
X8045Y11690D02*
D03*
X6500D02*
D03*
X5955Y11691D02*
D03*
X9285D02*
D03*
X9830Y11690D02*
D03*
X28420Y11130D02*
D03*
X27875Y11131D02*
D03*
X14460Y19361D02*
D03*
X13915Y19361D02*
D03*
X20400Y11421D02*
D03*
X20945Y11420D02*
D03*
X16895Y19371D02*
D03*
X17440Y19371D02*
D03*
X19260Y19311D02*
D03*
X18715Y19311D02*
D03*
X18565Y10981D02*
D03*
X19110Y10980D02*
D03*
X19950Y19311D02*
D03*
X20495Y19310D02*
D03*
X17705Y17620D02*
D03*
X17160Y17621D02*
D03*
D16*
X4140Y4311D02*
D03*
X4139Y3766D02*
D03*
X13611Y13626D02*
D03*
X13610Y13081D02*
D03*
X4141Y5416D02*
D03*
X4141Y5961D02*
D03*
X32219Y4636D02*
D03*
X32220Y5181D02*
D03*
X14420Y13081D02*
D03*
X14421Y13626D02*
D03*
X31399Y4636D02*
D03*
X31400Y5181D02*
D03*
X5181Y8996D02*
D03*
X5180Y8451D02*
D03*
X22090Y15720D02*
D03*
X22091Y16265D02*
D03*
X24229Y19676D02*
D03*
X24230Y20221D02*
D03*
D17*
X4780Y4061D02*
D03*
X5705Y3687D02*
D03*
X5700Y5453D02*
D03*
X4775Y5827D02*
D03*
D18*
X5705Y4435D02*
D03*
X5700Y6201D02*
D03*
D19*
X2920Y9121D02*
D03*
Y8221D02*
D03*
X15280Y12891D02*
D03*
Y13791D02*
D03*
X4270Y9121D02*
D03*
Y8221D02*
D03*
D20*
X6530Y4161D02*
D03*
X7930D02*
D03*
D21*
X12750Y5541D02*
D03*
Y4141D02*
D03*
X11750Y5541D02*
D03*
Y4141D02*
D03*
X10700Y5541D02*
D03*
Y4141D02*
D03*
X23380Y19521D02*
D03*
Y20921D02*
D03*
X21980Y19541D02*
D03*
Y20941D02*
D03*
D22*
X9800Y17688D02*
D03*
Y19891D02*
D03*
D23*
X7052Y16981D02*
D03*
X4850D02*
D03*
D24*
X6350Y8067D02*
D03*
X6850D02*
D03*
X7350D02*
D03*
X7850D02*
D03*
X8350D02*
D03*
X8850D02*
D03*
X9350D02*
D03*
X9850D02*
D03*
X6350Y10114D02*
D03*
X6850D02*
D03*
X7350D02*
D03*
X7850D02*
D03*
X8350D02*
D03*
X8850D02*
D03*
X9350D02*
D03*
X9850D02*
D03*
D25*
X4760Y20911D02*
D03*
D26*
Y18911D02*
D03*
Y19911D02*
D03*
D27*
X7160D02*
D03*
D28*
X1036Y14043D02*
D03*
X3301D02*
D03*
X1036Y10539D02*
D03*
D29*
X3341Y11976D02*
D03*
Y12291D02*
D03*
Y12606D02*
D03*
Y12920D02*
D03*
Y11661D02*
D03*
D30*
X3301Y10539D02*
D03*
M02*
