M48
;Layer_Color=9474304
;FILE_FORMAT=2:4
INCH,LZ
;TYPE=PLATED
T1F00S00C0.0120
T2F00S00C0.0280
T3F00S00C0.0315
T4F00S00C0.0350
T5F00S00C0.0354
T6F00S00C0.0380
;TYPE=NON_PLATED
T7F00S00C0.0433
T8F00S00C0.0500
T9F00S00C0.0591
T10F00S00C0.1181
%
T01
X00387Y0028
X00377Y003771
X00535Y004435
X00808Y00489
X00794Y00373
X00892Y004141
X00755Y0021
X01107Y0027
X01303Y0018
X01275Y006046
X01175Y006091
X0107
X00985Y00876
X00563Y00899
X005536Y008451
X00427Y007631
X00292
X00322Y00689
X00097Y00723
X0163Y002041
X019Y002961
X02123Y0029
X02575Y0028
X02947Y003
X0285Y007441
X0289Y007961
X02839Y008332
X0293Y008721
X02533Y00852
X02523Y00905
X02337Y00911
X0224Y008361
X02139Y0091
X03067Y008625
X0315Y008641
X03099Y0072
X031399Y004221
X032219
X0317Y003561
X03208Y016401
X03255Y0206
X03191Y0235
X02971Y0227
X02683Y0246
X02487Y021457
Y020791
X02466Y020221
X024Y020801
X024016Y021481
X02303Y023
X02023Y0236
X01987Y020711
X02049Y020421
Y019621
X0205Y018979
X01872Y01898
X01874Y019841
X01896Y020551
X01715Y021201
Y019781
X017445Y019039
X017705Y018034
X01716Y018035
X01891Y017481
X01854Y01596
Y01566
Y01536
X01855Y01505
X01783Y015055
Y01536
Y01475
Y014445
Y01414
Y013835
Y01353
Y013225
X01813
X01843
X01873
X01903
X01933
X01963Y01322
X01997
X02027
X01918Y01166
X01888Y01165
X01906Y01062
X01807Y010797
X01615Y0108
X01535Y0109
X01635Y012
X020945Y011006
X02067Y0102
X0198Y009281
X02215Y009705
X02339Y00994
X02351Y01047
X0234Y012161
X0231
X023809
X0224Y0145
X02199
Y01492
X0224
Y01534
X02199
X02263Y01571
X02452Y01551
X0247Y01629
X0258Y01462
X02745Y016201
X028759Y0162
Y015165
Y01413
Y01313
Y01213
X02842Y011555
X02745Y011131
X01933Y01507
Y01537
X01934Y01567
Y01597
X02096Y01709
X02179Y01846
X02128Y02094
X01541Y021531
X01611Y0234
X01495Y0178
X014Y017361
X0136Y018441
X01392Y01903
X01429Y019831
Y021241
X01295Y0231
X013Y024441
X0116Y023801
X010345Y021346
X00907Y018321
Y017706
Y017091
X00875Y015711
X00947Y015
X01023Y0162
X01027Y0136
X00845Y013941
X0068Y014091
X00555Y013941
X005525Y014814
X00498Y014815
X005955Y012636
Y011336
X00447Y011335
X008045Y011334
X0078Y010841
X008045Y012491
X00983Y011334
X00985Y010841
X013611Y01404
X014421
X00775Y017601
X007025
X0063
X0062Y020921
X00575
Y021391
X00467Y0248
X00879
X0142Y024881
X01735Y025062
X02135Y025
X02255Y0264
X02447Y0249
X02879Y0252
T02
X01667Y021071
X01936Y020225
X01992
X014749Y021071
X007921Y013491
X006
T03
X000774Y017941
Y018941
Y019941
X0029
Y018941
Y017941
T04
X03108Y011151
Y012151
Y013151
Y014151
Y015151
Y016151
Y017151
Y018151
Y019151
Y020151
X03008
Y019151
Y018151
Y017151
Y016151
Y015151
Y014151
Y013151
Y012151
Y011151
T05
X00136Y003821
X00236
Y004821
X00136
Y005821
X00236
X01184Y007601
Y008601
X01329Y007601
X01429
X01529
X01629
X01729
X01829
X01929
X02029
X02129
X02229
X02329
X02429
X02529
X02678
Y008601
Y009601
Y010601
Y011601
Y012601
Y013601
Y014601
Y015601
Y016601
Y017601
Y018601
Y019601
Y020601
Y021601
Y022601
X02558Y013591
Y012591
X01184Y012601
Y013601
Y014601
Y015601
Y016601
Y017601
Y018601
Y019601
Y020601
Y021601
X0094Y022391
Y023391
X0084
Y022391
X0074
Y023391
X0028
Y022391
X0018
Y023391
X0008
Y022391
X01184Y011601
Y010601
Y009601
T06
X01381Y003811
Y005811
X016369
X017395
Y003811
X016369
X019954
X02098
Y005811
X019954
X023539
X024565
Y003811
X023539
X027124
X02815
Y005811
X027124
X030709
Y003811
T07
X0231Y018516
T08
X002317Y011424
Y013157
T09
X02309Y015564
T10
X001969Y001969
X031496
X001969Y025591
X031496
M30
