%FSLAX24Y24*%
%MOIN*%
G70*
G01*
G75*
%ADD10C,0.0050*%
%ADD11R,0.0500X0.0500*%
%ADD12R,0.0860X0.0921*%
%ADD13R,0.0100X0.0866*%
%ADD14R,0.0866X0.0100*%
%ADD15R,0.0300X0.0300*%
%ADD16R,0.0300X0.0300*%
%ADD17R,0.0374X0.0354*%
%ADD18R,0.0374X0.0354*%
%ADD19R,0.0500X0.0600*%
%ADD20R,0.0591X0.0512*%
%ADD21R,0.0512X0.0591*%
%ADD22R,0.0591X0.1260*%
%ADD23R,0.1260X0.0591*%
%ADD24R,0.0236X0.0866*%
G04:AMPARAMS|DCode=25|XSize=150mil|YSize=65mil|CornerRadius=0mil|HoleSize=0mil|Usage=FLASHONLY|Rotation=0.000|XOffset=0mil|YOffset=0mil|HoleType=Round|Shape=Octagon|*
%AMOCTAGOND25*
4,1,8,0.0750,-0.0163,0.0750,0.0163,0.0588,0.0325,-0.0588,0.0325,-0.0750,0.0163,-0.0750,-0.0163,-0.0588,-0.0325,0.0588,-0.0325,0.0750,-0.0163,0.0*
%
%ADD25OCTAGOND25*%

%ADD26O,0.1500X0.0650*%
%ADD27R,0.1000X0.1000*%
%ADD28R,0.0984X0.0787*%
%ADD29R,0.0906X0.0197*%
%ADD30R,0.0984X0.0787*%
%ADD31C,0.0150*%
%ADD32C,0.0060*%
%ADD33C,0.0200*%
%ADD34C,0.0300*%
%ADD35C,0.0120*%
%ADD36C,0.0400*%
%ADD37C,0.0600*%
%ADD38R,0.0870X0.0290*%
%ADD39R,0.1156X0.0353*%
%ADD40C,0.1181*%
%ADD41C,0.0500*%
%ADD42O,0.0400X0.0500*%
%ADD43C,0.0591*%
%ADD44R,0.0591X0.0591*%
%ADD45R,0.0591X0.0591*%
%ADD46C,0.0620*%
%ADD47C,0.0236*%
%ADD48C,0.0433*%
%ADD49C,0.0240*%
%ADD50O,0.0984X0.2362*%
G04:AMPARAMS|DCode=51|XSize=98.4mil|YSize=236.2mil|CornerRadius=0mil|HoleSize=0mil|Usage=FLASHONLY|Rotation=180.000|XOffset=0mil|YOffset=0mil|HoleType=Round|Shape=Octagon|*
%AMOCTAGOND51*
4,1,8,0.0246,-0.1181,-0.0246,-0.1181,-0.0492,-0.0935,-0.0492,0.0935,-0.0246,0.1181,0.0246,0.1181,0.0492,0.0935,0.0492,-0.0935,0.0246,-0.1181,0.0*
%
%ADD51OCTAGOND51*%

%ADD52R,0.0550X0.0650*%
%ADD53R,0.0520X0.0715*%
%ADD54C,0.0100*%
%ADD55C,0.0080*%
%ADD56C,0.0079*%
%ADD57C,0.0098*%
%ADD58R,0.0100X0.0300*%
%ADD59R,0.0300X0.0100*%
%ADD60R,0.0107X0.0800*%
%ADD61R,0.0800X0.0107*%
%ADD62R,0.0550X0.0550*%
%ADD63R,0.0910X0.0971*%
%ADD64R,0.0150X0.0916*%
%ADD65R,0.0916X0.0150*%
%ADD66R,0.0350X0.0350*%
%ADD67R,0.0350X0.0350*%
%ADD68R,0.0424X0.0404*%
%ADD69R,0.0424X0.0404*%
%ADD70R,0.0550X0.0650*%
%ADD71R,0.0641X0.0562*%
%ADD72R,0.0562X0.0641*%
%ADD73R,0.0641X0.1310*%
%ADD74R,0.1310X0.0641*%
%ADD75R,0.0286X0.0916*%
G04:AMPARAMS|DCode=76|XSize=155mil|YSize=70mil|CornerRadius=0mil|HoleSize=0mil|Usage=FLASHONLY|Rotation=0.000|XOffset=0mil|YOffset=0mil|HoleType=Round|Shape=Octagon|*
%AMOCTAGOND76*
4,1,8,0.0775,-0.0175,0.0775,0.0175,0.0600,0.0350,-0.0600,0.0350,-0.0775,0.0175,-0.0775,-0.0175,-0.0600,-0.0350,0.0600,-0.0350,0.0775,-0.0175,0.0*
%
%ADD76OCTAGOND76*%

%ADD77O,0.1550X0.0700*%
%ADD78R,0.1050X0.1050*%
%ADD79R,0.1034X0.0837*%
%ADD80R,0.0956X0.0247*%
%ADD81R,0.1034X0.0837*%
%ADD82C,0.1231*%
%ADD83C,0.0550*%
%ADD84O,0.0450X0.0550*%
%ADD85C,0.0641*%
%ADD86R,0.0641X0.0641*%
%ADD87R,0.0641X0.0641*%
%ADD88C,0.0670*%
%ADD89C,0.0286*%
%ADD90C,0.0483*%
%ADD91O,0.1034X0.2412*%
G04:AMPARAMS|DCode=92|XSize=103.4mil|YSize=241.2mil|CornerRadius=0mil|HoleSize=0mil|Usage=FLASHONLY|Rotation=180.000|XOffset=0mil|YOffset=0mil|HoleType=Round|Shape=Octagon|*
%AMOCTAGOND92*
4,1,8,0.0259,-0.1206,-0.0259,-0.1206,-0.0517,-0.0948,-0.0517,0.0948,-0.0259,0.1206,0.0259,0.1206,0.0517,0.0948,0.0517,-0.0948,0.0259,-0.1206,0.0*
%
%ADD92OCTAGOND92*%

%ADD93C,0.0070*%
%ADD94C,0.0067*%
%ADD95C,0.0040*%
D10*
X1378Y25591D02*
X2559D01*
X1969Y25000D02*
Y26181D01*
X30906Y25591D02*
X32087D01*
X31496Y25000D02*
Y26181D01*
X30906Y1969D02*
X32087D01*
X31496Y1378D02*
Y2559D01*
X1378Y1969D02*
X2559D01*
X1969Y1378D02*
Y2559D01*
X5860Y13491D02*
X6140D01*
X6000Y13351D02*
Y13631D01*
X7781Y13491D02*
X8061D01*
X7921Y13351D02*
Y13631D01*
X16530Y21071D02*
X16810D01*
X16670Y20931D02*
Y21211D01*
X14609Y21071D02*
X14889D01*
X14749Y20931D02*
Y21211D01*
X19780Y20225D02*
X20060D01*
X19920Y20085D02*
Y20365D01*
X19220Y20225D02*
X19500D01*
X19360Y20085D02*
Y20365D01*
X9223Y23391D02*
X9577D01*
X9400Y23213D02*
Y23568D01*
X9223Y22391D02*
X9577D01*
X9400Y22213D02*
Y22568D01*
X8223Y23391D02*
X8577D01*
X8400Y23213D02*
Y23568D01*
X8223Y22391D02*
X8577D01*
X8400Y22213D02*
Y22568D01*
X7223Y23391D02*
X7577D01*
X7400Y23213D02*
Y23568D01*
X7223Y22391D02*
X7577D01*
X7400Y22213D02*
Y22568D01*
X2623Y23391D02*
X2977D01*
X2800Y23213D02*
Y23568D01*
X2623Y22391D02*
X2977D01*
X2800Y22213D02*
Y22568D01*
X1623Y23391D02*
X1977D01*
X1800Y23213D02*
Y23568D01*
X1623Y22391D02*
X1977D01*
X1800Y22213D02*
Y22568D01*
X623Y23391D02*
X977D01*
X800Y23213D02*
Y23568D01*
X623Y22391D02*
X977D01*
X800Y22213D02*
Y22568D01*
X25403Y12591D02*
X25757D01*
X25580Y12413D02*
Y12768D01*
X25403Y13591D02*
X25757D01*
X25580Y13413D02*
Y13768D01*
X25113Y7601D02*
X25467D01*
X25290Y7423D02*
Y7778D01*
X24113Y7601D02*
X24467D01*
X24290Y7423D02*
Y7778D01*
X23113Y7601D02*
X23467D01*
X23290Y7423D02*
Y7778D01*
X22113Y7601D02*
X22467D01*
X22290Y7423D02*
Y7778D01*
X21113Y7601D02*
X21467D01*
X21290Y7423D02*
Y7778D01*
X20113Y7601D02*
X20467D01*
X20290Y7423D02*
Y7778D01*
X19113Y7601D02*
X19467D01*
X19290Y7423D02*
Y7778D01*
X18113Y7601D02*
X18467D01*
X18290Y7423D02*
Y7778D01*
X17113Y7601D02*
X17467D01*
X17290Y7423D02*
Y7778D01*
X16113Y7601D02*
X16467D01*
X16290Y7423D02*
Y7778D01*
X15113Y7601D02*
X15467D01*
X15290Y7423D02*
Y7778D01*
X14113Y7601D02*
X14467D01*
X14290Y7423D02*
Y7778D01*
X13113Y7601D02*
X13467D01*
X13290Y7423D02*
Y7778D01*
X11663Y21601D02*
X12017D01*
X11840Y21423D02*
Y21778D01*
X11663Y20601D02*
X12017D01*
X11840Y20423D02*
Y20778D01*
X11663Y19601D02*
X12017D01*
X11840Y19423D02*
Y19778D01*
X11663Y18601D02*
X12017D01*
X11840Y18423D02*
Y18778D01*
X11663Y17601D02*
X12017D01*
X11840Y17423D02*
Y17778D01*
X11663Y16601D02*
X12017D01*
X11840Y16423D02*
Y16778D01*
X11663Y15601D02*
X12017D01*
X11840Y15423D02*
Y15778D01*
X11663Y14601D02*
X12017D01*
X11840Y14423D02*
Y14778D01*
X11663Y13601D02*
X12017D01*
X11840Y13423D02*
Y13778D01*
X11663Y12601D02*
X12017D01*
X11840Y12423D02*
Y12778D01*
X11663Y11601D02*
X12017D01*
X11840Y11423D02*
Y11778D01*
X11663Y10601D02*
X12017D01*
X11840Y10423D02*
Y10778D01*
X11663Y9601D02*
X12017D01*
X11840Y9423D02*
Y9778D01*
X11663Y8601D02*
X12017D01*
X11840Y8423D02*
Y8778D01*
X11663Y7601D02*
X12017D01*
X11840Y7423D02*
Y7778D01*
X26603Y7601D02*
X26957D01*
X26780Y7423D02*
Y7778D01*
X26603Y8601D02*
X26957D01*
X26780Y8423D02*
Y8778D01*
X26603Y9601D02*
X26957D01*
X26780Y9423D02*
Y9778D01*
X26603Y10601D02*
X26957D01*
X26780Y10423D02*
Y10778D01*
X26603Y11601D02*
X26957D01*
X26780Y11423D02*
Y11778D01*
X26603Y12601D02*
X26957D01*
X26780Y12423D02*
Y12778D01*
X26603Y13601D02*
X26957D01*
X26780Y13423D02*
Y13778D01*
X26603Y14601D02*
X26957D01*
X26780Y14423D02*
Y14778D01*
X26603Y15601D02*
X26957D01*
X26780Y15423D02*
Y15778D01*
X26603Y16601D02*
X26957D01*
X26780Y16423D02*
Y16778D01*
X26603Y17601D02*
X26957D01*
X26780Y17423D02*
Y17778D01*
X26603Y18601D02*
X26957D01*
X26780Y18423D02*
Y18778D01*
X26603Y19601D02*
X26957D01*
X26780Y19423D02*
Y19778D01*
X26603Y20601D02*
X26957D01*
X26780Y20423D02*
Y20778D01*
X26603Y21601D02*
X26957D01*
X26780Y21423D02*
Y21778D01*
X26603Y22601D02*
X26957D01*
X26780Y22423D02*
Y22778D01*
X2183Y3821D02*
X2537D01*
X2360Y3643D02*
Y3998D01*
X1183Y3821D02*
X1537D01*
X1360Y3643D02*
Y3998D01*
X2183Y4821D02*
X2537D01*
X2360Y4643D02*
Y4998D01*
X1183Y4821D02*
X1537D01*
X1360Y4643D02*
Y4998D01*
X2183Y5821D02*
X2537D01*
X2360Y5643D02*
Y5998D01*
X1183Y5821D02*
X1537D01*
X1360Y5643D02*
Y5998D01*
X617Y19941D02*
X931D01*
X774Y19783D02*
Y20098D01*
X617Y18941D02*
X931D01*
X774Y18783D02*
Y19098D01*
X617Y17941D02*
X931D01*
X774Y17783D02*
Y18098D01*
X2743Y17941D02*
X3057D01*
X2900Y17783D02*
Y18098D01*
X2743Y18941D02*
X3057D01*
X2900Y18783D02*
Y19098D01*
X2743Y19941D02*
X3057D01*
X2900Y19783D02*
Y20098D01*
X30905Y11151D02*
X31255D01*
X31080Y10976D02*
Y11326D01*
X29905Y11151D02*
X30255D01*
X30080Y10976D02*
Y11326D01*
X30905Y12151D02*
X31255D01*
X31080Y11976D02*
Y12326D01*
X29905Y12151D02*
X30255D01*
X30080Y11976D02*
Y12326D01*
X30905Y13151D02*
X31255D01*
X31080Y12976D02*
Y13326D01*
X29905Y13151D02*
X30255D01*
X30080Y12976D02*
Y13326D01*
X30905Y14151D02*
X31255D01*
X31080Y13976D02*
Y14326D01*
X29905Y14151D02*
X30255D01*
X30080Y13976D02*
Y14326D01*
X30905Y15151D02*
X31255D01*
X31080Y14976D02*
Y15326D01*
X29905Y15151D02*
X30255D01*
X30080Y14976D02*
Y15326D01*
X30905Y16151D02*
X31255D01*
X31080Y15976D02*
Y16326D01*
X29905Y16151D02*
X30255D01*
X30080Y15976D02*
Y16326D01*
X30905Y17151D02*
X31255D01*
X31080Y16976D02*
Y17326D01*
X29905Y17151D02*
X30255D01*
X30080Y16976D02*
Y17326D01*
X30905Y18151D02*
X31255D01*
X31080Y17976D02*
Y18326D01*
X29905Y18151D02*
X30255D01*
X30080Y17976D02*
Y18326D01*
X30905Y19151D02*
X31255D01*
X31080Y18976D02*
Y19326D01*
X29905Y19151D02*
X30255D01*
X30080Y18976D02*
Y19326D01*
X30905Y20151D02*
X31255D01*
X31080Y19976D02*
Y20326D01*
X29905Y20151D02*
X30255D01*
X30080Y19976D02*
Y20326D01*
X30519Y3811D02*
X30899D01*
X30709Y3621D02*
Y4001D01*
X27960Y3811D02*
X28340D01*
X28150Y3621D02*
Y4001D01*
X30519Y5811D02*
X30899D01*
X30709Y5621D02*
Y6001D01*
X27960Y5811D02*
X28340D01*
X28150Y5621D02*
Y6001D01*
X26934Y3811D02*
X27314D01*
X27124Y3621D02*
Y4001D01*
X24375Y3811D02*
X24755D01*
X24565Y3621D02*
Y4001D01*
X26934Y5811D02*
X27314D01*
X27124Y5621D02*
Y6001D01*
X24375Y5811D02*
X24755D01*
X24565Y5621D02*
Y6001D01*
X23349Y3811D02*
X23729D01*
X23539Y3621D02*
Y4001D01*
X20790Y3811D02*
X21170D01*
X20980Y3621D02*
Y4001D01*
X23349Y5811D02*
X23729D01*
X23539Y5621D02*
Y6001D01*
X20790Y5811D02*
X21170D01*
X20980Y5621D02*
Y6001D01*
X19764Y3811D02*
X20144D01*
X19954Y3621D02*
Y4001D01*
X17205Y3811D02*
X17585D01*
X17395Y3621D02*
Y4001D01*
X19764Y5811D02*
X20144D01*
X19954Y5621D02*
Y6001D01*
X17205Y5811D02*
X17585D01*
X17395Y5621D02*
Y6001D01*
X16179Y3811D02*
X16559D01*
X16369Y3621D02*
Y4001D01*
X13620Y3811D02*
X14000D01*
X13810Y3621D02*
Y4001D01*
X16179Y5811D02*
X16559D01*
X16369Y5621D02*
Y6001D01*
X13620Y5811D02*
X14000D01*
X13810Y5621D02*
Y6001D01*
X2067Y11424D02*
X2567D01*
X2317Y11174D02*
Y11674D01*
X2067Y13157D02*
X2567D01*
X2317Y12907D02*
Y13407D01*
X22883Y18516D02*
X23317D01*
X23100Y18300D02*
Y18733D01*
X22795Y15564D02*
X23385D01*
X23090Y15268D02*
Y15859D01*
X20440Y18979D02*
X20560D01*
X20500Y18919D02*
Y19039D01*
X18660Y18980D02*
X18780D01*
X18720Y18920D02*
Y19040D01*
X19000Y10620D02*
X19120D01*
X19060Y10560D02*
Y10680D01*
X20900Y17090D02*
X21020D01*
X20960Y17030D02*
Y17150D01*
X21220Y20940D02*
X21340D01*
X21280Y20880D02*
Y21000D01*
X17385Y19039D02*
X17505D01*
X17445Y18979D02*
Y19099D01*
X13860Y19030D02*
X13980D01*
X13920Y18970D02*
Y19090D01*
X4920Y14815D02*
X5040D01*
X4980Y14755D02*
Y14875D01*
X8020Y4890D02*
X8140D01*
X8080Y4830D02*
Y4950D01*
X25740Y14620D02*
X25860D01*
X25800Y14560D02*
Y14680D01*
X28699Y12130D02*
X28819D01*
X28759Y12070D02*
Y12190D01*
X28699Y15165D02*
X28819D01*
X28759Y15105D02*
Y15225D01*
X24640Y16290D02*
X24760D01*
X24700Y16230D02*
Y16350D01*
X28699Y13130D02*
X28819D01*
X28759Y13070D02*
Y13190D01*
X24460Y15510D02*
X24580D01*
X24520Y15450D02*
Y15570D01*
X28699Y14130D02*
X28819D01*
X28759Y14070D02*
Y14190D01*
X22340Y14500D02*
X22460D01*
X22400Y14440D02*
Y14560D01*
X10640Y6091D02*
X10760D01*
X10700Y6031D02*
Y6151D01*
X11690Y6091D02*
X11810D01*
X11750Y6031D02*
Y6151D01*
X20210Y13220D02*
X20330D01*
X20270Y13160D02*
Y13280D01*
X19910Y13220D02*
X20030D01*
X19970Y13160D02*
Y13280D01*
X3160Y6890D02*
X3280D01*
X3220Y6830D02*
Y6950D01*
X5476Y8451D02*
X5596D01*
X5536Y8391D02*
Y8511D01*
X5570Y8990D02*
X5690D01*
X5630Y8930D02*
Y9050D01*
X9790Y8760D02*
X9910D01*
X9850Y8700D02*
Y8820D01*
X19570Y13220D02*
X19690D01*
X19630Y13160D02*
Y13280D01*
X910Y7230D02*
X1030D01*
X970Y7170D02*
Y7290D01*
X7880Y3730D02*
X8000D01*
X7940Y3670D02*
Y3790D01*
X22570Y15710D02*
X22690D01*
X22630Y15650D02*
Y15770D01*
X28699Y16200D02*
X28819D01*
X28759Y16140D02*
Y16260D01*
X21930Y15340D02*
X22050D01*
X21990Y15280D02*
Y15400D01*
X22340Y15340D02*
X22460D01*
X22400Y15280D02*
Y15400D01*
X22340Y14920D02*
X22460D01*
X22400Y14860D02*
Y14980D01*
X21930Y14920D02*
X22050D01*
X21990Y14860D02*
Y14980D01*
X21930Y14500D02*
X22050D01*
X21990Y14440D02*
Y14560D01*
X19270Y13225D02*
X19390D01*
X19330Y13165D02*
Y13285D01*
X18970Y13225D02*
X19090D01*
X19030Y13165D02*
Y13285D01*
X18670Y13225D02*
X18790D01*
X18730Y13165D02*
Y13285D01*
X18370Y13225D02*
X18490D01*
X18430Y13165D02*
Y13285D01*
X17770Y13835D02*
X17890D01*
X17830Y13775D02*
Y13895D01*
X18070Y13225D02*
X18190D01*
X18130Y13165D02*
Y13285D01*
X17770Y15360D02*
X17890D01*
X17830Y15300D02*
Y15420D01*
X17770Y15055D02*
X17890D01*
X17830Y14995D02*
Y15115D01*
X17770Y13225D02*
X17890D01*
X17830Y13165D02*
Y13285D01*
X17770Y13530D02*
X17890D01*
X17830Y13470D02*
Y13590D01*
X18490Y15050D02*
X18610D01*
X18550Y14990D02*
Y15110D01*
X18480Y15360D02*
X18600D01*
X18540Y15300D02*
Y15420D01*
X18480Y15660D02*
X18600D01*
X18540Y15600D02*
Y15720D01*
X18480Y15960D02*
X18600D01*
X18540Y15900D02*
Y16020D01*
X19270Y15070D02*
X19390D01*
X19330Y15010D02*
Y15130D01*
X19270Y15370D02*
X19390D01*
X19330Y15310D02*
Y15430D01*
X19280Y15670D02*
X19400D01*
X19340Y15610D02*
Y15730D01*
X19280Y15970D02*
X19400D01*
X19340Y15910D02*
Y16030D01*
X19120Y11660D02*
X19240D01*
X19180Y11600D02*
Y11720D01*
X18820Y11650D02*
X18940D01*
X18880Y11590D02*
Y11710D01*
X17770Y14140D02*
X17890D01*
X17830Y14080D02*
Y14200D01*
X17770Y14445D02*
X17890D01*
X17830Y14385D02*
Y14505D01*
X17770Y14750D02*
X17890D01*
X17830Y14690D02*
Y14810D01*
X24600Y20221D02*
X24720D01*
X24660Y20161D02*
Y20281D01*
X24810Y20791D02*
X24930D01*
X24870Y20731D02*
Y20851D01*
X24810Y21457D02*
X24930D01*
X24870Y21397D02*
Y21517D01*
X23940Y20801D02*
X24060D01*
X24000Y20741D02*
Y20861D01*
X23956Y21481D02*
X24076D01*
X24016Y21421D02*
Y21541D01*
X3710Y3771D02*
X3830D01*
X3770Y3711D02*
Y3831D01*
X5290Y4435D02*
X5410D01*
X5350Y4375D02*
Y4495D01*
X8860Y4141D02*
X8980D01*
X8920Y4081D02*
Y4201D01*
X2860Y7631D02*
X2980D01*
X2920Y7571D02*
Y7691D01*
X4410Y11335D02*
X4530D01*
X4470Y11275D02*
Y11395D01*
X4210Y7631D02*
X4330D01*
X4270Y7571D02*
Y7691D01*
X9790Y10841D02*
X9910D01*
X9850Y10781D02*
Y10901D01*
X9770Y11334D02*
X9890D01*
X9830Y11274D02*
Y11394D01*
X5895Y11336D02*
X6015D01*
X5955Y11276D02*
Y11396D01*
X7985Y11334D02*
X8105D01*
X8045Y11274D02*
Y11394D01*
X7985Y12491D02*
X8105D01*
X8045Y12431D02*
Y12551D01*
X8390Y13941D02*
X8510D01*
X8450Y13881D02*
Y14001D01*
X6740Y14091D02*
X6860D01*
X6800Y14031D02*
Y14151D01*
X5490Y13941D02*
X5610D01*
X5550Y13881D02*
Y14001D01*
X5895Y12636D02*
X6015D01*
X5955Y12576D02*
Y12696D01*
X5465Y14814D02*
X5585D01*
X5525Y14754D02*
Y14874D01*
X7690Y17601D02*
X7810D01*
X7750Y17541D02*
Y17661D01*
X6965Y17601D02*
X7085D01*
X7025Y17541D02*
Y17661D01*
X6240Y17601D02*
X6360D01*
X6300Y17541D02*
Y17661D01*
X9010Y17091D02*
X9130D01*
X9070Y17031D02*
Y17151D01*
X9010Y17706D02*
X9130D01*
X9070Y17646D02*
Y17766D01*
X9010Y18321D02*
X9130D01*
X9070Y18261D02*
Y18381D01*
X10285Y21346D02*
X10405D01*
X10345Y21286D02*
Y21406D01*
X6140Y20921D02*
X6260D01*
X6200Y20861D02*
Y20981D01*
X5690Y20921D02*
X5810D01*
X5750Y20861D02*
Y20981D01*
X5690Y21391D02*
X5810D01*
X5750Y21331D02*
Y21451D01*
X32159Y4221D02*
X32279D01*
X32219Y4161D02*
Y4281D01*
X31339Y4221D02*
X31459D01*
X31399Y4161D02*
Y4281D01*
X20430Y19621D02*
X20550D01*
X20490Y19561D02*
Y19681D01*
X20430Y20421D02*
X20550D01*
X20490Y20361D02*
Y20481D01*
X19810Y20711D02*
X19930D01*
X19870Y20651D02*
Y20771D01*
X18900Y20551D02*
X19020D01*
X18960Y20491D02*
Y20611D01*
X18680Y19841D02*
X18800D01*
X18740Y19781D02*
Y19901D01*
X17090Y19781D02*
X17210D01*
X17150Y19721D02*
Y19841D01*
X17090Y21201D02*
X17210D01*
X17150Y21141D02*
Y21261D01*
X15350Y21531D02*
X15470D01*
X15410Y21471D02*
Y21591D01*
X14230Y21241D02*
X14350D01*
X14290Y21181D02*
Y21301D01*
X14230Y19831D02*
X14350D01*
X14290Y19771D02*
Y19891D01*
X20885Y11006D02*
X21005D01*
X20945Y10946D02*
Y11066D01*
X17645Y18034D02*
X17765D01*
X17705Y17974D02*
Y18094D01*
X14361Y14040D02*
X14481D01*
X14421Y13980D02*
Y14100D01*
X13551Y14040D02*
X13671D01*
X13611Y13980D02*
Y14100D01*
X27390Y16201D02*
X27510D01*
X27450Y16141D02*
Y16261D01*
X28360Y11555D02*
X28480D01*
X28420Y11495D02*
Y11615D01*
X27390Y11131D02*
X27510D01*
X27450Y11071D02*
Y11191D01*
X23330Y9940D02*
X23450D01*
X23390Y9880D02*
Y10000D01*
X23310Y9110D02*
X23430D01*
X23370Y9050D02*
Y9170D01*
X25170Y9050D02*
X25290D01*
X25230Y8990D02*
Y9110D01*
X25270Y8520D02*
X25390D01*
X25330Y8460D02*
Y8580D01*
X23450Y10470D02*
X23570D01*
X23510Y10410D02*
Y10530D01*
X18850Y17481D02*
X18970D01*
X18910Y17421D02*
Y17541D01*
X21730Y18460D02*
X21850D01*
X21790Y18400D02*
Y18520D01*
X17100Y18035D02*
X17220D01*
X17160Y17975D02*
Y18095D01*
X23040Y12161D02*
X23160D01*
X23100Y12101D02*
Y12221D01*
X23340Y12161D02*
X23460D01*
X23400Y12101D02*
Y12221D01*
X23749Y12161D02*
X23869D01*
X23809Y12101D02*
Y12221D01*
X12690Y6046D02*
X12810D01*
X12750Y5986D02*
Y6106D01*
X20610Y10200D02*
X20730D01*
X20670Y10140D02*
Y10260D01*
X18010Y10797D02*
X18130D01*
X18070Y10737D02*
Y10857D01*
X4610Y24800D02*
X4730D01*
X4670Y24740D02*
Y24860D01*
X8730Y24800D02*
X8850D01*
X8790Y24740D02*
Y24860D01*
X12940Y24441D02*
X13060D01*
X13000Y24381D02*
Y24501D01*
X16050Y23400D02*
X16170D01*
X16110Y23340D02*
Y23460D01*
X12890Y23100D02*
X13010D01*
X12950Y23040D02*
Y23160D01*
X11540Y23801D02*
X11660D01*
X11600Y23741D02*
Y23861D01*
X20170Y23600D02*
X20290D01*
X20230Y23540D02*
Y23660D01*
X17290Y25062D02*
X17410D01*
X17350Y25002D02*
Y25122D01*
X14140Y24881D02*
X14260D01*
X14200Y24821D02*
Y24941D01*
X21290Y25000D02*
X21410D01*
X21350Y24940D02*
Y25060D01*
X22970Y23000D02*
X23090D01*
X23030Y22940D02*
Y23060D01*
X26770Y24600D02*
X26890D01*
X26830Y24540D02*
Y24660D01*
X29650Y22700D02*
X29770D01*
X29710Y22640D02*
Y22760D01*
X31850Y23500D02*
X31970D01*
X31910Y23440D02*
Y23560D01*
X28730Y25200D02*
X28850D01*
X28790Y25140D02*
Y25260D01*
X24410Y24900D02*
X24530D01*
X24470Y24840D02*
Y24960D01*
X22490Y26400D02*
X22610D01*
X22550Y26340D02*
Y26460D01*
X14890Y17800D02*
X15010D01*
X14950Y17740D02*
Y17860D01*
X13540Y18441D02*
X13660D01*
X13600Y18381D02*
Y18501D01*
X13940Y17361D02*
X14060D01*
X14000Y17301D02*
Y17421D01*
X16290Y12000D02*
X16410D01*
X16350Y11940D02*
Y12060D01*
X15290Y10900D02*
X15410D01*
X15350Y10840D02*
Y10960D01*
X16090Y10800D02*
X16210D01*
X16150Y10740D02*
Y10860D01*
X21330Y9100D02*
X21450D01*
X21390Y9040D02*
Y9160D01*
X19740Y9281D02*
X19860D01*
X19800Y9221D02*
Y9341D01*
X22340Y8361D02*
X22460D01*
X22400Y8301D02*
Y8421D01*
X22090Y9705D02*
X22210D01*
X22150Y9645D02*
Y9765D01*
X31440Y8641D02*
X31560D01*
X31500Y8581D02*
Y8701D01*
X30930Y7200D02*
X31050D01*
X30990Y7140D02*
Y7260D01*
X30610Y8625D02*
X30730D01*
X30670Y8565D02*
Y8684D01*
X28330Y8332D02*
X28450D01*
X28390Y8272D02*
Y8392D01*
X29240Y8721D02*
X29360D01*
X29300Y8661D02*
Y8781D01*
X28440Y7441D02*
X28560D01*
X28500Y7381D02*
Y7501D01*
X28840Y7961D02*
X28960D01*
X28900Y7901D02*
Y8021D01*
X10170Y16200D02*
X10290D01*
X10230Y16140D02*
Y16260D01*
X9410Y15000D02*
X9530D01*
X9470Y14940D02*
Y15060D01*
X10210Y13600D02*
X10330D01*
X10270Y13540D02*
Y13660D01*
X8690Y15711D02*
X8810D01*
X8750Y15651D02*
Y15771D01*
X7740Y10841D02*
X7860D01*
X7800Y10781D02*
Y10901D01*
X3810Y2800D02*
X3930D01*
X3870Y2740D02*
Y2860D01*
X7490Y2100D02*
X7610D01*
X7550Y2040D02*
Y2160D01*
X12970Y1800D02*
X13090D01*
X13030Y1740D02*
Y1860D01*
X16240Y2041D02*
X16360D01*
X16300Y1981D02*
Y2101D01*
X11010Y2700D02*
X11130D01*
X11070Y2640D02*
Y2760D01*
X21170Y2900D02*
X21290D01*
X21230Y2840D02*
Y2960D01*
X18940Y2961D02*
X19060D01*
X19000Y2901D02*
Y3021D01*
X25690Y2800D02*
X25810D01*
X25750Y2740D02*
Y2860D01*
X31640Y3561D02*
X31760D01*
X31700Y3501D02*
Y3621D01*
X29410Y3000D02*
X29530D01*
X29470Y2940D02*
Y3060D01*
X32490Y20600D02*
X32610D01*
X32550Y20540D02*
Y20660D01*
X32020Y16401D02*
X32140D01*
X32080Y16341D02*
Y16461D01*
M02*
