G04 Layer_Color=128*
%FSLAX24Y24*%
%MOIN*%
G70*
G01*
G75*
%ADD108C,0.0020*%
D108*
X591Y1181D02*
X1772D01*
X1181Y591D02*
Y1772D01*
X37598Y1181D02*
X38780D01*
X38189Y591D02*
Y1772D01*
X37598Y38189D02*
X38780D01*
X38189Y37598D02*
Y38780D01*
X591Y38189D02*
X1772D01*
X1181Y37598D02*
Y38780D01*
X975Y4200D02*
X1325D01*
X1150Y4025D02*
Y4375D01*
X975Y6200D02*
X1325D01*
X1150Y6025D02*
Y6375D01*
X975Y3200D02*
X1325D01*
X1150Y3025D02*
Y3375D01*
X975Y5200D02*
X1325D01*
X1150Y5025D02*
Y5375D01*
X1155Y34930D02*
X1505D01*
X1330Y34755D02*
Y35105D01*
X1155Y32930D02*
X1505D01*
X1330Y32755D02*
Y33105D01*
X1155Y35930D02*
X1505D01*
X1330Y35755D02*
Y36105D01*
X1155Y33930D02*
X1505D01*
X1330Y33755D02*
Y34105D01*
X2521Y34930D02*
X2871D01*
X2696Y34755D02*
Y35105D01*
X2521Y32930D02*
X2871D01*
X2696Y32755D02*
Y33105D01*
X2521Y35930D02*
X2871D01*
X2696Y35755D02*
Y36105D01*
X2521Y33930D02*
X2871D01*
X2696Y33755D02*
Y34105D01*
X1159Y30380D02*
X1509D01*
X1334Y30205D02*
Y30555D01*
X1159Y28380D02*
X1509D01*
X1334Y28205D02*
Y28555D01*
X1159Y31380D02*
X1509D01*
X1334Y31205D02*
Y31555D01*
X1159Y29380D02*
X1509D01*
X1334Y29205D02*
Y29555D01*
X2521Y30380D02*
X2871D01*
X2696Y30205D02*
Y30555D01*
X2521Y28380D02*
X2871D01*
X2696Y28205D02*
Y28555D01*
X2521Y31380D02*
X2871D01*
X2696Y31205D02*
Y31555D01*
X2521Y29380D02*
X2871D01*
X2696Y29205D02*
Y29555D01*
X7370Y35900D02*
X7690D01*
X7530Y35740D02*
Y36060D01*
X8370Y35900D02*
X8690D01*
X8530Y35740D02*
Y36060D01*
X8345Y38190D02*
X8695D01*
X8520Y38015D02*
Y38365D01*
X10345Y38190D02*
X10695D01*
X10520Y38015D02*
Y38365D01*
X7345Y38190D02*
X7695D01*
X7520Y38015D02*
Y38365D01*
X9345Y38190D02*
X9695D01*
X9520Y38015D02*
Y38365D01*
X8345Y37190D02*
X8695D01*
X8520Y37015D02*
Y37365D01*
X10345Y37190D02*
X10695D01*
X10520Y37015D02*
Y37365D01*
X7345Y37190D02*
X7695D01*
X7520Y37015D02*
Y37365D01*
X9345Y37190D02*
X9695D01*
X9520Y37015D02*
Y37365D01*
X2385Y26409D02*
X2818D01*
X2602Y26192D02*
Y26625D01*
X2385Y24440D02*
X2818D01*
X2602Y24223D02*
Y24657D01*
X2385Y21670D02*
X2818D01*
X2602Y21453D02*
Y21887D01*
X2385Y19701D02*
X2818D01*
X2602Y19485D02*
Y19918D01*
X8130Y19010D02*
X8450D01*
X8290Y18850D02*
Y19170D01*
X8130Y20010D02*
X8450D01*
X8290Y19850D02*
Y20170D01*
X9280Y19020D02*
X9600D01*
X9440Y18860D02*
Y19180D01*
X9280Y20020D02*
X9600D01*
X9440Y19860D02*
Y20180D01*
X9265Y23530D02*
X9615D01*
X9440Y23355D02*
Y23705D01*
X9265Y24530D02*
X9615D01*
X9440Y24355D02*
Y24705D01*
X9265Y25530D02*
X9615D01*
X9440Y25355D02*
Y25705D01*
X8115Y23530D02*
X8465D01*
X8290Y23355D02*
Y23705D01*
X8115Y24530D02*
X8465D01*
X8290Y24355D02*
Y24705D01*
X8115Y25530D02*
X8465D01*
X8290Y25355D02*
Y25705D01*
X2331Y10130D02*
X2681D01*
X2506Y9955D02*
Y10305D01*
X2331Y9130D02*
X2681D01*
X2506Y8955D02*
Y9305D01*
X2331Y8130D02*
X2681D01*
X2506Y7955D02*
Y8305D01*
X969Y10130D02*
X1319D01*
X1144Y9955D02*
Y10305D01*
X969Y9130D02*
X1319D01*
X1144Y8955D02*
Y9305D01*
X969Y8130D02*
X1319D01*
X1144Y7955D02*
Y8305D01*
X5217Y1516D02*
X5414D01*
X5315Y1418D02*
Y1615D01*
X3642Y1516D02*
X3839D01*
X3740Y1418D02*
Y1615D01*
X3337Y670D02*
X3494D01*
X3416Y591D02*
Y749D01*
X5561Y670D02*
X5719D01*
X5640Y591D02*
Y749D01*
X11631Y1516D02*
X11828D01*
X11730Y1418D02*
Y1615D01*
X10056Y1516D02*
X10253D01*
X10155Y1418D02*
Y1615D01*
X9751Y670D02*
X9909D01*
X9830Y591D02*
Y749D01*
X11976Y670D02*
X12133D01*
X12054Y591D02*
Y749D01*
X8530Y3290D02*
X8830D01*
X8680Y3140D02*
Y3440D01*
X8530Y5290D02*
X8830D01*
X8680Y5140D02*
Y5440D01*
X10180Y4270D02*
X10500D01*
X10340Y4110D02*
Y4430D01*
X11180Y4270D02*
X11500D01*
X11340Y4110D02*
Y4430D01*
X10180Y3110D02*
X10500D01*
X10340Y2950D02*
Y3270D01*
X11180Y3110D02*
X11500D01*
X11340Y2950D02*
Y3270D01*
X17415Y5191D02*
X17765D01*
X17590Y5016D02*
Y5366D01*
X18506Y5191D02*
X18856D01*
X18681Y5016D02*
Y5366D01*
X19598Y5191D02*
X19948D01*
X19773Y5016D02*
Y5366D01*
X20690Y5191D02*
X21040D01*
X20865Y5016D02*
Y5366D01*
X21781Y5191D02*
X22131D01*
X21956Y5016D02*
Y5366D01*
X17965Y4074D02*
X18315D01*
X18140Y3899D02*
Y4249D01*
X19056Y4074D02*
X19406D01*
X19231Y3899D02*
Y4249D01*
X20148Y4074D02*
X20498D01*
X20323Y3899D02*
Y4249D01*
X21240Y4074D02*
X21590D01*
X21415Y3899D02*
Y4249D01*
X24106Y4632D02*
X25290D01*
X24698Y4041D02*
Y5224D01*
X14265Y4632D02*
X15448D01*
X14856Y4041D02*
Y5224D01*
X16420Y7100D02*
X16740D01*
X16580Y6940D02*
Y7260D01*
X16420Y8100D02*
X16740D01*
X16580Y7940D02*
Y8260D01*
X27243Y12120D02*
X27557D01*
X27400Y11963D02*
Y12277D01*
X27243Y13120D02*
X27557D01*
X27400Y12963D02*
Y13277D01*
X26243Y12120D02*
X26557D01*
X26400Y11963D02*
Y12277D01*
X26243Y13120D02*
X26557D01*
X26400Y12963D02*
Y13277D01*
X25243Y12120D02*
X25557D01*
X25400Y11963D02*
Y12277D01*
X25243Y13120D02*
X25557D01*
X25400Y12963D02*
Y13277D01*
X24243Y12120D02*
X24557D01*
X24400Y11963D02*
Y12277D01*
X24243Y13120D02*
X24557D01*
X24400Y12963D02*
Y13277D01*
X23243Y12120D02*
X23557D01*
X23400Y11963D02*
Y12277D01*
X23243Y13120D02*
X23557D01*
X23400Y12963D02*
Y13277D01*
X22243Y12120D02*
X22557D01*
X22400Y11963D02*
Y12277D01*
X22243Y13120D02*
X22557D01*
X22400Y12963D02*
Y13277D01*
X21243Y12120D02*
X21557D01*
X21400Y11963D02*
Y12277D01*
X21243Y13120D02*
X21557D01*
X21400Y12963D02*
Y13277D01*
X20243Y12120D02*
X20557D01*
X20400Y11963D02*
Y12277D01*
X20243Y13120D02*
X20557D01*
X20400Y12963D02*
Y13277D01*
X19243Y12120D02*
X19557D01*
X19400Y11963D02*
Y12277D01*
X19243Y13120D02*
X19557D01*
X19400Y12963D02*
Y13277D01*
X18243Y12120D02*
X18557D01*
X18400Y11963D02*
Y12277D01*
X18243Y13120D02*
X18557D01*
X18400Y12963D02*
Y13277D01*
X17243Y12120D02*
X17557D01*
X17400Y11963D02*
Y12277D01*
X17243Y13120D02*
X17557D01*
X17400Y12963D02*
Y13277D01*
X16243Y12120D02*
X16557D01*
X16400Y11963D02*
Y12277D01*
X16243Y13120D02*
X16557D01*
X16400Y12963D02*
Y13277D01*
X15243Y12120D02*
X15557D01*
X15400Y11963D02*
Y12277D01*
X15243Y13120D02*
X15557D01*
X15400Y12963D02*
Y13277D01*
X14243Y12120D02*
X14557D01*
X14400Y11963D02*
Y12277D01*
X14243Y13120D02*
X14557D01*
X14400Y12963D02*
Y13277D01*
X13243Y12120D02*
X13557D01*
X13400Y11963D02*
Y12277D01*
X13243Y13120D02*
X13557D01*
X13400Y12963D02*
Y13277D01*
X12243Y12120D02*
X12557D01*
X12400Y11963D02*
Y12277D01*
X12243Y13120D02*
X12557D01*
X12400Y12963D02*
Y13277D01*
X34247Y8980D02*
X34593D01*
X34420Y8807D02*
Y9153D01*
X32247Y8980D02*
X32593D01*
X32420Y8807D02*
Y9153D01*
X34247Y11480D02*
X34593D01*
X34420Y11307D02*
Y11653D01*
X32247Y11480D02*
X32593D01*
X32420Y11307D02*
Y11653D01*
X38092Y4630D02*
X38438D01*
X38265Y4457D02*
Y4803D01*
X36092Y4630D02*
X36438D01*
X36265Y4457D02*
Y4803D01*
X38092Y7130D02*
X38438D01*
X38265Y6957D02*
Y7303D01*
X36092Y7130D02*
X36438D01*
X36265Y6957D02*
Y7303D01*
X38092Y8980D02*
X38438D01*
X38265Y8807D02*
Y9153D01*
X36092Y8980D02*
X36438D01*
X36265Y8807D02*
Y9153D01*
X38092Y11480D02*
X38438D01*
X38265Y11307D02*
Y11653D01*
X36092Y11480D02*
X36438D01*
X36265Y11307D02*
Y11653D01*
X34247Y4630D02*
X34593D01*
X34420Y4457D02*
Y4803D01*
X32247Y4630D02*
X32593D01*
X32420Y4457D02*
Y4803D01*
X34247Y7130D02*
X34593D01*
X34420Y6957D02*
Y7303D01*
X32247Y7130D02*
X32593D01*
X32420Y6957D02*
Y7303D01*
X30480Y16710D02*
X30800D01*
X30640Y16550D02*
Y16870D01*
X30480Y17710D02*
X30800D01*
X30640Y17550D02*
Y17870D01*
X30490Y14110D02*
X30810D01*
X30650Y13950D02*
Y14270D01*
X30490Y15110D02*
X30810D01*
X30650Y14950D02*
Y15270D01*
X30465Y23850D02*
X30815D01*
X30640Y23675D02*
Y24025D01*
X30465Y21850D02*
X30815D01*
X30640Y21675D02*
Y22025D01*
X30465Y24850D02*
X30815D01*
X30640Y24675D02*
Y25025D01*
X30465Y22850D02*
X30815D01*
X30640Y22675D02*
Y23025D01*
X33100Y29660D02*
X33420D01*
X33260Y29500D02*
Y29820D01*
X32100Y29660D02*
X32420D01*
X32260Y29500D02*
Y29820D01*
X36680Y29852D02*
X37000D01*
X36840Y29692D02*
Y30012D01*
X36680Y26860D02*
X37000D01*
X36840Y26700D02*
Y27020D01*
X38065Y33370D02*
X38415D01*
X38240Y33195D02*
Y33545D01*
X38065Y32370D02*
X38415D01*
X38240Y32195D02*
Y32545D01*
X38065Y31370D02*
X38415D01*
X38240Y31195D02*
Y31545D01*
X38065Y36520D02*
X38415D01*
X38240Y36345D02*
Y36695D01*
X38065Y35520D02*
X38415D01*
X38240Y35345D02*
Y35695D01*
X38065Y34520D02*
X38415D01*
X38240Y34345D02*
Y34695D01*
X30941Y35620D02*
X31413D01*
X31177Y35384D02*
Y35856D01*
X33933Y35620D02*
X34287D01*
X34110Y35443D02*
Y35797D01*
X21673Y37700D02*
X22067D01*
X21870Y37503D02*
Y37897D01*
X20673Y37700D02*
X21067D01*
X20870Y37503D02*
Y37897D01*
X19673Y37700D02*
X20067D01*
X19870Y37503D02*
Y37897D01*
X18673Y37700D02*
X19067D01*
X18870Y37503D02*
Y37897D01*
X17673Y37700D02*
X18067D01*
X17870Y37503D02*
Y37897D01*
X16673Y37700D02*
X17067D01*
X16870Y37503D02*
Y37897D01*
X16673Y33700D02*
X17067D01*
X16870Y33503D02*
Y33897D01*
X17673Y33700D02*
X18067D01*
X17870Y33503D02*
Y33897D01*
X18673Y33700D02*
X19067D01*
X18870Y33503D02*
Y33897D01*
X19673Y33700D02*
X20067D01*
X19870Y33503D02*
Y33897D01*
X20673Y33700D02*
X21067D01*
X20870Y33503D02*
Y33897D01*
X21673Y33700D02*
X22067D01*
X21870Y33503D02*
Y33897D01*
X16905Y27350D02*
X17255D01*
X17080Y27175D02*
Y27525D01*
X15905Y27350D02*
X16255D01*
X16080Y27175D02*
Y27525D01*
X14905Y27350D02*
X15255D01*
X15080Y27175D02*
Y27525D01*
X23285Y27410D02*
X23635D01*
X23460Y27235D02*
Y27585D01*
X22285Y27410D02*
X22635D01*
X22460Y27235D02*
Y27585D01*
X21285Y27410D02*
X21635D01*
X21460Y27235D02*
Y27585D01*
X17540Y25410D02*
X17840D01*
X17690Y25260D02*
Y25560D01*
X19540Y25410D02*
X19840D01*
X19690Y25260D02*
Y25560D01*
X28877Y27120D02*
X29223D01*
X29050Y26947D02*
Y27293D01*
X28877Y26120D02*
X29223D01*
X29050Y25947D02*
Y26293D01*
X28877Y25120D02*
X29223D01*
X29050Y24947D02*
Y25293D01*
X28877Y24120D02*
X29223D01*
X29050Y23947D02*
Y24293D01*
X28877Y23120D02*
X29223D01*
X29050Y22947D02*
Y23293D01*
X28877Y22120D02*
X29223D01*
X29050Y21947D02*
Y22293D01*
X28877Y21120D02*
X29223D01*
X29050Y20947D02*
Y21293D01*
X28877Y20120D02*
X29223D01*
X29050Y19947D02*
Y20293D01*
X28877Y13120D02*
X29223D01*
X29050Y12947D02*
Y13293D01*
X28877Y17120D02*
X29223D01*
X29050Y16947D02*
Y17293D01*
X28877Y15120D02*
X29223D01*
X29050Y14947D02*
Y15293D01*
X28877Y16120D02*
X29223D01*
X29050Y15947D02*
Y16293D01*
X28877Y12120D02*
X29223D01*
X29050Y11947D02*
Y12293D01*
X28877Y14120D02*
X29223D01*
X29050Y13947D02*
Y14293D01*
X28877Y18120D02*
X29223D01*
X29050Y17947D02*
Y18293D01*
X28877Y19120D02*
X29223D01*
X29050Y18947D02*
Y19293D01*
X2331Y17010D02*
X2681D01*
X2506Y16835D02*
Y17185D01*
X2331Y16010D02*
X2681D01*
X2506Y15835D02*
Y16185D01*
X2331Y15010D02*
X2681D01*
X2506Y14835D02*
Y15185D01*
X969Y17010D02*
X1319D01*
X1144Y16835D02*
Y17185D01*
X969Y16010D02*
X1319D01*
X1144Y15835D02*
Y16185D01*
X969Y15010D02*
X1319D01*
X1144Y14835D02*
Y15185D01*
X10607Y27120D02*
X10953D01*
X10780Y26947D02*
Y27293D01*
X10607Y26120D02*
X10953D01*
X10780Y25947D02*
Y26293D01*
X10607Y25120D02*
X10953D01*
X10780Y24947D02*
Y25293D01*
X10607Y24120D02*
X10953D01*
X10780Y23947D02*
Y24293D01*
X10607Y23120D02*
X10953D01*
X10780Y22947D02*
Y23293D01*
X10607Y22120D02*
X10953D01*
X10780Y21947D02*
Y22293D01*
X10607Y21120D02*
X10953D01*
X10780Y20947D02*
Y21293D01*
X10607Y20120D02*
X10953D01*
X10780Y19947D02*
Y20293D01*
X10607Y13120D02*
X10953D01*
X10780Y12947D02*
Y13293D01*
X10607Y17120D02*
X10953D01*
X10780Y16947D02*
Y17293D01*
X10607Y15120D02*
X10953D01*
X10780Y14947D02*
Y15293D01*
X10607Y16120D02*
X10953D01*
X10780Y15947D02*
Y16293D01*
X10607Y12120D02*
X10953D01*
X10780Y11947D02*
Y12293D01*
X10607Y14120D02*
X10953D01*
X10780Y13947D02*
Y14293D01*
X10607Y18120D02*
X10953D01*
X10780Y17947D02*
Y18293D01*
X10607Y19120D02*
X10953D01*
X10780Y18947D02*
Y19293D01*
X3227Y13552D02*
X3620D01*
X3424Y13355D02*
Y13749D01*
X3227Y11584D02*
X3620D01*
X3424Y11387D02*
Y11781D01*
X820Y11588D02*
X1213D01*
X1016Y11391D02*
Y11785D01*
X820Y12572D02*
X1213D01*
X1016Y12375D02*
Y12769D01*
X820Y13556D02*
X1213D01*
X1016Y13359D02*
Y13753D01*
X3227Y12568D02*
X3620D01*
X3424Y12371D02*
Y12764D01*
X36279Y14700D02*
X36601D01*
X36440Y14539D02*
Y14861D01*
X37279Y14700D02*
X37601D01*
X37440Y14539D02*
Y14861D01*
X37279Y15700D02*
X37601D01*
X37440Y15539D02*
Y15861D01*
X36279Y15700D02*
X36601D01*
X36440Y15539D02*
Y15861D01*
X37279Y16700D02*
X37601D01*
X37440Y16539D02*
Y16861D01*
X36279Y16700D02*
X36601D01*
X36440Y16539D02*
Y16861D01*
X37279Y17700D02*
X37601D01*
X37440Y17539D02*
Y17861D01*
X36279Y17700D02*
X36601D01*
X36440Y17539D02*
Y17861D01*
X37279Y18700D02*
X37601D01*
X37440Y18539D02*
Y18861D01*
X36279Y18700D02*
X36601D01*
X36440Y18539D02*
Y18861D01*
X37279Y19700D02*
X37601D01*
X37440Y19539D02*
Y19861D01*
X36279Y19700D02*
X36601D01*
X36440Y19539D02*
Y19861D01*
X37279Y20700D02*
X37601D01*
X37440Y20539D02*
Y20861D01*
X36279Y20700D02*
X36601D01*
X36440Y20539D02*
Y20861D01*
X37279Y21700D02*
X37601D01*
X37440Y21539D02*
Y21861D01*
X36279Y21700D02*
X36601D01*
X36440Y21539D02*
Y21861D01*
X37279Y22700D02*
X37601D01*
X37440Y22539D02*
Y22861D01*
X36279Y22700D02*
X36601D01*
X36440Y22539D02*
Y22861D01*
X37279Y23700D02*
X37601D01*
X37440Y23539D02*
Y23861D01*
X36279Y23700D02*
X36601D01*
X36440Y23539D02*
Y23861D01*
X20860Y21560D02*
X20980D01*
X20920Y21500D02*
Y21620D01*
X1920Y5920D02*
X2040D01*
X1980Y5860D02*
Y5980D01*
X1920Y6200D02*
X2040D01*
X1980Y6140D02*
Y6260D01*
X11570Y2430D02*
X11690D01*
X11630Y2370D02*
Y2490D01*
X12020Y2430D02*
X12140D01*
X12080Y2370D02*
Y2490D01*
X5920Y2540D02*
X6040D01*
X5980Y2480D02*
Y2600D01*
X5050Y2560D02*
X5170D01*
X5110Y2500D02*
Y2620D01*
X5550Y2560D02*
X5670D01*
X5610Y2500D02*
Y2620D01*
X2120Y3460D02*
X2240D01*
X2180Y3400D02*
Y3520D01*
X23520Y22000D02*
X23640D01*
X23580Y21940D02*
Y22060D01*
X21410Y22930D02*
X21530D01*
X21470Y22870D02*
Y22990D01*
X24940Y26340D02*
X25060D01*
X25000Y26280D02*
Y26400D01*
X36620Y36320D02*
X36740D01*
X36680Y36260D02*
Y36380D01*
X36250Y36320D02*
X36370D01*
X36310Y36260D02*
Y36380D01*
X35760Y36320D02*
X35880D01*
X35820Y36260D02*
Y36380D01*
X38050Y17690D02*
X38170D01*
X38110Y17630D02*
Y17750D01*
X35560Y17000D02*
X35680D01*
X35620Y16940D02*
Y17060D01*
X31660Y19640D02*
X31780D01*
X31720Y19580D02*
Y19700D01*
X36030Y34830D02*
X36150D01*
X36090Y34770D02*
Y34890D01*
X35210Y31730D02*
X35330D01*
X35270Y31670D02*
Y31790D01*
X18560Y31040D02*
X18680D01*
X18620Y30980D02*
Y31100D01*
X5080Y21700D02*
X5200D01*
X5140Y21640D02*
Y21760D01*
X18520Y18010D02*
X18640D01*
X18580Y17950D02*
Y18070D01*
X27310Y14050D02*
X27430D01*
X27370Y13990D02*
Y14110D01*
X23660Y18870D02*
X23780D01*
X23720Y18810D02*
Y18930D01*
X22100Y21100D02*
X22220D01*
X22160Y21040D02*
Y21160D01*
X15390Y15050D02*
X15510D01*
X15450Y14990D02*
Y15110D01*
X14640Y15050D02*
X14760D01*
X14700Y14990D02*
Y15110D01*
X19770Y16810D02*
X19890D01*
X19830Y16750D02*
Y16870D01*
X19760Y17190D02*
X19880D01*
X19820Y17130D02*
Y17250D01*
X19760Y17590D02*
X19880D01*
X19820Y17530D02*
Y17650D01*
X13710Y25540D02*
X13830D01*
X13770Y25480D02*
Y25600D01*
X15618Y19580D02*
X15738D01*
X15678Y19520D02*
Y19640D01*
X16570Y19580D02*
X16690D01*
X16630Y19520D02*
Y19640D01*
X6540Y17780D02*
X6660D01*
X6600Y17720D02*
Y17840D01*
X26630Y19450D02*
X26750D01*
X26690Y19390D02*
Y19510D01*
X23870Y17290D02*
X23990D01*
X23930Y17230D02*
Y17350D01*
X19390Y23030D02*
X19510D01*
X19450Y22970D02*
Y23090D01*
X15560Y18150D02*
X15680D01*
X15620Y18090D02*
Y18210D01*
X15618Y20512D02*
X15738D01*
X15678Y20452D02*
Y20572D01*
X31460Y13990D02*
X31580D01*
X31520Y13930D02*
Y14050D01*
X5690Y7220D02*
X5810D01*
X5750Y7160D02*
Y7280D01*
X8430Y12300D02*
X8550D01*
X8490Y12240D02*
Y12360D01*
X4370Y4120D02*
X4490D01*
X4430Y4060D02*
Y4180D01*
X5610Y8810D02*
X5730D01*
X5670Y8750D02*
Y8870D01*
X9874Y2270D02*
X9994D01*
X9934Y2210D02*
Y2330D01*
X10184Y2260D02*
X10304D01*
X10244Y2200D02*
Y2320D01*
X9864Y1950D02*
X9984D01*
X9924Y1890D02*
Y2010D01*
X23940Y31992D02*
X24060D01*
X24000Y31932D02*
Y32052D01*
X24680Y31960D02*
X24800D01*
X24740Y31900D02*
Y32020D01*
X14408Y31972D02*
X14528D01*
X14468Y31912D02*
Y32032D01*
X17908Y31992D02*
X18028D01*
X17968Y31932D02*
Y32052D01*
X23440Y31978D02*
X23560D01*
X23500Y31918D02*
Y32038D01*
X20940Y31992D02*
X21060D01*
X21000Y31932D02*
Y32052D01*
X20440Y31978D02*
X20560D01*
X20500Y31918D02*
Y32038D01*
X21940Y31992D02*
X22060D01*
X22000Y31932D02*
Y32052D01*
X21440Y31978D02*
X21560D01*
X21500Y31918D02*
Y32038D01*
X22940Y31992D02*
X23060D01*
X23000Y31932D02*
Y32052D01*
X22440Y31978D02*
X22560D01*
X22500Y31918D02*
Y32038D01*
X16908Y31978D02*
X17028D01*
X16968Y31918D02*
Y32038D01*
X17408Y31992D02*
X17528D01*
X17468Y31932D02*
Y32052D01*
X13730Y24570D02*
X13850D01*
X13790Y24510D02*
Y24630D01*
X13720Y25120D02*
X13840D01*
X13780Y25060D02*
Y25180D01*
X23460Y23140D02*
X23580D01*
X23520Y23080D02*
Y23200D01*
X26350Y18000D02*
X26470D01*
X26410Y17940D02*
Y18060D01*
X26910Y18010D02*
X27030D01*
X26970Y17950D02*
Y18070D01*
X25870Y18555D02*
X25990D01*
X25930Y18495D02*
Y18615D01*
X25540Y21020D02*
X25660D01*
X25600Y20960D02*
Y21080D01*
X20520Y16190D02*
X20640D01*
X20580Y16130D02*
Y16250D01*
X20320Y16810D02*
X20440D01*
X20380Y16750D02*
Y16870D01*
X27370Y17980D02*
X27490D01*
X27430Y17920D02*
Y18040D01*
X25870Y18010D02*
X25990D01*
X25930Y17950D02*
Y18070D01*
X25870Y19100D02*
X25990D01*
X25930Y19040D02*
Y19160D01*
X13790Y15050D02*
X13910D01*
X13850Y14990D02*
Y15110D01*
X14215Y15050D02*
X14335D01*
X14275Y14990D02*
Y15110D01*
X15015Y15050D02*
X15135D01*
X15075Y14990D02*
Y15110D01*
X12350Y15051D02*
X12470D01*
X12410Y14991D02*
Y15111D01*
X12731Y15040D02*
X12851D01*
X12791Y14980D02*
Y15100D01*
X18890Y21410D02*
X19010D01*
X18950Y21350D02*
Y21470D01*
X19349Y17590D02*
X19469D01*
X19409Y17530D02*
Y17650D01*
X19349Y18020D02*
X19469D01*
X19409Y17960D02*
Y18080D01*
X19600Y19400D02*
X19720D01*
X19660Y19340D02*
Y19460D01*
X19210Y19400D02*
X19330D01*
X19270Y19340D02*
Y19460D01*
X20483Y19400D02*
X20603D01*
X20543Y19340D02*
Y19460D01*
X20060Y19918D02*
X20180D01*
X20120Y19858D02*
Y19978D01*
X20477Y19918D02*
X20597D01*
X20537Y19858D02*
Y19978D01*
X20477Y20343D02*
X20597D01*
X20537Y20283D02*
Y20403D01*
X20047Y20343D02*
X20167D01*
X20107Y20283D02*
Y20403D01*
X20470Y21110D02*
X20590D01*
X20530Y21050D02*
Y21170D01*
X20883Y21103D02*
X21003D01*
X20943Y21043D02*
Y21163D01*
X4515Y2550D02*
X4635D01*
X4575Y2490D02*
Y2610D01*
X4165Y2550D02*
X4285D01*
X4225Y2490D02*
Y2610D01*
X14908Y28500D02*
X15028D01*
X14968Y28440D02*
Y28560D01*
X15408Y28500D02*
X15528D01*
X15468Y28440D02*
Y28560D01*
X15908Y28500D02*
X16028D01*
X15968Y28440D02*
Y28560D01*
X16408Y28500D02*
X16528D01*
X16468Y28440D02*
Y28560D01*
X16908Y28500D02*
X17028D01*
X16968Y28440D02*
Y28560D01*
X17908Y28500D02*
X18028D01*
X17968Y28440D02*
Y28560D01*
X15398Y29960D02*
X15518D01*
X15458Y29900D02*
Y30020D01*
X21430Y29960D02*
X21550D01*
X21490Y29900D02*
Y30020D01*
X23940Y28500D02*
X24060D01*
X24000Y28440D02*
Y28560D01*
X22940Y28500D02*
X23060D01*
X23000Y28440D02*
Y28560D01*
X22440Y28500D02*
X22560D01*
X22500Y28440D02*
Y28560D01*
X20440Y28500D02*
X20560D01*
X20500Y28440D02*
Y28560D01*
X21940Y28500D02*
X22060D01*
X22000Y28440D02*
Y28560D01*
X21440Y28500D02*
X21560D01*
X21500Y28440D02*
Y28560D01*
X20940Y28500D02*
X21060D01*
X21000Y28440D02*
Y28560D01*
X21880Y16810D02*
X22000D01*
X21940Y16750D02*
Y16870D01*
X19349Y21409D02*
X19469D01*
X19409Y21349D02*
Y21469D01*
X15560Y18950D02*
X15680D01*
X15620Y18890D02*
Y19010D01*
X22720Y22090D02*
X22840D01*
X22780Y22030D02*
Y22150D01*
X23500Y25000D02*
X23620D01*
X23560Y24940D02*
Y25060D01*
X22250Y25980D02*
X22370D01*
X22310Y25920D02*
Y26040D01*
X20930Y25450D02*
X21050D01*
X20990Y25390D02*
Y25510D01*
X20870Y24570D02*
X20990D01*
X20930Y24510D02*
Y24630D01*
X19907Y24767D02*
X20027D01*
X19967Y24707D02*
Y24827D01*
X20290Y25700D02*
X20410D01*
X20350Y25640D02*
Y25760D01*
X18680Y26050D02*
X18800D01*
X18740Y25990D02*
Y26110D01*
X17400Y26030D02*
X17520D01*
X17460Y25970D02*
Y26090D01*
X17040Y24910D02*
X17160D01*
X17100Y24850D02*
Y24970D01*
X17990Y23330D02*
X18110D01*
X18050Y23270D02*
Y23390D01*
X19370Y22660D02*
X19490D01*
X19430Y22600D02*
Y22720D01*
X20260Y23170D02*
X20380D01*
X20320Y23110D02*
Y23230D01*
X12450Y4340D02*
X12570D01*
X12510Y4280D02*
Y4400D01*
X4760Y4135D02*
X4880D01*
X4820Y4075D02*
Y4195D01*
X5140Y4140D02*
X5260D01*
X5200Y4080D02*
Y4200D01*
X3450Y1950D02*
X3570D01*
X3510Y1890D02*
Y2010D01*
X3770Y2260D02*
X3890D01*
X3830Y2200D02*
Y2320D01*
X3460Y2270D02*
X3580D01*
X3520Y2210D02*
Y2330D01*
X9350Y6520D02*
X9470D01*
X9410Y6460D02*
Y6580D01*
X8280Y6620D02*
X8400D01*
X8340Y6560D02*
Y6680D01*
X6830Y3360D02*
X6950D01*
X6890Y3300D02*
Y3420D01*
X6570Y3900D02*
X6690D01*
X6630Y3840D02*
Y3960D01*
X7890Y2950D02*
X8010D01*
X7950Y2890D02*
Y3010D01*
X8760Y2550D02*
X8880D01*
X8820Y2490D02*
Y2610D01*
X9210Y3480D02*
X9330D01*
X9270Y3420D02*
Y3540D01*
X9200Y4440D02*
X9320D01*
X9260Y4380D02*
Y4500D01*
X9220Y5390D02*
X9340D01*
X9280Y5330D02*
Y5450D01*
X8690Y6030D02*
X8810D01*
X8750Y5970D02*
Y6090D01*
X7890Y5730D02*
X8010D01*
X7950Y5670D02*
Y5790D01*
X6310Y4790D02*
X6430D01*
X6370Y4730D02*
Y4850D01*
X5470Y3880D02*
X5590D01*
X5530Y3820D02*
Y3940D01*
X3700Y10160D02*
X3820D01*
X3760Y10100D02*
Y10220D01*
X8130Y9280D02*
X8250D01*
X8190Y9220D02*
Y9340D01*
X7550Y9280D02*
X7670D01*
X7610Y9220D02*
Y9340D01*
X7030Y9280D02*
X7150D01*
X7090Y9220D02*
Y9340D01*
X5570Y10840D02*
X5690D01*
X5630Y10780D02*
Y10900D01*
X4910Y10500D02*
X5030D01*
X4970Y10440D02*
Y10560D01*
X5235Y10840D02*
X5355D01*
X5295Y10780D02*
Y10900D01*
X4900Y10840D02*
X5020D01*
X4960Y10780D02*
Y10900D01*
X5970Y13650D02*
X6090D01*
X6030Y13590D02*
Y13710D01*
X5970Y14170D02*
X6090D01*
X6030Y14110D02*
Y14230D01*
X5530Y14170D02*
X5650D01*
X5590Y14110D02*
Y14230D01*
X5090Y14170D02*
X5210D01*
X5150Y14110D02*
Y14230D01*
X6552Y16418D02*
X6672D01*
X6612Y16358D02*
Y16478D01*
X5820Y16420D02*
X5940D01*
X5880Y16360D02*
Y16480D01*
X4690Y15980D02*
X4810D01*
X4750Y15920D02*
Y16040D01*
X5300Y16420D02*
X5420D01*
X5360Y16360D02*
Y16480D01*
X4720Y16420D02*
X4840D01*
X4780Y16360D02*
Y16480D01*
X8100Y16420D02*
X8220D01*
X8160Y16360D02*
Y16480D01*
X7695Y16420D02*
X7815D01*
X7755Y16360D02*
Y16480D01*
X8110Y15940D02*
X8230D01*
X8170Y15880D02*
Y16000D01*
X7290Y16420D02*
X7410D01*
X7350Y16360D02*
Y16480D01*
X5760Y18360D02*
X5880D01*
X5820Y18300D02*
Y18420D01*
X5470Y24070D02*
X5590D01*
X5530Y24010D02*
Y24130D01*
X4780Y27730D02*
X4900D01*
X4840Y27670D02*
Y27790D01*
X7200Y26170D02*
X7320D01*
X7260Y26110D02*
Y26230D01*
X5370Y29370D02*
X5490D01*
X5430Y29310D02*
Y29430D01*
X6870Y29125D02*
X6990D01*
X6930Y29065D02*
Y29185D01*
X6370Y29125D02*
X6490D01*
X6430Y29065D02*
Y29185D01*
X6870Y31960D02*
X6990D01*
X6930Y31900D02*
Y32020D01*
X6370Y31960D02*
X6490D01*
X6430Y31900D02*
Y32020D01*
X6360Y33370D02*
X6480D01*
X6420Y33310D02*
Y33430D01*
X5470Y33380D02*
X5590D01*
X5530Y33320D02*
Y33440D01*
X3843Y38103D02*
X3963D01*
X3903Y38043D02*
Y38163D01*
X3843Y36783D02*
X3963D01*
X3903Y36723D02*
Y36843D01*
X3843Y35463D02*
X3963D01*
X3903Y35403D02*
Y35523D01*
X3843Y34143D02*
X3963D01*
X3903Y34083D02*
Y34203D01*
X6565Y34143D02*
X6685D01*
X6625Y34083D02*
Y34203D01*
X6565Y35463D02*
X6685D01*
X6625Y35403D02*
Y35523D01*
X6565Y36783D02*
X6685D01*
X6625Y36723D02*
Y36843D01*
X6573Y38103D02*
X6693D01*
X6633Y38043D02*
Y38163D01*
X13210Y34892D02*
X13330D01*
X13270Y34832D02*
Y34952D01*
X13210Y38212D02*
X13330D01*
X13270Y38152D02*
Y38272D01*
X13210Y32502D02*
X13330D01*
X13270Y32442D02*
Y32562D01*
X13210Y35822D02*
X13330D01*
X13270Y35762D02*
Y35882D01*
X25530Y35820D02*
X25650D01*
X25590Y35760D02*
Y35880D01*
X25530Y32500D02*
X25650D01*
X25590Y32440D02*
Y32560D01*
X25530Y38210D02*
X25650D01*
X25590Y38150D02*
Y38270D01*
X25530Y34890D02*
X25650D01*
X25590Y34830D02*
Y34950D01*
X28890Y32700D02*
X29010D01*
X28950Y32640D02*
Y32760D01*
X28450Y32700D02*
X28570D01*
X28510Y32640D02*
Y32760D01*
X28450Y33100D02*
X28570D01*
X28510Y33040D02*
Y33160D01*
X27895Y33907D02*
X28015D01*
X27955Y33847D02*
Y33967D01*
X28220Y33910D02*
X28340D01*
X28280Y33850D02*
Y33970D01*
X28530Y36320D02*
X28650D01*
X28590Y36260D02*
Y36380D01*
X28990Y36320D02*
X29110D01*
X29050Y36260D02*
Y36380D01*
X28990Y36660D02*
X29110D01*
X29050Y36600D02*
Y36720D01*
X28530Y36650D02*
X28650D01*
X28590Y36590D02*
Y36710D01*
X32620Y26496D02*
X32740D01*
X32680Y26436D02*
Y26556D01*
X33294Y25996D02*
X33414D01*
X33354Y25936D02*
Y26056D01*
X32660Y21420D02*
X32780D01*
X32720Y21360D02*
Y21480D01*
X32710Y16150D02*
X32830D01*
X32770Y16090D02*
Y16210D01*
X32710Y12710D02*
X32830D01*
X32770Y12650D02*
Y12770D01*
X33710Y12710D02*
X33830D01*
X33770Y12650D02*
Y12770D01*
X31980Y18100D02*
X32100D01*
X32040Y18040D02*
Y18160D01*
X31470Y16690D02*
X31590D01*
X31530Y16630D02*
Y16750D01*
X18000Y9430D02*
X18120D01*
X18060Y9370D02*
Y9490D01*
X18500Y9430D02*
X18620D01*
X18560Y9370D02*
Y9490D01*
X19600Y9430D02*
X19720D01*
X19660Y9370D02*
Y9490D01*
X19000Y9430D02*
X19120D01*
X19060Y9370D02*
Y9490D01*
X21800Y9420D02*
X21920D01*
X21860Y9360D02*
Y9480D01*
X21000Y9430D02*
X21120D01*
X21060Y9370D02*
Y9490D01*
X23450Y7380D02*
X23570D01*
X23510Y7320D02*
Y7440D01*
X21000Y6320D02*
X21120D01*
X21060Y6260D02*
Y6380D01*
X-106110Y-63760D02*
X-105830D01*
X-105970Y-63900D02*
Y-63620D01*
X13270Y14600D02*
X13350D01*
X13310Y14560D02*
Y14640D01*
X15550Y13900D02*
X15630D01*
X15590Y13860D02*
Y13940D01*
X18670Y14280D02*
X18750D01*
X18710Y14240D02*
Y14320D01*
X21230Y15720D02*
X21310D01*
X21270Y15680D02*
Y15760D01*
X23360Y15660D02*
X23440D01*
X23400Y15620D02*
Y15700D01*
X25550Y15650D02*
X25630D01*
X25590Y15610D02*
Y15690D01*
X24590Y17840D02*
X24670D01*
X24630Y17800D02*
Y17880D01*
X27760Y24580D02*
X27840D01*
X27800Y24540D02*
Y24620D01*
X26670Y23390D02*
X26750D01*
X26710Y23350D02*
Y23430D01*
X27710Y23370D02*
X27790D01*
X27750Y23330D02*
Y23410D01*
X26700Y22700D02*
X26780D01*
X26740Y22660D02*
Y22740D01*
X27990Y22640D02*
X28070D01*
X28030Y22600D02*
Y22680D01*
X28430Y26920D02*
X28510D01*
X28470Y26880D02*
Y26960D01*
X28030Y26490D02*
X28110D01*
X28070Y26450D02*
Y26530D01*
X26530Y25740D02*
X26610D01*
X26570Y25700D02*
Y25780D01*
X28110Y27330D02*
X28190D01*
X28150Y27290D02*
Y27370D01*
X26710Y27470D02*
X26790D01*
X26750Y27430D02*
Y27510D01*
X29190Y29840D02*
X29270D01*
X29230Y29800D02*
Y29880D01*
X18420Y36180D02*
X18500D01*
X18460Y36140D02*
Y36220D01*
X18470Y34830D02*
X18550D01*
X18510Y34790D02*
Y34870D01*
X14050Y36100D02*
X14130D01*
X14090Y36060D02*
Y36140D01*
X14950Y35020D02*
X15030D01*
X14990Y34980D02*
Y35060D01*
X10010Y36060D02*
X10090D01*
X10050Y36020D02*
Y36100D01*
X9870Y33280D02*
X9950D01*
X9910Y33240D02*
Y33320D01*
X10350Y30000D02*
X10430D01*
X10390Y29960D02*
Y30040D01*
X9470Y27030D02*
X9550D01*
X9510Y26990D02*
Y27070D01*
X8750Y24050D02*
X8830D01*
X8790Y24010D02*
Y24090D01*
X10110Y25260D02*
X10190D01*
X10150Y25220D02*
Y25300D01*
X8950Y22390D02*
X9030D01*
X8990Y22350D02*
Y22430D01*
X9830Y21400D02*
X9910D01*
X9870Y21360D02*
Y21440D01*
X9790Y22610D02*
X9870D01*
X9830Y22570D02*
Y22650D01*
X8350Y21680D02*
X8430D01*
X8390Y21640D02*
Y21720D01*
X3950Y18320D02*
X4030D01*
X3990Y18280D02*
Y18360D01*
X7120Y36500D02*
X7200D01*
X7160Y36460D02*
Y36540D01*
X8150Y34190D02*
X8230D01*
X8190Y34150D02*
Y34230D01*
X8070Y32490D02*
X8150D01*
X8110Y32450D02*
Y32530D01*
X9910Y26550D02*
X9990D01*
X9950Y26510D02*
Y26590D01*
M02*
