M48
;Layer_Color=9474304
;FILE_FORMAT=2:4
INCH,LZ
;TYPE=PLATED
T1F00S00C0.0080
T2F00S00C0.0120
T4F00S00C0.0280
T5F00S00C0.0300
T6F00S00C0.0315
T7F00S00C0.0320
T8F00S00C0.0323
T9F00S00C0.0346
T10F00S00C0.0350
T11F00S00C0.0354
T12F00S00C0.0394
T13F00S00C0.0433
T14F00S00C0.0472
T15F00S00C0.1183
;TYPE=NON_PLATED
T16F00S00C0.0197
T17F00S00C0.1181
%
T01
X02803Y02264
X02807Y02649
X0278Y02458
X02775Y02337
X02671Y02339
X02674Y0227
X02657Y02574
X02463Y01784
X02559Y01565
X0234Y01566
X02127Y01572
X01871Y01428
X01559Y0139
X01331Y0146
X00987Y0214
X00983Y02261
X00899Y02239
X00839Y02168
X00879Y02405
X01015Y02526
X00995Y02655
X00399Y01832
X00951Y02703
X01039Y03
X00991Y03328
X00811Y03249
X00819Y03419
X00716Y0365
X01005Y03606
X01409Y0361
X01499Y03502
X01851Y03483
X01846Y03618
X02675Y02747
X02815Y02733
X02847Y02692
X02923Y02984
T02
X00351Y00195
X00352Y00227
X00383Y00226
X004225Y00255
X004575
X00511Y00256
X00561
X00598Y00254
X00689Y00336
X00663Y0039
X00553Y00388
X0052Y00414
X00482Y004135
X00443Y00412
X00637Y00479
X00795Y00573
X00875Y00603
X00834Y00662
X00941Y00652
X00928Y00539
X00926Y00444
X00927Y00348
X00882Y00255
X00795Y00295
X009934Y00227
X010244Y00226
X009924Y00195
X01163Y00243
X01208
X00819Y00928
X00761
X00709
X00567Y00881
X00575Y00722
X00563Y01084
X005295
X00496
X00497Y0105
X00376Y01016
X00198Y0062
Y00592
X00218Y00346
X01251Y00434
X02106Y00632
Y00943
X02186Y00942
X01966Y00943
X01906
X01856
X01806
X02351Y00738
X03277Y01271
X03377
X03152Y01399
X03153Y01669
X03277Y01615
X03204Y0181
X03172Y01964
X03272Y02142
X03268Y026496
X033354Y025996
X03562Y017
X03811Y01769
X02743Y01798
X02697Y01801
X02641Y018
X02593Y01801
Y018555
Y0191
X02669Y01945
X0256Y02102
X02358Y022
X02278Y02209
X02216Y0211
X020943Y021103
X02053Y02111
X020537Y020343
Y019918
X02012
X020107Y020343
X020543Y0194
X01966
X01927
X019409Y01802
Y01759
X01982
Y01719
X01983Y01681
X02038
X02058Y01619
X02194Y01681
X02393Y01729
X02372Y01887
X02352Y02314
X02356Y025
X02231Y02598
X02099Y02545
X02035Y0257
X019967Y024767
X02093Y02457
X02032Y02317
X01945Y02303
X01943Y02266
X019409Y021409
X01895Y02141
X02092Y02156
X02147Y02293
X01805Y02333
X0171Y02491
X01746Y02603
X01874Y02605
X01377Y02554
X01378Y02512
X01379Y02457
X015678Y020512
Y01958
X01562Y01895
Y01815
X01663Y01958
X01858Y01801
X01545Y01505
X015075
X0147
X014275
X01385
X012791Y01504
X01241Y015051
X02737Y01405
X025Y02634
X00726Y02617
X00553Y02407
X00514Y0217
X00582Y01836
X0066Y01778
X006612Y016418
X00588Y01642
X00536
X00478
X00475Y01598
X00515Y01417
X00559
X00603
Y01365
X00849Y0123
X00817Y01594
X00816Y01642
X007755
X00735
X00693Y029125
X00643
X00543Y02937
X00484Y02773
X00643Y03196
X00693
X00642Y03337
X00553Y03338
X006625Y034143
Y035463
Y036783
X006633Y038103
X003903
Y036783
Y035463
Y034143
X01327Y034892
Y035822
Y038212
Y032502
X014468Y031972
X016968Y031978
X017468Y031992
X017968
X01862Y03104
X0205Y031978
X021Y031992
X0215Y031978
X022Y031992
X0225Y031978
X023Y031992
X0235Y031978
X024Y031992
X02474Y03196
X02559Y0325
Y03489
Y03582
Y03821
X024Y0285
X023
X0225
X022
X0215
X021
X0205
X02149Y02996
X017968Y0285
X016968
X016468
X015968
X015468
X014968
X015458Y02996
X02851Y0327
Y0331
X02895Y0327
X02828Y03391
X027955Y033907
X02859Y03632
Y03665
X02905Y03666
Y03632
X03582
X03631
X03668
X03609Y03483
X03527Y03173
T04
X-10597Y-06376
T05
X00868Y00329
Y00529
X01769Y02541
X01969
T06
X0124Y01212
X0134
X0144
X0154
X0164
X0174
X0184
X0194
X0204
X0214
X0224
X0234
X0244
X0254
X0264
X0274
Y01312
X0264
X0254
X0244
X0234
X0224
X0214
X0204
X0194
X0184
X0174
X0164
X0154
X0144
X0134
X0124
T07
X01034Y00311
X01134
Y00427
X01034
X01658Y0071
Y0081
X03065Y01411
Y01511
X03064Y01671
Y01771
X00944Y01902
Y02002
X00829Y02001
Y01901
X00853Y0359
X00753
X03226Y02966
X03326
X03684Y029852
Y02686
T08
X03644Y0147
X03744
Y0157
X03644
Y0167
X03744
Y0177
X03644
Y0187
X03744
Y0197
X03644
Y0207
X03744
Y0217
X03644
Y0227
X03744
Y0237
X03644
T09
X03242Y00463
X03442
X036265
X038265
Y00713
Y00898
X036265
X03442
Y00713
X036265
X03242
Y00898
Y01148
X03442
X036265
X038265
X02905Y01212
Y01312
Y01412
Y01512
Y01612
Y01712
Y01812
Y01912
Y02012
Y02112
Y02212
Y02312
Y02412
Y02512
Y02612
X01078
Y02512
Y02412
Y02312
Y02212
Y02112
Y02012
Y01912
Y01812
Y01712
Y01612
Y01512
Y01412
Y01312
Y01212
Y02712
X02905
T10
X00115Y0032
Y0042
Y0052
Y0062
X001144Y00813
Y00913
Y01013
X002506
Y00913
Y00813
X01759Y005191
X018681
X019773
X020865
X021956
X021415Y004074
X020323
X019231
X01814
X03064Y02185
Y02285
Y02385
Y02485
X00944Y02453
Y02353
X00829
Y02453
Y02553
X00944
X002506Y01701
Y01601
Y01501
X001144
Y01601
Y01701
X001334Y02838
Y02938
Y03038
Y03138
X002696
Y03038
Y02938
Y02838
Y03293
Y03393
Y03493
Y03593
X00133
Y03493
Y03393
Y03293
X00752Y03719
Y03819
X00852
X00952
X01052
Y03719
X00952
X00852
X01508Y02735
X01608
X01708
X02146Y02741
X02246
X02346
X03824Y03137
Y03237
Y03337
Y03452
Y03552
Y03652
T11
X03411Y03562
T12
X001016Y011588
Y012572
Y013556
X003424Y013552
X003424Y012568
Y011584
X01687Y0337
X01787
X01887
X01987
X02087
X02187
Y0377
X02087
X01987
X01887
X01787
X01687
T13
X002602Y019701
Y02167
Y02444
Y026409
T14
X031177Y03562
T15
X014856Y004632
X024698
T16
X00374Y001516
X005315
X010155
X01173
T17
X001181Y001181
X038189
X001181Y038189
X038189
M30
