G04 Layer_Color=8421504*
%FSLAX24Y24*%
%MOIN*%
G70*
G01*
G75*
%ADD11R,0.0600X0.0600*%
%ADD12O,0.0236X0.0709*%
%ADD13R,0.0500X0.0500*%
%ADD14O,0.0240X0.0800*%
%ADD15R,0.0240X0.0800*%
%ADD16R,0.1181X0.0630*%
%ADD17R,0.0846X0.1378*%
%ADD18R,0.0846X0.0433*%
%ADD19R,0.0846X0.0433*%
%ADD20R,0.0600X0.0600*%
%ADD21R,0.0500X0.0500*%
%ADD22O,0.0236X0.0610*%
%ADD23R,0.0157X0.0787*%
%ADD24R,0.0315X0.0472*%
%ADD25R,0.0472X0.0315*%
%ADD26R,0.1378X0.0787*%
%ADD27R,0.0472X0.0709*%
%ADD28O,0.0591X0.0118*%
%ADD29O,0.0118X0.0591*%
%ADD30R,0.0217X0.0787*%
D11*
X4712Y35463D02*
D03*
X6062D02*
D03*
X4712Y34143D02*
D03*
X6062D02*
D03*
X4712Y38103D02*
D03*
X6062D02*
D03*
X4712Y36783D02*
D03*
X6062D02*
D03*
D12*
X5430Y29900D02*
D03*
X5930D02*
D03*
X6430D02*
D03*
X6930D02*
D03*
X5430Y32735D02*
D03*
X5930D02*
D03*
X6430D02*
D03*
X6930D02*
D03*
D13*
X6405Y26930D02*
D03*
Y27730D02*
D03*
X7320Y26930D02*
D03*
Y27730D02*
D03*
X4864Y8810D02*
D03*
Y8010D02*
D03*
X12510Y3010D02*
D03*
Y3810D02*
D03*
X33800Y16660D02*
D03*
Y17460D02*
D03*
X32920Y16660D02*
D03*
Y17460D02*
D03*
X31790Y22880D02*
D03*
Y22080D02*
D03*
X32070Y26430D02*
D03*
Y27230D02*
D03*
X32720Y22880D02*
D03*
Y22080D02*
D03*
X7320Y3760D02*
D03*
Y2960D02*
D03*
X5490Y27730D02*
D03*
Y26930D02*
D03*
X32040Y16660D02*
D03*
Y17460D02*
D03*
X21360Y17610D02*
D03*
Y16810D02*
D03*
X7310Y4930D02*
D03*
Y5730D02*
D03*
D14*
X6610Y20000D02*
D03*
X6110Y22200D02*
D03*
X5610D02*
D03*
X6610D02*
D03*
X6110Y20000D02*
D03*
X7110Y22200D02*
D03*
Y20000D02*
D03*
X6530Y23480D02*
D03*
X6030Y25680D02*
D03*
X5530D02*
D03*
X6530D02*
D03*
X6030Y23480D02*
D03*
X7030Y25680D02*
D03*
Y23480D02*
D03*
X33270Y13350D02*
D03*
X32770Y15550D02*
D03*
X32270D02*
D03*
X33270D02*
D03*
X32770Y13350D02*
D03*
X33770Y15550D02*
D03*
Y13350D02*
D03*
D15*
X5610Y20000D02*
D03*
X5530Y23480D02*
D03*
X32270Y13350D02*
D03*
D16*
X5640Y15680D02*
D03*
X7412D02*
D03*
X7802Y10080D02*
D03*
X6030D02*
D03*
D17*
X7785Y12711D02*
D03*
D18*
X5344Y11806D02*
D03*
Y13617D02*
D03*
D19*
Y12711D02*
D03*
D20*
X3754Y8080D02*
D03*
Y9430D02*
D03*
D21*
X4320Y6690D02*
D03*
X5120D02*
D03*
X8610Y7180D02*
D03*
X9410D02*
D03*
X26400Y10400D02*
D03*
X27200D02*
D03*
X32860Y28350D02*
D03*
X32060D02*
D03*
X27130Y38210D02*
D03*
X26330D02*
D03*
Y32500D02*
D03*
X27130D02*
D03*
X26330Y35820D02*
D03*
X27130D02*
D03*
Y34890D02*
D03*
X26330D02*
D03*
X12530Y38210D02*
D03*
X11730D02*
D03*
Y35820D02*
D03*
X12530D02*
D03*
Y34890D02*
D03*
X11730D02*
D03*
Y32500D02*
D03*
X12530D02*
D03*
X16290Y20530D02*
D03*
X17090D02*
D03*
X21743Y23990D02*
D03*
X20943D02*
D03*
X3290Y6710D02*
D03*
X2490D02*
D03*
X21060Y9930D02*
D03*
X21860D02*
D03*
X19860Y9940D02*
D03*
X19060D02*
D03*
X22710Y6870D02*
D03*
X23510D02*
D03*
X5820Y18910D02*
D03*
X6620D02*
D03*
X16290Y18580D02*
D03*
X17090D02*
D03*
X23580Y21510D02*
D03*
X22780D02*
D03*
X22720Y23990D02*
D03*
X23520D02*
D03*
X17390D02*
D03*
X18190D02*
D03*
X19167D02*
D03*
X19967D02*
D03*
D22*
X2760Y3234D02*
D03*
X3260D02*
D03*
X3760D02*
D03*
X4260D02*
D03*
X4760D02*
D03*
X5260D02*
D03*
X5760D02*
D03*
X6260D02*
D03*
Y5360D02*
D03*
X5760D02*
D03*
X5260D02*
D03*
X4760D02*
D03*
X4260D02*
D03*
X3760D02*
D03*
X3260D02*
D03*
X2760D02*
D03*
X21560Y8920D02*
D03*
X21060D02*
D03*
X20560D02*
D03*
X20060D02*
D03*
X19560D02*
D03*
X19060D02*
D03*
X18560D02*
D03*
X18060D02*
D03*
Y6794D02*
D03*
X18560D02*
D03*
X19060D02*
D03*
X19560D02*
D03*
X20060D02*
D03*
X20560D02*
D03*
X21060D02*
D03*
X21560D02*
D03*
D23*
X4784Y1733D02*
D03*
X5040D02*
D03*
X4016D02*
D03*
X4528D02*
D03*
X4272D02*
D03*
X11198D02*
D03*
X11454D02*
D03*
X10430D02*
D03*
X10942D02*
D03*
X10686D02*
D03*
D24*
X7420Y7540D02*
D03*
X7046Y6674D02*
D03*
X7794D02*
D03*
D25*
X34220Y26870D02*
D03*
X33354Y27244D02*
D03*
Y26496D02*
D03*
X26156Y33638D02*
D03*
X27022Y33264D02*
D03*
Y34012D02*
D03*
X26156Y36988D02*
D03*
X27022Y36614D02*
D03*
Y37362D02*
D03*
X12704Y36990D02*
D03*
X11838Y37364D02*
D03*
Y36616D02*
D03*
X12704Y33640D02*
D03*
X11838Y34014D02*
D03*
Y33266D02*
D03*
D26*
X29137Y35620D02*
D03*
X36250D02*
D03*
D27*
X21619Y25050D02*
D03*
X22800D02*
D03*
D28*
X21555Y21496D02*
D03*
Y21299D02*
D03*
Y21103D02*
D03*
Y20906D02*
D03*
Y20709D02*
D03*
Y20512D02*
D03*
Y20315D02*
D03*
Y20118D02*
D03*
Y19921D02*
D03*
Y19725D02*
D03*
Y19528D02*
D03*
Y19331D02*
D03*
X18248D02*
D03*
Y19528D02*
D03*
Y19725D02*
D03*
Y19921D02*
D03*
Y20118D02*
D03*
Y20315D02*
D03*
Y20512D02*
D03*
Y20709D02*
D03*
Y20906D02*
D03*
Y21103D02*
D03*
Y21299D02*
D03*
Y21496D02*
D03*
D29*
X20984Y18760D02*
D03*
X20787D02*
D03*
X20591D02*
D03*
X20394D02*
D03*
X20197D02*
D03*
X20000D02*
D03*
X19803D02*
D03*
X19606D02*
D03*
X19409D02*
D03*
X19213D02*
D03*
X19016Y18760D02*
D03*
X18819D02*
D03*
X18819Y22067D02*
D03*
X19016D02*
D03*
X19213D02*
D03*
X19409D02*
D03*
X19606D02*
D03*
X19803D02*
D03*
X20000D02*
D03*
X20197D02*
D03*
X20394D02*
D03*
X20591D02*
D03*
X20787D02*
D03*
X20984D02*
D03*
D30*
X24000Y29141D02*
D03*
X23500D02*
D03*
X23000D02*
D03*
X22500D02*
D03*
X22000D02*
D03*
X21500D02*
D03*
X21000D02*
D03*
X20500D02*
D03*
Y31110D02*
D03*
X21000D02*
D03*
X21500D02*
D03*
X22000D02*
D03*
X22500D02*
D03*
X23000D02*
D03*
X23500D02*
D03*
X24000D02*
D03*
X17968D02*
D03*
X17468D02*
D03*
X16968D02*
D03*
X16468D02*
D03*
X15968D02*
D03*
X15468D02*
D03*
X14968D02*
D03*
X14468D02*
D03*
Y29141D02*
D03*
X14968D02*
D03*
X15468D02*
D03*
X15968D02*
D03*
X16468D02*
D03*
X16968D02*
D03*
X17468D02*
D03*
X17968D02*
D03*
M02*
