G04 Layer_Color=32896*
%FSLAX24Y24*%
%MOIN*%
G70*
G01*
G75*
%ADD10C,0.0050*%
%ADD33C,0.0100*%
%ADD37C,0.0080*%
%ADD39C,0.0079*%
D10*
X4010Y34020D02*
Y34260D01*
X3890D01*
X3850Y34220D01*
Y34140D01*
X3890Y34100D01*
X4010D01*
X3930D02*
X3850Y34020D01*
X3770D02*
X3690D01*
X3730D01*
Y34260D01*
X3770Y34220D01*
X3570D02*
X3530Y34260D01*
X3450D01*
X3410Y34220D01*
Y34180D01*
X3450Y34140D01*
X3490D01*
X3450D01*
X3410Y34100D01*
Y34060D01*
X3450Y34020D01*
X3530D01*
X3570Y34060D01*
X4010Y35340D02*
Y35580D01*
X3890D01*
X3850Y35540D01*
Y35460D01*
X3890Y35420D01*
X4010D01*
X3930D02*
X3850Y35340D01*
X3770D02*
X3690D01*
X3730D01*
Y35580D01*
X3770Y35540D01*
X3410Y35340D02*
X3570D01*
X3410Y35500D01*
Y35540D01*
X3450Y35580D01*
X3530D01*
X3570Y35540D01*
X17530Y30040D02*
X17570Y30080D01*
X17650D01*
X17690Y30040D01*
Y29880D01*
X17650Y29840D01*
X17570D01*
X17530Y29880D01*
X17290Y29840D02*
X17450D01*
X17290Y30000D01*
Y30040D01*
X17330Y30080D01*
X17410D01*
X17450Y30040D01*
X17210D02*
X17170Y30080D01*
X17090D01*
X17050Y30040D01*
Y30000D01*
X17090Y29960D01*
X17050Y29920D01*
Y29880D01*
X17090Y29840D01*
X17170D01*
X17210Y29880D01*
Y29920D01*
X17170Y29960D01*
X17210Y30000D01*
Y30040D01*
X17170Y29960D02*
X17090D01*
X23760Y30040D02*
X23800Y30080D01*
X23880D01*
X23920Y30040D01*
Y29880D01*
X23880Y29840D01*
X23800D01*
X23760Y29880D01*
X23520Y29840D02*
X23680D01*
X23520Y30000D01*
Y30040D01*
X23560Y30080D01*
X23640D01*
X23680Y30040D01*
X23440Y30080D02*
X23280D01*
Y30040D01*
X23440Y29880D01*
Y29840D01*
X4760Y32780D02*
X4800Y32820D01*
X4880D01*
X4920Y32780D01*
Y32620D01*
X4880Y32580D01*
X4800D01*
X4760Y32620D01*
X4520Y32580D02*
X4680D01*
X4520Y32740D01*
Y32780D01*
X4560Y32820D01*
X4640D01*
X4680Y32780D01*
X4280Y32820D02*
X4360Y32780D01*
X4440Y32700D01*
Y32620D01*
X4400Y32580D01*
X4320D01*
X4280Y32620D01*
Y32660D01*
X4320Y32700D01*
X4440D01*
X15690Y29840D02*
Y30080D01*
X15570D01*
X15530Y30040D01*
Y29960D01*
X15570Y29920D01*
X15690D01*
X15610D02*
X15530Y29840D01*
X15290D02*
X15450D01*
X15290Y30000D01*
Y30040D01*
X15330Y30080D01*
X15410D01*
X15450Y30040D01*
X15050Y29840D02*
X15210D01*
X15050Y30000D01*
Y30040D01*
X15090Y30080D01*
X15170D01*
X15210Y30040D01*
X21680Y29840D02*
Y30080D01*
X21560D01*
X21520Y30040D01*
Y29960D01*
X21560Y29920D01*
X21680D01*
X21600D02*
X21520Y29840D01*
X21280D02*
X21440D01*
X21280Y30000D01*
Y30040D01*
X21320Y30080D01*
X21400D01*
X21440Y30040D01*
X21200Y29840D02*
X21120D01*
X21160D01*
Y30080D01*
X21200Y30040D01*
X4010Y36660D02*
Y36900D01*
X3890D01*
X3850Y36860D01*
Y36780D01*
X3890Y36740D01*
X4010D01*
X3930D02*
X3850Y36660D01*
X3770D02*
X3690D01*
X3730D01*
Y36900D01*
X3770Y36860D01*
X3410Y36900D02*
X3570D01*
Y36780D01*
X3490Y36820D01*
X3450D01*
X3410Y36780D01*
Y36700D01*
X3450Y36660D01*
X3530D01*
X3570Y36700D01*
X4010Y37980D02*
Y38220D01*
X3890D01*
X3850Y38180D01*
Y38100D01*
X3890Y38060D01*
X4010D01*
X3930D02*
X3850Y37980D01*
X3770D02*
X3690D01*
X3730D01*
Y38220D01*
X3770Y38180D01*
X3450Y37980D02*
Y38220D01*
X3570Y38100D01*
X3410D01*
X4730Y29780D02*
Y30020D01*
X4610D01*
X4570Y29980D01*
Y29900D01*
X4610Y29860D01*
X4730D01*
X4650D02*
X4570Y29780D01*
X4490Y29980D02*
X4450Y30020D01*
X4370D01*
X4330Y29980D01*
Y29940D01*
X4370Y29900D01*
X4330Y29860D01*
Y29820D01*
X4370Y29780D01*
X4450D01*
X4490Y29820D01*
Y29860D01*
X4450Y29900D01*
X4490Y29940D01*
Y29980D01*
X4450Y29900D02*
X4370D01*
X35390Y32270D02*
Y32510D01*
X35270D01*
X35230Y32470D01*
Y32390D01*
X35270Y32350D01*
X35390D01*
X35310D02*
X35230Y32270D01*
X35150Y32470D02*
X35110Y32510D01*
X35030D01*
X34990Y32470D01*
Y32430D01*
X35030Y32390D01*
X35070D01*
X35030D01*
X34990Y32350D01*
Y32310D01*
X35030Y32270D01*
X35110D01*
X35150Y32310D01*
X35390Y35380D02*
Y35620D01*
X35270D01*
X35230Y35580D01*
Y35500D01*
X35270Y35460D01*
X35390D01*
X35310D02*
X35230Y35380D01*
X34990D02*
X35150D01*
X34990Y35540D01*
Y35580D01*
X35030Y35620D01*
X35110D01*
X35150Y35580D01*
X27310Y34690D02*
Y34450D01*
X27190D01*
X27150Y34490D01*
Y34650D01*
X27190Y34690D01*
X27310D01*
X26910Y34450D02*
X27070D01*
X26910Y34610D01*
Y34650D01*
X26950Y34690D01*
X27030D01*
X27070Y34650D01*
X27290Y35800D02*
Y35560D01*
X27170D01*
X27130Y35600D01*
Y35760D01*
X27170Y35800D01*
X27290D01*
X27050Y35560D02*
X26970D01*
X27010D01*
Y35800D01*
X27050Y35760D01*
X17820Y22530D02*
X17860Y22570D01*
X17940D01*
X17980Y22530D01*
Y22370D01*
X17940Y22330D01*
X17860D01*
X17820Y22370D01*
X17580Y22330D02*
X17740D01*
X17580Y22490D01*
Y22530D01*
X17620Y22570D01*
X17700D01*
X17740Y22530D01*
X17340Y22330D02*
X17500D01*
X17340Y22490D01*
Y22530D01*
X17380Y22570D01*
X17460D01*
X17500Y22530D01*
X21440Y9710D02*
X21480Y9750D01*
X21560D01*
X21600Y9710D01*
Y9550D01*
X21560Y9510D01*
X21480D01*
X21440Y9550D01*
X21360Y9510D02*
X21280D01*
X21320D01*
Y9750D01*
X21360Y9710D01*
X21160D02*
X21120Y9750D01*
X21040D01*
X21000Y9710D01*
Y9670D01*
X21040Y9630D01*
X21000Y9590D01*
Y9550D01*
X21040Y9510D01*
X21120D01*
X21160Y9550D01*
Y9590D01*
X21120Y9630D01*
X21160Y9670D01*
Y9710D01*
X21120Y9630D02*
X21040D01*
X19700Y9700D02*
X19740Y9740D01*
X19820D01*
X19860Y9700D01*
Y9540D01*
X19820Y9500D01*
X19740D01*
X19700Y9540D01*
X19620Y9500D02*
X19540D01*
X19580D01*
Y9740D01*
X19620Y9700D01*
X19420Y9740D02*
X19260D01*
Y9700D01*
X19420Y9540D01*
Y9500D01*
X5750Y15760D02*
X5790Y15800D01*
X5870D01*
X5910Y15760D01*
Y15600D01*
X5870Y15560D01*
X5790D01*
X5750Y15600D01*
X5670Y15560D02*
X5590D01*
X5630D01*
Y15800D01*
X5670Y15760D01*
X5310Y15560D02*
X5470D01*
X5310Y15720D01*
Y15760D01*
X5350Y15800D01*
X5430D01*
X5470Y15760D01*
X4700Y10100D02*
X4740Y10140D01*
X4820D01*
X4860Y10100D01*
Y9940D01*
X4820Y9900D01*
X4740D01*
X4700Y9940D01*
X4620Y9900D02*
X4540D01*
X4580D01*
Y10140D01*
X4620Y10100D01*
X4420D02*
X4380Y10140D01*
X4300D01*
X4260Y10100D01*
Y9940D01*
X4300Y9900D01*
X4380D01*
X4420Y9940D01*
Y10100D01*
X28130Y33640D02*
X28170Y33680D01*
X28250D01*
X28290Y33640D01*
Y33480D01*
X28250Y33440D01*
X28170D01*
X28130Y33480D01*
X28050Y33640D02*
X28010Y33680D01*
X27930D01*
X27890Y33640D01*
Y33600D01*
X27930Y33560D01*
X27890Y33520D01*
Y33480D01*
X27930Y33440D01*
X28010D01*
X28050Y33480D01*
Y33520D01*
X28010Y33560D01*
X28050Y33600D01*
Y33640D01*
X28010Y33560D02*
X27930D01*
D33*
X5030Y29500D02*
Y30300D01*
X6630Y29500D02*
Y30300D01*
X5030Y29500D02*
X6630D01*
X5030Y30300D02*
X6630D01*
X5912Y37703D02*
Y38503D01*
X4312Y37703D02*
Y38503D01*
X5912D01*
X4312Y37703D02*
X5912D01*
Y36383D02*
Y37183D01*
X4312Y36383D02*
Y37183D01*
X5912D01*
X4312Y36383D02*
X5912D01*
Y35063D02*
Y35863D01*
X4312Y35063D02*
Y35863D01*
X5912D01*
X4312Y35063D02*
X5912D01*
Y33743D02*
Y34543D01*
X4312Y33743D02*
Y34543D01*
X5912D01*
X4312Y33743D02*
X5912D01*
X22200Y28742D02*
Y29541D01*
X20600Y28742D02*
Y29541D01*
X22200D01*
X20600Y28742D02*
X22200D01*
X16168D02*
Y29541D01*
X14568Y28742D02*
Y29541D01*
X16168D01*
X14568Y28742D02*
X16168D01*
X35690Y35100D02*
Y35900D01*
X37290Y35100D02*
Y35900D01*
X35690Y35100D02*
X37290D01*
X35690Y35900D02*
X37290D01*
X35690Y31990D02*
Y32790D01*
X37290Y31990D02*
Y32790D01*
X35690Y31990D02*
X37290D01*
X35690Y32790D02*
X37290D01*
X29590Y33960D02*
X30190D01*
X29590Y33160D02*
X30190D01*
X28590Y33960D02*
X29190D01*
X28590Y33160D02*
X29190D01*
X30190D02*
Y33960D01*
X28590Y33160D02*
Y33960D01*
X5158Y9620D02*
Y10420D01*
X6758Y9620D02*
Y10420D01*
X5158Y9620D02*
X5758D01*
X5158Y10420D02*
X5758D01*
X6158Y9620D02*
X6758D01*
X6158Y10420D02*
X6758D01*
X6212Y15280D02*
X6812D01*
X6212Y16080D02*
X6812D01*
X7212Y15280D02*
X7812D01*
X7212Y16080D02*
X7812D01*
X6212Y15280D02*
Y16080D01*
X7812Y15280D02*
Y16080D01*
X18660Y8520D02*
Y9320D01*
X20260Y8520D02*
Y9320D01*
X18660Y8520D02*
X19260D01*
X18660Y9320D02*
X19260D01*
X19660Y8520D02*
X20260D01*
X19660Y9320D02*
X20260D01*
X21660D02*
X22260D01*
X21660Y8520D02*
X22260D01*
X20660Y9320D02*
X21260D01*
X20660Y8520D02*
X21260D01*
X22260D02*
Y9320D01*
X20660Y8520D02*
Y9320D01*
X18280Y22650D02*
Y23250D01*
X19080Y22650D02*
Y23250D01*
X18280Y21650D02*
Y22250D01*
X19080Y21650D02*
Y22250D01*
X18280Y23250D02*
X19080D01*
X18280Y21650D02*
X19080D01*
X5220Y32300D02*
X5820D01*
X5220Y33100D02*
X5820D01*
X6220Y32300D02*
X6820D01*
X6220Y33100D02*
X6820D01*
X5220Y32300D02*
Y33100D01*
X6820Y32300D02*
Y33100D01*
X24400Y28742D02*
Y29541D01*
X22800Y28742D02*
Y29541D01*
X23800D02*
X24400D01*
X23800Y28742D02*
X24400D01*
X22800Y29541D02*
X23400D01*
X22800Y28742D02*
X23400D01*
X16568D02*
X17168D01*
X16568Y29541D02*
X17168D01*
X17568Y28742D02*
X18168D01*
X17568Y29541D02*
X18168D01*
X16568Y28742D02*
Y29541D01*
X18168Y28742D02*
Y29541D01*
D37*
X28715Y35280D02*
X29115Y35680D01*
X28715Y36080D02*
X29115Y35680D01*
X28715Y35280D02*
Y36080D01*
X29115Y35280D02*
Y36080D01*
X28615Y35680D02*
X29215D01*
X28735Y34170D02*
X29135Y34570D01*
X28735Y34970D02*
X29135Y34570D01*
X28735Y34170D02*
Y34970D01*
X29135Y34170D02*
Y34970D01*
X28635Y34570D02*
X29235D01*
D39*
X27575Y36180D02*
X27715D01*
X27575Y35180D02*
Y36180D01*
Y35180D02*
X27715D01*
X30205D02*
Y36180D01*
X29315Y35180D02*
X30065D01*
X29315Y36180D02*
X30065D01*
X27715D02*
X28465D01*
X27715Y35180D02*
X28465D01*
X30065D02*
X30195D01*
X30065Y36180D02*
X30205D01*
X27595Y35070D02*
X27735D01*
X27595Y34070D02*
Y35070D01*
Y34070D02*
X27735D01*
X30225D02*
Y35070D01*
X29335Y34070D02*
X30085D01*
X29335Y35070D02*
X30085D01*
X27735D02*
X28485D01*
X27735Y34070D02*
X28485D01*
X30085D02*
X30215D01*
X30085Y35070D02*
X30225D01*
M02*
