G04 Layer_Color=65535*
%FSLAX24Y24*%
%MOIN*%
G70*
G01*
G75*
%ADD10C,0.0050*%
%ADD32C,0.0120*%
%ADD33C,0.0100*%
%ADD34C,0.0060*%
%ADD37C,0.0080*%
%ADD39C,0.0079*%
%ADD63C,0.0098*%
%ADD64C,0.0197*%
%ADD65C,0.0007*%
%ADD66C,0.0039*%
%ADD67R,0.0197X0.0197*%
%ADD68R,0.0197X0.0197*%
%ADD69R,0.0537X0.0739*%
D10*
X24218Y30308D02*
G03*
X24218Y29926I0J-191D01*
G01*
X18187Y30308D02*
G03*
X18187Y29926I0J-191D01*
G01*
X1890Y7514D02*
X2006Y7630D01*
X33520Y10430D02*
X33670Y10580D01*
X33520Y10030D02*
Y10430D01*
Y10030D02*
X33670Y9880D01*
X33320Y10030D02*
Y10430D01*
X33170Y10580D02*
X33320Y10430D01*
X33170Y9880D02*
X33320Y10030D01*
X32420Y10230D02*
X33170D01*
Y9730D02*
Y10730D01*
X33670Y9730D02*
Y10730D01*
Y10230D02*
X34420D01*
Y9480D02*
Y10980D01*
X32420Y9480D02*
Y10980D01*
X31920Y8480D02*
Y11980D01*
X34920D01*
Y8480D02*
Y11980D01*
X31920Y8480D02*
X34920D01*
X37365Y6080D02*
X37515Y6230D01*
X37365Y5680D02*
Y6080D01*
Y5680D02*
X37515Y5530D01*
X37165Y5680D02*
Y6080D01*
X37015Y6230D02*
X37165Y6080D01*
X37015Y5530D02*
X37165Y5680D01*
X36265Y5880D02*
X37015D01*
Y5380D02*
Y6380D01*
X37515Y5380D02*
Y6380D01*
Y5880D02*
X38265D01*
Y5130D02*
Y6630D01*
X36265Y5130D02*
Y6630D01*
X35765Y4130D02*
Y7630D01*
X38765D01*
Y4130D02*
Y7630D01*
X35765Y4130D02*
X38765D01*
X37365Y10430D02*
X37515Y10580D01*
X37365Y10030D02*
Y10430D01*
Y10030D02*
X37515Y9880D01*
X37165Y10030D02*
Y10430D01*
X37015Y10580D02*
X37165Y10430D01*
X37015Y9880D02*
X37165Y10030D01*
X36265Y10230D02*
X37015D01*
Y9730D02*
Y10730D01*
X37515Y9730D02*
Y10730D01*
Y10230D02*
X38265D01*
Y9480D02*
Y10980D01*
X36265Y9480D02*
Y10980D01*
X35765Y8480D02*
Y11980D01*
X38765D01*
Y8480D02*
Y11980D01*
X35765Y8480D02*
X38765D01*
X33520Y6080D02*
X33670Y6230D01*
X33520Y5680D02*
Y6080D01*
Y5680D02*
X33670Y5530D01*
X33320Y5680D02*
Y6080D01*
X33170Y6230D02*
X33320Y6080D01*
X33170Y5530D02*
X33320Y5680D01*
X32420Y5880D02*
X33170D01*
Y5380D02*
Y6380D01*
X33670Y5380D02*
Y6380D01*
Y5880D02*
X34420D01*
Y5130D02*
Y6630D01*
X32420Y5130D02*
Y6630D01*
X31920Y4130D02*
Y7630D01*
X34920D01*
Y4130D02*
Y7630D01*
X31920Y4130D02*
X34920D01*
X11290Y38930D02*
X13220D01*
Y32010D02*
Y38930D01*
X11150Y32010D02*
X13220D01*
X11150D02*
Y38930D01*
X11290D01*
X9580Y36380D02*
X10720D01*
Y32690D02*
Y36380D01*
X9580Y32690D02*
X10720D01*
X9580D02*
Y36380D01*
Y32140D02*
Y32690D01*
Y32140D02*
X10720D01*
Y32690D01*
X13220Y31360D02*
Y32010D01*
X11150Y31360D02*
X13220D01*
X11150D02*
Y32010D01*
X20282Y29676D02*
Y30626D01*
X24218Y29676D02*
Y30626D01*
X18187Y29676D02*
Y30626D01*
X14249Y29676D02*
Y30626D01*
X8830Y7690D02*
Y7930D01*
X8950D01*
X8990Y7890D01*
Y7810D01*
X8950Y7770D01*
X8830D01*
X8910D02*
X8990Y7690D01*
X9070D02*
X9150D01*
X9110D01*
Y7930D01*
X9070Y7890D01*
X9270Y7690D02*
X9350D01*
X9310D01*
Y7930D01*
X9270Y7890D01*
X4370Y5960D02*
Y6200D01*
X4490D01*
X4530Y6160D01*
Y6080D01*
X4490Y6040D01*
X4370D01*
X4450D02*
X4530Y5960D01*
X4610D02*
X4690D01*
X4650D01*
Y6200D01*
X4610Y6160D01*
X4810D02*
X4850Y6200D01*
X4930D01*
X4970Y6160D01*
Y6000D01*
X4930Y5960D01*
X4850D01*
X4810Y6000D01*
Y6160D01*
X31910Y23580D02*
X31670D01*
Y23700D01*
X31710Y23740D01*
X31790D01*
X31830Y23700D01*
Y23580D01*
Y23660D02*
X31910Y23740D01*
Y23820D02*
Y23900D01*
Y23860D01*
X31670D01*
X31710Y23820D01*
X6580Y5840D02*
X6540Y5800D01*
Y5720D01*
X6580Y5680D01*
X6740D01*
X6780Y5720D01*
Y5800D01*
X6740Y5840D01*
X6540Y6080D02*
X6580Y6000D01*
X6660Y5920D01*
X6740D01*
X6780Y5960D01*
Y6040D01*
X6740Y6080D01*
X6700D01*
X6660Y6040D01*
Y5920D01*
X19530Y23250D02*
X19490Y23290D01*
X19410D01*
X19370Y23250D01*
Y23090D01*
X19410Y23050D01*
X19490D01*
X19530Y23090D01*
X19770Y23290D02*
X19610D01*
Y23170D01*
X19690Y23210D01*
X19730D01*
X19770Y23170D01*
Y23090D01*
X19730Y23050D01*
X19650D01*
X19610Y23090D01*
X17750Y23250D02*
X17710Y23290D01*
X17630D01*
X17590Y23250D01*
Y23090D01*
X17630Y23050D01*
X17710D01*
X17750Y23090D01*
X17950Y23050D02*
Y23290D01*
X17830Y23170D01*
X17990D01*
X23080Y23250D02*
X23040Y23290D01*
X22960D01*
X22920Y23250D01*
Y23090D01*
X22960Y23050D01*
X23040D01*
X23080Y23090D01*
X23160Y23250D02*
X23200Y23290D01*
X23280D01*
X23320Y23250D01*
Y23210D01*
X23280Y23170D01*
X23240D01*
X23280D01*
X23320Y23130D01*
Y23090D01*
X23280Y23050D01*
X23200D01*
X23160Y23090D01*
X13350Y30240D02*
Y30040D01*
X13390Y30000D01*
X13470D01*
X13510Y30040D01*
Y30240D01*
X13590Y30000D02*
X13670D01*
X13630D01*
Y30240D01*
X13590Y30200D01*
X13790D02*
X13830Y30240D01*
X13910D01*
X13950Y30200D01*
Y30040D01*
X13910Y30000D01*
X13830D01*
X13790Y30040D01*
Y30200D01*
X19630Y30190D02*
Y29990D01*
X19670Y29950D01*
X19750D01*
X19790Y29990D01*
Y30190D01*
X19870Y29990D02*
X19910Y29950D01*
X19990D01*
X20030Y29990D01*
Y30150D01*
X19990Y30190D01*
X19910D01*
X19870Y30150D01*
Y30110D01*
X19910Y30070D01*
X20030D01*
X2130Y4130D02*
X2330D01*
X2370Y4170D01*
Y4250D01*
X2330Y4290D01*
X2130D01*
X2370Y4530D02*
Y4370D01*
X2210Y4530D01*
X2170D01*
X2130Y4490D01*
Y4410D01*
X2170Y4370D01*
X19090Y32500D02*
Y32660D01*
X19050Y32700D01*
X18970D01*
X18930Y32660D01*
Y32500D01*
X18970Y32460D01*
X19050D01*
X19010Y32540D02*
X19090Y32460D01*
X19050D02*
X19090Y32500D01*
X19170Y32460D02*
X19250D01*
X19210D01*
Y32700D01*
X19170Y32660D01*
X32880Y8140D02*
Y7900D01*
Y7980D01*
X33040Y8140D01*
X32920Y8020D01*
X33040Y7900D01*
X33280Y8140D02*
X33120D01*
Y7900D01*
X33280D01*
X33120Y8020D02*
X33200D01*
X33360Y8140D02*
Y8100D01*
X33440Y8020D01*
X33520Y8100D01*
Y8140D01*
X33440Y8020D02*
Y7900D01*
X33720D02*
Y8140D01*
X33600Y8020D01*
X33760D01*
X36730Y12500D02*
Y12260D01*
Y12340D01*
X36890Y12500D01*
X36770Y12380D01*
X36890Y12260D01*
X37130Y12500D02*
X36970D01*
Y12260D01*
X37130D01*
X36970Y12380D02*
X37050D01*
X37210Y12500D02*
Y12460D01*
X37290Y12380D01*
X37370Y12460D01*
Y12500D01*
X37290Y12380D02*
Y12260D01*
X37450Y12460D02*
X37490Y12500D01*
X37570D01*
X37610Y12460D01*
Y12420D01*
X37570Y12380D01*
X37530D01*
X37570D01*
X37610Y12340D01*
Y12300D01*
X37570Y12260D01*
X37490D01*
X37450Y12300D01*
X36730Y8140D02*
Y7900D01*
Y7980D01*
X36890Y8140D01*
X36770Y8020D01*
X36890Y7900D01*
X37130Y8140D02*
X36970D01*
Y7900D01*
X37130D01*
X36970Y8020D02*
X37050D01*
X37210Y8140D02*
Y8100D01*
X37290Y8020D01*
X37370Y8100D01*
Y8140D01*
X37290Y8020D02*
Y7900D01*
X37610D02*
X37450D01*
X37610Y8060D01*
Y8100D01*
X37570Y8140D01*
X37490D01*
X37450Y8100D01*
X32920Y12500D02*
Y12260D01*
Y12340D01*
X33080Y12500D01*
X32960Y12380D01*
X33080Y12260D01*
X33320Y12500D02*
X33160D01*
Y12260D01*
X33320D01*
X33160Y12380D02*
X33240D01*
X33400Y12500D02*
Y12460D01*
X33480Y12380D01*
X33560Y12460D01*
Y12500D01*
X33480Y12380D02*
Y12260D01*
X33640D02*
X33720D01*
X33680D01*
Y12500D01*
X33640Y12460D01*
X34550Y19570D02*
X34710D01*
Y19530D01*
X34550Y19370D01*
Y19330D01*
X34710D01*
X34790D02*
X34870D01*
X34830D01*
Y19570D01*
X34790Y19530D01*
X9610Y5220D02*
X9650D01*
X9730Y5300D01*
X9650Y5380D01*
X9610D01*
X9730Y5300D02*
X9850D01*
X9650Y5460D02*
X9610Y5500D01*
Y5580D01*
X9650Y5620D01*
X9690D01*
X9730Y5580D01*
Y5540D01*
Y5580D01*
X9770Y5620D01*
X9810D01*
X9850Y5580D01*
Y5500D01*
X9810Y5460D01*
X21930Y25920D02*
Y25880D01*
X22010Y25800D01*
X22090Y25880D01*
Y25920D01*
X22010Y25800D02*
Y25680D01*
X22330D02*
X22170D01*
X22330Y25840D01*
Y25880D01*
X22290Y25920D01*
X22210D01*
X22170Y25880D01*
X18750Y26620D02*
Y26580D01*
X18830Y26500D01*
X18910Y26580D01*
Y26620D01*
X18830Y26500D02*
Y26380D01*
X18990D02*
X19070D01*
X19030D01*
Y26620D01*
X18990Y26580D01*
X700Y18560D02*
X860Y18320D01*
Y18560D02*
X700Y18320D01*
X940Y18520D02*
X980Y18560D01*
X1060D01*
X1100Y18520D01*
Y18480D01*
X1060Y18440D01*
X1100Y18400D01*
Y18360D01*
X1060Y18320D01*
X980D01*
X940Y18360D01*
Y18400D01*
X980Y18440D01*
X940Y18480D01*
Y18520D01*
X980Y18440D02*
X1060D01*
X690Y23290D02*
X850Y23050D01*
Y23290D02*
X690Y23050D01*
X930Y23290D02*
X1090D01*
Y23250D01*
X930Y23090D01*
Y23050D01*
X1030Y17640D02*
X1270Y17800D01*
X1030D02*
X1270Y17640D01*
X1030Y18040D02*
X1070Y17960D01*
X1150Y17880D01*
X1230D01*
X1270Y17920D01*
Y18000D01*
X1230Y18040D01*
X1190D01*
X1150Y18000D01*
Y17880D01*
X2470Y17660D02*
X2710Y17820D01*
X2470D02*
X2710Y17660D01*
X2470Y18060D02*
Y17900D01*
X2590D01*
X2550Y17980D01*
Y18020D01*
X2590Y18060D01*
X2670D01*
X2710Y18020D01*
Y17940D01*
X2670Y17900D01*
X850Y6980D02*
X1090Y7140D01*
X850D02*
X1090Y6980D01*
Y7340D02*
X850D01*
X970Y7220D01*
Y7380D01*
X1600Y6960D02*
X1840Y7120D01*
X1600D02*
X1840Y6960D01*
X1640Y7200D02*
X1600Y7240D01*
Y7320D01*
X1640Y7360D01*
X1680D01*
X1720Y7320D01*
Y7280D01*
Y7320D01*
X1760Y7360D01*
X1800D01*
X1840Y7320D01*
Y7240D01*
X1800Y7200D01*
X28050Y19430D02*
X28290Y19590D01*
X28050D02*
X28290Y19430D01*
Y19830D02*
Y19670D01*
X28130Y19830D01*
X28090D01*
X28050Y19790D01*
Y19710D01*
X28090Y19670D01*
X11412Y19362D02*
X11652Y19522D01*
X11412D02*
X11652Y19362D01*
Y19602D02*
Y19682D01*
Y19642D01*
X11412D01*
X11452Y19602D01*
X10020Y35570D02*
Y35410D01*
X10100Y35330D01*
X10180Y35410D01*
Y35570D01*
X10420D02*
X10340Y35530D01*
X10260Y35450D01*
Y35370D01*
X10300Y35330D01*
X10380D01*
X10420Y35370D01*
Y35410D01*
X10380Y35450D01*
X10260D01*
X9970Y33910D02*
Y33750D01*
X10050Y33670D01*
X10130Y33750D01*
Y33910D01*
X10370D02*
X10210D01*
Y33790D01*
X10290Y33830D01*
X10330D01*
X10370Y33790D01*
Y33710D01*
X10330Y33670D01*
X10250D01*
X10210Y33710D01*
X27530Y37110D02*
Y36950D01*
X27610Y36870D01*
X27690Y36950D01*
Y37110D01*
X27890Y36870D02*
Y37110D01*
X27770Y36990D01*
X27930D01*
X27530Y33760D02*
Y33600D01*
X27610Y33520D01*
X27690Y33600D01*
Y33760D01*
X27770Y33720D02*
X27810Y33760D01*
X27890D01*
X27930Y33720D01*
Y33680D01*
X27890Y33640D01*
X27850D01*
X27890D01*
X27930Y33600D01*
Y33560D01*
X27890Y33520D01*
X27810D01*
X27770Y33560D01*
X33490Y26080D02*
Y25920D01*
X33570Y25840D01*
X33650Y25920D01*
Y26080D01*
X33890Y25840D02*
X33730D01*
X33890Y26000D01*
Y26040D01*
X33850Y26080D01*
X33770D01*
X33730Y26040D01*
X7200Y8180D02*
Y8020D01*
X7280Y7940D01*
X7360Y8020D01*
Y8180D01*
X7440Y7940D02*
X7520D01*
X7480D01*
Y8180D01*
X7440Y8140D01*
X8980Y290D02*
X9180D01*
X9220Y330D01*
Y410D01*
X9180Y450D01*
X8980D01*
X9020Y690D02*
X8980Y650D01*
Y570D01*
X9020Y530D01*
X9060D01*
X9100Y570D01*
Y650D01*
X9140Y690D01*
X9180D01*
X9220Y650D01*
Y570D01*
X9180Y530D01*
X8980Y770D02*
X9220D01*
Y890D01*
X9180Y930D01*
X9140D01*
X9100Y890D01*
Y770D01*
Y890D01*
X9060Y930D01*
X9020D01*
X8980Y890D01*
Y770D01*
X9220Y1170D02*
Y1010D01*
X9060Y1170D01*
X9020D01*
X8980Y1130D01*
Y1050D01*
X9020Y1010D01*
X6250Y570D02*
X6450D01*
X6490Y610D01*
Y690D01*
X6450Y730D01*
X6250D01*
X6290Y970D02*
X6250Y930D01*
Y850D01*
X6290Y810D01*
X6330D01*
X6370Y850D01*
Y930D01*
X6410Y970D01*
X6450D01*
X6490Y930D01*
Y850D01*
X6450Y810D01*
X6250Y1050D02*
X6490D01*
Y1170D01*
X6450Y1210D01*
X6410D01*
X6370Y1170D01*
Y1050D01*
Y1170D01*
X6330Y1210D01*
X6290D01*
X6250Y1170D01*
Y1050D01*
X6490Y1290D02*
Y1370D01*
Y1330D01*
X6250D01*
X6290Y1290D01*
X8160Y39080D02*
Y38880D01*
X8200Y38840D01*
X8280D01*
X8320Y38880D01*
Y39080D01*
X8400Y39040D02*
X8440Y39080D01*
X8520D01*
X8560Y39040D01*
Y39000D01*
X8520Y38960D01*
X8560Y38920D01*
Y38880D01*
X8520Y38840D01*
X8440D01*
X8400Y38880D01*
Y38920D01*
X8440Y38960D01*
X8400Y39000D01*
Y39040D01*
X8440Y38960D02*
X8520D01*
X7360Y30590D02*
X7560D01*
X7600Y30630D01*
Y30710D01*
X7560Y30750D01*
X7360D01*
Y30830D02*
Y30990D01*
X7400D01*
X7560Y30830D01*
X7600D01*
X34210Y14210D02*
X34410D01*
X34450Y14250D01*
Y14330D01*
X34410Y14370D01*
X34210D01*
Y14610D02*
X34250Y14530D01*
X34330Y14450D01*
X34410D01*
X34450Y14490D01*
Y14570D01*
X34410Y14610D01*
X34370D01*
X34330Y14570D01*
Y14450D01*
X4990Y20750D02*
X5190D01*
X5230Y20790D01*
Y20870D01*
X5190Y20910D01*
X4990D01*
Y21150D02*
Y20990D01*
X5110D01*
X5070Y21070D01*
Y21110D01*
X5110Y21150D01*
X5190D01*
X5230Y21110D01*
Y21030D01*
X5190Y20990D01*
X4880Y24330D02*
X5080D01*
X5120Y24370D01*
Y24450D01*
X5080Y24490D01*
X4880D01*
X5120Y24690D02*
X4880D01*
X5000Y24570D01*
Y24730D01*
X21920Y8250D02*
Y8050D01*
X21960Y8010D01*
X22040D01*
X22080Y8050D01*
Y8250D01*
X22160Y8210D02*
X22200Y8250D01*
X22280D01*
X22320Y8210D01*
Y8170D01*
X22280Y8130D01*
X22240D01*
X22280D01*
X22320Y8090D01*
Y8050D01*
X22280Y8010D01*
X22200D01*
X22160Y8050D01*
X19590Y18390D02*
Y18190D01*
X19630Y18150D01*
X19710D01*
X19750Y18190D01*
Y18390D01*
X19830Y18150D02*
X19910D01*
X19870D01*
Y18390D01*
X19830Y18350D01*
X4150Y13600D02*
X4110Y13640D01*
X4030D01*
X3990Y13600D01*
Y13560D01*
X4030Y13520D01*
X4110D01*
X4150Y13480D01*
Y13440D01*
X4110Y13400D01*
X4030D01*
X3990Y13440D01*
X4230Y13400D02*
X4310D01*
X4270D01*
Y13640D01*
X4230Y13600D01*
X9860Y35780D02*
Y36020D01*
X9980D01*
X10020Y35980D01*
Y35900D01*
X9980Y35860D01*
X9860D01*
X9940D02*
X10020Y35780D01*
X10100Y35980D02*
X10140Y36020D01*
X10220D01*
X10260Y35980D01*
Y35940D01*
X10220Y35900D01*
X10180D01*
X10220D01*
X10260Y35860D01*
Y35820D01*
X10220Y35780D01*
X10140D01*
X10100Y35820D01*
X10340Y35980D02*
X10380Y36020D01*
X10460D01*
X10500Y35980D01*
Y35820D01*
X10460Y35780D01*
X10380D01*
X10340Y35820D01*
Y35980D01*
X9850Y34390D02*
Y34630D01*
X9970D01*
X10010Y34590D01*
Y34510D01*
X9970Y34470D01*
X9850D01*
X9930D02*
X10010Y34390D01*
X10250D02*
X10090D01*
X10250Y34550D01*
Y34590D01*
X10210Y34630D01*
X10130D01*
X10090Y34590D01*
X10330Y34430D02*
X10370Y34390D01*
X10450D01*
X10490Y34430D01*
Y34590D01*
X10450Y34630D01*
X10370D01*
X10330Y34590D01*
Y34550D01*
X10370Y34510D01*
X10490D01*
X27650Y35670D02*
Y35910D01*
X27770D01*
X27810Y35870D01*
Y35790D01*
X27770Y35750D01*
X27650D01*
X27730D02*
X27810Y35670D01*
X28050D02*
X27890D01*
X28050Y35830D01*
Y35870D01*
X28010Y35910D01*
X27930D01*
X27890Y35870D01*
X28130D02*
X28170Y35910D01*
X28250D01*
X28290Y35870D01*
Y35830D01*
X28250Y35790D01*
X28290Y35750D01*
Y35710D01*
X28250Y35670D01*
X28170D01*
X28130Y35710D01*
Y35750D01*
X28170Y35790D01*
X28130Y35830D01*
Y35870D01*
X28170Y35790D02*
X28250D01*
X27830Y32380D02*
Y32620D01*
X27950D01*
X27990Y32580D01*
Y32500D01*
X27950Y32460D01*
X27830D01*
X27910D02*
X27990Y32380D01*
X28230D02*
X28070D01*
X28230Y32540D01*
Y32580D01*
X28190Y32620D01*
X28110D01*
X28070Y32580D01*
X28310Y32620D02*
X28470D01*
Y32580D01*
X28310Y32420D01*
Y32380D01*
X9860Y34800D02*
Y35040D01*
X9980D01*
X10020Y35000D01*
Y34920D01*
X9980Y34880D01*
X9860D01*
X9940D02*
X10020Y34800D01*
X10260D02*
X10100D01*
X10260Y34960D01*
Y35000D01*
X10220Y35040D01*
X10140D01*
X10100Y35000D01*
X10500Y35040D02*
X10420Y35000D01*
X10340Y34920D01*
Y34840D01*
X10380Y34800D01*
X10460D01*
X10500Y34840D01*
Y34880D01*
X10460Y34920D01*
X10340D01*
X9860Y33000D02*
Y33240D01*
X9980D01*
X10020Y33200D01*
Y33120D01*
X9980Y33080D01*
X9860D01*
X9940D02*
X10020Y33000D01*
X10260D02*
X10100D01*
X10260Y33160D01*
Y33200D01*
X10220Y33240D01*
X10140D01*
X10100Y33200D01*
X10500Y33240D02*
X10340D01*
Y33120D01*
X10420Y33160D01*
X10460D01*
X10500Y33120D01*
Y33040D01*
X10460Y33000D01*
X10380D01*
X10340Y33040D01*
X27830Y38090D02*
Y38330D01*
X27950D01*
X27990Y38290D01*
Y38210D01*
X27950Y38170D01*
X27830D01*
X27910D02*
X27990Y38090D01*
X28230D02*
X28070D01*
X28230Y38250D01*
Y38290D01*
X28190Y38330D01*
X28110D01*
X28070Y38290D01*
X28430Y38090D02*
Y38330D01*
X28310Y38210D01*
X28470D01*
X27660Y34740D02*
Y34980D01*
X27780D01*
X27820Y34940D01*
Y34860D01*
X27780Y34820D01*
X27660D01*
X27740D02*
X27820Y34740D01*
X28060D02*
X27900D01*
X28060Y34900D01*
Y34940D01*
X28020Y34980D01*
X27940D01*
X27900Y34940D01*
X28140D02*
X28180Y34980D01*
X28260D01*
X28300Y34940D01*
Y34900D01*
X28260Y34860D01*
X28220D01*
X28260D01*
X28300Y34820D01*
Y34780D01*
X28260Y34740D01*
X28180D01*
X28140Y34780D01*
X12700Y4360D02*
X12460D01*
Y4480D01*
X12500Y4520D01*
X12580D01*
X12620Y4480D01*
Y4360D01*
Y4440D02*
X12700Y4520D01*
Y4760D02*
Y4600D01*
X12540Y4760D01*
X12500D01*
X12460Y4720D01*
Y4640D01*
X12500Y4600D01*
Y4840D02*
X12460Y4880D01*
Y4960D01*
X12500Y5000D01*
X12660D01*
X12700Y4960D01*
Y4880D01*
X12660Y4840D01*
X12500D01*
X33040Y18160D02*
X32800D01*
Y18280D01*
X32840Y18320D01*
X32920D01*
X32960Y18280D01*
Y18160D01*
Y18240D02*
X33040Y18320D01*
Y18400D02*
Y18480D01*
Y18440D01*
X32800D01*
X32840Y18400D01*
X33000Y18600D02*
X33040Y18640D01*
Y18720D01*
X33000Y18760D01*
X32840D01*
X32800Y18720D01*
Y18640D01*
X32840Y18600D01*
X32880D01*
X32920Y18640D01*
Y18760D01*
X33920Y18160D02*
X33680D01*
Y18280D01*
X33720Y18320D01*
X33800D01*
X33840Y18280D01*
Y18160D01*
Y18240D02*
X33920Y18320D01*
Y18400D02*
Y18480D01*
Y18440D01*
X33680D01*
X33720Y18400D01*
Y18600D02*
X33680Y18640D01*
Y18720D01*
X33720Y18760D01*
X33760D01*
X33800Y18720D01*
X33840Y18760D01*
X33880D01*
X33920Y18720D01*
Y18640D01*
X33880Y18600D01*
X33840D01*
X33800Y18640D01*
X33760Y18600D01*
X33720D01*
X33800Y18640D02*
Y18720D01*
X7440Y28430D02*
X7200D01*
Y28550D01*
X7240Y28590D01*
X7320D01*
X7360Y28550D01*
Y28430D01*
Y28510D02*
X7440Y28590D01*
Y28670D02*
Y28750D01*
Y28710D01*
X7200D01*
X7240Y28670D01*
X7200Y28870D02*
Y29030D01*
X7240D01*
X7400Y28870D01*
X7440D01*
X6520Y28430D02*
X6280D01*
Y28550D01*
X6320Y28590D01*
X6400D01*
X6440Y28550D01*
Y28430D01*
Y28510D02*
X6520Y28590D01*
Y28670D02*
Y28750D01*
Y28710D01*
X6280D01*
X6320Y28670D01*
X6280Y29030D02*
X6320Y28950D01*
X6400Y28870D01*
X6480D01*
X6520Y28910D01*
Y28990D01*
X6480Y29030D01*
X6440D01*
X6400Y28990D01*
Y28870D01*
X4740Y9300D02*
X4500D01*
Y9420D01*
X4540Y9460D01*
X4620D01*
X4660Y9420D01*
Y9300D01*
Y9380D02*
X4740Y9460D01*
X4700Y9540D02*
X4740Y9580D01*
Y9660D01*
X4700Y9700D01*
X4540D01*
X4500Y9660D01*
Y9580D01*
X4540Y9540D01*
X4580D01*
X4620Y9580D01*
Y9700D01*
X31090Y28180D02*
Y28420D01*
X31210D01*
X31250Y28380D01*
Y28300D01*
X31210Y28260D01*
X31090D01*
X31170D02*
X31250Y28180D01*
X31330Y28420D02*
X31490D01*
Y28380D01*
X31330Y28220D01*
Y28180D01*
X31490Y26740D02*
X31250D01*
Y26860D01*
X31290Y26900D01*
X31370D01*
X31410Y26860D01*
Y26740D01*
Y26820D02*
X31490Y26900D01*
X31250Y27140D02*
X31290Y27060D01*
X31370Y26980D01*
X31450D01*
X31490Y27020D01*
Y27100D01*
X31450Y27140D01*
X31410D01*
X31370Y27100D01*
Y26980D01*
X26600Y11100D02*
Y11340D01*
X26720D01*
X26760Y11300D01*
Y11220D01*
X26720Y11180D01*
X26600D01*
X26680D02*
X26760Y11100D01*
X27000Y11340D02*
X26840D01*
Y11220D01*
X26920Y11260D01*
X26960D01*
X27000Y11220D01*
Y11140D01*
X26960Y11100D01*
X26880D01*
X26840Y11140D01*
X16490Y21230D02*
Y21470D01*
X16610D01*
X16650Y21430D01*
Y21350D01*
X16610Y21310D01*
X16490D01*
X16570D02*
X16650Y21230D01*
X16850D02*
Y21470D01*
X16730Y21350D01*
X16890D01*
X8520Y12690D02*
Y12930D01*
X8680Y12690D01*
Y12930D01*
X8760Y12690D02*
X8840D01*
X8800D01*
Y12930D01*
X8760Y12890D01*
X19220Y14080D02*
Y13840D01*
X19380D01*
X19620Y14040D02*
X19580Y14080D01*
X19500D01*
X19460Y14040D01*
Y13880D01*
X19500Y13840D01*
X19580D01*
X19620Y13880D01*
X19700Y14080D02*
Y13840D01*
X19820D01*
X19860Y13880D01*
Y14040D01*
X19820Y14080D01*
X19700D01*
X19940Y13840D02*
X20020D01*
X19980D01*
Y14080D01*
X19940Y14040D01*
X22340Y28380D02*
X22260D01*
X22300D01*
Y28180D01*
X22260Y28140D01*
X22220D01*
X22180Y28180D01*
X22420Y28140D02*
Y28380D01*
X22540D01*
X22580Y28340D01*
Y28260D01*
X22540Y28220D01*
X22420D01*
X22820Y28140D02*
X22660D01*
X22820Y28300D01*
Y28340D01*
X22780Y28380D01*
X22700D01*
X22660Y28340D01*
X22900Y28140D02*
X22980D01*
X22940D01*
Y28380D01*
X22900Y28340D01*
X15720Y28230D02*
X15640D01*
X15680D01*
Y28030D01*
X15640Y27990D01*
X15600D01*
X15560Y28030D01*
X15800Y27990D02*
Y28230D01*
X15920D01*
X15960Y28190D01*
Y28110D01*
X15920Y28070D01*
X15800D01*
X16200Y27990D02*
X16040D01*
X16200Y28150D01*
Y28190D01*
X16160Y28230D01*
X16080D01*
X16040Y28190D01*
X16280D02*
X16320Y28230D01*
X16400D01*
X16440Y28190D01*
Y28030D01*
X16400Y27990D01*
X16320D01*
X16280Y28030D01*
Y28190D01*
X10170Y5150D02*
X10090D01*
X10130D01*
Y4950D01*
X10090Y4910D01*
X10050D01*
X10010Y4950D01*
X10250Y4910D02*
Y5150D01*
X10370D01*
X10410Y5110D01*
Y5030D01*
X10370Y4990D01*
X10250D01*
X10490Y4910D02*
X10570D01*
X10530D01*
Y5150D01*
X10490Y5110D01*
X10690Y4950D02*
X10730Y4910D01*
X10810D01*
X10850Y4950D01*
Y5110D01*
X10810Y5150D01*
X10730D01*
X10690Y5110D01*
Y5070D01*
X10730Y5030D01*
X10850D01*
X10930Y2500D02*
X10850D01*
X10890D01*
Y2300D01*
X10850Y2260D01*
X10810D01*
X10770Y2300D01*
X11010Y2260D02*
Y2500D01*
X11130D01*
X11170Y2460D01*
Y2380D01*
X11130Y2340D01*
X11010D01*
X11250Y2260D02*
X11330D01*
X11290D01*
Y2500D01*
X11250Y2460D01*
X11450D02*
X11490Y2500D01*
X11570D01*
X11610Y2460D01*
Y2420D01*
X11570Y2380D01*
X11610Y2340D01*
Y2300D01*
X11570Y2260D01*
X11490D01*
X11450Y2300D01*
Y2340D01*
X11490Y2380D01*
X11450Y2420D01*
Y2460D01*
X11490Y2380D02*
X11570D01*
X2440Y36970D02*
X2360D01*
X2400D01*
Y36770D01*
X2360Y36730D01*
X2320D01*
X2280Y36770D01*
X2520Y36730D02*
Y36970D01*
X2640D01*
X2680Y36930D01*
Y36850D01*
X2640Y36810D01*
X2520D01*
X2760Y36730D02*
X2840D01*
X2800D01*
Y36970D01*
X2760Y36930D01*
X2960Y36970D02*
X3120D01*
Y36930D01*
X2960Y36770D01*
Y36730D01*
X1070Y36970D02*
X990D01*
X1030D01*
Y36770D01*
X990Y36730D01*
X950D01*
X910Y36770D01*
X1150Y36730D02*
Y36970D01*
X1270D01*
X1310Y36930D01*
Y36850D01*
X1270Y36810D01*
X1150D01*
X1390Y36730D02*
X1470D01*
X1430D01*
Y36970D01*
X1390Y36930D01*
X1750Y36970D02*
X1670Y36930D01*
X1590Y36850D01*
Y36770D01*
X1630Y36730D01*
X1710D01*
X1750Y36770D01*
Y36810D01*
X1710Y36850D01*
X1590D01*
X32140Y30580D02*
X32060D01*
X32100D01*
Y30380D01*
X32060Y30340D01*
X32020D01*
X31980Y30380D01*
X32220Y30340D02*
Y30580D01*
X32340D01*
X32380Y30540D01*
Y30460D01*
X32340Y30420D01*
X32220D01*
X32460Y30340D02*
X32540D01*
X32500D01*
Y30580D01*
X32460Y30540D01*
X32820Y30580D02*
X32660D01*
Y30460D01*
X32740Y30500D01*
X32780D01*
X32820Y30460D01*
Y30380D01*
X32780Y30340D01*
X32700D01*
X32660Y30380D01*
X3340Y31140D02*
Y31060D01*
Y31100D01*
X3540D01*
X3580Y31060D01*
Y31020D01*
X3540Y30980D01*
X3580Y31220D02*
X3340D01*
Y31340D01*
X3380Y31380D01*
X3460D01*
X3500Y31340D01*
Y31220D01*
X3580Y31460D02*
Y31540D01*
Y31500D01*
X3340D01*
X3380Y31460D01*
X3580Y31780D02*
X3340D01*
X3460Y31660D01*
Y31820D01*
X3770Y31110D02*
Y31030D01*
Y31070D01*
X3970D01*
X4010Y31030D01*
Y30990D01*
X3970Y30950D01*
X4010Y31190D02*
X3770D01*
Y31310D01*
X3810Y31350D01*
X3890D01*
X3930Y31310D01*
Y31190D01*
X4010Y31430D02*
Y31510D01*
Y31470D01*
X3770D01*
X3810Y31430D01*
Y31630D02*
X3770Y31670D01*
Y31750D01*
X3810Y31790D01*
X3850D01*
X3890Y31750D01*
Y31710D01*
Y31750D01*
X3930Y31790D01*
X3970D01*
X4010Y31750D01*
Y31670D01*
X3970Y31630D01*
X30520Y12810D02*
Y12730D01*
Y12770D01*
X30720D01*
X30760Y12730D01*
Y12690D01*
X30720Y12650D01*
X30760Y12890D02*
X30520D01*
Y13010D01*
X30560Y13050D01*
X30640D01*
X30680Y13010D01*
Y12890D01*
X30760Y13130D02*
Y13210D01*
Y13170D01*
X30520D01*
X30560Y13130D01*
X30760Y13490D02*
Y13330D01*
X30600Y13490D01*
X30560D01*
X30520Y13450D01*
Y13370D01*
X30560Y13330D01*
X30540Y18640D02*
Y18560D01*
Y18600D01*
X30740D01*
X30780Y18560D01*
Y18520D01*
X30740Y18480D01*
X30780Y18720D02*
X30540D01*
Y18840D01*
X30580Y18880D01*
X30660D01*
X30700Y18840D01*
Y18720D01*
X30780Y18960D02*
Y19040D01*
Y19000D01*
X30540D01*
X30580Y18960D01*
X30780Y19160D02*
Y19240D01*
Y19200D01*
X30540D01*
X30580Y19160D01*
X8190Y20960D02*
Y20880D01*
Y20920D01*
X8390D01*
X8430Y20880D01*
Y20840D01*
X8390Y20800D01*
X8430Y21040D02*
X8190D01*
Y21160D01*
X8230Y21200D01*
X8310D01*
X8350Y21160D01*
Y21040D01*
X8430Y21280D02*
Y21360D01*
Y21320D01*
X8190D01*
X8230Y21280D01*
Y21480D02*
X8190Y21520D01*
Y21600D01*
X8230Y21640D01*
X8390D01*
X8430Y21600D01*
Y21520D01*
X8390Y21480D01*
X8230D01*
X9360Y20910D02*
Y20830D01*
Y20870D01*
X9560D01*
X9600Y20830D01*
Y20790D01*
X9560Y20750D01*
X9600Y20990D02*
X9360D01*
Y21110D01*
X9400Y21150D01*
X9480D01*
X9520Y21110D01*
Y20990D01*
X9560Y21230D02*
X9600Y21270D01*
Y21350D01*
X9560Y21390D01*
X9400D01*
X9360Y21350D01*
Y21270D01*
X9400Y21230D01*
X9440D01*
X9480Y21270D01*
Y21390D01*
X8270Y26370D02*
Y26290D01*
Y26330D01*
X8470D01*
X8510Y26290D01*
Y26250D01*
X8470Y26210D01*
X8510Y26450D02*
X8270D01*
Y26570D01*
X8310Y26610D01*
X8390D01*
X8430Y26570D01*
Y26450D01*
X8310Y26690D02*
X8270Y26730D01*
Y26810D01*
X8310Y26850D01*
X8350D01*
X8390Y26810D01*
X8430Y26850D01*
X8470D01*
X8510Y26810D01*
Y26730D01*
X8470Y26690D01*
X8430D01*
X8390Y26730D01*
X8350Y26690D01*
X8310D01*
X8390Y26730D02*
Y26810D01*
X9410Y26370D02*
Y26290D01*
Y26330D01*
X9610D01*
X9650Y26290D01*
Y26250D01*
X9610Y26210D01*
X9650Y26450D02*
X9410D01*
Y26570D01*
X9450Y26610D01*
X9530D01*
X9570Y26570D01*
Y26450D01*
X9410Y26690D02*
Y26850D01*
X9450D01*
X9610Y26690D01*
X9650D01*
X16540Y9080D02*
Y9000D01*
Y9040D01*
X16740D01*
X16780Y9000D01*
Y8960D01*
X16740Y8920D01*
X16780Y9160D02*
X16540D01*
Y9280D01*
X16580Y9320D01*
X16660D01*
X16700Y9280D01*
Y9160D01*
X16540Y9560D02*
X16580Y9480D01*
X16660Y9400D01*
X16740D01*
X16780Y9440D01*
Y9520D01*
X16740Y9560D01*
X16700D01*
X16660Y9520D01*
Y9400D01*
X7910Y35240D02*
X7830D01*
X7870D01*
Y35040D01*
X7830Y35000D01*
X7790D01*
X7750Y35040D01*
X7990Y35000D02*
Y35240D01*
X8110D01*
X8150Y35200D01*
Y35120D01*
X8110Y35080D01*
X7990D01*
X8390Y35240D02*
X8230D01*
Y35120D01*
X8310Y35160D01*
X8350D01*
X8390Y35120D01*
Y35040D01*
X8350Y35000D01*
X8270D01*
X8230Y35040D01*
X30550Y25680D02*
Y25600D01*
Y25640D01*
X30750D01*
X30790Y25600D01*
Y25560D01*
X30750Y25520D01*
X30790Y25760D02*
X30550D01*
Y25880D01*
X30590Y25920D01*
X30670D01*
X30710Y25880D01*
Y25760D01*
X30790Y26120D02*
X30550D01*
X30670Y26000D01*
Y26160D01*
X990Y4820D02*
X910D01*
X950D01*
Y4620D01*
X910Y4580D01*
X870D01*
X830Y4620D01*
X1070Y4580D02*
Y4820D01*
X1190D01*
X1230Y4780D01*
Y4700D01*
X1190Y4660D01*
X1070D01*
X1310Y4780D02*
X1350Y4820D01*
X1430D01*
X1470Y4780D01*
Y4740D01*
X1430Y4700D01*
X1390D01*
X1430D01*
X1470Y4660D01*
Y4620D01*
X1430Y4580D01*
X1350D01*
X1310Y4620D01*
X37260Y32170D02*
Y32090D01*
Y32130D01*
X37460D01*
X37500Y32090D01*
Y32050D01*
X37460Y32010D01*
X37500Y32250D02*
X37260D01*
Y32370D01*
X37300Y32410D01*
X37380D01*
X37420Y32370D01*
Y32250D01*
X37500Y32650D02*
Y32490D01*
X37340Y32650D01*
X37300D01*
X37260Y32610D01*
Y32530D01*
X37300Y32490D01*
X37330Y35410D02*
Y35330D01*
Y35370D01*
X37530D01*
X37570Y35330D01*
Y35290D01*
X37530Y35250D01*
X37570Y35490D02*
X37330D01*
Y35610D01*
X37370Y35650D01*
X37450D01*
X37490Y35610D01*
Y35490D01*
X37570Y35730D02*
Y35810D01*
Y35770D01*
X37330D01*
X37370Y35730D01*
X3500Y36900D02*
Y36660D01*
Y36780D01*
X3660D01*
Y36900D01*
Y36660D01*
X3900Y36900D02*
X3740D01*
Y36780D01*
X3820Y36820D01*
X3860D01*
X3900Y36780D01*
Y36700D01*
X3860Y36660D01*
X3780D01*
X3740Y36700D01*
X3500Y38220D02*
Y37980D01*
Y38100D01*
X3660D01*
Y38220D01*
Y37980D01*
X3860D02*
Y38220D01*
X3740Y38100D01*
X3900D01*
X3500Y34260D02*
Y34020D01*
Y34140D01*
X3660D01*
Y34260D01*
Y34020D01*
X3740Y34220D02*
X3780Y34260D01*
X3860D01*
X3900Y34220D01*
Y34180D01*
X3860Y34140D01*
X3820D01*
X3860D01*
X3900Y34100D01*
Y34060D01*
X3860Y34020D01*
X3780D01*
X3740Y34060D01*
X3500Y35580D02*
Y35340D01*
Y35460D01*
X3660D01*
Y35580D01*
Y35340D01*
X3900D02*
X3740D01*
X3900Y35500D01*
Y35540D01*
X3860Y35580D01*
X3780D01*
X3740Y35540D01*
X3670Y10110D02*
X3910D01*
X3790D01*
Y10270D01*
X3670D01*
X3910D01*
Y10350D02*
Y10430D01*
Y10390D01*
X3670D01*
X3710Y10350D01*
X26060Y2950D02*
Y2710D01*
X26180D01*
X26220Y2750D01*
Y2910D01*
X26180Y2950D01*
X26060D01*
X26300D02*
Y2710D01*
X26420D01*
X26460Y2750D01*
Y2790D01*
X26420Y2830D01*
X26300D01*
X26420D01*
X26460Y2870D01*
Y2910D01*
X26420Y2950D01*
X26300D01*
X26540Y2710D02*
X26620D01*
X26580D01*
Y2950D01*
X26540Y2910D01*
X23020Y22410D02*
X22980Y22450D01*
X22900D01*
X22860Y22410D01*
Y22250D01*
X22900Y22210D01*
X22980D01*
X23020Y22250D01*
X23260Y22210D02*
X23100D01*
X23260Y22370D01*
Y22410D01*
X23220Y22450D01*
X23140D01*
X23100Y22410D01*
X23500Y22450D02*
X23340D01*
Y22330D01*
X23420Y22370D01*
X23460D01*
X23500Y22330D01*
Y22250D01*
X23460Y22210D01*
X23380D01*
X23340Y22250D01*
X22000Y17260D02*
X21960Y17220D01*
Y17140D01*
X22000Y17100D01*
X22160D01*
X22200Y17140D01*
Y17220D01*
X22160Y17260D01*
X22200Y17500D02*
Y17340D01*
X22040Y17500D01*
X22000D01*
X21960Y17460D01*
Y17380D01*
X22000Y17340D01*
X22200Y17700D02*
X21960D01*
X22080Y17580D01*
Y17740D01*
X16530Y19480D02*
X16490Y19520D01*
X16410D01*
X16370Y19480D01*
Y19320D01*
X16410Y19280D01*
X16490D01*
X16530Y19320D01*
X16770Y19280D02*
X16610D01*
X16770Y19440D01*
Y19480D01*
X16730Y19520D01*
X16650D01*
X16610Y19480D01*
X16850D02*
X16890Y19520D01*
X16970D01*
X17010Y19480D01*
Y19440D01*
X16970Y19400D01*
X16930D01*
X16970D01*
X17010Y19360D01*
Y19320D01*
X16970Y19280D01*
X16890D01*
X16850Y19320D01*
X31960Y18320D02*
X31920Y18280D01*
Y18200D01*
X31960Y18160D01*
X32120D01*
X32160Y18200D01*
Y18280D01*
X32120Y18320D01*
X32160Y18560D02*
Y18400D01*
X32000Y18560D01*
X31960D01*
X31920Y18520D01*
Y18440D01*
X31960Y18400D01*
X32160Y18640D02*
Y18720D01*
Y18680D01*
X31920D01*
X31960Y18640D01*
X5630Y18290D02*
X5590Y18330D01*
X5510D01*
X5470Y18290D01*
Y18130D01*
X5510Y18090D01*
X5590D01*
X5630Y18130D01*
X5870Y18090D02*
X5710D01*
X5870Y18250D01*
Y18290D01*
X5830Y18330D01*
X5750D01*
X5710Y18290D01*
X5950D02*
X5990Y18330D01*
X6070D01*
X6110Y18290D01*
Y18130D01*
X6070Y18090D01*
X5990D01*
X5950Y18130D01*
Y18290D01*
X5410Y28590D02*
X5370Y28550D01*
Y28470D01*
X5410Y28430D01*
X5570D01*
X5610Y28470D01*
Y28550D01*
X5570Y28590D01*
X5610Y28670D02*
Y28750D01*
Y28710D01*
X5370D01*
X5410Y28670D01*
X5570Y28870D02*
X5610Y28910D01*
Y28990D01*
X5570Y29030D01*
X5410D01*
X5370Y28990D01*
Y28910D01*
X5410Y28870D01*
X5450D01*
X5490Y28910D01*
Y29030D01*
X24240Y6850D02*
X24200Y6890D01*
X24120D01*
X24080Y6850D01*
Y6690D01*
X24120Y6650D01*
X24200D01*
X24240Y6690D01*
X24320Y6650D02*
X24400D01*
X24360D01*
Y6890D01*
X24320Y6850D01*
X24680Y6890D02*
X24600Y6850D01*
X24520Y6770D01*
Y6690D01*
X24560Y6650D01*
X24640D01*
X24680Y6690D01*
Y6730D01*
X24640Y6770D01*
X24520D01*
X19320Y10840D02*
X19280Y10880D01*
X19200D01*
X19160Y10840D01*
Y10680D01*
X19200Y10640D01*
X19280D01*
X19320Y10680D01*
X19400Y10640D02*
X19480D01*
X19440D01*
Y10880D01*
X19400Y10840D01*
X19760Y10880D02*
X19600D01*
Y10760D01*
X19680Y10800D01*
X19720D01*
X19760Y10760D01*
Y10680D01*
X19720Y10640D01*
X19640D01*
X19600Y10680D01*
X21320Y10830D02*
X21280Y10870D01*
X21200D01*
X21160Y10830D01*
Y10670D01*
X21200Y10630D01*
X21280D01*
X21320Y10670D01*
X21400Y10630D02*
X21480D01*
X21440D01*
Y10870D01*
X21400Y10830D01*
X21720Y10630D02*
Y10870D01*
X21600Y10750D01*
X21760D01*
X2580Y6080D02*
X2540Y6120D01*
X2460D01*
X2420Y6080D01*
Y5920D01*
X2460Y5880D01*
X2540D01*
X2580Y5920D01*
X2660Y5880D02*
X2740D01*
X2700D01*
Y6120D01*
X2660Y6080D01*
X2860D02*
X2900Y6120D01*
X2980D01*
X3020Y6080D01*
Y6040D01*
X2980Y6000D01*
X2940D01*
X2980D01*
X3020Y5960D01*
Y5920D01*
X2980Y5880D01*
X2900D01*
X2860Y5920D01*
X8340Y15720D02*
X8300Y15760D01*
X8220D01*
X8180Y15720D01*
Y15560D01*
X8220Y15520D01*
X8300D01*
X8340Y15560D01*
X8420Y15520D02*
X8500D01*
X8460D01*
Y15760D01*
X8420Y15720D01*
X8620Y15520D02*
X8700D01*
X8660D01*
Y15760D01*
X8620Y15720D01*
X8780Y10200D02*
X8740Y10240D01*
X8660D01*
X8620Y10200D01*
Y10040D01*
X8660Y10000D01*
X8740D01*
X8780Y10040D01*
X8860D02*
X8900Y10000D01*
X8980D01*
X9020Y10040D01*
Y10200D01*
X8980Y10240D01*
X8900D01*
X8860Y10200D01*
Y10160D01*
X8900Y10120D01*
X9020D01*
X7310Y2100D02*
X7270Y2060D01*
Y1980D01*
X7310Y1940D01*
X7470D01*
X7510Y1980D01*
Y2060D01*
X7470Y2100D01*
X7270Y2180D02*
Y2340D01*
X7310D01*
X7470Y2180D01*
X7510D01*
X21300Y23250D02*
X21260Y23290D01*
X21180D01*
X21140Y23250D01*
Y23090D01*
X21180Y23050D01*
X21260D01*
X21300Y23090D01*
X21540Y23050D02*
X21380D01*
X21540Y23210D01*
Y23250D01*
X21500Y23290D01*
X21420D01*
X21380Y23250D01*
X32640Y23740D02*
X32600Y23700D01*
Y23620D01*
X32640Y23580D01*
X32800D01*
X32840Y23620D01*
Y23700D01*
X32800Y23740D01*
X32840Y23820D02*
Y23900D01*
Y23860D01*
X32600D01*
X32640Y23820D01*
X35840Y30920D02*
Y30680D01*
X35960D01*
X36000Y30720D01*
Y30760D01*
X35960Y30800D01*
X35840D01*
X35960D01*
X36000Y30840D01*
Y30880D01*
X35960Y30920D01*
X35840D01*
X36240D02*
X36080D01*
Y30680D01*
X36240D01*
X36080Y30800D02*
X36160D01*
X36480Y30920D02*
X36320D01*
Y30680D01*
X36480D01*
X36320Y30800D02*
X36400D01*
X36560Y30680D02*
Y30920D01*
X36680D01*
X36720Y30880D01*
Y30800D01*
X36680Y30760D01*
X36560D01*
X36800Y30680D02*
X36880D01*
X36840D01*
Y30920D01*
X36800Y30880D01*
X32370Y32370D02*
Y32130D01*
X32490D01*
X32530Y32170D01*
Y32210D01*
X32490Y32250D01*
X32370D01*
X32490D01*
X32530Y32290D01*
Y32330D01*
X32490Y32370D01*
X32370D01*
X32610Y32130D02*
X32690D01*
X32650D01*
Y32370D01*
X32610Y32330D01*
X10010Y32270D02*
Y32470D01*
X10110Y32570D01*
X10210Y32470D01*
Y32270D01*
Y32420D01*
X10010D01*
X12010Y31550D02*
Y31750D01*
X12110Y31850D01*
X12210Y31750D01*
Y31550D01*
Y31700D01*
X12010D01*
X10550Y10760D02*
X10500Y10810D01*
X10400D01*
X10350Y10760D01*
Y10710D01*
X10400Y10660D01*
X10500D01*
X10550Y10610D01*
Y10560D01*
X10500Y10510D01*
X10400D01*
X10350Y10560D01*
X10650Y10810D02*
X10850D01*
X10750D01*
Y10510D01*
X10950D02*
Y10810D01*
X11050Y10710D01*
X11150Y10810D01*
Y10510D01*
X11250Y10760D02*
X11300Y10810D01*
X11400D01*
X11450Y10760D01*
Y10710D01*
X11400Y10660D01*
X11350D01*
X11400D01*
X11450Y10610D01*
Y10560D01*
X11400Y10510D01*
X11300D01*
X11250Y10560D01*
X11750Y10510D02*
X11550D01*
X11750Y10710D01*
Y10760D01*
X11700Y10810D01*
X11600D01*
X11550Y10760D01*
X12149Y10810D02*
Y10610D01*
X12249Y10510D01*
X12349Y10610D01*
Y10810D01*
X12449Y10510D02*
X12549D01*
X12499D01*
Y10810D01*
X12449Y10760D01*
X12699Y10510D02*
Y10560D01*
X12749D01*
Y10510D01*
X12699D01*
X12949Y10760D02*
X12999Y10810D01*
X13099D01*
X13149Y10760D01*
Y10560D01*
X13099Y10510D01*
X12999D01*
X12949Y10560D01*
Y10760D01*
X13549Y10510D02*
X13649D01*
X13599D01*
Y10810D01*
X13549Y10760D01*
X13999Y10810D02*
X13899Y10760D01*
X13799Y10660D01*
Y10560D01*
X13849Y10510D01*
X13949D01*
X13999Y10560D01*
Y10610D01*
X13949Y10660D01*
X13799D01*
X14099Y10510D02*
X14199D01*
X14149D01*
Y10810D01*
X14099Y10760D01*
X14349D02*
X14399Y10810D01*
X14499D01*
X14549Y10760D01*
Y10560D01*
X14499Y10510D01*
X14399D01*
X14349Y10560D01*
Y10760D01*
X14649Y10510D02*
X14749D01*
X14699D01*
Y10810D01*
X14649Y10760D01*
X14899Y10560D02*
X14949Y10510D01*
X15048D01*
X15098Y10560D01*
Y10760D01*
X15048Y10810D01*
X14949D01*
X14899Y10760D01*
Y10710D01*
X14949Y10660D01*
X15098D01*
D32*
X4962Y35963D02*
X5812D01*
X4962Y34963D02*
X5412D01*
X5912D01*
X6512Y35163D02*
Y35263D01*
X6312Y34963D02*
X6512Y35163D01*
X5912Y34963D02*
X6312D01*
X6512Y35263D02*
Y35763D01*
X6312Y35963D02*
X6512Y35763D01*
X5812Y35963D02*
X6312D01*
X4212Y34963D02*
Y35963D01*
Y34963D02*
X4962D01*
X4212Y35963D02*
X4962D01*
Y34643D02*
X5812D01*
X4962Y33643D02*
X5412D01*
X5912D01*
X6512Y33843D02*
Y33943D01*
X6312Y33643D02*
X6512Y33843D01*
X5912Y33643D02*
X6312D01*
X6512Y33943D02*
Y34443D01*
X6312Y34643D02*
X6512Y34443D01*
X5812Y34643D02*
X6312D01*
X4212Y33643D02*
Y34643D01*
Y33643D02*
X4962D01*
X4212Y34643D02*
X4962D01*
Y38603D02*
X5812D01*
X4962Y37603D02*
X5412D01*
X5912D01*
X6512Y37803D02*
Y37903D01*
X6312Y37603D02*
X6512Y37803D01*
X5912Y37603D02*
X6312D01*
X6512Y37903D02*
Y38403D01*
X6312Y38603D02*
X6512Y38403D01*
X5812Y38603D02*
X6312D01*
X4212Y37603D02*
Y38603D01*
Y37603D02*
X4962D01*
X4212Y38603D02*
X4962D01*
Y37283D02*
X5812D01*
X4962Y36283D02*
X5412D01*
X5912D01*
X6512Y36483D02*
Y36583D01*
X6312Y36283D02*
X6512Y36483D01*
X5912Y36283D02*
X6312D01*
X6512Y36583D02*
Y37083D01*
X6312Y37283D02*
X6512Y37083D01*
X5812Y37283D02*
X6312D01*
X4212Y36283D02*
Y37283D01*
Y36283D02*
X4962D01*
X4212Y37283D02*
X4962D01*
X3254Y8330D02*
Y9180D01*
X4254Y8330D02*
Y8780D01*
Y9280D01*
X3954Y9880D02*
X4054D01*
X4254Y9680D01*
Y9280D02*
Y9680D01*
X3454Y9880D02*
X3954D01*
X3254Y9680D02*
X3454Y9880D01*
X3254Y9180D02*
Y9680D01*
Y7580D02*
X4254D01*
Y8330D01*
X3254Y7580D02*
Y8330D01*
X6846Y7524D02*
X7046D01*
X7396Y6624D02*
X7446D01*
X7796Y7524D02*
X7996D01*
X6846Y7074D02*
Y7524D01*
X7996Y7074D02*
Y7524D01*
X34204Y27244D02*
Y27444D01*
X33304Y26844D02*
Y26894D01*
X34204Y26294D02*
Y26494D01*
X33754Y27444D02*
X34204D01*
X33754Y26294D02*
X34204D01*
X26172Y33064D02*
Y33264D01*
X27072Y33614D02*
Y33664D01*
X26172Y34014D02*
Y34214D01*
Y33064D02*
X26622D01*
X26172Y34214D02*
X26622D01*
X26172Y36414D02*
Y36614D01*
X27072Y36964D02*
Y37014D01*
X26172Y37364D02*
Y37564D01*
Y36414D02*
X26622D01*
X26172Y37564D02*
X26622D01*
X12688Y37364D02*
Y37564D01*
X11788Y36964D02*
Y37014D01*
X12688Y36414D02*
Y36614D01*
X12238Y37564D02*
X12688D01*
X12238Y36414D02*
X12688D01*
Y34014D02*
Y34214D01*
X11788Y33614D02*
Y33664D01*
X12688Y33064D02*
Y33264D01*
X12238Y34214D02*
X12688D01*
X12238Y33064D02*
X12688D01*
X3803Y10990D02*
Y14139D01*
X657Y10993D02*
X3803Y10990D01*
X654Y14139D02*
X657Y10993D01*
X654Y14139D02*
X3803D01*
X35168Y12731D02*
X38712D01*
Y25668D01*
X35168D02*
X38712D01*
X35168Y12731D02*
Y25668D01*
D33*
X4357Y26464D02*
G03*
X4357Y26464I-519J0D01*
G01*
X4369Y24416D02*
G03*
X4369Y24416I-519J0D01*
G01*
X4357Y21725D02*
G03*
X4357Y21725I-519J0D01*
G01*
X4369Y19678D02*
G03*
X4369Y19678I-519J0D01*
G01*
X5360Y20850D02*
G03*
X5360Y21350I0J250D01*
G01*
X5280Y24330D02*
G03*
X5280Y24830I0J250D01*
G01*
X9480Y5490D02*
G03*
X7880Y5490I-800J0D01*
G01*
Y3090D02*
G03*
X9480Y3090I800J0D01*
G01*
X32020Y14200D02*
G03*
X32020Y14700I0J250D01*
G01*
X38956Y28356D02*
G03*
X38956Y28356I-2116J0D01*
G01*
X35529Y36022D02*
G03*
X30946Y37988I-2886J-402D01*
G01*
X30084Y38415D02*
G03*
X29848Y38140I20J-256D01*
G01*
X29848Y33061D02*
G03*
X30084Y32825I236J0D01*
G01*
X30951Y38218D02*
G03*
X30714Y38415I-217J-20D01*
G01*
X30754Y32825D02*
G03*
X30951Y33022I-0J197D01*
G01*
X30962Y33743D02*
G03*
X31004Y37533I1681J1877D01*
G01*
X30947Y33252D02*
G03*
X35518Y35147I1697J2368D01*
G01*
X19890Y24610D02*
G03*
X19890Y26210I0J800D01*
G01*
X17490D02*
G03*
X17490Y24610I0J-800D01*
G01*
X24756Y31026D02*
G03*
X24756Y31026I-206J0D01*
G01*
X18724D02*
G03*
X18724Y31026I-206J0D01*
G01*
X650Y3700D02*
X1650D01*
X650Y2700D02*
X1650D01*
X650D02*
Y6700D01*
X1650Y2700D02*
Y6700D01*
X650D02*
X1650D01*
X5150Y35460D02*
X5550D01*
X5250Y35160D02*
Y35760D01*
Y35160D02*
X5550Y35460D01*
X5250Y35760D02*
X5550Y35460D01*
Y35160D02*
Y35760D01*
X5150Y34140D02*
X5550D01*
X5250Y33840D02*
Y34440D01*
Y33840D02*
X5550Y34140D01*
X5250Y34440D02*
X5550Y34140D01*
Y33840D02*
Y34440D01*
X5150Y38100D02*
X5550D01*
X5250Y37800D02*
Y38400D01*
Y37800D02*
X5550Y38100D01*
X5250Y38400D02*
X5550Y38100D01*
Y37800D02*
Y38400D01*
X5150Y36780D02*
X5550D01*
X5250Y36480D02*
Y37080D01*
Y36480D02*
X5550Y36780D01*
X5250Y37080D02*
X5550Y36780D01*
Y36480D02*
Y37080D01*
X830Y35430D02*
X1830D01*
X830Y36430D02*
X1830D01*
Y32430D02*
Y36430D01*
X830Y32430D02*
Y36430D01*
Y32430D02*
X1830D01*
X2196Y35430D02*
X3196D01*
X2196Y36430D02*
X3196D01*
Y32430D02*
Y36430D01*
X2196Y32430D02*
Y36430D01*
Y32430D02*
X3196D01*
X834Y30880D02*
X1834D01*
X834Y31880D02*
X1834D01*
Y27880D02*
Y31880D01*
X834Y27880D02*
Y31880D01*
Y27880D02*
X1834D01*
X2196Y30880D02*
X3196D01*
X2196Y31880D02*
X3196D01*
Y27880D02*
Y31880D01*
X2196Y27880D02*
Y31880D01*
Y27880D02*
X3196D01*
X5180Y30564D02*
Y31169D01*
Y31419D02*
Y32025D01*
X7180D01*
Y30564D02*
Y32025D01*
X5180Y30564D02*
X7180D01*
X7030Y35400D02*
X9130D01*
Y36400D01*
X7030D02*
X9130D01*
X7030Y35400D02*
Y36400D01*
X8030Y35400D02*
Y36400D01*
X6968Y38690D02*
X11020D01*
Y37690D02*
Y38690D01*
Y36690D02*
Y37690D01*
X6968Y36690D02*
X11020D01*
X6968D02*
Y38690D01*
X6005Y26530D02*
X6805D01*
X6005Y28130D02*
X6805D01*
X6005Y26530D02*
Y28130D01*
X6805Y26530D02*
Y28130D01*
X6920Y26530D02*
X7720D01*
X6920Y28130D02*
X7720D01*
X6920Y26530D02*
Y28130D01*
X7720Y26530D02*
Y28130D01*
X5360Y20600D02*
X7360D01*
Y21600D01*
X5360D02*
X7360D01*
X5360Y21350D02*
Y21600D01*
Y20600D02*
Y20850D01*
X8790Y18510D02*
Y20610D01*
X7790D02*
X8790D01*
X7790Y18510D02*
Y20610D01*
Y18510D02*
X8790D01*
X7790Y19510D02*
X8790D01*
X9940Y18520D02*
Y20620D01*
X8940D02*
X9940D01*
X8940Y18520D02*
Y20620D01*
Y18520D02*
X9940D01*
X8940Y19520D02*
X9940D01*
X8940Y25030D02*
X9940D01*
X8940Y26030D02*
X9940D01*
Y23030D02*
Y26030D01*
X8940Y23030D02*
X9940D01*
X8940D02*
Y26030D01*
X7790Y25030D02*
X8790D01*
X7790Y26030D02*
X8790D01*
Y23030D02*
Y26030D01*
X7790Y23030D02*
X8790D01*
X7790D02*
Y26030D01*
X5280Y24080D02*
X7280D01*
Y25080D01*
X5280D02*
X7280D01*
X5280Y24830D02*
Y25080D01*
Y24080D02*
Y24330D01*
X5483Y16080D02*
Y16723D01*
X7136D01*
X7569Y16271D01*
Y16113D02*
Y16271D01*
Y15089D02*
Y15247D01*
X7136Y14637D02*
X7569Y15089D01*
X5483Y14637D02*
X7136D01*
X5483D02*
Y15280D01*
X7959Y9037D02*
Y9680D01*
X6306Y9037D02*
X7959D01*
X5873Y9489D02*
X6306Y9037D01*
X5873Y9489D02*
Y9647D01*
Y10513D02*
Y10671D01*
X6306Y11123D01*
X7959D01*
Y10480D02*
Y11123D01*
X4464Y9210D02*
X5264D01*
X4464Y7610D02*
X5264D01*
Y9210D01*
X4464Y7610D02*
Y9210D01*
X3757Y8518D02*
Y8918D01*
X3457Y8618D02*
X4057D01*
X3757Y8918D02*
X4057Y8618D01*
X3457D02*
X3757Y8918D01*
X3457D02*
X4057D01*
X2006Y8630D02*
X3006D01*
X2006Y7630D02*
X3006D01*
X2006D02*
Y10630D01*
X3006D01*
Y7630D02*
Y10630D01*
X644Y8630D02*
X1644D01*
X644Y7630D02*
X1644D01*
X644D02*
Y10630D01*
X1644D01*
Y7630D02*
Y10630D01*
X3920Y6290D02*
Y7090D01*
X5520Y6290D02*
Y7090D01*
X3920D02*
X5520D01*
X3920Y6290D02*
X5520D01*
X7880Y3090D02*
Y5490D01*
X9480Y3090D02*
Y5490D01*
X8210Y6780D02*
Y7580D01*
X9810Y6780D02*
Y7580D01*
X8210D02*
X9810D01*
X8210Y6780D02*
X9810D01*
X9840Y3770D02*
X11940D01*
Y4770D01*
X9840D02*
X11940D01*
X9840Y3770D02*
Y4770D01*
X10840Y3770D02*
Y4770D01*
X9840Y2610D02*
X11940D01*
Y3610D01*
X9840D02*
X11940D01*
X9840Y2610D02*
Y3610D01*
X10840Y2610D02*
Y3610D01*
X12110Y2610D02*
X12910D01*
X12110Y4210D02*
X12910D01*
X12110Y2610D02*
Y4210D01*
X12910Y2610D02*
Y4210D01*
X17080Y6600D02*
Y8700D01*
X16080D02*
X17080D01*
X16080Y6600D02*
Y8700D01*
Y6600D02*
X17080D01*
X16080Y7600D02*
X17080D01*
X26000Y10000D02*
Y10800D01*
X27600Y10000D02*
Y10800D01*
X26000D02*
X27600D01*
X26000Y10000D02*
X27600D01*
X11900Y13620D02*
X27900D01*
X11900Y11620D02*
Y13620D01*
Y11620D02*
X27900D01*
Y13620D01*
X31140Y16210D02*
Y18310D01*
X30140D02*
X31140D01*
X30140Y16210D02*
Y18310D01*
Y16210D02*
X31140D01*
X30140Y17210D02*
X31140D01*
X31150Y13610D02*
Y15710D01*
X30150D02*
X31150D01*
X30150Y13610D02*
Y15710D01*
Y13610D02*
X31150D01*
X30150Y14610D02*
X31150D01*
X32020Y13950D02*
X34020D01*
Y14950D01*
X32020D02*
X34020D01*
X32020Y14700D02*
Y14950D01*
Y13950D02*
Y14200D01*
X33400Y16260D02*
X34200D01*
X33400Y17860D02*
X34200D01*
X33400Y16260D02*
Y17860D01*
X34200Y16260D02*
Y17860D01*
X32520Y16260D02*
X33320D01*
X32520Y17860D02*
X33320D01*
X32520Y16260D02*
Y17860D01*
X33320Y16260D02*
Y17860D01*
X30140Y24350D02*
X31140D01*
X30140Y25350D02*
X31140D01*
Y21350D02*
Y25350D01*
X30140Y21350D02*
Y25350D01*
Y21350D02*
X31140D01*
X31390Y23280D02*
X32190D01*
X31390Y21680D02*
X32190D01*
Y23280D01*
X31390Y21680D02*
Y23280D01*
X33260Y27950D02*
Y28750D01*
X31660Y27950D02*
Y28750D01*
Y27950D02*
X33260D01*
X31660Y28750D02*
X33260D01*
X31670Y26030D02*
X32470D01*
X31670Y27630D02*
X32470D01*
X31670Y26030D02*
Y27630D01*
X32470Y26030D02*
Y27630D01*
X31660Y30160D02*
X33760D01*
X31660Y29160D02*
Y30160D01*
Y29160D02*
X33760D01*
Y30160D01*
X32760Y29160D02*
Y30160D01*
X37740Y31870D02*
X38740D01*
X37740Y30870D02*
X38740D01*
X37740D02*
Y33870D01*
X38740D01*
Y30870D02*
Y33870D01*
X37740Y35020D02*
X38740D01*
X37740Y34020D02*
X38740D01*
X37740D02*
Y37020D01*
X38740D01*
Y34020D02*
Y37020D01*
X30951Y33022D02*
Y33258D01*
X30084Y32825D02*
X30754D01*
X30951Y37982D02*
Y38218D01*
X30084Y38415D02*
X30754D01*
X29848Y33061D02*
Y35187D01*
Y36053D02*
Y38140D01*
X30962Y33743D02*
Y37492D01*
X31004Y37533D01*
X27530Y37810D02*
Y38610D01*
X25930Y37810D02*
Y38610D01*
Y37810D02*
X27530D01*
X25930Y38610D02*
X27530D01*
X25930Y32100D02*
Y32900D01*
X27530Y32100D02*
Y32900D01*
X25930D02*
X27530D01*
X25930Y32100D02*
X27530D01*
X25930Y35420D02*
Y36220D01*
X27530Y35420D02*
Y36220D01*
X25930D02*
X27530D01*
X25930Y35420D02*
X27530D01*
Y34490D02*
Y35290D01*
X25930Y34490D02*
Y35290D01*
Y34490D02*
X27530D01*
X25930Y35290D02*
X27530D01*
X13553Y38448D02*
X25187D01*
X13553Y32952D02*
X25187D01*
X22776Y34314D02*
X23878D01*
X22776D02*
Y37031D01*
X22815Y37070D01*
X24035Y34314D02*
Y37031D01*
X23878Y34314D02*
X24035D01*
X22815Y35731D02*
X24035D01*
X22776Y35692D02*
X22815Y35731D01*
Y37070D02*
X24019D01*
X24035Y37031D01*
X21303Y37070D02*
X21319Y37031D01*
X20098Y37070D02*
X21303D01*
X20059Y35692D02*
X20098Y35731D01*
X21319D01*
X21161Y34314D02*
X21319D01*
Y37031D01*
X20059D02*
X20098Y37070D01*
X20059Y34314D02*
Y37031D01*
Y34314D02*
X21161D01*
X14901D02*
X16004D01*
X14901D02*
Y37031D01*
X14941Y37070D01*
X16161Y34314D02*
Y37031D01*
X16004Y34314D02*
X16161D01*
X14941Y35731D02*
X16161D01*
X14901Y35692D02*
X14941Y35731D01*
Y37070D02*
X16145D01*
X16161Y37031D01*
X18862Y37070D02*
X18878Y37031D01*
X17657Y37070D02*
X18862D01*
X17618Y35692D02*
X17657Y35731D01*
X18878D01*
X18720Y34314D02*
X18878D01*
Y37031D01*
X17618D02*
X17657Y37070D01*
X17618Y34314D02*
Y37031D01*
Y34314D02*
X18720D01*
X25276Y33700D02*
Y37700D01*
Y32972D02*
Y33700D01*
X25256Y32952D02*
X25276Y32972D01*
X25098Y32952D02*
X25256D01*
X25276Y37700D02*
Y38359D01*
Y38444D01*
X25272Y38448D02*
X25276Y38444D01*
X25187Y38448D02*
X25272D01*
X13464Y33700D02*
Y37700D01*
Y38428D01*
X13484Y38448D01*
X13553D01*
X13464Y32956D02*
Y33700D01*
Y32956D02*
X13468Y32952D01*
X13681D01*
X12930Y37810D02*
Y38610D01*
X11330Y37810D02*
Y38610D01*
Y37810D02*
X12930D01*
X11330Y38610D02*
X12930D01*
X11330Y35420D02*
Y36220D01*
X12930Y35420D02*
Y36220D01*
X11330D02*
X12930D01*
X11330Y35420D02*
X12930D01*
Y34490D02*
Y35290D01*
X11330Y34490D02*
Y35290D01*
Y34490D02*
X12930D01*
X11330Y35290D02*
X12930D01*
X11330Y32100D02*
Y32900D01*
X12930Y32100D02*
Y32900D01*
X11330D02*
X12930D01*
X11330Y32100D02*
X12930D01*
X15580Y26850D02*
Y27850D01*
X14580Y26850D02*
Y27850D01*
X17580D01*
Y26850D02*
Y27850D01*
X14580Y26850D02*
X17580D01*
X21960Y26910D02*
Y27910D01*
X20960Y26910D02*
Y27910D01*
X23960D01*
Y26910D02*
Y27910D01*
X20960Y26910D02*
X23960D01*
X23154Y24568D02*
Y25532D01*
X21265D02*
X23154D01*
X21265Y24568D02*
Y25532D01*
Y24568D02*
X23154D01*
X17490Y26210D02*
X19890D01*
X17490Y24610D02*
X19890D01*
X15890Y20130D02*
Y20930D01*
X17490Y20130D02*
Y20930D01*
X15890D02*
X17490D01*
X15890Y20130D02*
X17490D01*
X28550Y12620D02*
X29550D01*
X28550Y11620D02*
X29550D01*
X28550D02*
Y27636D01*
X29550D01*
Y11620D02*
Y27636D01*
X2006Y15510D02*
X3006D01*
X2006Y14510D02*
X3006D01*
X2006D02*
Y17510D01*
X3006D01*
Y14510D02*
Y17510D01*
X644Y15510D02*
X1644D01*
X644Y14510D02*
X1644D01*
X644D02*
Y17510D01*
X1644D01*
Y14510D02*
Y17510D01*
X10280Y12620D02*
X11280D01*
X10280Y11620D02*
X11280D01*
X10280D02*
Y27636D01*
X11280D01*
Y11620D02*
Y27636D01*
X3292Y14139D02*
X3492Y14139D01*
X3803Y13644D02*
X3804Y13844D01*
X968Y14144D02*
X1168Y14144D01*
X2677Y13552D02*
X3424Y13552D01*
X2677Y13381D02*
Y13552D01*
X2839Y12568D02*
X3424D01*
X2797Y11584D02*
X3424D01*
X2677Y11995D02*
Y13381D01*
Y11995D02*
X3020Y11404D01*
X1016Y11588D02*
X1763Y11588D01*
Y11759D01*
X1016Y12572D02*
X1601D01*
X1016Y13556D02*
X1643D01*
X1763Y11759D02*
Y13145D01*
X1420Y13736D02*
X1763Y13145D01*
X38240Y18300D02*
X38640D01*
X38240D02*
Y20100D01*
X38712D01*
X32320Y21680D02*
X33120D01*
X32320Y23280D02*
X33120D01*
X32320Y21680D02*
Y22280D01*
X33120Y21680D02*
Y22280D01*
X32320Y22680D02*
Y23280D01*
X33120Y22680D02*
Y23280D01*
X20543Y24390D02*
X21143D01*
X20543Y23590D02*
X21143D01*
X21543Y24390D02*
X22143D01*
X21543Y23590D02*
X22143D01*
X20543D02*
Y24390D01*
X22143Y23590D02*
Y24390D01*
X6920Y2560D02*
X7720D01*
X6920Y4160D02*
X7720D01*
X6920Y2560D02*
Y3160D01*
X7720Y2560D02*
Y3160D01*
X6920Y3560D02*
Y4160D01*
X7720Y3560D02*
Y4160D01*
X2090Y6310D02*
Y7110D01*
X3690Y6310D02*
Y7110D01*
X2090D02*
X2690D01*
X2090Y6310D02*
X2690D01*
X3090Y7110D02*
X3690D01*
X3090Y6310D02*
X3690D01*
X21660Y9530D02*
X22260D01*
X21660Y10330D02*
X22260D01*
X20660Y9530D02*
X21260D01*
X20660Y10330D02*
X21260D01*
X22260Y9530D02*
Y10330D01*
X20660Y9530D02*
Y10330D01*
X18660Y9540D02*
Y10340D01*
X20260Y9540D02*
Y10340D01*
X18660D02*
X19260D01*
X18660Y9540D02*
X19260D01*
X19660Y10340D02*
X20260D01*
X19660Y9540D02*
X20260D01*
X23310Y6470D02*
X23910D01*
X23310Y7270D02*
X23910D01*
X22310Y6470D02*
X22910D01*
X22310Y7270D02*
X22910D01*
X23910Y6470D02*
Y7270D01*
X22310Y6470D02*
Y7270D01*
X5090Y26530D02*
X5890D01*
X5090Y28130D02*
X5890D01*
X5090Y26530D02*
Y27130D01*
X5890Y26530D02*
Y27130D01*
X5090Y27530D02*
Y28130D01*
X5890Y27530D02*
Y28130D01*
X6420Y18510D02*
X7020D01*
X6420Y19310D02*
X7020D01*
X5420Y18510D02*
X6020D01*
X5420Y19310D02*
X6020D01*
X7020Y18510D02*
Y19310D01*
X5420Y18510D02*
Y19310D01*
X31640Y17860D02*
X32440D01*
X31640Y16260D02*
X32440D01*
Y17260D02*
Y17860D01*
X31640Y17260D02*
Y17860D01*
X32440Y16260D02*
Y16860D01*
X31640Y16260D02*
Y16860D01*
X17490Y18180D02*
Y18980D01*
X15890Y18180D02*
Y18980D01*
X16890Y18180D02*
X17490D01*
X16890Y18980D02*
X17490D01*
X15890Y18180D02*
X16490D01*
X15890Y18980D02*
X16490D01*
X20960Y16410D02*
Y17010D01*
X21760Y16410D02*
Y17010D01*
X20960Y17410D02*
Y18010D01*
X21760Y17410D02*
Y18010D01*
X20960Y16410D02*
X21760D01*
X20960Y18010D02*
X21760D01*
X22380Y21110D02*
Y21910D01*
X23980Y21110D02*
Y21910D01*
X22380D02*
X22980D01*
X22380Y21110D02*
X22980D01*
X23380Y21910D02*
X23980D01*
X23380Y21110D02*
X23980D01*
X23320Y23590D02*
X23920D01*
X23320Y24390D02*
X23920D01*
X22320Y23590D02*
X22920D01*
X22320Y24390D02*
X22920D01*
X23920Y23590D02*
Y24390D01*
X22320Y23590D02*
Y24390D01*
X18590Y23590D02*
Y24390D01*
X16990Y23590D02*
Y24390D01*
X17990Y23590D02*
X18590D01*
X17990Y24390D02*
X18590D01*
X16990Y23590D02*
X17590D01*
X16990Y24390D02*
X17590D01*
X19767Y23590D02*
X20367D01*
X19767Y24390D02*
X20367D01*
X18767Y23590D02*
X19367D01*
X18767Y24390D02*
X19367D01*
X20367Y23590D02*
Y24390D01*
X18767Y23590D02*
Y24390D01*
X6910Y6130D02*
X7710D01*
X6910Y4530D02*
X7710D01*
Y5530D02*
Y6130D01*
X6910Y5530D02*
Y6130D01*
X7710Y4530D02*
Y5130D01*
X6910Y4530D02*
Y5130D01*
X22240Y3733D02*
X22406Y3816D01*
X22573Y3982D01*
Y4149D01*
X22490Y4232D01*
X22323D01*
X22240Y4149D01*
Y4066D01*
X22323Y3982D01*
X22573D01*
X22973Y5432D02*
X22806D01*
X22890D01*
Y4933D01*
X22973Y5016D01*
X16640Y4933D02*
X16973D01*
Y5182D01*
X16806Y5099D01*
X16723D01*
X16640Y5182D01*
Y5349D01*
X16723Y5432D01*
X16890D01*
X16973Y5349D01*
X17373Y4149D02*
X17290Y4232D01*
X17123D01*
X17040Y4149D01*
Y3816D01*
X17123Y3733D01*
X17290D01*
X17373Y3816D01*
Y3899D01*
X17290Y3982D01*
X17040D01*
X37115Y29380D02*
Y28593D01*
X37509Y28986D02*
X36722D01*
D34*
X6103Y1083D02*
Y1772D01*
X5571D02*
X6103D01*
X2953Y1097D02*
Y1772D01*
X3485D01*
X3678Y1185D02*
X5410D01*
X2953Y178D02*
Y1097D01*
X6103Y158D02*
Y1083D01*
X12517D02*
Y1772D01*
X11986D02*
X12517D01*
X9367Y1097D02*
Y1772D01*
X9899D01*
X10092Y1185D02*
X11824D01*
X9367Y178D02*
Y1097D01*
X12517Y158D02*
Y1083D01*
D37*
X22773Y1632D02*
G03*
X22273Y2132I-500J0D01*
G01*
X17273D02*
G03*
X16773Y1632I0J-500D01*
G01*
X25023Y2882D02*
G03*
X24523Y2882I-250J0D01*
G01*
X15023D02*
G03*
X14523Y2882I-250J0D01*
G01*
X25690Y-200D02*
G03*
X24689Y-200I-501J-501D01*
G01*
X24690D02*
G03*
X23689Y-200I-501J-501D01*
G01*
Y-1618D02*
G03*
X24690Y-1618I501J501D01*
G01*
X24689D02*
G03*
X25690Y-1618I501J501D01*
G01*
X15857Y-200D02*
G03*
X14855Y-200I-501J-501D01*
G01*
X14857D02*
G03*
X13855Y-200I-501J-501D01*
G01*
Y-1618D02*
G03*
X14857Y-1618I501J501D01*
G01*
X14855D02*
G03*
X15857Y-1618I501J501D01*
G01*
X25940Y49D02*
Y5882D01*
X13606Y49D02*
X25940D01*
X13606D02*
Y5882D01*
X25940D01*
X13606Y632D02*
X25940D01*
X22273Y-2368D02*
Y-118D01*
X17273Y-2368D02*
X22273D01*
X17273D02*
Y-118D01*
X22773Y632D02*
Y1632D01*
X17273Y2132D02*
X22273D01*
X16773Y632D02*
Y1632D01*
X23273Y632D02*
Y2632D01*
X25773D01*
X16273Y632D02*
Y2632D01*
X13773D02*
X16273D01*
X24273D02*
Y3632D01*
X25273Y2632D02*
Y3632D01*
X25023Y2632D02*
Y2882D01*
X24523Y2632D02*
Y2882D01*
X15273Y2632D02*
Y3632D01*
X14273Y2632D02*
Y3632D01*
X15023Y2632D02*
Y2882D01*
X14523Y2632D02*
Y2882D01*
X22023Y-2118D02*
Y-368D01*
X17523Y-2118D02*
Y-368D01*
X21940Y2132D02*
Y4632D01*
X21440Y2132D02*
Y3632D01*
X20856Y2132D02*
Y4632D01*
X20356Y2132D02*
Y3632D01*
X19773Y2132D02*
Y4632D01*
X19273Y2132D02*
Y3632D01*
X18690Y2132D02*
Y4632D01*
X18190Y2132D02*
Y3632D01*
X17606Y2132D02*
Y4632D01*
X24690Y-1618D02*
Y-201D01*
X23690D02*
X23940Y49D01*
X23690Y-1618D02*
Y-201D01*
Y-1618D02*
X23940Y-1868D01*
X25440D01*
X25690Y-1618D01*
Y-201D01*
X25440Y49D02*
X25690Y-201D01*
X14856Y-1618D02*
Y-201D01*
X13856D02*
X14106Y49D01*
X13856Y-1618D02*
Y-201D01*
Y-1618D02*
X14106Y-1868D01*
X15606D01*
X15856Y-1618D01*
Y-201D01*
X15606Y49D02*
X15856Y-201D01*
D39*
X5180Y31169D02*
G03*
X5180Y31419I0J125D01*
G01*
X2560Y4078D02*
G03*
X2560Y4490I0J206D01*
G01*
X21760Y8076D02*
G03*
X21760Y7664I0J-206D01*
G01*
X3511Y26814D02*
X4169Y26157D01*
X4267D01*
X3488Y24798D02*
X4196Y24090D01*
X4255D01*
X1751Y25979D02*
X1763Y25991D01*
Y26893D01*
X972Y25979D02*
X1751D01*
X1755Y26901D02*
X1763Y26893D01*
X972Y26901D02*
X1755D01*
X972Y25979D02*
Y26901D01*
X2527Y27393D02*
X4688D01*
Y26409D02*
Y27393D01*
X2602Y23456D02*
X4669D01*
X4688D02*
Y24440D01*
X633Y27393D02*
X2602D01*
X633Y23456D02*
Y27393D01*
Y23456D02*
X2602D01*
X633Y24440D02*
Y26409D01*
X4688Y24440D02*
Y26409D01*
X972Y23842D02*
Y24763D01*
X1755D01*
X1763Y24755D01*
X972Y23842D02*
X1751D01*
X1763Y23853D02*
Y24755D01*
X1751Y23842D02*
X1763Y23853D01*
X3511Y22076D02*
X4169Y21418D01*
X4267D01*
X3488Y20060D02*
X4196Y19351D01*
X4255D01*
X1751Y21241D02*
X1763Y21253D01*
Y22154D01*
X972Y21241D02*
X1751D01*
X1755Y22162D02*
X1763Y22154D01*
X972Y22162D02*
X1755D01*
X972Y21241D02*
Y22162D01*
X2527Y22654D02*
X4688D01*
Y21670D02*
Y22654D01*
X2602Y18717D02*
X4669D01*
X4688D02*
Y19701D01*
X633Y22654D02*
X2602D01*
X633Y18717D02*
Y22654D01*
Y18717D02*
X2602D01*
X633Y19701D02*
Y21670D01*
X4688Y19701D02*
Y21670D01*
X972Y19103D02*
Y20024D01*
X1755D01*
X1763Y20016D01*
X972Y19103D02*
X1751D01*
X1763Y19115D02*
Y20016D01*
X1751Y19103D02*
X1763Y19115D01*
X5924Y11392D02*
X7204D01*
X5924Y14030D02*
X7204D01*
X5924Y11392D02*
Y14030D01*
X7204Y11392D02*
Y14030D01*
X6459Y3667D02*
Y4927D01*
X2561D02*
X6459D01*
X2561Y3667D02*
Y4927D01*
Y3667D02*
X6459D01*
X17861Y7227D02*
Y8487D01*
Y7227D02*
X21759D01*
Y8487D01*
X17861D02*
X21759D01*
X18681Y19193D02*
Y21634D01*
Y19193D02*
X21122D01*
Y21634D01*
X18681D02*
X21122D01*
X5190Y16230D02*
X4403D01*
X8320Y16590D02*
X7533D01*
X7926Y16196D02*
Y16983D01*
X8380Y9460D02*
X9167D01*
X4910Y9620D02*
X5697D01*
X5304Y10014D02*
Y9227D01*
X3175Y2169D02*
X3437D01*
X3306Y2300D02*
Y2038D01*
X9589Y2169D02*
X9851D01*
X9720Y2300D02*
Y2038D01*
X20456Y1325D02*
X19275D01*
Y1128D02*
X18881D01*
Y1915D01*
X19275Y1325D02*
X18881D01*
X18488D02*
X17307D01*
X18488Y1128D02*
X17307D01*
Y1325D02*
X16520D01*
Y1915D01*
X16914Y1325D02*
Y1915D01*
D63*
X4753Y13617D02*
G03*
X4753Y13617I-49J0D01*
G01*
X2809Y2735D02*
G03*
X2809Y2735I-49J0D01*
G01*
X21609Y9419D02*
G03*
X21609Y9419I-49J0D01*
G01*
X21289Y22264D02*
G03*
X21289Y22264I-49J0D01*
G01*
D64*
X20866Y21280D02*
G03*
X20866Y21280I-98J0D01*
G01*
D65*
X10966Y10159D02*
X11127D01*
X10335Y10152D02*
X10854D01*
X10966D02*
X11127D01*
X10335Y10145D02*
X10854D01*
X10966D02*
X11127D01*
X10335Y10138D02*
X10854D01*
X10966D02*
X11127D01*
X11163D02*
X11527D01*
X11724D02*
X11773D01*
X11829D02*
X11934D01*
X11955D02*
X11969D01*
X12453D02*
X12846D01*
X12881D02*
X13364D01*
X10335Y10131D02*
X10854D01*
X10959D02*
X11120D01*
X11163D02*
X11527D01*
X11724D02*
X11934D01*
X11955D02*
X11976D01*
X12439D02*
X12846D01*
X12874D02*
X13392D01*
X10335Y10124D02*
X10854D01*
X10959D02*
X11120D01*
X11163D02*
X11527D01*
X11724D02*
X11934D01*
X11955D02*
X11990D01*
X12425D02*
X12838D01*
X12874D02*
X13407D01*
X10335Y10117D02*
X10854D01*
X10959D02*
X11120D01*
X11163D02*
X11527D01*
X11716D02*
X11934D01*
X11955D02*
X12004D01*
X12411D02*
X12838D01*
X12874D02*
X13414D01*
X10335Y10110D02*
X10854D01*
X10959D02*
X11120D01*
X11163D02*
X11527D01*
X11716D02*
X11927D01*
X11948D02*
X12011D01*
X12404D02*
X12838D01*
X12867D02*
X13421D01*
X10335Y10103D02*
X10854D01*
X10959D02*
X11113D01*
X11163D02*
X11527D01*
X11716D02*
X11927D01*
X11948D02*
X12025D01*
X12397D02*
X12838D01*
X12867D02*
X13428D01*
X10335Y10096D02*
X10496D01*
X10693D02*
X10854D01*
X10952D02*
X11113D01*
X11163D02*
X11527D01*
X11716D02*
X11927D01*
X11948D02*
X12032D01*
X12390D02*
X12831D01*
X12867D02*
X13428D01*
X10335Y10089D02*
X10496D01*
X10693D02*
X10854D01*
X10952D02*
X11113D01*
X11163D02*
X11527D01*
X11709D02*
X11759D01*
X11815D02*
X11927D01*
X11941D02*
X12046D01*
X12383D02*
X12831D01*
X12867D02*
X13428D01*
X10335Y10082D02*
X10496D01*
X10693D02*
X10854D01*
X10952D02*
X11113D01*
X11380D02*
X11527D01*
X11709D02*
X11759D01*
X11815D02*
X11920D01*
X11941D02*
X12053D01*
X12376D02*
X12831D01*
X12860D02*
X13435D01*
X10335Y10075D02*
X10496D01*
X10693D02*
X10854D01*
X10952D02*
X11106D01*
X11380D02*
X11527D01*
X11709D02*
X11759D01*
X11815D02*
X11920D01*
X11941D02*
X12067D01*
X12369D02*
X12824D01*
X12860D02*
X13435D01*
X10335Y10068D02*
X10496D01*
X10693D02*
X10854D01*
X10945D02*
X11106D01*
X11373D02*
X11527D01*
X11709D02*
X11752D01*
X11808D02*
X11920D01*
X11941D02*
X12074D01*
X12369D02*
X12824D01*
X12860D02*
X13435D01*
X10335Y10061D02*
X10496D01*
X10693D02*
X10854D01*
X10945D02*
X11106D01*
X11373D02*
X11527D01*
X11702D02*
X11752D01*
X11808D02*
X11913D01*
X11934D02*
X12088D01*
X12362D02*
X12824D01*
X12860D02*
X13435D01*
X10335Y10054D02*
X10496D01*
X10693D02*
X10854D01*
X10945D02*
X11106D01*
X11366D02*
X11527D01*
X11702D02*
X11752D01*
X11808D02*
X11913D01*
X11934D02*
X12095D01*
X12355D02*
X12824D01*
X12853D02*
X13435D01*
X10335Y10047D02*
X10496D01*
X10693D02*
X10854D01*
X10945D02*
X11106D01*
X11366D02*
X11527D01*
X11702D02*
X11752D01*
X11808D02*
X11913D01*
X11934D02*
X12109D01*
X12355D02*
X12817D01*
X12853D02*
X13435D01*
X10335Y10040D02*
X10496D01*
X10693D02*
X10854D01*
X10938D02*
X11099D01*
X11359D02*
X11527D01*
X11695D02*
X11745D01*
X11801D02*
X11913D01*
X11927D02*
X12123D01*
X12348D02*
X12586D01*
X12853D02*
X13435D01*
X10335Y10033D02*
X10496D01*
X10693D02*
X10854D01*
X10938D02*
X11099D01*
X11359D02*
X11527D01*
X11695D02*
X11906D01*
X11927D02*
X12130D01*
X12348D02*
X12565D01*
X12853D02*
X13063D01*
X13210D02*
X13435D01*
X10335Y10026D02*
X10496D01*
X10693D02*
X10854D01*
X10938D02*
X11099D01*
X11359D02*
X11527D01*
X11695D02*
X11906D01*
X11927D02*
X12144D01*
X12341D02*
X12558D01*
X12846D02*
X13063D01*
X13217D02*
X13428D01*
X10335Y10019D02*
X10496D01*
X10693D02*
X10854D01*
X10938D02*
X11099D01*
X11352D02*
X11520D01*
X11695D02*
X11906D01*
X11927D02*
X12151D01*
X12341D02*
X12551D01*
X12846D02*
X13063D01*
X13217D02*
X13428D01*
X10335Y10012D02*
X10496D01*
X10693D02*
X10854D01*
X10938D02*
X11092D01*
X11352D02*
X11520D01*
X11688D02*
X11906D01*
X11920D02*
X12165D01*
X12334D02*
X12551D01*
X12846D02*
X13056D01*
X13217D02*
X13428D01*
X10335Y10005D02*
X10496D01*
X10693D02*
X10854D01*
X10931D02*
X11120D01*
X11345D02*
X11520D01*
X11688D02*
X11899D01*
X11920D02*
X12172D01*
X12334D02*
X12551D01*
X12838D02*
X13056D01*
X13210D02*
X13428D01*
X10335Y9998D02*
X10496D01*
X10693D02*
X10854D01*
X10931D02*
X11120D01*
X11345D02*
X11513D01*
X11688D02*
X11738D01*
X11794D02*
X11899D01*
X11927D02*
X12186D01*
X12334D02*
X12544D01*
X12838D02*
X13056D01*
X13210D02*
X13421D01*
X10335Y9991D02*
X10496D01*
X10524D02*
X10651D01*
X10693D02*
X10854D01*
X10931D02*
X11120D01*
X11345D02*
X11513D01*
X11688D02*
X11731D01*
X11787D02*
X11899D01*
X11941D02*
X12193D01*
X12327D02*
X12544D01*
X12838D02*
X13056D01*
X13210D02*
X13421D01*
X10335Y9984D02*
X10496D01*
X10524D02*
X10651D01*
X10693D02*
X10854D01*
X10931D02*
X11120D01*
X11338D02*
X11506D01*
X11681D02*
X11731D01*
X11787D02*
X11899D01*
X11948D02*
X12207D01*
X12327D02*
X12544D01*
X12838D02*
X13049D01*
X13203D02*
X13421D01*
X10335Y9977D02*
X10496D01*
X10524D02*
X10651D01*
X10693D02*
X10854D01*
X10924D02*
X11120D01*
X11338D02*
X11506D01*
X11681D02*
X11731D01*
X11787D02*
X11892D01*
X11962D02*
X12221D01*
X12327D02*
X12544D01*
X12831D02*
X13049D01*
X13203D02*
X13414D01*
X10335Y9970D02*
X10496D01*
X10524D02*
X10651D01*
X10693D02*
X10854D01*
X10924D02*
X11120D01*
X11331D02*
X11499D01*
X11681D02*
X11731D01*
X11787D02*
X11892D01*
X11976D02*
X12228D01*
X12327D02*
X12537D01*
X12831D02*
X13049D01*
X13203D02*
X13414D01*
X10335Y9963D02*
X10496D01*
X10524D02*
X10651D01*
X10693D02*
X10854D01*
X10924D02*
X11120D01*
X11331D02*
X11499D01*
X11681D02*
X11724D01*
X11780D02*
X11892D01*
X11983D02*
X12235D01*
X12320D02*
X12537D01*
X12831D02*
X13049D01*
X13203D02*
X13414D01*
X10335Y9956D02*
X10496D01*
X10524D02*
X10651D01*
X10693D02*
X10854D01*
X10924D02*
X11120D01*
X11324D02*
X11499D01*
X11674D02*
X11724D01*
X11780D02*
X11892D01*
X11997D02*
X12242D01*
X12320D02*
X12537D01*
X12831D02*
X13042D01*
X13196D02*
X13414D01*
X10335Y9949D02*
X10496D01*
X10524D02*
X10658D01*
X10693D02*
X10854D01*
X10917D02*
X11120D01*
X11324D02*
X11492D01*
X11674D02*
X11724D01*
X11780D02*
X11885D01*
X12011D02*
X12249D01*
X12320D02*
X12537D01*
X12824D02*
X13042D01*
X13196D02*
X13407D01*
X10335Y9942D02*
X10496D01*
X10524D02*
X10658D01*
X10693D02*
X10854D01*
X10917D02*
X11120D01*
X11324D02*
X11492D01*
X11674D02*
X11724D01*
X11773D02*
X11885D01*
X12018D02*
X12256D01*
X12320D02*
X12530D01*
X12824D02*
X13042D01*
X13196D02*
X13407D01*
X10335Y9935D02*
X10496D01*
X10524D02*
X10658D01*
X10693D02*
X10854D01*
X10917D02*
X11120D01*
X11317D02*
X11485D01*
X11667D02*
X11885D01*
X12032D02*
X12263D01*
X12313D02*
X12530D01*
X12824D02*
X13042D01*
X13196D02*
X13407D01*
X10335Y9928D02*
X10496D01*
X10524D02*
X10658D01*
X10693D02*
X10854D01*
X10917D02*
X11120D01*
X11317D02*
X11485D01*
X11667D02*
X11878D01*
X12039D02*
X12263D01*
X12313D02*
X12530D01*
X12824D02*
X13035D01*
X13189D02*
X13407D01*
X10335Y9921D02*
X10496D01*
X10524D02*
X10658D01*
X10693D02*
X10854D01*
X10917D02*
X11120D01*
X11310D02*
X11485D01*
X11667D02*
X11878D01*
X12053D02*
X12270D01*
X12313D02*
X12523D01*
X12817D02*
X13035D01*
X13189D02*
X13399D01*
X10335Y9914D02*
X10496D01*
X10524D02*
X10658D01*
X10693D02*
X10854D01*
X10910D02*
X11120D01*
X11310D02*
X11478D01*
X11667D02*
X11878D01*
X12067D02*
X12270D01*
X12313D02*
X12523D01*
X12817D02*
X13035D01*
X13182D02*
X13399D01*
X10335Y9907D02*
X10496D01*
X10524D02*
X10658D01*
X10693D02*
X10854D01*
X10910D02*
X11120D01*
X11310D02*
X11478D01*
X11660D02*
X11878D01*
X12074D02*
X12277D01*
X12306D02*
X12523D01*
X12817D02*
X13028D01*
X13175D02*
X13399D01*
X10335Y9900D02*
X10496D01*
X10524D02*
X10658D01*
X10693D02*
X10854D01*
X10910D02*
X11120D01*
X11303D02*
X11471D01*
X11660D02*
X11709D01*
X11766D02*
X11871D01*
X12088D02*
X12277D01*
X12306D02*
X12523D01*
X12810D02*
X13392D01*
X10335Y9893D02*
X10496D01*
X10524D02*
X10658D01*
X10693D02*
X10854D01*
X10910D02*
X11120D01*
X11303D02*
X11471D01*
X11660D02*
X11709D01*
X11766D02*
X11871D01*
X12102D02*
X12277D01*
X12306D02*
X12516D01*
X12810D02*
X13385D01*
X10335Y9886D02*
X10496D01*
X10531D02*
X10658D01*
X10693D02*
X10854D01*
X10903D02*
X11120D01*
X11296D02*
X11464D01*
X11660D02*
X11702D01*
X11759D02*
X11871D01*
X12109D02*
X12277D01*
X12299D02*
X12516D01*
X12810D02*
X13378D01*
X10335Y9878D02*
X10496D01*
X10531D02*
X10658D01*
X10693D02*
X10854D01*
X10903D02*
X11120D01*
X11296D02*
X11464D01*
X11653D02*
X11702D01*
X11759D02*
X11871D01*
X12116D02*
X12277D01*
X12299D02*
X12516D01*
X12810D02*
X13371D01*
X10335Y9871D02*
X10496D01*
X10531D02*
X10658D01*
X10693D02*
X10854D01*
X10903D02*
X11120D01*
X11289D02*
X11464D01*
X11653D02*
X11702D01*
X11759D02*
X11864D01*
X12116D02*
X12277D01*
X12299D02*
X12516D01*
X12803D02*
X13364D01*
X10335Y9864D02*
X10496D01*
X10531D02*
X10658D01*
X10693D02*
X10854D01*
X10959D02*
X11120D01*
X11289D02*
X11457D01*
X11653D02*
X11702D01*
X11759D02*
X11864D01*
X12123D02*
X12277D01*
X12299D02*
X12509D01*
X12803D02*
X13350D01*
X10335Y9857D02*
X10496D01*
X10531D02*
X10658D01*
X10693D02*
X10854D01*
X10959D02*
X11120D01*
X11289D02*
X11457D01*
X11653D02*
X11695D01*
X11752D02*
X11864D01*
X12123D02*
X12277D01*
X12292D02*
X12509D01*
X12803D02*
X13329D01*
X10335Y9850D02*
X10496D01*
X10531D02*
X10658D01*
X10693D02*
X10854D01*
X10959D02*
X11120D01*
X11282D02*
X11450D01*
X11646D02*
X11695D01*
X11752D02*
X11864D01*
X12116D02*
X12277D01*
X12292D02*
X12509D01*
X12803D02*
X13294D01*
X10335Y9843D02*
X10496D01*
X10531D02*
X10658D01*
X10693D02*
X10854D01*
X10959D02*
X11120D01*
X11282D02*
X11450D01*
X11646D02*
X11857D01*
X12116D02*
X12277D01*
X12292D02*
X12502D01*
X12796D02*
X13315D01*
X10335Y9836D02*
X10496D01*
X10531D02*
X10658D01*
X10693D02*
X10854D01*
X10959D02*
X11120D01*
X11275D02*
X11450D01*
X11646D02*
X11857D01*
X12109D02*
X12277D01*
X12292D02*
X12502D01*
X12796D02*
X13329D01*
X10335Y9829D02*
X10496D01*
X10531D02*
X10658D01*
X10693D02*
X10854D01*
X10959D02*
X11120D01*
X11275D02*
X11443D01*
X11639D02*
X11857D01*
X12102D02*
X12270D01*
X12285D02*
X12502D01*
X12796D02*
X13343D01*
X10335Y9822D02*
X10496D01*
X10531D02*
X10658D01*
X10693D02*
X10854D01*
X10959D02*
X11120D01*
X11275D02*
X11443D01*
X11639D02*
X11857D01*
X12088D02*
X12270D01*
X12285D02*
X12502D01*
X12796D02*
X13350D01*
X10335Y9815D02*
X10496D01*
X10531D02*
X10658D01*
X10693D02*
X10854D01*
X10959D02*
X11120D01*
X11268D02*
X11436D01*
X11639D02*
X11850D01*
X12067D02*
X12263D01*
X12285D02*
X12495D01*
X12789D02*
X13357D01*
X10335Y9808D02*
X10496D01*
X10531D02*
X10658D01*
X10693D02*
X10854D01*
X10959D02*
X11120D01*
X11268D02*
X11436D01*
X11639D02*
X11688D01*
X11738D02*
X11850D01*
X12039D02*
X12263D01*
X12285D02*
X12495D01*
X12789D02*
X13364D01*
X10335Y9801D02*
X10496D01*
X10531D02*
X10665D01*
X10693D02*
X10854D01*
X10959D02*
X11120D01*
X11261D02*
X11436D01*
X11632D02*
X11681D01*
X11738D02*
X11850D01*
X12018D02*
X12256D01*
X12277D02*
X12495D01*
X12789D02*
X13364D01*
X10335Y9794D02*
X10496D01*
X10531D02*
X10665D01*
X10693D02*
X10854D01*
X10959D02*
X11120D01*
X11261D02*
X11429D01*
X11632D02*
X11681D01*
X11738D02*
X11843D01*
X11990D02*
X12256D01*
X12277D02*
X12495D01*
X12782D02*
X13000D01*
X13140D02*
X13364D01*
X10335Y9787D02*
X10496D01*
X10531D02*
X10665D01*
X10693D02*
X10854D01*
X10959D02*
X11120D01*
X11254D02*
X11429D01*
X11632D02*
X11681D01*
X11738D02*
X11843D01*
X11969D02*
X12249D01*
X12277D02*
X12488D01*
X12782D02*
X13000D01*
X13147D02*
X13364D01*
X10335Y9780D02*
X10496D01*
X10531D02*
X10665D01*
X10693D02*
X10854D01*
X10959D02*
X11120D01*
X11254D02*
X11422D01*
X11632D02*
X11674D01*
X11731D02*
X11843D01*
X11941D02*
X12242D01*
X12270D02*
X12488D01*
X12782D02*
X13000D01*
X13147D02*
X13364D01*
X10335Y9773D02*
X10496D01*
X10531D02*
X10665D01*
X10693D02*
X10854D01*
X10959D02*
X11120D01*
X11254D02*
X11422D01*
X11625D02*
X11674D01*
X11731D02*
X11843D01*
X11920D02*
X12242D01*
X12270D02*
X12488D01*
X12782D02*
X12993D01*
X13147D02*
X13364D01*
X10335Y9766D02*
X10496D01*
X10531D02*
X10665D01*
X10693D02*
X10854D01*
X10959D02*
X11120D01*
X11247D02*
X11415D01*
X11625D02*
X11674D01*
X11731D02*
X11836D01*
X11892D02*
X12235D01*
X12270D02*
X12488D01*
X12775D02*
X12993D01*
X13147D02*
X13364D01*
X10335Y9759D02*
X10496D01*
X10531D02*
X10665D01*
X10693D02*
X10854D01*
X10959D02*
X11120D01*
X11247D02*
X11415D01*
X11625D02*
X11674D01*
X11731D02*
X11836D01*
X11864D02*
X12228D01*
X12270D02*
X12481D01*
X12775D02*
X12993D01*
X13147D02*
X13357D01*
X10335Y9752D02*
X10496D01*
X10531D02*
X10665D01*
X10693D02*
X10854D01*
X10959D02*
X11120D01*
X11240D02*
X11415D01*
X11625D02*
X11667D01*
X11724D02*
X11836D01*
X11850D02*
X12221D01*
X12263D02*
X12481D01*
X12775D02*
X12986D01*
X13147D02*
X13357D01*
X10335Y9745D02*
X10496D01*
X10531D02*
X10665D01*
X10693D02*
X10854D01*
X10959D02*
X11120D01*
X11240D02*
X11408D01*
X11618D02*
X11836D01*
X11850D02*
X12214D01*
X12263D02*
X12481D01*
X12775D02*
X12986D01*
X13140D02*
X13357D01*
X10335Y9738D02*
X10496D01*
X10538D02*
X10665D01*
X10693D02*
X10854D01*
X10959D02*
X11120D01*
X11240D02*
X11408D01*
X11618D02*
X11829D01*
X11850D02*
X12200D01*
X12263D02*
X12474D01*
X12768D02*
X12986D01*
X13140D02*
X13350D01*
X10335Y9731D02*
X10496D01*
X10538D02*
X10665D01*
X10693D02*
X10854D01*
X10959D02*
X11120D01*
X11233D02*
X11401D01*
X11618D02*
X11829D01*
X11843D02*
X12193D01*
X12263D02*
X12474D01*
X12768D02*
X12986D01*
X13140D02*
X13350D01*
X10335Y9724D02*
X10496D01*
X10538D02*
X10665D01*
X10693D02*
X10854D01*
X10959D02*
X11120D01*
X11233D02*
X11401D01*
X11611D02*
X11829D01*
X11843D02*
X12186D01*
X12256D02*
X12474D01*
X12768D02*
X12979D01*
X13133D02*
X13350D01*
X10335Y9717D02*
X10496D01*
X10538D02*
X10665D01*
X10693D02*
X10854D01*
X10959D02*
X11120D01*
X11226D02*
X11401D01*
X11611D02*
X11822D01*
X11843D02*
X12172D01*
X12256D02*
X12474D01*
X12768D02*
X12979D01*
X13133D02*
X13350D01*
X10335Y9710D02*
X10496D01*
X10538D02*
X10665D01*
X10693D02*
X10854D01*
X10959D02*
X11120D01*
X11226D02*
X11394D01*
X11611D02*
X11660D01*
X11716D02*
X11822D01*
X11843D02*
X12158D01*
X12256D02*
X12467D01*
X12761D02*
X12979D01*
X13133D02*
X13343D01*
X10335Y9703D02*
X10496D01*
X10538D02*
X10665D01*
X10693D02*
X10854D01*
X10959D02*
X11120D01*
X11219D02*
X11394D01*
X11611D02*
X11653D01*
X11709D02*
X11822D01*
X11836D02*
X12144D01*
X12256D02*
X12467D01*
X12761D02*
X12979D01*
X13133D02*
X13343D01*
X10335Y9696D02*
X10496D01*
X10538D02*
X10665D01*
X10693D02*
X10854D01*
X10959D02*
X11120D01*
X11219D02*
X11387D01*
X11604D02*
X11653D01*
X11709D02*
X11822D01*
X11836D02*
X12130D01*
X12249D02*
X12467D01*
X12761D02*
X12972D01*
X13126D02*
X13343D01*
X10335Y9689D02*
X10496D01*
X10538D02*
X10665D01*
X10693D02*
X10854D01*
X10959D02*
X11120D01*
X11219D02*
X11387D01*
X11604D02*
X11653D01*
X11709D02*
X11815D01*
X11836D02*
X12102D01*
X12249D02*
X12467D01*
X12754D02*
X12972D01*
X13126D02*
X13343D01*
X10335Y9682D02*
X10496D01*
X10545D02*
X10665D01*
X10693D02*
X10854D01*
X10959D02*
X11120D01*
X11212D02*
X11380D01*
X11604D02*
X11653D01*
X11709D02*
X11815D01*
X11829D02*
X12081D01*
X12249D02*
X12460D01*
X12754D02*
X12972D01*
X13126D02*
X13336D01*
X10335Y9675D02*
X10496D01*
X10693D02*
X10854D01*
X10959D02*
X11120D01*
X11212D02*
X11380D01*
X11604D02*
X11646D01*
X11702D02*
X11815D01*
X11829D02*
X12053D01*
X12242D02*
X12460D01*
X12754D02*
X12972D01*
X13126D02*
X13336D01*
X10335Y9668D02*
X10496D01*
X10693D02*
X10854D01*
X10959D02*
X11120D01*
X11205D02*
X11380D01*
X11597D02*
X11646D01*
X11702D02*
X11815D01*
X11829D02*
X12025D01*
X12242D02*
X12460D01*
X12754D02*
X12965D01*
X13119D02*
X13336D01*
X10335Y9661D02*
X10496D01*
X10693D02*
X10854D01*
X10959D02*
X11120D01*
X11205D02*
X11373D01*
X11597D02*
X11646D01*
X11702D02*
X11808D01*
X11829D02*
X11997D01*
X12242D02*
X12460D01*
X12747D02*
X12965D01*
X13119D02*
X13336D01*
X10335Y9654D02*
X10496D01*
X10693D02*
X10854D01*
X10959D02*
X11120D01*
X11205D02*
X11373D01*
X11597D02*
X11808D01*
X11822D02*
X11969D01*
X12242D02*
X12460D01*
X12747D02*
X12965D01*
X13112D02*
X13329D01*
X10335Y9647D02*
X10496D01*
X10693D02*
X10854D01*
X10959D02*
X11120D01*
X11198D02*
X11366D01*
X11590D02*
X11808D01*
X11822D02*
X11948D01*
X12242D02*
X12460D01*
X12747D02*
X12958D01*
X13112D02*
X13329D01*
X10335Y9640D02*
X10496D01*
X10693D02*
X10854D01*
X10959D02*
X11120D01*
X11198D02*
X11366D01*
X11590D02*
X11808D01*
X11822D02*
X11920D01*
X12242D02*
X12474D01*
X12747D02*
X12958D01*
X13098D02*
X13329D01*
X10335Y9633D02*
X10496D01*
X10693D02*
X10854D01*
X10959D02*
X11120D01*
X11191D02*
X11366D01*
X11590D02*
X11801D01*
X11815D02*
X11892D01*
X12242D02*
X12719D01*
X12740D02*
X13322D01*
X10335Y9626D02*
X10496D01*
X10693D02*
X10854D01*
X10959D02*
X11120D01*
X11191D02*
X11359D01*
X11590D02*
X11801D01*
X11815D02*
X11864D01*
X12242D02*
X12712D01*
X12740D02*
X13322D01*
X10335Y9619D02*
X10496D01*
X10693D02*
X10854D01*
X10959D02*
X11120D01*
X11184D02*
X11359D01*
X11583D02*
X11801D01*
X11815D02*
X11843D01*
X12242D02*
X12712D01*
X12740D02*
X13322D01*
X10335Y9612D02*
X10496D01*
X10693D02*
X10854D01*
X10959D02*
X11120D01*
X11184D02*
X11352D01*
X11583D02*
X11632D01*
X11688D02*
X11794D01*
X12242D02*
X12712D01*
X12740D02*
X13315D01*
X10335Y9605D02*
X10496D01*
X10693D02*
X10854D01*
X10959D02*
X11120D01*
X11184D02*
X11352D01*
X11583D02*
X11632D01*
X11688D02*
X11794D01*
X12242D02*
X12712D01*
X12733D02*
X13315D01*
X10335Y9598D02*
X10496D01*
X10693D02*
X10854D01*
X10959D02*
X11120D01*
X11177D02*
X11352D01*
X11583D02*
X11625D01*
X11681D02*
X11794D01*
X12242D02*
X12705D01*
X12733D02*
X13308D01*
X10335Y9591D02*
X10496D01*
X10693D02*
X10903D01*
X10959D02*
X11120D01*
X11177D02*
X11345D01*
X11576D02*
X11625D01*
X11681D02*
X11794D01*
X12249D02*
X12705D01*
X12733D02*
X13301D01*
X10335Y9584D02*
X10496D01*
X10693D02*
X10903D01*
X10959D02*
X11120D01*
X11170D02*
X11534D01*
X11576D02*
X11625D01*
X11681D02*
X11787D01*
X12249D02*
X12705D01*
X12726D02*
X13294D01*
X10335Y9577D02*
X10496D01*
X10693D02*
X10903D01*
X10959D02*
X11120D01*
X11170D02*
X11534D01*
X11576D02*
X11625D01*
X11681D02*
X11787D01*
X12256D02*
X12705D01*
X12726D02*
X13287D01*
X10335Y9570D02*
X10496D01*
X10693D02*
X10903D01*
X10959D02*
X11120D01*
X11170D02*
X11534D01*
X11576D02*
X11618D01*
X11674D02*
X11787D01*
X12256D02*
X12698D01*
X12726D02*
X13280D01*
X10335Y9563D02*
X10496D01*
X10693D02*
X10903D01*
X10959D02*
X11120D01*
X11163D02*
X11534D01*
X11569D02*
X11618D01*
X11674D02*
X11787D01*
X12263D02*
X12698D01*
X12726D02*
X13273D01*
X10335Y9556D02*
X10496D01*
X10693D02*
X10903D01*
X10959D02*
X11120D01*
X11163D02*
X11534D01*
X11569D02*
X11780D01*
X12270D02*
X12698D01*
X12719D02*
X13259D01*
X10335Y9549D02*
X10496D01*
X10693D02*
X10903D01*
X10959D02*
X11120D01*
X11155D02*
X11534D01*
X11569D02*
X11780D01*
X12277D02*
X12698D01*
X12719D02*
X13245D01*
X10335Y9542D02*
X10496D01*
X10693D02*
X10903D01*
X10959D02*
X11120D01*
X11155D02*
X11534D01*
X11569D02*
X11780D01*
X12292D02*
X12691D01*
X12719D02*
X13224D01*
X12691Y9444D02*
X12782D01*
X13000D02*
X13084D01*
X13112D02*
X13203D01*
X12691Y9437D02*
X12782D01*
X13000D02*
X13084D01*
X13112D02*
X13203D01*
X13210D02*
X13280D01*
X10321Y9430D02*
X10573D01*
X10700D02*
X10791D01*
X10938D02*
X11029D01*
X11120D02*
X11198D01*
X11233D02*
X11310D01*
X11436D02*
X11506D01*
X11541D02*
X11688D01*
X11731D02*
X12004D01*
X12039D02*
X12292D01*
X12320D02*
X12593D01*
X12684D02*
X12775D01*
X13000D02*
X13084D01*
X13119D02*
X13203D01*
X13210D02*
X13280D01*
X10321Y9423D02*
X10573D01*
X10693D02*
X10798D01*
X10938D02*
X11036D01*
X11120D02*
X11198D01*
X11240D02*
X11317D01*
X11429D02*
X11506D01*
X11541D02*
X11688D01*
X11731D02*
X12004D01*
X12032D02*
X12292D01*
X12320D02*
X12593D01*
X12684D02*
X12775D01*
X13000D02*
X13077D01*
X13119D02*
X13203D01*
X13210D02*
X13280D01*
X10321Y9416D02*
X10573D01*
X10693D02*
X10798D01*
X10938D02*
X11036D01*
X11120D02*
X11198D01*
X11240D02*
X11324D01*
X11422D02*
X11499D01*
X11541D02*
X11688D01*
X11731D02*
X12004D01*
X12032D02*
X12292D01*
X12320D02*
X12593D01*
X12677D02*
X12768D01*
X12993D02*
X13077D01*
X13119D02*
X13203D01*
X13217D02*
X13280D01*
X10321Y9409D02*
X10573D01*
X10693D02*
X10805D01*
X10938D02*
X11043D01*
X11120D02*
X11198D01*
X11247D02*
X11324D01*
X11422D02*
X11499D01*
X11541D02*
X11688D01*
X11731D02*
X12004D01*
X12032D02*
X12292D01*
X12320D02*
X12593D01*
X12677D02*
X12768D01*
X12993D02*
X13077D01*
X13119D02*
X13210D01*
X13217D02*
X13280D01*
X10321Y9402D02*
X10405D01*
X10686D02*
X10805D01*
X10938D02*
X11043D01*
X11120D02*
X11198D01*
X11254D02*
X11331D01*
X11415D02*
X11492D01*
X11576D02*
X11653D01*
X11731D02*
X11808D01*
X11920D02*
X12004D01*
X12032D02*
X12116D01*
X12320D02*
X12404D01*
X12516D02*
X12593D01*
X12670D02*
X12768D01*
X12993D02*
X13070D01*
X13126D02*
X13210D01*
X13217D02*
X13287D01*
X10321Y9395D02*
X10405D01*
X10686D02*
X10805D01*
X10938D02*
X11050D01*
X11120D02*
X11198D01*
X11254D02*
X11338D01*
X11408D02*
X11485D01*
X11576D02*
X11653D01*
X11731D02*
X11808D01*
X11920D02*
X12004D01*
X12032D02*
X12116D01*
X12320D02*
X12404D01*
X12516D02*
X12593D01*
X12663D02*
X12761D01*
X12930D02*
X12937D01*
X12993D02*
X13070D01*
X13126D02*
X13210D01*
X13217D02*
X13287D01*
X10321Y9388D02*
X10405D01*
X10679D02*
X10812D01*
X10938D02*
X11050D01*
X11120D02*
X11198D01*
X11261D02*
X11338D01*
X11408D02*
X11485D01*
X11576D02*
X11653D01*
X11731D02*
X11808D01*
X11920D02*
X12004D01*
X12032D02*
X12116D01*
X12320D02*
X12404D01*
X12516D02*
X12593D01*
X12614D02*
X12937D01*
X12986D02*
X13070D01*
X13126D02*
X13210D01*
X13217D02*
X13287D01*
X10321Y9381D02*
X10405D01*
X10679D02*
X10812D01*
X10938D02*
X11057D01*
X11120D02*
X11198D01*
X11268D02*
X11345D01*
X11401D02*
X11478D01*
X11576D02*
X11653D01*
X11731D02*
X11808D01*
X11920D02*
X12004D01*
X12032D02*
X12116D01*
X12320D02*
X12404D01*
X12516D02*
X12593D01*
X12614D02*
X12937D01*
X12986D02*
X13070D01*
X13126D02*
X13217D01*
X13259D02*
X13287D01*
X10321Y9374D02*
X10405D01*
X10679D02*
X10812D01*
X10938D02*
X11057D01*
X11120D02*
X11198D01*
X11268D02*
X11352D01*
X11394D02*
X11471D01*
X11576D02*
X11653D01*
X11731D02*
X11808D01*
X11920D02*
X12004D01*
X12032D02*
X12116D01*
X12320D02*
X12404D01*
X12516D02*
X12593D01*
X12614D02*
X12937D01*
X12986D02*
X13063D01*
X13126D02*
X13287D01*
X10321Y9367D02*
X10405D01*
X10672D02*
X10819D01*
X10938D02*
X11064D01*
X11120D02*
X11198D01*
X11275D02*
X11352D01*
X11387D02*
X11471D01*
X11576D02*
X11653D01*
X11731D02*
X11808D01*
X11920D02*
X12004D01*
X12032D02*
X12116D01*
X12320D02*
X12404D01*
X12516D02*
X12593D01*
X12614D02*
X12937D01*
X12979D02*
X13063D01*
X13133D02*
X13287D01*
X10321Y9360D02*
X10405D01*
X10672D02*
X10819D01*
X10938D02*
X11064D01*
X11120D02*
X11198D01*
X11282D02*
X11359D01*
X11387D02*
X11464D01*
X11576D02*
X11653D01*
X11731D02*
X11808D01*
X11920D02*
X12004D01*
X12032D02*
X12116D01*
X12320D02*
X12404D01*
X12516D02*
X12593D01*
X12656D02*
X12754D01*
X12930D02*
X12937D01*
X12979D02*
X13063D01*
X13133D02*
X13287D01*
X10321Y9353D02*
X10405D01*
X10672D02*
X10742D01*
X10749D02*
X10819D01*
X10938D02*
X11071D01*
X11120D02*
X11198D01*
X11282D02*
X11366D01*
X11380D02*
X11457D01*
X11576D02*
X11653D01*
X11731D02*
X11808D01*
X11920D02*
X12004D01*
X12032D02*
X12116D01*
X12320D02*
X12404D01*
X12516D02*
X12593D01*
X12656D02*
X12747D01*
X12979D02*
X13063D01*
X13098D02*
X13287D01*
X10321Y9346D02*
X10405D01*
X10665D02*
X10742D01*
X10749D02*
X10826D01*
X10938D02*
X11071D01*
X11120D02*
X11198D01*
X11289D02*
X11366D01*
X11373D02*
X11457D01*
X11576D02*
X11653D01*
X11731D02*
X11808D01*
X11920D02*
X12004D01*
X12032D02*
X12116D01*
X12320D02*
X12404D01*
X12516D02*
X12593D01*
X12649D02*
X12740D01*
X12979D02*
X13259D01*
X10321Y9339D02*
X10405D01*
X10665D02*
X10742D01*
X10756D02*
X10826D01*
X10938D02*
X11078D01*
X11120D02*
X11198D01*
X11296D02*
X11450D01*
X11576D02*
X11653D01*
X11731D02*
X11808D01*
X11920D02*
X12004D01*
X12032D02*
X12116D01*
X12320D02*
X12404D01*
X12516D02*
X12593D01*
X12649D02*
X12740D01*
X12796D02*
X12888D01*
X12972D02*
X13084D01*
X13091D02*
X13224D01*
X10321Y9332D02*
X10405D01*
X10665D02*
X10735D01*
X10756D02*
X10826D01*
X10938D02*
X11078D01*
X11120D02*
X11198D01*
X11296D02*
X11443D01*
X11576D02*
X11653D01*
X11731D02*
X11808D01*
X11920D02*
X12004D01*
X12032D02*
X12116D01*
X12320D02*
X12404D01*
X12509D02*
X12593D01*
X12642D02*
X12740D01*
X12796D02*
X12888D01*
X12972D02*
X13084D01*
X13091D02*
X13224D01*
X10321Y9325D02*
X10405D01*
X10658D02*
X10735D01*
X10756D02*
X10833D01*
X10938D02*
X11085D01*
X11120D02*
X11198D01*
X11303D02*
X11443D01*
X11576D02*
X11653D01*
X11731D02*
X11808D01*
X11920D02*
X12004D01*
X12032D02*
X12116D01*
X12320D02*
X12404D01*
X12509D02*
X12586D01*
X12642D02*
X12733D01*
X12796D02*
X12888D01*
X12972D02*
X13084D01*
X13091D02*
X13224D01*
X10321Y9317D02*
X10405D01*
X10658D02*
X10735D01*
X10763D02*
X10833D01*
X10938D02*
X11085D01*
X11120D02*
X11198D01*
X11310D02*
X11436D01*
X11576D02*
X11653D01*
X11731D02*
X11808D01*
X11920D02*
X12004D01*
X12032D02*
X12116D01*
X12320D02*
X12404D01*
X12502D02*
X12586D01*
X12642D02*
X12733D01*
X12796D02*
X12888D01*
X12972D02*
X13084D01*
X13140D02*
X13231D01*
X10321Y9310D02*
X10405D01*
X10658D02*
X10728D01*
X10763D02*
X10840D01*
X10938D02*
X11015D01*
X11022D02*
X11092D01*
X11120D02*
X11198D01*
X11310D02*
X11429D01*
X11576D02*
X11653D01*
X11731D02*
X11808D01*
X11920D02*
X12004D01*
X12032D02*
X12116D01*
X12320D02*
X12404D01*
X12495D02*
X12586D01*
X12635D02*
X12740D01*
X12796D02*
X12888D01*
X12965D02*
X13077D01*
X13147D02*
X13231D01*
X13266D02*
X13287D01*
X10321Y9303D02*
X10405D01*
X10651D02*
X10728D01*
X10763D02*
X10840D01*
X10938D02*
X11015D01*
X11022D02*
X11092D01*
X11120D02*
X11198D01*
X11317D02*
X11422D01*
X11576D02*
X11653D01*
X11731D02*
X11808D01*
X11920D02*
X12004D01*
X12032D02*
X12116D01*
X12320D02*
X12404D01*
X12488D02*
X12579D01*
X12635D02*
X12740D01*
X12796D02*
X12888D01*
X12965D02*
X13077D01*
X13147D02*
X13287D01*
X10321Y9296D02*
X10552D01*
X10651D02*
X10728D01*
X10770D02*
X10840D01*
X10938D02*
X11015D01*
X11029D02*
X11099D01*
X11120D02*
X11198D01*
X11324D02*
X11422D01*
X11576D02*
X11653D01*
X11731D02*
X11808D01*
X11920D02*
X11997D01*
X12032D02*
X12116D01*
X12320D02*
X12593D01*
X12628D02*
X12740D01*
X12796D02*
X12888D01*
X12965D02*
X13077D01*
X13147D02*
X13287D01*
X10321Y9289D02*
X10552D01*
X10644D02*
X10721D01*
X10770D02*
X10847D01*
X10938D02*
X11015D01*
X11029D02*
X11099D01*
X11120D02*
X11198D01*
X11324D02*
X11415D01*
X11576D02*
X11653D01*
X11731D02*
X11808D01*
X11913D02*
X11997D01*
X12032D02*
X12116D01*
X12320D02*
X12593D01*
X12628D02*
X12740D01*
X12796D02*
X12888D01*
X12965D02*
X12972D01*
X12993D02*
X13077D01*
X13147D02*
X13287D01*
X10321Y9282D02*
X10552D01*
X10644D02*
X10721D01*
X10770D02*
X10847D01*
X10938D02*
X11015D01*
X11036D02*
X11106D01*
X11120D02*
X11198D01*
X11331D02*
X11415D01*
X11576D02*
X11653D01*
X11731D02*
X11808D01*
X11906D02*
X11990D01*
X12032D02*
X12116D01*
X12320D02*
X12593D01*
X12628D02*
X12740D01*
X12754D02*
X12930D01*
X12986D02*
X13077D01*
X13105D02*
X13287D01*
X10321Y9275D02*
X10552D01*
X10644D02*
X10721D01*
X10770D02*
X10847D01*
X10938D02*
X11015D01*
X11036D02*
X11106D01*
X11120D02*
X11198D01*
X11331D02*
X11415D01*
X11576D02*
X11653D01*
X11731D02*
X11990D01*
X12032D02*
X12116D01*
X12320D02*
X12593D01*
X12621D02*
X12740D01*
X12754D02*
X12930D01*
X12986D02*
X13070D01*
X13091D02*
X13273D01*
X10321Y9268D02*
X10405D01*
X10637D02*
X10714D01*
X10777D02*
X10854D01*
X10938D02*
X11015D01*
X11036D02*
X11113D01*
X11120D02*
X11198D01*
X11331D02*
X11415D01*
X11576D02*
X11653D01*
X11731D02*
X11983D01*
X12032D02*
X12116D01*
X12320D02*
X12404D01*
X12516D02*
X12593D01*
X12621D02*
X12740D01*
X12754D02*
X12930D01*
X12986D02*
X13070D01*
X13091D02*
X13245D01*
X10321Y9261D02*
X10405D01*
X10637D02*
X10714D01*
X10777D02*
X10854D01*
X10938D02*
X11015D01*
X11043D02*
X11113D01*
X11120D02*
X11198D01*
X11331D02*
X11415D01*
X11576D02*
X11653D01*
X11731D02*
X11976D01*
X12032D02*
X12116D01*
X12320D02*
X12404D01*
X12516D02*
X12593D01*
X12621D02*
X12740D01*
X12754D02*
X12930D01*
X12986D02*
X13070D01*
X13091D02*
X13245D01*
X10321Y9254D02*
X10405D01*
X10637D02*
X10854D01*
X10938D02*
X11015D01*
X11043D02*
X11113D01*
X11120D02*
X11198D01*
X11331D02*
X11415D01*
X11576D02*
X11653D01*
X11731D02*
X11955D01*
X12032D02*
X12116D01*
X12320D02*
X12404D01*
X12516D02*
X12593D01*
X12614D02*
X12740D01*
X12754D02*
X12930D01*
X12979D02*
X13070D01*
X13091D02*
X13147D01*
X13154D02*
X13245D01*
X13273D02*
X13287D01*
X10321Y9247D02*
X10405D01*
X10630D02*
X10861D01*
X10938D02*
X11015D01*
X11050D02*
X11198D01*
X11331D02*
X11415D01*
X11576D02*
X11653D01*
X11731D02*
X11808D01*
X12032D02*
X12116D01*
X12320D02*
X12404D01*
X12516D02*
X12593D01*
X12614D02*
X12740D01*
X12796D02*
X12888D01*
X12979D02*
X13063D01*
X13098D02*
X13105D01*
X13161D02*
X13245D01*
X13259D02*
X13287D01*
X10321Y9240D02*
X10405D01*
X10630D02*
X10861D01*
X10938D02*
X11015D01*
X11050D02*
X11198D01*
X11331D02*
X11415D01*
X11576D02*
X11653D01*
X11731D02*
X11808D01*
X12032D02*
X12116D01*
X12320D02*
X12404D01*
X12516D02*
X12593D01*
X12649D02*
X12740D01*
X12796D02*
X12888D01*
X12979D02*
X13063D01*
X13161D02*
X13287D01*
X10321Y9233D02*
X10405D01*
X10630D02*
X10861D01*
X10938D02*
X11015D01*
X11057D02*
X11198D01*
X11331D02*
X11415D01*
X11576D02*
X11653D01*
X11731D02*
X11808D01*
X12032D02*
X12116D01*
X12320D02*
X12404D01*
X12516D02*
X12593D01*
X12649D02*
X12740D01*
X12796D02*
X12888D01*
X12979D02*
X13063D01*
X13161D02*
X13287D01*
X10321Y9226D02*
X10405D01*
X10623D02*
X10700D01*
X10791D02*
X10868D01*
X10938D02*
X11015D01*
X11057D02*
X11198D01*
X11331D02*
X11415D01*
X11576D02*
X11653D01*
X11731D02*
X11808D01*
X12032D02*
X12116D01*
X12320D02*
X12404D01*
X12516D02*
X12593D01*
X12649D02*
X12740D01*
X12796D02*
X12888D01*
X12972D02*
X13063D01*
X13161D02*
X13287D01*
X10321Y9219D02*
X10405D01*
X10623D02*
X10700D01*
X10791D02*
X10868D01*
X10938D02*
X11015D01*
X11064D02*
X11198D01*
X11331D02*
X11415D01*
X11576D02*
X11653D01*
X11731D02*
X11808D01*
X12032D02*
X12116D01*
X12320D02*
X12404D01*
X12516D02*
X12593D01*
X12649D02*
X12740D01*
X12796D02*
X12888D01*
X12972D02*
X13063D01*
X13168D02*
X13287D01*
X10321Y9212D02*
X10405D01*
X10616D02*
X10700D01*
X10791D02*
X10875D01*
X10938D02*
X11015D01*
X11064D02*
X11198D01*
X11331D02*
X11415D01*
X11576D02*
X11653D01*
X11731D02*
X11808D01*
X12032D02*
X12116D01*
X12320D02*
X12404D01*
X12516D02*
X12593D01*
X12649D02*
X12740D01*
X12796D02*
X12888D01*
X12972D02*
X13084D01*
X13168D02*
X13273D01*
X10321Y9205D02*
X10405D01*
X10616D02*
X10693D01*
X10798D02*
X10875D01*
X10938D02*
X11015D01*
X11071D02*
X11198D01*
X11331D02*
X11415D01*
X11576D02*
X11653D01*
X11731D02*
X11808D01*
X12032D02*
X12116D01*
X12320D02*
X12404D01*
X12516D02*
X12593D01*
X12649D02*
X12740D01*
X12796D02*
X12888D01*
X12972D02*
X13084D01*
X13168D02*
X13259D01*
X10321Y9198D02*
X10405D01*
X10616D02*
X10693D01*
X10798D02*
X10875D01*
X10938D02*
X11015D01*
X11071D02*
X11198D01*
X11331D02*
X11415D01*
X11576D02*
X11653D01*
X11731D02*
X11808D01*
X12032D02*
X12116D01*
X12320D02*
X12404D01*
X12516D02*
X12593D01*
X12649D02*
X12740D01*
X12796D02*
X12888D01*
X12965D02*
X13084D01*
X13161D02*
X13259D01*
X10321Y9191D02*
X10405D01*
X10609D02*
X10693D01*
X10798D02*
X10882D01*
X10938D02*
X11015D01*
X11078D02*
X11198D01*
X11331D02*
X11415D01*
X11576D02*
X11653D01*
X11731D02*
X11808D01*
X12032D02*
X12116D01*
X12320D02*
X12404D01*
X12516D02*
X12593D01*
X12649D02*
X12740D01*
X12796D02*
X12888D01*
X12965D02*
X13084D01*
X13147D02*
X13259D01*
X10321Y9184D02*
X10405D01*
X10609D02*
X10686D01*
X10805D02*
X10882D01*
X10938D02*
X11015D01*
X11078D02*
X11198D01*
X11331D02*
X11415D01*
X11576D02*
X11653D01*
X11731D02*
X11808D01*
X12032D02*
X12116D01*
X12320D02*
X12404D01*
X12516D02*
X12593D01*
X12649D02*
X12740D01*
X12796D02*
X12888D01*
X12965D02*
X13084D01*
X13140D02*
X13259D01*
X10321Y9177D02*
X10405D01*
X10609D02*
X10686D01*
X10805D02*
X10882D01*
X10938D02*
X11015D01*
X11085D02*
X11198D01*
X11331D02*
X11415D01*
X11576D02*
X11653D01*
X11731D02*
X11808D01*
X12032D02*
X12116D01*
X12320D02*
X12404D01*
X12509D02*
X12593D01*
X12649D02*
X12740D01*
X12796D02*
X12888D01*
X13126D02*
X13259D01*
X10321Y9170D02*
X10405D01*
X10602D02*
X10686D01*
X10805D02*
X10889D01*
X10938D02*
X11015D01*
X11085D02*
X11198D01*
X11331D02*
X11415D01*
X11576D02*
X11653D01*
X11731D02*
X11808D01*
X12032D02*
X12116D01*
X12320D02*
X12404D01*
X12509D02*
X12586D01*
X12649D02*
X12740D01*
X12796D02*
X12888D01*
X13070D02*
X13084D01*
X13112D02*
X13266D01*
X10321Y9163D02*
X10405D01*
X10602D02*
X10679D01*
X10812D02*
X10889D01*
X10938D02*
X11015D01*
X11092D02*
X11198D01*
X11331D02*
X11415D01*
X11576D02*
X11653D01*
X11731D02*
X11808D01*
X12032D02*
X12116D01*
X12320D02*
X12404D01*
X12502D02*
X12586D01*
X12649D02*
X12740D01*
X12747D02*
X12937D01*
X12972D02*
X13084D01*
X13098D02*
X13266D01*
X10321Y9156D02*
X10405D01*
X10602D02*
X10679D01*
X10812D02*
X10889D01*
X10938D02*
X11015D01*
X11092D02*
X11198D01*
X11331D02*
X11415D01*
X11541D02*
X11688D01*
X11731D02*
X11808D01*
X12032D02*
X12292D01*
X12320D02*
X12579D01*
X12649D02*
X12937D01*
X12958D02*
X13084D01*
X13098D02*
X13161D01*
X13182D02*
X13287D01*
X10321Y9149D02*
X10405D01*
X10594D02*
X10679D01*
X10812D02*
X10896D01*
X10938D02*
X11015D01*
X11099D02*
X11198D01*
X11331D02*
X11415D01*
X11541D02*
X11688D01*
X11731D02*
X11808D01*
X12032D02*
X12292D01*
X12320D02*
X12572D01*
X12649D02*
X12937D01*
X12958D02*
X13084D01*
X13098D02*
X13147D01*
X13182D02*
X13287D01*
X10321Y9142D02*
X10405D01*
X10594D02*
X10672D01*
X10819D02*
X10896D01*
X10938D02*
X11015D01*
X11099D02*
X11198D01*
X11331D02*
X11415D01*
X11541D02*
X11688D01*
X11731D02*
X11808D01*
X12032D02*
X12292D01*
X12320D02*
X12565D01*
X12649D02*
X12937D01*
X12958D02*
X13084D01*
X13098D02*
X13133D01*
X13182D02*
X13287D01*
X10321Y9135D02*
X10405D01*
X10594D02*
X10672D01*
X10819D02*
X10896D01*
X10938D02*
X11015D01*
X11106D02*
X11198D01*
X11331D02*
X11408D01*
X11541D02*
X11688D01*
X11731D02*
X11808D01*
X12039D02*
X12292D01*
X12327D02*
X12551D01*
X12649D02*
X12937D01*
X12958D02*
X13063D01*
X13098D02*
X13119D01*
X13182D02*
X13287D01*
X12656Y9128D02*
X12740D01*
X13105D02*
X13112D01*
X13189D02*
X13287D01*
D66*
X2933Y158D02*
X6103D01*
X9348D02*
X12517D01*
X2918Y12387D02*
Y12458D01*
X2920Y12059D02*
Y12129D01*
Y12217D02*
Y12297D01*
Y11955D02*
X2922Y11881D01*
X2920Y11718D02*
Y11794D01*
X1522Y12682D02*
Y12753D01*
X1520Y13011D02*
Y13081D01*
Y12843D02*
Y12923D01*
X1518Y13259D02*
X1520Y13185D01*
Y13346D02*
Y13422D01*
D67*
X22362Y37011D02*
D03*
X14488Y37011D02*
D03*
D68*
X19606Y37011D02*
D03*
X17244D02*
D03*
D69*
X2210Y11872D02*
D03*
M02*
