G04 Layer_Color=16711935*
%FSLAX24Y24*%
%MOIN*%
G70*
G01*
G75*
%ADD70R,0.0650X0.0650*%
%ADD72R,0.0550X0.0550*%
%ADD79R,0.0650X0.0650*%
%ADD80R,0.0550X0.0550*%
%ADD90C,0.1231*%
%ADD91C,0.0650*%
%ADD92C,0.0550*%
%ADD93C,0.0837*%
%ADD94C,0.0247*%
%ADD95R,0.0365X0.0641*%
G04:AMPARAMS|DCode=96|XSize=67mil|YSize=87mil|CornerRadius=0mil|HoleSize=0mil|Usage=FLASHONLY|Rotation=180.000|XOffset=0mil|YOffset=0mil|HoleType=Round|Shape=Octagon|*
%AMOCTAGOND96*
4,1,8,0.0168,-0.0435,-0.0168,-0.0435,-0.0335,-0.0268,-0.0335,0.0268,-0.0168,0.0435,0.0168,0.0435,0.0335,0.0268,0.0335,-0.0268,0.0168,-0.0435,0.0*
%
%ADD96OCTAGOND96*%

%ADD97O,0.0670X0.0870*%
%ADD98O,0.0650X0.0870*%
%ADD99C,0.2017*%
%ADD100R,0.0668X0.0668*%
%ADD101C,0.0668*%
%ADD102C,0.0750*%
%ADD103C,0.0522*%
%ADD104C,0.0404*%
%ADD105C,0.0641*%
%ADD106C,0.0680*%
%ADD107R,0.0800X0.0650*%
D70*
X10520Y38190D02*
D03*
X15080Y27350D02*
D03*
X21460Y27410D02*
D03*
D72*
X18680Y22050D02*
D03*
Y22850D02*
D03*
X8290Y19010D02*
D03*
X9440Y19020D02*
D03*
X16580Y7100D02*
D03*
X30640Y16710D02*
D03*
X30650Y14110D02*
D03*
X36840Y29852D02*
D03*
D79*
X1150Y3200D02*
D03*
X1330Y35930D02*
D03*
X2696D02*
D03*
X1334Y31380D02*
D03*
X2696D02*
D03*
X9440Y25530D02*
D03*
X8290D02*
D03*
X2506Y8130D02*
D03*
X1144D02*
D03*
X30640Y24850D02*
D03*
X38240Y31370D02*
D03*
Y34520D02*
D03*
X29050Y12120D02*
D03*
X2506Y15010D02*
D03*
X1144D02*
D03*
X10780Y12120D02*
D03*
D80*
X5430Y29900D02*
D03*
X6230D02*
D03*
X5512Y38103D02*
D03*
X4712D02*
D03*
X5512Y36783D02*
D03*
X4712D02*
D03*
X5512Y35463D02*
D03*
X4712D02*
D03*
X5512Y34143D02*
D03*
X4712D02*
D03*
X21800Y29141D02*
D03*
X21000D02*
D03*
X15768D02*
D03*
X14968D02*
D03*
X36090Y35500D02*
D03*
X36890D02*
D03*
X36090Y32390D02*
D03*
X36890D02*
D03*
X28990Y33560D02*
D03*
X29790D02*
D03*
X6358Y10020D02*
D03*
X5558D02*
D03*
X7412Y15680D02*
D03*
X6612D02*
D03*
X19860Y8920D02*
D03*
X19060D02*
D03*
X21060D02*
D03*
X21860D02*
D03*
X6420Y32700D02*
D03*
X5620D02*
D03*
X23200Y29141D02*
D03*
X24000D02*
D03*
X17768D02*
D03*
X16968D02*
D03*
X7530Y35900D02*
D03*
X10340Y4270D02*
D03*
Y3110D02*
D03*
X33260Y29660D02*
D03*
D90*
X1181Y1181D02*
D03*
X38189D02*
D03*
Y38189D02*
D03*
X1181D02*
D03*
D91*
X1150Y4200D02*
D03*
Y6200D02*
D03*
Y5200D02*
D03*
X1330Y34930D02*
D03*
Y32930D02*
D03*
Y33930D02*
D03*
X2696Y34930D02*
D03*
Y32930D02*
D03*
Y33930D02*
D03*
X1334Y30380D02*
D03*
Y28380D02*
D03*
Y29380D02*
D03*
X2696Y30380D02*
D03*
Y28380D02*
D03*
Y29380D02*
D03*
X8520Y38190D02*
D03*
X7520D02*
D03*
X9520D02*
D03*
X8520Y37190D02*
D03*
X10520D02*
D03*
X7520D02*
D03*
X9520D02*
D03*
X9440Y23530D02*
D03*
Y24530D02*
D03*
X8290Y23530D02*
D03*
Y24530D02*
D03*
X2506Y10130D02*
D03*
Y9130D02*
D03*
X1144Y10130D02*
D03*
Y9130D02*
D03*
X30640Y23850D02*
D03*
Y21850D02*
D03*
Y22850D02*
D03*
X38240Y33370D02*
D03*
Y32370D02*
D03*
Y36520D02*
D03*
Y35520D02*
D03*
X17080Y27350D02*
D03*
X16080D02*
D03*
X23460Y27410D02*
D03*
X22460D02*
D03*
X29050Y27120D02*
D03*
Y26120D02*
D03*
Y25120D02*
D03*
Y24120D02*
D03*
Y23120D02*
D03*
Y22120D02*
D03*
Y21120D02*
D03*
Y20120D02*
D03*
Y13120D02*
D03*
Y17120D02*
D03*
Y15120D02*
D03*
Y16120D02*
D03*
Y14120D02*
D03*
Y18120D02*
D03*
Y19120D02*
D03*
X2506Y17010D02*
D03*
Y16010D02*
D03*
X1144Y17010D02*
D03*
Y16010D02*
D03*
X10780Y27120D02*
D03*
Y26120D02*
D03*
Y25120D02*
D03*
Y24120D02*
D03*
Y23120D02*
D03*
Y22120D02*
D03*
Y21120D02*
D03*
Y20120D02*
D03*
Y13120D02*
D03*
Y17120D02*
D03*
Y15120D02*
D03*
Y16120D02*
D03*
Y14120D02*
D03*
Y18120D02*
D03*
Y19120D02*
D03*
D92*
X8530Y35900D02*
D03*
X8290Y20010D02*
D03*
X9440Y20020D02*
D03*
X8680Y3290D02*
D03*
Y5290D02*
D03*
X11340Y4270D02*
D03*
Y3110D02*
D03*
X16580Y8100D02*
D03*
X30640Y17710D02*
D03*
X30650Y15110D02*
D03*
X32260Y29660D02*
D03*
X36840Y26860D02*
D03*
X17690Y25410D02*
D03*
X19690D02*
D03*
X-105970Y-63760D02*
D03*
D93*
X2602Y26409D02*
D03*
Y24440D02*
D03*
Y21670D02*
D03*
Y19701D02*
D03*
D94*
X5315Y1516D02*
D03*
X3740D02*
D03*
X11730D02*
D03*
X10155D02*
D03*
D95*
X3416Y670D02*
D03*
X5640D02*
D03*
X9830D02*
D03*
X12054D02*
D03*
D96*
X17590Y5191D02*
D03*
D97*
X18681D02*
D03*
X19773D02*
D03*
X20865D02*
D03*
X21956D02*
D03*
X18140Y4074D02*
D03*
X19231D02*
D03*
X20323D02*
D03*
D98*
X21415D02*
D03*
D99*
X24698Y4632D02*
D03*
X14856D02*
D03*
D100*
X27400Y12120D02*
D03*
X37440Y14700D02*
D03*
D101*
X27400Y13120D02*
D03*
X26400Y12120D02*
D03*
Y13120D02*
D03*
X25400Y12120D02*
D03*
Y13120D02*
D03*
X24400Y12120D02*
D03*
Y13120D02*
D03*
X23400Y12120D02*
D03*
Y13120D02*
D03*
X22400Y12120D02*
D03*
Y13120D02*
D03*
X21400Y12120D02*
D03*
Y13120D02*
D03*
X20400Y12120D02*
D03*
Y13120D02*
D03*
X19400Y12120D02*
D03*
Y13120D02*
D03*
X18400Y12120D02*
D03*
Y13120D02*
D03*
X17400Y12120D02*
D03*
Y13120D02*
D03*
X16400Y12120D02*
D03*
Y13120D02*
D03*
X15400Y12120D02*
D03*
Y13120D02*
D03*
X14400Y12120D02*
D03*
Y13120D02*
D03*
X13400Y12120D02*
D03*
Y13120D02*
D03*
X12400Y12120D02*
D03*
Y13120D02*
D03*
X36440Y14700D02*
D03*
X37440Y15700D02*
D03*
X36440D02*
D03*
X37440Y16700D02*
D03*
X36440D02*
D03*
X37440Y17700D02*
D03*
X36440D02*
D03*
X37440Y18700D02*
D03*
X36440D02*
D03*
X37440Y19700D02*
D03*
X36440D02*
D03*
X37440Y20700D02*
D03*
X36440D02*
D03*
X37440Y21700D02*
D03*
X36440D02*
D03*
X37440Y22700D02*
D03*
X36440D02*
D03*
X37440Y23700D02*
D03*
X36440D02*
D03*
D102*
X34420Y8980D02*
D03*
X32420D02*
D03*
X34420Y11480D02*
D03*
X32420D02*
D03*
X38265Y4630D02*
D03*
X36265D02*
D03*
X38265Y7130D02*
D03*
X36265D02*
D03*
X38265Y8980D02*
D03*
X36265D02*
D03*
X38265Y11480D02*
D03*
X36265D02*
D03*
X34420Y4630D02*
D03*
X32420D02*
D03*
X34420Y7130D02*
D03*
X32420D02*
D03*
D103*
X31177Y35620D02*
D03*
D104*
X34110D02*
D03*
D105*
X21870Y37700D02*
D03*
X20870D02*
D03*
X19870D02*
D03*
X18870D02*
D03*
X17870D02*
D03*
X16870D02*
D03*
Y33700D02*
D03*
X17870D02*
D03*
X18870D02*
D03*
X19870D02*
D03*
X20870D02*
D03*
X21870D02*
D03*
D106*
X3424Y13552D02*
D03*
X3424Y11584D02*
D03*
X1016Y11588D02*
D03*
Y12572D02*
D03*
Y13556D02*
D03*
X3424Y12568D02*
D03*
D107*
X28140Y35680D02*
D03*
X29640D02*
D03*
X28160Y34570D02*
D03*
X29660D02*
D03*
M02*
