G04 Layer_Color=2752767*
%FSLAX24Y24*%
%MOIN*%
G70*
G01*
G75*
%ADD108C,0.0020*%
%ADD109C,0.0027*%
%ADD110C,0.0013*%
D108*
X1101Y1101D02*
Y1261D01*
X1261D01*
Y1101D01*
X1101D01*
X38109D02*
Y1261D01*
X38269D01*
Y1101D01*
X38109D01*
Y38109D02*
Y38269D01*
X38269D01*
Y38109D01*
X38109D01*
X1101D02*
Y38269D01*
X1261D01*
Y38109D01*
X1101D01*
X7530Y35820D02*
X7450Y35980D01*
X7610D01*
X7530Y35820D01*
X8530D02*
X8450Y35980D01*
X8610D01*
X8530Y35820D01*
X2602Y26328D02*
X2642Y26369D01*
X2682D01*
X2642Y26409D01*
X2682Y26449D01*
X2642D01*
X2602Y26488D01*
X2562Y26449D01*
X2522D01*
X2562Y26409D01*
X2522Y26369D01*
X2562D01*
X2602Y26328D01*
Y24360D02*
X2642Y24400D01*
X2682D01*
X2642Y24440D01*
X2682Y24480D01*
X2642D01*
X2602Y24520D01*
X2562Y24480D01*
X2522D01*
X2562Y24440D01*
X2522Y24400D01*
X2562D01*
X2602Y24360D01*
Y21590D02*
X2642Y21630D01*
X2682D01*
X2642Y21670D01*
X2682Y21710D01*
X2642D01*
X2602Y21750D01*
X2562Y21710D01*
X2522D01*
X2562Y21670D01*
X2522Y21630D01*
X2562D01*
X2602Y21590D01*
Y19621D02*
X2642Y19662D01*
X2682D01*
X2642Y19701D01*
X2682Y19741D01*
X2642D01*
X2602Y19782D01*
X2562Y19741D01*
X2522D01*
X2562Y19701D01*
X2522Y19662D01*
X2562D01*
X2602Y19621D01*
X8290Y18930D02*
X8210Y19090D01*
X8370D01*
X8290Y18930D01*
Y19930D02*
X8210Y20090D01*
X8370D01*
X8290Y19930D01*
X9440Y18940D02*
X9360Y19100D01*
X9520D01*
X9440Y18940D01*
Y19940D02*
X9360Y20100D01*
X9520D01*
X9440Y19940D01*
X5235Y1436D02*
X5275Y1516D01*
X5235Y1596D01*
X5315Y1556D01*
X5395Y1596D01*
X5355Y1516D01*
X5395Y1436D01*
X5315Y1476D01*
X5235Y1436D01*
X3660D02*
X3700Y1516D01*
X3660Y1596D01*
X3740Y1556D01*
X3820Y1596D01*
X3780Y1516D01*
X3820Y1436D01*
X3740Y1476D01*
X3660Y1436D01*
X3376Y630D02*
Y590D01*
X3456D01*
Y630D01*
X3496D01*
Y710D01*
X3456D01*
Y750D01*
X3376D01*
Y710D01*
X3336D01*
Y630D01*
X3376D01*
X5600D02*
Y590D01*
X5680D01*
Y630D01*
X5720D01*
Y710D01*
X5680D01*
Y750D01*
X5600D01*
Y710D01*
X5560D01*
Y630D01*
X5600D01*
X11650Y1436D02*
X11690Y1516D01*
X11650Y1596D01*
X11730Y1556D01*
X11810Y1596D01*
X11770Y1516D01*
X11810Y1436D01*
X11730Y1476D01*
X11650Y1436D01*
X10075D02*
X10115Y1516D01*
X10075Y1596D01*
X10155Y1556D01*
X10235Y1596D01*
X10195Y1516D01*
X10235Y1436D01*
X10155Y1476D01*
X10075Y1436D01*
X9790Y630D02*
Y590D01*
X9870D01*
Y630D01*
X9910D01*
Y710D01*
X9870D01*
Y750D01*
X9790D01*
Y710D01*
X9750D01*
Y630D01*
X9790D01*
X12014D02*
Y590D01*
X12094D01*
Y630D01*
X12134D01*
Y710D01*
X12094D01*
Y750D01*
X12014D01*
Y710D01*
X11974D01*
Y630D01*
X12014D01*
X8600Y3210D02*
X8640D01*
X8680Y3250D01*
X8720Y3210D01*
X8760D01*
Y3250D01*
X8720Y3290D01*
X8760Y3330D01*
Y3370D01*
X8720D01*
X8680Y3330D01*
X8640Y3370D01*
X8600D01*
Y3330D01*
X8640Y3290D01*
X8600Y3250D01*
Y3210D01*
Y5210D02*
X8640D01*
X8680Y5250D01*
X8720Y5210D01*
X8760D01*
Y5250D01*
X8720Y5290D01*
X8760Y5330D01*
Y5370D01*
X8720D01*
X8680Y5330D01*
X8640Y5370D01*
X8600D01*
Y5330D01*
X8640Y5290D01*
X8600Y5250D01*
Y5210D01*
X10340Y4190D02*
X10260Y4350D01*
X10420D01*
X10340Y4190D01*
X11340D02*
X11260Y4350D01*
X11420D01*
X11340Y4190D01*
X10340Y3030D02*
X10260Y3190D01*
X10420D01*
X10340Y3030D01*
X11340D02*
X11260Y3190D01*
X11420D01*
X11340Y3030D01*
X24618Y4632D02*
X24698Y4712D01*
X24778Y4632D01*
X24698Y4552D01*
X24618Y4632D01*
X14776D02*
X14856Y4712D01*
X14936Y4632D01*
X14856Y4552D01*
X14776Y4632D01*
X16580Y7020D02*
X16500Y7180D01*
X16660D01*
X16580Y7020D01*
Y8020D02*
X16500Y8180D01*
X16660D01*
X16580Y8020D01*
X27320Y12040D02*
Y12200D01*
X27480D01*
Y12040D01*
X27320D01*
X27360Y12080D02*
Y12160D01*
X27440D01*
Y12080D01*
X27360D01*
X27320Y13040D02*
Y13200D01*
X27480D01*
Y13040D01*
X27320D01*
X27360Y13080D02*
Y13160D01*
X27440D01*
Y13080D01*
X27360D01*
X26320Y12040D02*
Y12200D01*
X26480D01*
Y12040D01*
X26320D01*
X26360Y12080D02*
Y12160D01*
X26440D01*
Y12080D01*
X26360D01*
X26320Y13040D02*
Y13200D01*
X26480D01*
Y13040D01*
X26320D01*
X26360Y13080D02*
Y13160D01*
X26440D01*
Y13080D01*
X26360D01*
X25320Y12040D02*
Y12200D01*
X25480D01*
Y12040D01*
X25320D01*
X25360Y12080D02*
Y12160D01*
X25440D01*
Y12080D01*
X25360D01*
X25320Y13040D02*
Y13200D01*
X25480D01*
Y13040D01*
X25320D01*
X25360Y13080D02*
Y13160D01*
X25440D01*
Y13080D01*
X25360D01*
X24320Y12040D02*
Y12200D01*
X24480D01*
Y12040D01*
X24320D01*
X24360Y12080D02*
Y12160D01*
X24440D01*
Y12080D01*
X24360D01*
X24320Y13040D02*
Y13200D01*
X24480D01*
Y13040D01*
X24320D01*
X24360Y13080D02*
Y13160D01*
X24440D01*
Y13080D01*
X24360D01*
X23320Y12040D02*
Y12200D01*
X23480D01*
Y12040D01*
X23320D01*
X23360Y12080D02*
Y12160D01*
X23440D01*
Y12080D01*
X23360D01*
X23320Y13040D02*
Y13200D01*
X23480D01*
Y13040D01*
X23320D01*
X23360Y13080D02*
Y13160D01*
X23440D01*
Y13080D01*
X23360D01*
X22320Y12040D02*
Y12200D01*
X22480D01*
Y12040D01*
X22320D01*
X22360Y12080D02*
Y12160D01*
X22440D01*
Y12080D01*
X22360D01*
X22320Y13040D02*
Y13200D01*
X22480D01*
Y13040D01*
X22320D01*
X22360Y13080D02*
Y13160D01*
X22440D01*
Y13080D01*
X22360D01*
X21320Y12040D02*
Y12200D01*
X21480D01*
Y12040D01*
X21320D01*
X21360Y12080D02*
Y12160D01*
X21440D01*
Y12080D01*
X21360D01*
X21320Y13040D02*
Y13200D01*
X21480D01*
Y13040D01*
X21320D01*
X21360Y13080D02*
Y13160D01*
X21440D01*
Y13080D01*
X21360D01*
X20320Y12040D02*
Y12200D01*
X20480D01*
Y12040D01*
X20320D01*
X20360Y12080D02*
Y12160D01*
X20440D01*
Y12080D01*
X20360D01*
X20320Y13040D02*
Y13200D01*
X20480D01*
Y13040D01*
X20320D01*
X20360Y13080D02*
Y13160D01*
X20440D01*
Y13080D01*
X20360D01*
X19320Y12040D02*
Y12200D01*
X19480D01*
Y12040D01*
X19320D01*
X19360Y12080D02*
Y12160D01*
X19440D01*
Y12080D01*
X19360D01*
X19320Y13040D02*
Y13200D01*
X19480D01*
Y13040D01*
X19320D01*
X19360Y13080D02*
Y13160D01*
X19440D01*
Y13080D01*
X19360D01*
X18320Y12040D02*
Y12200D01*
X18480D01*
Y12040D01*
X18320D01*
X18360Y12080D02*
Y12160D01*
X18440D01*
Y12080D01*
X18360D01*
X18320Y13040D02*
Y13200D01*
X18480D01*
Y13040D01*
X18320D01*
X18360Y13080D02*
Y13160D01*
X18440D01*
Y13080D01*
X18360D01*
X17320Y12040D02*
Y12200D01*
X17480D01*
Y12040D01*
X17320D01*
X17360Y12080D02*
Y12160D01*
X17440D01*
Y12080D01*
X17360D01*
X17320Y13040D02*
Y13200D01*
X17480D01*
Y13040D01*
X17320D01*
X17360Y13080D02*
Y13160D01*
X17440D01*
Y13080D01*
X17360D01*
X16320Y12040D02*
Y12200D01*
X16480D01*
Y12040D01*
X16320D01*
X16360Y12080D02*
Y12160D01*
X16440D01*
Y12080D01*
X16360D01*
X16320Y13040D02*
Y13200D01*
X16480D01*
Y13040D01*
X16320D01*
X16360Y13080D02*
Y13160D01*
X16440D01*
Y13080D01*
X16360D01*
X15320Y12040D02*
Y12200D01*
X15480D01*
Y12040D01*
X15320D01*
X15360Y12080D02*
Y12160D01*
X15440D01*
Y12080D01*
X15360D01*
X15320Y13040D02*
Y13200D01*
X15480D01*
Y13040D01*
X15320D01*
X15360Y13080D02*
Y13160D01*
X15440D01*
Y13080D01*
X15360D01*
X14320Y12040D02*
Y12200D01*
X14480D01*
Y12040D01*
X14320D01*
X14360Y12080D02*
Y12160D01*
X14440D01*
Y12080D01*
X14360D01*
X14320Y13040D02*
Y13200D01*
X14480D01*
Y13040D01*
X14320D01*
X14360Y13080D02*
Y13160D01*
X14440D01*
Y13080D01*
X14360D01*
X13320Y12040D02*
Y12200D01*
X13480D01*
Y12040D01*
X13320D01*
X13360Y12080D02*
Y12160D01*
X13440D01*
Y12080D01*
X13360D01*
X13320Y13040D02*
Y13200D01*
X13480D01*
Y13040D01*
X13320D01*
X13360Y13080D02*
Y13160D01*
X13440D01*
Y13080D01*
X13360D01*
X12320Y12040D02*
Y12200D01*
X12480D01*
Y12040D01*
X12320D01*
X12360Y12080D02*
Y12160D01*
X12440D01*
Y12080D01*
X12360D01*
X12320Y13040D02*
Y13200D01*
X12480D01*
Y13040D01*
X12320D01*
X12360Y13080D02*
Y13160D01*
X12440D01*
Y13080D01*
X12360D01*
X30640Y16630D02*
X30560Y16790D01*
X30720D01*
X30640Y16630D01*
Y17630D02*
X30560Y17790D01*
X30720D01*
X30640Y17630D01*
X30650Y14030D02*
X30570Y14190D01*
X30730D01*
X30650Y14030D01*
Y15030D02*
X30570Y15190D01*
X30730D01*
X30650Y15030D01*
X33260Y29580D02*
X33180Y29740D01*
X33340D01*
X33260Y29580D01*
X32260D02*
X32180Y29740D01*
X32340D01*
X32260Y29580D01*
X36840Y29772D02*
X36760Y29932D01*
X36920D01*
X36840Y29772D01*
Y26780D02*
X36760Y26940D01*
X36920D01*
X36840Y26780D01*
X31177Y35540D02*
X31097Y35700D01*
X31257D01*
X31177Y35540D01*
Y35580D02*
X31137Y35660D01*
X31217D01*
X31177Y35580D01*
X34110Y35540D02*
X34150Y35580D01*
X34190D01*
X34150Y35620D01*
X34190Y35660D01*
X34150D01*
X34110Y35700D01*
X34070Y35660D01*
X34030D01*
X34070Y35620D01*
X34030Y35580D01*
X34070D01*
X34110Y35540D01*
Y35580D02*
X34130Y35600D01*
X34150D01*
X34130Y35620D01*
X34150Y35640D01*
X34130D01*
X34110Y35660D01*
X34090Y35640D01*
X34070D01*
X34090Y35620D01*
X34070Y35600D01*
X34090D01*
X34110Y35580D01*
X21790Y37620D02*
X21830Y37700D01*
X21790Y37780D01*
X21870Y37740D01*
X21950Y37780D01*
X21910Y37700D01*
X21950Y37620D01*
X21870Y37660D01*
X21790Y37620D01*
X21830Y37660D02*
X21850Y37700D01*
X21830Y37740D01*
X21870Y37720D01*
X21910Y37740D01*
X21890Y37700D01*
X21910Y37660D01*
X21870Y37680D01*
X21830Y37660D01*
X20790Y37620D02*
X20830Y37700D01*
X20790Y37780D01*
X20870Y37740D01*
X20950Y37780D01*
X20910Y37700D01*
X20950Y37620D01*
X20870Y37660D01*
X20790Y37620D01*
X20830Y37660D02*
X20850Y37700D01*
X20830Y37740D01*
X20870Y37720D01*
X20910Y37740D01*
X20890Y37700D01*
X20910Y37660D01*
X20870Y37680D01*
X20830Y37660D01*
X19790Y37620D02*
X19830Y37700D01*
X19790Y37780D01*
X19870Y37740D01*
X19950Y37780D01*
X19910Y37700D01*
X19950Y37620D01*
X19870Y37660D01*
X19790Y37620D01*
X19830Y37660D02*
X19850Y37700D01*
X19830Y37740D01*
X19870Y37720D01*
X19910Y37740D01*
X19890Y37700D01*
X19910Y37660D01*
X19870Y37680D01*
X19830Y37660D01*
X18790Y37620D02*
X18830Y37700D01*
X18790Y37780D01*
X18870Y37740D01*
X18950Y37780D01*
X18910Y37700D01*
X18950Y37620D01*
X18870Y37660D01*
X18790Y37620D01*
X18830Y37660D02*
X18850Y37700D01*
X18830Y37740D01*
X18870Y37720D01*
X18910Y37740D01*
X18890Y37700D01*
X18910Y37660D01*
X18870Y37680D01*
X18830Y37660D01*
X17790Y37620D02*
X17830Y37700D01*
X17790Y37780D01*
X17870Y37740D01*
X17950Y37780D01*
X17910Y37700D01*
X17950Y37620D01*
X17870Y37660D01*
X17790Y37620D01*
X17830Y37660D02*
X17850Y37700D01*
X17830Y37740D01*
X17870Y37720D01*
X17910Y37740D01*
X17890Y37700D01*
X17910Y37660D01*
X17870Y37680D01*
X17830Y37660D01*
X16790Y37620D02*
X16830Y37700D01*
X16790Y37780D01*
X16870Y37740D01*
X16950Y37780D01*
X16910Y37700D01*
X16950Y37620D01*
X16870Y37660D01*
X16790Y37620D01*
X16830Y37660D02*
X16850Y37700D01*
X16830Y37740D01*
X16870Y37720D01*
X16910Y37740D01*
X16890Y37700D01*
X16910Y37660D01*
X16870Y37680D01*
X16830Y37660D01*
X16790Y33620D02*
X16830Y33700D01*
X16790Y33780D01*
X16870Y33740D01*
X16950Y33780D01*
X16910Y33700D01*
X16950Y33620D01*
X16870Y33660D01*
X16790Y33620D01*
X16830Y33660D02*
X16850Y33700D01*
X16830Y33740D01*
X16870Y33720D01*
X16910Y33740D01*
X16890Y33700D01*
X16910Y33660D01*
X16870Y33680D01*
X16830Y33660D01*
X17790Y33620D02*
X17830Y33700D01*
X17790Y33780D01*
X17870Y33740D01*
X17950Y33780D01*
X17910Y33700D01*
X17950Y33620D01*
X17870Y33660D01*
X17790Y33620D01*
X17830Y33660D02*
X17850Y33700D01*
X17830Y33740D01*
X17870Y33720D01*
X17910Y33740D01*
X17890Y33700D01*
X17910Y33660D01*
X17870Y33680D01*
X17830Y33660D01*
X18790Y33620D02*
X18830Y33700D01*
X18790Y33780D01*
X18870Y33740D01*
X18950Y33780D01*
X18910Y33700D01*
X18950Y33620D01*
X18870Y33660D01*
X18790Y33620D01*
X18830Y33660D02*
X18850Y33700D01*
X18830Y33740D01*
X18870Y33720D01*
X18910Y33740D01*
X18890Y33700D01*
X18910Y33660D01*
X18870Y33680D01*
X18830Y33660D01*
X19790Y33620D02*
X19830Y33700D01*
X19790Y33780D01*
X19870Y33740D01*
X19950Y33780D01*
X19910Y33700D01*
X19950Y33620D01*
X19870Y33660D01*
X19790Y33620D01*
X19830Y33660D02*
X19850Y33700D01*
X19830Y33740D01*
X19870Y33720D01*
X19910Y33740D01*
X19890Y33700D01*
X19910Y33660D01*
X19870Y33680D01*
X19830Y33660D01*
X20790Y33620D02*
X20830Y33700D01*
X20790Y33780D01*
X20870Y33740D01*
X20950Y33780D01*
X20910Y33700D01*
X20950Y33620D01*
X20870Y33660D01*
X20790Y33620D01*
X20830Y33660D02*
X20850Y33700D01*
X20830Y33740D01*
X20870Y33720D01*
X20910Y33740D01*
X20890Y33700D01*
X20910Y33660D01*
X20870Y33680D01*
X20830Y33660D01*
X21790Y33620D02*
X21830Y33700D01*
X21790Y33780D01*
X21870Y33740D01*
X21950Y33780D01*
X21910Y33700D01*
X21950Y33620D01*
X21870Y33660D01*
X21790Y33620D01*
X21830Y33660D02*
X21850Y33700D01*
X21830Y33740D01*
X21870Y33720D01*
X21910Y33740D01*
X21890Y33700D01*
X21910Y33660D01*
X21870Y33680D01*
X21830Y33660D01*
X17610Y25330D02*
X17650D01*
X17690Y25370D01*
X17730Y25330D01*
X17770D01*
Y25370D01*
X17730Y25410D01*
X17770Y25450D01*
Y25490D01*
X17730D01*
X17690Y25450D01*
X17650Y25490D01*
X17610D01*
Y25450D01*
X17650Y25410D01*
X17610Y25370D01*
Y25330D01*
X19610D02*
X19650D01*
X19690Y25370D01*
X19730Y25330D01*
X19770D01*
Y25370D01*
X19730Y25410D01*
X19770Y25450D01*
Y25490D01*
X19730D01*
X19690Y25450D01*
X19650Y25490D01*
X19610D01*
Y25450D01*
X19650Y25410D01*
X19610Y25370D01*
Y25330D01*
X3344Y13472D02*
X3384Y13552D01*
X3344Y13632D01*
X3424Y13592D01*
X3504Y13632D01*
X3464Y13552D01*
X3504Y13472D01*
X3424Y13512D01*
X3344Y13472D01*
X3384Y13512D02*
X3404Y13552D01*
X3384Y13592D01*
X3424Y13572D01*
X3464Y13592D01*
X3444Y13552D01*
X3464Y13512D01*
X3424Y13532D01*
X3384Y13512D01*
X3344Y11504D02*
X3384Y11584D01*
X3344Y11664D01*
X3424Y11624D01*
X3504Y11664D01*
X3464Y11584D01*
X3504Y11504D01*
X3424Y11544D01*
X3344Y11504D01*
X3384Y11544D02*
X3404Y11584D01*
X3384Y11624D01*
X3424Y11604D01*
X3464Y11624D01*
X3444Y11584D01*
X3464Y11544D01*
X3424Y11564D01*
X3384Y11544D01*
X936Y11508D02*
X976Y11588D01*
X936Y11668D01*
X1016Y11628D01*
X1096Y11668D01*
X1056Y11588D01*
X1096Y11508D01*
X1016Y11548D01*
X936Y11508D01*
X976Y11548D02*
X996Y11588D01*
X976Y11628D01*
X1016Y11608D01*
X1056Y11628D01*
X1036Y11588D01*
X1056Y11548D01*
X1016Y11568D01*
X976Y11548D01*
X936Y12492D02*
X976Y12572D01*
X936Y12652D01*
X1016Y12612D01*
X1096Y12652D01*
X1056Y12572D01*
X1096Y12492D01*
X1016Y12532D01*
X936Y12492D01*
X976Y12532D02*
X996Y12572D01*
X976Y12612D01*
X1016Y12592D01*
X1056Y12612D01*
X1036Y12572D01*
X1056Y12532D01*
X1016Y12552D01*
X976Y12532D01*
X936Y13476D02*
X976Y13556D01*
X936Y13636D01*
X1016Y13596D01*
X1096Y13636D01*
X1056Y13556D01*
X1096Y13476D01*
X1016Y13516D01*
X936Y13476D01*
X976Y13516D02*
X996Y13556D01*
X976Y13596D01*
X1016Y13576D01*
X1056Y13596D01*
X1036Y13556D01*
X1056Y13516D01*
X1016Y13536D01*
X976Y13516D01*
X3344Y12488D02*
X3384Y12568D01*
X3344Y12648D01*
X3424Y12608D01*
X3504Y12648D01*
X3464Y12568D01*
X3504Y12488D01*
X3424Y12528D01*
X3344Y12488D01*
X3384Y12528D02*
X3404Y12568D01*
X3384Y12608D01*
X3424Y12588D01*
X3464Y12608D01*
X3444Y12568D01*
X3464Y12528D01*
X3424Y12548D01*
X3384Y12528D01*
X36400Y14660D02*
Y14620D01*
X36480D01*
Y14660D01*
X36520D01*
Y14740D01*
X36480D01*
Y14780D01*
X36400D01*
Y14740D01*
X36360D01*
Y14660D01*
X36400D01*
X36420Y14680D02*
Y14660D01*
X36460D01*
Y14680D01*
X36480D01*
Y14720D01*
X36460D01*
Y14740D01*
X36420D01*
Y14720D01*
X36400D01*
Y14680D01*
X36420D01*
X37400Y14660D02*
Y14620D01*
X37480D01*
Y14660D01*
X37520D01*
Y14740D01*
X37480D01*
Y14780D01*
X37400D01*
Y14740D01*
X37360D01*
Y14660D01*
X37400D01*
X37420Y14680D02*
Y14660D01*
X37460D01*
Y14680D01*
X37480D01*
Y14720D01*
X37460D01*
Y14740D01*
X37420D01*
Y14720D01*
X37400D01*
Y14680D01*
X37420D01*
X37400Y15660D02*
Y15620D01*
X37480D01*
Y15660D01*
X37520D01*
Y15740D01*
X37480D01*
Y15780D01*
X37400D01*
Y15740D01*
X37360D01*
Y15660D01*
X37400D01*
X37420Y15680D02*
Y15660D01*
X37460D01*
Y15680D01*
X37480D01*
Y15720D01*
X37460D01*
Y15740D01*
X37420D01*
Y15720D01*
X37400D01*
Y15680D01*
X37420D01*
X36400Y15660D02*
Y15620D01*
X36480D01*
Y15660D01*
X36520D01*
Y15740D01*
X36480D01*
Y15780D01*
X36400D01*
Y15740D01*
X36360D01*
Y15660D01*
X36400D01*
X36420Y15680D02*
Y15660D01*
X36460D01*
Y15680D01*
X36480D01*
Y15720D01*
X36460D01*
Y15740D01*
X36420D01*
Y15720D01*
X36400D01*
Y15680D01*
X36420D01*
X37400Y16660D02*
Y16620D01*
X37480D01*
Y16660D01*
X37520D01*
Y16740D01*
X37480D01*
Y16780D01*
X37400D01*
Y16740D01*
X37360D01*
Y16660D01*
X37400D01*
X37420Y16680D02*
Y16660D01*
X37460D01*
Y16680D01*
X37480D01*
Y16720D01*
X37460D01*
Y16740D01*
X37420D01*
Y16720D01*
X37400D01*
Y16680D01*
X37420D01*
X36400Y16660D02*
Y16620D01*
X36480D01*
Y16660D01*
X36520D01*
Y16740D01*
X36480D01*
Y16780D01*
X36400D01*
Y16740D01*
X36360D01*
Y16660D01*
X36400D01*
X36420Y16680D02*
Y16660D01*
X36460D01*
Y16680D01*
X36480D01*
Y16720D01*
X36460D01*
Y16740D01*
X36420D01*
Y16720D01*
X36400D01*
Y16680D01*
X36420D01*
X37400Y17660D02*
Y17620D01*
X37480D01*
Y17660D01*
X37520D01*
Y17740D01*
X37480D01*
Y17780D01*
X37400D01*
Y17740D01*
X37360D01*
Y17660D01*
X37400D01*
X37420Y17680D02*
Y17660D01*
X37460D01*
Y17680D01*
X37480D01*
Y17720D01*
X37460D01*
Y17740D01*
X37420D01*
Y17720D01*
X37400D01*
Y17680D01*
X37420D01*
X36400Y17660D02*
Y17620D01*
X36480D01*
Y17660D01*
X36520D01*
Y17740D01*
X36480D01*
Y17780D01*
X36400D01*
Y17740D01*
X36360D01*
Y17660D01*
X36400D01*
X36420Y17680D02*
Y17660D01*
X36460D01*
Y17680D01*
X36480D01*
Y17720D01*
X36460D01*
Y17740D01*
X36420D01*
Y17720D01*
X36400D01*
Y17680D01*
X36420D01*
X37400Y18660D02*
Y18620D01*
X37480D01*
Y18660D01*
X37520D01*
Y18740D01*
X37480D01*
Y18780D01*
X37400D01*
Y18740D01*
X37360D01*
Y18660D01*
X37400D01*
X37420Y18680D02*
Y18660D01*
X37460D01*
Y18680D01*
X37480D01*
Y18720D01*
X37460D01*
Y18740D01*
X37420D01*
Y18720D01*
X37400D01*
Y18680D01*
X37420D01*
X36400Y18660D02*
Y18620D01*
X36480D01*
Y18660D01*
X36520D01*
Y18740D01*
X36480D01*
Y18780D01*
X36400D01*
Y18740D01*
X36360D01*
Y18660D01*
X36400D01*
X36420Y18680D02*
Y18660D01*
X36460D01*
Y18680D01*
X36480D01*
Y18720D01*
X36460D01*
Y18740D01*
X36420D01*
Y18720D01*
X36400D01*
Y18680D01*
X36420D01*
X37400Y19660D02*
Y19620D01*
X37480D01*
Y19660D01*
X37520D01*
Y19740D01*
X37480D01*
Y19780D01*
X37400D01*
Y19740D01*
X37360D01*
Y19660D01*
X37400D01*
X37420Y19680D02*
Y19660D01*
X37460D01*
Y19680D01*
X37480D01*
Y19720D01*
X37460D01*
Y19740D01*
X37420D01*
Y19720D01*
X37400D01*
Y19680D01*
X37420D01*
X36400Y19660D02*
Y19620D01*
X36480D01*
Y19660D01*
X36520D01*
Y19740D01*
X36480D01*
Y19780D01*
X36400D01*
Y19740D01*
X36360D01*
Y19660D01*
X36400D01*
X36420Y19680D02*
Y19660D01*
X36460D01*
Y19680D01*
X36480D01*
Y19720D01*
X36460D01*
Y19740D01*
X36420D01*
Y19720D01*
X36400D01*
Y19680D01*
X36420D01*
X37400Y20660D02*
Y20620D01*
X37480D01*
Y20660D01*
X37520D01*
Y20740D01*
X37480D01*
Y20780D01*
X37400D01*
Y20740D01*
X37360D01*
Y20660D01*
X37400D01*
X37420Y20680D02*
Y20660D01*
X37460D01*
Y20680D01*
X37480D01*
Y20720D01*
X37460D01*
Y20740D01*
X37420D01*
Y20720D01*
X37400D01*
Y20680D01*
X37420D01*
X36400Y20660D02*
Y20620D01*
X36480D01*
Y20660D01*
X36520D01*
Y20740D01*
X36480D01*
Y20780D01*
X36400D01*
Y20740D01*
X36360D01*
Y20660D01*
X36400D01*
X36420Y20680D02*
Y20660D01*
X36460D01*
Y20680D01*
X36480D01*
Y20720D01*
X36460D01*
Y20740D01*
X36420D01*
Y20720D01*
X36400D01*
Y20680D01*
X36420D01*
X37400Y21660D02*
Y21620D01*
X37480D01*
Y21660D01*
X37520D01*
Y21740D01*
X37480D01*
Y21780D01*
X37400D01*
Y21740D01*
X37360D01*
Y21660D01*
X37400D01*
X37420Y21680D02*
Y21660D01*
X37460D01*
Y21680D01*
X37480D01*
Y21720D01*
X37460D01*
Y21740D01*
X37420D01*
Y21720D01*
X37400D01*
Y21680D01*
X37420D01*
X36400Y21660D02*
Y21620D01*
X36480D01*
Y21660D01*
X36520D01*
Y21740D01*
X36480D01*
Y21780D01*
X36400D01*
Y21740D01*
X36360D01*
Y21660D01*
X36400D01*
X36420Y21680D02*
Y21660D01*
X36460D01*
Y21680D01*
X36480D01*
Y21720D01*
X36460D01*
Y21740D01*
X36420D01*
Y21720D01*
X36400D01*
Y21680D01*
X36420D01*
X37400Y22660D02*
Y22620D01*
X37480D01*
Y22660D01*
X37520D01*
Y22740D01*
X37480D01*
Y22780D01*
X37400D01*
Y22740D01*
X37360D01*
Y22660D01*
X37400D01*
X37420Y22680D02*
Y22660D01*
X37460D01*
Y22680D01*
X37480D01*
Y22720D01*
X37460D01*
Y22740D01*
X37420D01*
Y22720D01*
X37400D01*
Y22680D01*
X37420D01*
X36400Y22660D02*
Y22620D01*
X36480D01*
Y22660D01*
X36520D01*
Y22740D01*
X36480D01*
Y22780D01*
X36400D01*
Y22740D01*
X36360D01*
Y22660D01*
X36400D01*
X36420Y22680D02*
Y22660D01*
X36460D01*
Y22680D01*
X36480D01*
Y22720D01*
X36460D01*
Y22740D01*
X36420D01*
Y22720D01*
X36400D01*
Y22680D01*
X36420D01*
X37400Y23660D02*
Y23620D01*
X37480D01*
Y23660D01*
X37520D01*
Y23740D01*
X37480D01*
Y23780D01*
X37400D01*
Y23740D01*
X37360D01*
Y23660D01*
X37400D01*
X37420Y23680D02*
Y23660D01*
X37460D01*
Y23680D01*
X37480D01*
Y23720D01*
X37460D01*
Y23740D01*
X37420D01*
Y23720D01*
X37400D01*
Y23680D01*
X37420D01*
X36400Y23660D02*
Y23620D01*
X36480D01*
Y23660D01*
X36520D01*
Y23740D01*
X36480D01*
Y23780D01*
X36400D01*
Y23740D01*
X36360D01*
Y23660D01*
X36400D01*
X36420Y23680D02*
Y23660D01*
X36460D01*
Y23680D01*
X36480D01*
Y23720D01*
X36460D01*
Y23740D01*
X36420D01*
Y23720D01*
X36400D01*
Y23680D01*
X36420D01*
X20840Y21480D02*
X20880D01*
X20920Y21520D01*
X20960Y21480D01*
X21000D01*
Y21520D01*
X20960Y21560D01*
X21000Y21600D01*
Y21640D01*
X20960D01*
X20920Y21600D01*
X20880Y21640D01*
X20840D01*
Y21600D01*
X20880Y21560D01*
X20840Y21520D01*
Y21480D01*
X20880Y21520D02*
X20900D01*
X20920Y21540D01*
X20940Y21520D01*
X20960D01*
Y21540D01*
X20940Y21560D01*
X20960Y21580D01*
Y21600D01*
X20940D01*
X20920Y21580D01*
X20900Y21600D01*
X20880D01*
Y21580D01*
X20900Y21560D01*
X20880Y21540D01*
Y21520D01*
X1900Y5840D02*
X1940D01*
X1980Y5880D01*
X2020Y5840D01*
X2060D01*
Y5880D01*
X2020Y5920D01*
X2060Y5960D01*
Y6000D01*
X2020D01*
X1980Y5960D01*
X1940Y6000D01*
X1900D01*
Y5960D01*
X1940Y5920D01*
X1900Y5880D01*
Y5840D01*
X1940Y5880D02*
X1960D01*
X1980Y5900D01*
X2000Y5880D01*
X2020D01*
Y5900D01*
X2000Y5920D01*
X2020Y5940D01*
Y5960D01*
X2000D01*
X1980Y5940D01*
X1960Y5960D01*
X1940D01*
Y5940D01*
X1960Y5920D01*
X1940Y5900D01*
Y5880D01*
X1900Y6120D02*
X1940D01*
X1980Y6160D01*
X2020Y6120D01*
X2060D01*
Y6160D01*
X2020Y6200D01*
X2060Y6240D01*
Y6280D01*
X2020D01*
X1980Y6240D01*
X1940Y6280D01*
X1900D01*
Y6240D01*
X1940Y6200D01*
X1900Y6160D01*
Y6120D01*
X1940Y6160D02*
X1960D01*
X1980Y6180D01*
X2000Y6160D01*
X2020D01*
Y6180D01*
X2000Y6200D01*
X2020Y6220D01*
Y6240D01*
X2000D01*
X1980Y6220D01*
X1960Y6240D01*
X1940D01*
Y6220D01*
X1960Y6200D01*
X1940Y6180D01*
Y6160D01*
X11550Y2350D02*
X11590D01*
X11630Y2390D01*
X11670Y2350D01*
X11710D01*
Y2390D01*
X11670Y2430D01*
X11710Y2470D01*
Y2510D01*
X11670D01*
X11630Y2470D01*
X11590Y2510D01*
X11550D01*
Y2470D01*
X11590Y2430D01*
X11550Y2390D01*
Y2350D01*
X11590Y2390D02*
X11610D01*
X11630Y2410D01*
X11650Y2390D01*
X11670D01*
Y2410D01*
X11650Y2430D01*
X11670Y2450D01*
Y2470D01*
X11650D01*
X11630Y2450D01*
X11610Y2470D01*
X11590D01*
Y2450D01*
X11610Y2430D01*
X11590Y2410D01*
Y2390D01*
X12000Y2350D02*
X12040D01*
X12080Y2390D01*
X12120Y2350D01*
X12160D01*
Y2390D01*
X12120Y2430D01*
X12160Y2470D01*
Y2510D01*
X12120D01*
X12080Y2470D01*
X12040Y2510D01*
X12000D01*
Y2470D01*
X12040Y2430D01*
X12000Y2390D01*
Y2350D01*
X12040Y2390D02*
X12060D01*
X12080Y2410D01*
X12100Y2390D01*
X12120D01*
Y2410D01*
X12100Y2430D01*
X12120Y2450D01*
Y2470D01*
X12100D01*
X12080Y2450D01*
X12060Y2470D01*
X12040D01*
Y2450D01*
X12060Y2430D01*
X12040Y2410D01*
Y2390D01*
X5900Y2460D02*
X5940D01*
X5980Y2500D01*
X6020Y2460D01*
X6060D01*
Y2500D01*
X6020Y2540D01*
X6060Y2580D01*
Y2620D01*
X6020D01*
X5980Y2580D01*
X5940Y2620D01*
X5900D01*
Y2580D01*
X5940Y2540D01*
X5900Y2500D01*
Y2460D01*
X5940Y2500D02*
X5960D01*
X5980Y2520D01*
X6000Y2500D01*
X6020D01*
Y2520D01*
X6000Y2540D01*
X6020Y2560D01*
Y2580D01*
X6000D01*
X5980Y2560D01*
X5960Y2580D01*
X5940D01*
Y2560D01*
X5960Y2540D01*
X5940Y2520D01*
Y2500D01*
X5030Y2480D02*
X5070D01*
X5110Y2520D01*
X5150Y2480D01*
X5190D01*
Y2520D01*
X5150Y2560D01*
X5190Y2600D01*
Y2640D01*
X5150D01*
X5110Y2600D01*
X5070Y2640D01*
X5030D01*
Y2600D01*
X5070Y2560D01*
X5030Y2520D01*
Y2480D01*
X5070Y2520D02*
X5090D01*
X5110Y2540D01*
X5130Y2520D01*
X5150D01*
Y2540D01*
X5130Y2560D01*
X5150Y2580D01*
Y2600D01*
X5130D01*
X5110Y2580D01*
X5090Y2600D01*
X5070D01*
Y2580D01*
X5090Y2560D01*
X5070Y2540D01*
Y2520D01*
X5530Y2480D02*
X5570D01*
X5610Y2520D01*
X5650Y2480D01*
X5690D01*
Y2520D01*
X5650Y2560D01*
X5690Y2600D01*
Y2640D01*
X5650D01*
X5610Y2600D01*
X5570Y2640D01*
X5530D01*
Y2600D01*
X5570Y2560D01*
X5530Y2520D01*
Y2480D01*
X5570Y2520D02*
X5590D01*
X5610Y2540D01*
X5630Y2520D01*
X5650D01*
Y2540D01*
X5630Y2560D01*
X5650Y2580D01*
Y2600D01*
X5630D01*
X5610Y2580D01*
X5590Y2600D01*
X5570D01*
Y2580D01*
X5590Y2560D01*
X5570Y2540D01*
Y2520D01*
X2100Y3380D02*
X2140D01*
X2180Y3420D01*
X2220Y3380D01*
X2260D01*
Y3420D01*
X2220Y3460D01*
X2260Y3500D01*
Y3540D01*
X2220D01*
X2180Y3500D01*
X2140Y3540D01*
X2100D01*
Y3500D01*
X2140Y3460D01*
X2100Y3420D01*
Y3380D01*
X2140Y3420D02*
X2160D01*
X2180Y3440D01*
X2200Y3420D01*
X2220D01*
Y3440D01*
X2200Y3460D01*
X2220Y3480D01*
Y3500D01*
X2200D01*
X2180Y3480D01*
X2160Y3500D01*
X2140D01*
Y3480D01*
X2160Y3460D01*
X2140Y3440D01*
Y3420D01*
X23500Y21920D02*
X23540D01*
X23580Y21960D01*
X23620Y21920D01*
X23660D01*
Y21960D01*
X23620Y22000D01*
X23660Y22040D01*
Y22080D01*
X23620D01*
X23580Y22040D01*
X23540Y22080D01*
X23500D01*
Y22040D01*
X23540Y22000D01*
X23500Y21960D01*
Y21920D01*
X23540Y21960D02*
X23560D01*
X23580Y21980D01*
X23600Y21960D01*
X23620D01*
Y21980D01*
X23600Y22000D01*
X23620Y22020D01*
Y22040D01*
X23600D01*
X23580Y22020D01*
X23560Y22040D01*
X23540D01*
Y22020D01*
X23560Y22000D01*
X23540Y21980D01*
Y21960D01*
X21390Y22850D02*
X21430D01*
X21470Y22890D01*
X21510Y22850D01*
X21550D01*
Y22890D01*
X21510Y22930D01*
X21550Y22970D01*
Y23010D01*
X21510D01*
X21470Y22970D01*
X21430Y23010D01*
X21390D01*
Y22970D01*
X21430Y22930D01*
X21390Y22890D01*
Y22850D01*
X21430Y22890D02*
X21450D01*
X21470Y22910D01*
X21490Y22890D01*
X21510D01*
Y22910D01*
X21490Y22930D01*
X21510Y22950D01*
Y22970D01*
X21490D01*
X21470Y22950D01*
X21450Y22970D01*
X21430D01*
Y22950D01*
X21450Y22930D01*
X21430Y22910D01*
Y22890D01*
X24920Y26260D02*
X24960D01*
X25000Y26300D01*
X25040Y26260D01*
X25080D01*
Y26300D01*
X25040Y26340D01*
X25080Y26380D01*
Y26420D01*
X25040D01*
X25000Y26380D01*
X24960Y26420D01*
X24920D01*
Y26380D01*
X24960Y26340D01*
X24920Y26300D01*
Y26260D01*
X24960Y26300D02*
X24980D01*
X25000Y26320D01*
X25020Y26300D01*
X25040D01*
Y26320D01*
X25020Y26340D01*
X25040Y26360D01*
Y26380D01*
X25020D01*
X25000Y26360D01*
X24980Y26380D01*
X24960D01*
Y26360D01*
X24980Y26340D01*
X24960Y26320D01*
Y26300D01*
X36600Y36240D02*
X36640D01*
X36680Y36280D01*
X36720Y36240D01*
X36760D01*
Y36280D01*
X36720Y36320D01*
X36760Y36360D01*
Y36400D01*
X36720D01*
X36680Y36360D01*
X36640Y36400D01*
X36600D01*
Y36360D01*
X36640Y36320D01*
X36600Y36280D01*
Y36240D01*
X36640Y36280D02*
X36660D01*
X36680Y36300D01*
X36700Y36280D01*
X36720D01*
Y36300D01*
X36700Y36320D01*
X36720Y36340D01*
Y36360D01*
X36700D01*
X36680Y36340D01*
X36660Y36360D01*
X36640D01*
Y36340D01*
X36660Y36320D01*
X36640Y36300D01*
Y36280D01*
X36230Y36240D02*
X36270D01*
X36310Y36280D01*
X36350Y36240D01*
X36390D01*
Y36280D01*
X36350Y36320D01*
X36390Y36360D01*
Y36400D01*
X36350D01*
X36310Y36360D01*
X36270Y36400D01*
X36230D01*
Y36360D01*
X36270Y36320D01*
X36230Y36280D01*
Y36240D01*
X36270Y36280D02*
X36290D01*
X36310Y36300D01*
X36330Y36280D01*
X36350D01*
Y36300D01*
X36330Y36320D01*
X36350Y36340D01*
Y36360D01*
X36330D01*
X36310Y36340D01*
X36290Y36360D01*
X36270D01*
Y36340D01*
X36290Y36320D01*
X36270Y36300D01*
Y36280D01*
X35740Y36240D02*
X35780D01*
X35820Y36280D01*
X35860Y36240D01*
X35900D01*
Y36280D01*
X35860Y36320D01*
X35900Y36360D01*
Y36400D01*
X35860D01*
X35820Y36360D01*
X35780Y36400D01*
X35740D01*
Y36360D01*
X35780Y36320D01*
X35740Y36280D01*
Y36240D01*
X35780Y36280D02*
X35800D01*
X35820Y36300D01*
X35840Y36280D01*
X35860D01*
Y36300D01*
X35840Y36320D01*
X35860Y36340D01*
Y36360D01*
X35840D01*
X35820Y36340D01*
X35800Y36360D01*
X35780D01*
Y36340D01*
X35800Y36320D01*
X35780Y36300D01*
Y36280D01*
X38030Y17610D02*
X38070D01*
X38110Y17650D01*
X38150Y17610D01*
X38190D01*
Y17650D01*
X38150Y17690D01*
X38190Y17730D01*
Y17770D01*
X38150D01*
X38110Y17730D01*
X38070Y17770D01*
X38030D01*
Y17730D01*
X38070Y17690D01*
X38030Y17650D01*
Y17610D01*
X38070Y17650D02*
X38090D01*
X38110Y17670D01*
X38130Y17650D01*
X38150D01*
Y17670D01*
X38130Y17690D01*
X38150Y17710D01*
Y17730D01*
X38130D01*
X38110Y17710D01*
X38090Y17730D01*
X38070D01*
Y17710D01*
X38090Y17690D01*
X38070Y17670D01*
Y17650D01*
X35540Y16920D02*
X35580D01*
X35620Y16960D01*
X35660Y16920D01*
X35700D01*
Y16960D01*
X35660Y17000D01*
X35700Y17040D01*
Y17080D01*
X35660D01*
X35620Y17040D01*
X35580Y17080D01*
X35540D01*
Y17040D01*
X35580Y17000D01*
X35540Y16960D01*
Y16920D01*
X35580Y16960D02*
X35600D01*
X35620Y16980D01*
X35640Y16960D01*
X35660D01*
Y16980D01*
X35640Y17000D01*
X35660Y17020D01*
Y17040D01*
X35640D01*
X35620Y17020D01*
X35600Y17040D01*
X35580D01*
Y17020D01*
X35600Y17000D01*
X35580Y16980D01*
Y16960D01*
X31640Y19560D02*
X31680D01*
X31720Y19600D01*
X31760Y19560D01*
X31800D01*
Y19600D01*
X31760Y19640D01*
X31800Y19680D01*
Y19720D01*
X31760D01*
X31720Y19680D01*
X31680Y19720D01*
X31640D01*
Y19680D01*
X31680Y19640D01*
X31640Y19600D01*
Y19560D01*
X31680Y19600D02*
X31700D01*
X31720Y19620D01*
X31740Y19600D01*
X31760D01*
Y19620D01*
X31740Y19640D01*
X31760Y19660D01*
Y19680D01*
X31740D01*
X31720Y19660D01*
X31700Y19680D01*
X31680D01*
Y19660D01*
X31700Y19640D01*
X31680Y19620D01*
Y19600D01*
X36010Y34750D02*
X36050D01*
X36090Y34790D01*
X36130Y34750D01*
X36170D01*
Y34790D01*
X36130Y34830D01*
X36170Y34870D01*
Y34910D01*
X36130D01*
X36090Y34870D01*
X36050Y34910D01*
X36010D01*
Y34870D01*
X36050Y34830D01*
X36010Y34790D01*
Y34750D01*
X36050Y34790D02*
X36070D01*
X36090Y34810D01*
X36110Y34790D01*
X36130D01*
Y34810D01*
X36110Y34830D01*
X36130Y34850D01*
Y34870D01*
X36110D01*
X36090Y34850D01*
X36070Y34870D01*
X36050D01*
Y34850D01*
X36070Y34830D01*
X36050Y34810D01*
Y34790D01*
X35190Y31650D02*
X35230D01*
X35270Y31690D01*
X35310Y31650D01*
X35350D01*
Y31690D01*
X35310Y31730D01*
X35350Y31770D01*
Y31810D01*
X35310D01*
X35270Y31770D01*
X35230Y31810D01*
X35190D01*
Y31770D01*
X35230Y31730D01*
X35190Y31690D01*
Y31650D01*
X35230Y31690D02*
X35250D01*
X35270Y31710D01*
X35290Y31690D01*
X35310D01*
Y31710D01*
X35290Y31730D01*
X35310Y31750D01*
Y31770D01*
X35290D01*
X35270Y31750D01*
X35250Y31770D01*
X35230D01*
Y31750D01*
X35250Y31730D01*
X35230Y31710D01*
Y31690D01*
X18540Y30960D02*
X18580D01*
X18620Y31000D01*
X18660Y30960D01*
X18700D01*
Y31000D01*
X18660Y31040D01*
X18700Y31080D01*
Y31120D01*
X18660D01*
X18620Y31080D01*
X18580Y31120D01*
X18540D01*
Y31080D01*
X18580Y31040D01*
X18540Y31000D01*
Y30960D01*
X18580Y31000D02*
X18600D01*
X18620Y31020D01*
X18640Y31000D01*
X18660D01*
Y31020D01*
X18640Y31040D01*
X18660Y31060D01*
Y31080D01*
X18640D01*
X18620Y31060D01*
X18600Y31080D01*
X18580D01*
Y31060D01*
X18600Y31040D01*
X18580Y31020D01*
Y31000D01*
X5060Y21620D02*
X5100D01*
X5140Y21660D01*
X5180Y21620D01*
X5220D01*
Y21660D01*
X5180Y21700D01*
X5220Y21740D01*
Y21780D01*
X5180D01*
X5140Y21740D01*
X5100Y21780D01*
X5060D01*
Y21740D01*
X5100Y21700D01*
X5060Y21660D01*
Y21620D01*
X5100Y21660D02*
X5120D01*
X5140Y21680D01*
X5160Y21660D01*
X5180D01*
Y21680D01*
X5160Y21700D01*
X5180Y21720D01*
Y21740D01*
X5160D01*
X5140Y21720D01*
X5120Y21740D01*
X5100D01*
Y21720D01*
X5120Y21700D01*
X5100Y21680D01*
Y21660D01*
X18500Y17930D02*
X18540D01*
X18580Y17970D01*
X18620Y17930D01*
X18660D01*
Y17970D01*
X18620Y18010D01*
X18660Y18050D01*
Y18090D01*
X18620D01*
X18580Y18050D01*
X18540Y18090D01*
X18500D01*
Y18050D01*
X18540Y18010D01*
X18500Y17970D01*
Y17930D01*
X18540Y17970D02*
X18560D01*
X18580Y17990D01*
X18600Y17970D01*
X18620D01*
Y17990D01*
X18600Y18010D01*
X18620Y18030D01*
Y18050D01*
X18600D01*
X18580Y18030D01*
X18560Y18050D01*
X18540D01*
Y18030D01*
X18560Y18010D01*
X18540Y17990D01*
Y17970D01*
X27290Y13970D02*
X27330D01*
X27370Y14010D01*
X27410Y13970D01*
X27450D01*
Y14010D01*
X27410Y14050D01*
X27450Y14090D01*
Y14130D01*
X27410D01*
X27370Y14090D01*
X27330Y14130D01*
X27290D01*
Y14090D01*
X27330Y14050D01*
X27290Y14010D01*
Y13970D01*
X27330Y14010D02*
X27350D01*
X27370Y14030D01*
X27390Y14010D01*
X27410D01*
Y14030D01*
X27390Y14050D01*
X27410Y14070D01*
Y14090D01*
X27390D01*
X27370Y14070D01*
X27350Y14090D01*
X27330D01*
Y14070D01*
X27350Y14050D01*
X27330Y14030D01*
Y14010D01*
X23640Y18790D02*
X23680D01*
X23720Y18830D01*
X23760Y18790D01*
X23800D01*
Y18830D01*
X23760Y18870D01*
X23800Y18910D01*
Y18950D01*
X23760D01*
X23720Y18910D01*
X23680Y18950D01*
X23640D01*
Y18910D01*
X23680Y18870D01*
X23640Y18830D01*
Y18790D01*
X23680Y18830D02*
X23700D01*
X23720Y18850D01*
X23740Y18830D01*
X23760D01*
Y18850D01*
X23740Y18870D01*
X23760Y18890D01*
Y18910D01*
X23740D01*
X23720Y18890D01*
X23700Y18910D01*
X23680D01*
Y18890D01*
X23700Y18870D01*
X23680Y18850D01*
Y18830D01*
X22080Y21020D02*
X22120D01*
X22160Y21060D01*
X22200Y21020D01*
X22240D01*
Y21060D01*
X22200Y21100D01*
X22240Y21140D01*
Y21180D01*
X22200D01*
X22160Y21140D01*
X22120Y21180D01*
X22080D01*
Y21140D01*
X22120Y21100D01*
X22080Y21060D01*
Y21020D01*
X22120Y21060D02*
X22140D01*
X22160Y21080D01*
X22180Y21060D01*
X22200D01*
Y21080D01*
X22180Y21100D01*
X22200Y21120D01*
Y21140D01*
X22180D01*
X22160Y21120D01*
X22140Y21140D01*
X22120D01*
Y21120D01*
X22140Y21100D01*
X22120Y21080D01*
Y21060D01*
X15370Y14970D02*
X15410D01*
X15450Y15010D01*
X15490Y14970D01*
X15530D01*
Y15010D01*
X15490Y15050D01*
X15530Y15090D01*
Y15130D01*
X15490D01*
X15450Y15090D01*
X15410Y15130D01*
X15370D01*
Y15090D01*
X15410Y15050D01*
X15370Y15010D01*
Y14970D01*
X15410Y15010D02*
X15430D01*
X15450Y15030D01*
X15470Y15010D01*
X15490D01*
Y15030D01*
X15470Y15050D01*
X15490Y15070D01*
Y15090D01*
X15470D01*
X15450Y15070D01*
X15430Y15090D01*
X15410D01*
Y15070D01*
X15430Y15050D01*
X15410Y15030D01*
Y15010D01*
X14620Y14970D02*
X14660D01*
X14700Y15010D01*
X14740Y14970D01*
X14780D01*
Y15010D01*
X14740Y15050D01*
X14780Y15090D01*
Y15130D01*
X14740D01*
X14700Y15090D01*
X14660Y15130D01*
X14620D01*
Y15090D01*
X14660Y15050D01*
X14620Y15010D01*
Y14970D01*
X14660Y15010D02*
X14680D01*
X14700Y15030D01*
X14720Y15010D01*
X14740D01*
Y15030D01*
X14720Y15050D01*
X14740Y15070D01*
Y15090D01*
X14720D01*
X14700Y15070D01*
X14680Y15090D01*
X14660D01*
Y15070D01*
X14680Y15050D01*
X14660Y15030D01*
Y15010D01*
X19750Y16730D02*
X19790D01*
X19830Y16770D01*
X19870Y16730D01*
X19910D01*
Y16770D01*
X19870Y16810D01*
X19910Y16850D01*
Y16890D01*
X19870D01*
X19830Y16850D01*
X19790Y16890D01*
X19750D01*
Y16850D01*
X19790Y16810D01*
X19750Y16770D01*
Y16730D01*
X19790Y16770D02*
X19810D01*
X19830Y16790D01*
X19850Y16770D01*
X19870D01*
Y16790D01*
X19850Y16810D01*
X19870Y16830D01*
Y16850D01*
X19850D01*
X19830Y16830D01*
X19810Y16850D01*
X19790D01*
Y16830D01*
X19810Y16810D01*
X19790Y16790D01*
Y16770D01*
X19740Y17110D02*
X19780D01*
X19820Y17150D01*
X19860Y17110D01*
X19900D01*
Y17150D01*
X19860Y17190D01*
X19900Y17230D01*
Y17270D01*
X19860D01*
X19820Y17230D01*
X19780Y17270D01*
X19740D01*
Y17230D01*
X19780Y17190D01*
X19740Y17150D01*
Y17110D01*
X19780Y17150D02*
X19800D01*
X19820Y17170D01*
X19840Y17150D01*
X19860D01*
Y17170D01*
X19840Y17190D01*
X19860Y17210D01*
Y17230D01*
X19840D01*
X19820Y17210D01*
X19800Y17230D01*
X19780D01*
Y17210D01*
X19800Y17190D01*
X19780Y17170D01*
Y17150D01*
X19740Y17510D02*
X19780D01*
X19820Y17550D01*
X19860Y17510D01*
X19900D01*
Y17550D01*
X19860Y17590D01*
X19900Y17630D01*
Y17670D01*
X19860D01*
X19820Y17630D01*
X19780Y17670D01*
X19740D01*
Y17630D01*
X19780Y17590D01*
X19740Y17550D01*
Y17510D01*
X19780Y17550D02*
X19800D01*
X19820Y17570D01*
X19840Y17550D01*
X19860D01*
Y17570D01*
X19840Y17590D01*
X19860Y17610D01*
Y17630D01*
X19840D01*
X19820Y17610D01*
X19800Y17630D01*
X19780D01*
Y17610D01*
X19800Y17590D01*
X19780Y17570D01*
Y17550D01*
X13690Y25460D02*
X13730D01*
X13770Y25500D01*
X13810Y25460D01*
X13850D01*
Y25500D01*
X13810Y25540D01*
X13850Y25580D01*
Y25620D01*
X13810D01*
X13770Y25580D01*
X13730Y25620D01*
X13690D01*
Y25580D01*
X13730Y25540D01*
X13690Y25500D01*
Y25460D01*
X13730Y25500D02*
X13750D01*
X13770Y25520D01*
X13790Y25500D01*
X13810D01*
Y25520D01*
X13790Y25540D01*
X13810Y25560D01*
Y25580D01*
X13790D01*
X13770Y25560D01*
X13750Y25580D01*
X13730D01*
Y25560D01*
X13750Y25540D01*
X13730Y25520D01*
Y25500D01*
X15598Y19500D02*
X15638D01*
X15678Y19540D01*
X15718Y19500D01*
X15758D01*
Y19540D01*
X15718Y19580D01*
X15758Y19620D01*
Y19660D01*
X15718D01*
X15678Y19620D01*
X15638Y19660D01*
X15598D01*
Y19620D01*
X15638Y19580D01*
X15598Y19540D01*
Y19500D01*
X15638Y19540D02*
X15658D01*
X15678Y19560D01*
X15698Y19540D01*
X15718D01*
Y19560D01*
X15698Y19580D01*
X15718Y19600D01*
Y19620D01*
X15698D01*
X15678Y19600D01*
X15658Y19620D01*
X15638D01*
Y19600D01*
X15658Y19580D01*
X15638Y19560D01*
Y19540D01*
X16550Y19500D02*
X16590D01*
X16630Y19540D01*
X16670Y19500D01*
X16710D01*
Y19540D01*
X16670Y19580D01*
X16710Y19620D01*
Y19660D01*
X16670D01*
X16630Y19620D01*
X16590Y19660D01*
X16550D01*
Y19620D01*
X16590Y19580D01*
X16550Y19540D01*
Y19500D01*
X16590Y19540D02*
X16610D01*
X16630Y19560D01*
X16650Y19540D01*
X16670D01*
Y19560D01*
X16650Y19580D01*
X16670Y19600D01*
Y19620D01*
X16650D01*
X16630Y19600D01*
X16610Y19620D01*
X16590D01*
Y19600D01*
X16610Y19580D01*
X16590Y19560D01*
Y19540D01*
X6520Y17700D02*
X6560D01*
X6600Y17740D01*
X6640Y17700D01*
X6680D01*
Y17740D01*
X6640Y17780D01*
X6680Y17820D01*
Y17860D01*
X6640D01*
X6600Y17820D01*
X6560Y17860D01*
X6520D01*
Y17820D01*
X6560Y17780D01*
X6520Y17740D01*
Y17700D01*
X6560Y17740D02*
X6580D01*
X6600Y17760D01*
X6620Y17740D01*
X6640D01*
Y17760D01*
X6620Y17780D01*
X6640Y17800D01*
Y17820D01*
X6620D01*
X6600Y17800D01*
X6580Y17820D01*
X6560D01*
Y17800D01*
X6580Y17780D01*
X6560Y17760D01*
Y17740D01*
X26610Y19370D02*
X26650D01*
X26690Y19410D01*
X26730Y19370D01*
X26770D01*
Y19410D01*
X26730Y19450D01*
X26770Y19490D01*
Y19530D01*
X26730D01*
X26690Y19490D01*
X26650Y19530D01*
X26610D01*
Y19490D01*
X26650Y19450D01*
X26610Y19410D01*
Y19370D01*
X26650Y19410D02*
X26670D01*
X26690Y19430D01*
X26710Y19410D01*
X26730D01*
Y19430D01*
X26710Y19450D01*
X26730Y19470D01*
Y19490D01*
X26710D01*
X26690Y19470D01*
X26670Y19490D01*
X26650D01*
Y19470D01*
X26670Y19450D01*
X26650Y19430D01*
Y19410D01*
X23850Y17210D02*
X23890D01*
X23930Y17250D01*
X23970Y17210D01*
X24010D01*
Y17250D01*
X23970Y17290D01*
X24010Y17330D01*
Y17370D01*
X23970D01*
X23930Y17330D01*
X23890Y17370D01*
X23850D01*
Y17330D01*
X23890Y17290D01*
X23850Y17250D01*
Y17210D01*
X23890Y17250D02*
X23910D01*
X23930Y17270D01*
X23950Y17250D01*
X23970D01*
Y17270D01*
X23950Y17290D01*
X23970Y17310D01*
Y17330D01*
X23950D01*
X23930Y17310D01*
X23910Y17330D01*
X23890D01*
Y17310D01*
X23910Y17290D01*
X23890Y17270D01*
Y17250D01*
X19370Y22950D02*
X19410D01*
X19450Y22990D01*
X19490Y22950D01*
X19530D01*
Y22990D01*
X19490Y23030D01*
X19530Y23070D01*
Y23110D01*
X19490D01*
X19450Y23070D01*
X19410Y23110D01*
X19370D01*
Y23070D01*
X19410Y23030D01*
X19370Y22990D01*
Y22950D01*
X19410Y22990D02*
X19430D01*
X19450Y23010D01*
X19470Y22990D01*
X19490D01*
Y23010D01*
X19470Y23030D01*
X19490Y23050D01*
Y23070D01*
X19470D01*
X19450Y23050D01*
X19430Y23070D01*
X19410D01*
Y23050D01*
X19430Y23030D01*
X19410Y23010D01*
Y22990D01*
X15540Y18070D02*
X15580D01*
X15620Y18110D01*
X15660Y18070D01*
X15700D01*
Y18110D01*
X15660Y18150D01*
X15700Y18190D01*
Y18230D01*
X15660D01*
X15620Y18190D01*
X15580Y18230D01*
X15540D01*
Y18190D01*
X15580Y18150D01*
X15540Y18110D01*
Y18070D01*
X15580Y18110D02*
X15600D01*
X15620Y18130D01*
X15640Y18110D01*
X15660D01*
Y18130D01*
X15640Y18150D01*
X15660Y18170D01*
Y18190D01*
X15640D01*
X15620Y18170D01*
X15600Y18190D01*
X15580D01*
Y18170D01*
X15600Y18150D01*
X15580Y18130D01*
Y18110D01*
X15598Y20432D02*
X15638D01*
X15678Y20472D01*
X15718Y20432D01*
X15758D01*
Y20472D01*
X15718Y20512D01*
X15758Y20552D01*
Y20592D01*
X15718D01*
X15678Y20552D01*
X15638Y20592D01*
X15598D01*
Y20552D01*
X15638Y20512D01*
X15598Y20472D01*
Y20432D01*
X15638Y20472D02*
X15658D01*
X15678Y20492D01*
X15698Y20472D01*
X15718D01*
Y20492D01*
X15698Y20512D01*
X15718Y20532D01*
Y20552D01*
X15698D01*
X15678Y20532D01*
X15658Y20552D01*
X15638D01*
Y20532D01*
X15658Y20512D01*
X15638Y20492D01*
Y20472D01*
X31440Y13910D02*
X31480D01*
X31520Y13950D01*
X31560Y13910D01*
X31600D01*
Y13950D01*
X31560Y13990D01*
X31600Y14030D01*
Y14070D01*
X31560D01*
X31520Y14030D01*
X31480Y14070D01*
X31440D01*
Y14030D01*
X31480Y13990D01*
X31440Y13950D01*
Y13910D01*
X31480Y13950D02*
X31500D01*
X31520Y13970D01*
X31540Y13950D01*
X31560D01*
Y13970D01*
X31540Y13990D01*
X31560Y14010D01*
Y14030D01*
X31540D01*
X31520Y14010D01*
X31500Y14030D01*
X31480D01*
Y14010D01*
X31500Y13990D01*
X31480Y13970D01*
Y13950D01*
X5670Y7140D02*
X5710D01*
X5750Y7180D01*
X5790Y7140D01*
X5830D01*
Y7180D01*
X5790Y7220D01*
X5830Y7260D01*
Y7300D01*
X5790D01*
X5750Y7260D01*
X5710Y7300D01*
X5670D01*
Y7260D01*
X5710Y7220D01*
X5670Y7180D01*
Y7140D01*
X5710Y7180D02*
X5730D01*
X5750Y7200D01*
X5770Y7180D01*
X5790D01*
Y7200D01*
X5770Y7220D01*
X5790Y7240D01*
Y7260D01*
X5770D01*
X5750Y7240D01*
X5730Y7260D01*
X5710D01*
Y7240D01*
X5730Y7220D01*
X5710Y7200D01*
Y7180D01*
X8410Y12220D02*
X8450D01*
X8490Y12260D01*
X8530Y12220D01*
X8570D01*
Y12260D01*
X8530Y12300D01*
X8570Y12340D01*
Y12380D01*
X8530D01*
X8490Y12340D01*
X8450Y12380D01*
X8410D01*
Y12340D01*
X8450Y12300D01*
X8410Y12260D01*
Y12220D01*
X8450Y12260D02*
X8470D01*
X8490Y12280D01*
X8510Y12260D01*
X8530D01*
Y12280D01*
X8510Y12300D01*
X8530Y12320D01*
Y12340D01*
X8510D01*
X8490Y12320D01*
X8470Y12340D01*
X8450D01*
Y12320D01*
X8470Y12300D01*
X8450Y12280D01*
Y12260D01*
X4350Y4040D02*
X4390D01*
X4430Y4080D01*
X4470Y4040D01*
X4510D01*
Y4080D01*
X4470Y4120D01*
X4510Y4160D01*
Y4200D01*
X4470D01*
X4430Y4160D01*
X4390Y4200D01*
X4350D01*
Y4160D01*
X4390Y4120D01*
X4350Y4080D01*
Y4040D01*
X4390Y4080D02*
X4410D01*
X4430Y4100D01*
X4450Y4080D01*
X4470D01*
Y4100D01*
X4450Y4120D01*
X4470Y4140D01*
Y4160D01*
X4450D01*
X4430Y4140D01*
X4410Y4160D01*
X4390D01*
Y4140D01*
X4410Y4120D01*
X4390Y4100D01*
Y4080D01*
X5590Y8730D02*
X5630D01*
X5670Y8770D01*
X5710Y8730D01*
X5750D01*
Y8770D01*
X5710Y8810D01*
X5750Y8850D01*
Y8890D01*
X5710D01*
X5670Y8850D01*
X5630Y8890D01*
X5590D01*
Y8850D01*
X5630Y8810D01*
X5590Y8770D01*
Y8730D01*
X5630Y8770D02*
X5650D01*
X5670Y8790D01*
X5690Y8770D01*
X5710D01*
Y8790D01*
X5690Y8810D01*
X5710Y8830D01*
Y8850D01*
X5690D01*
X5670Y8830D01*
X5650Y8850D01*
X5630D01*
Y8830D01*
X5650Y8810D01*
X5630Y8790D01*
Y8770D01*
X9854Y2190D02*
X9894D01*
X9934Y2230D01*
X9974Y2190D01*
X10014D01*
Y2230D01*
X9974Y2270D01*
X10014Y2310D01*
Y2350D01*
X9974D01*
X9934Y2310D01*
X9894Y2350D01*
X9854D01*
Y2310D01*
X9894Y2270D01*
X9854Y2230D01*
Y2190D01*
X9894Y2230D02*
X9914D01*
X9934Y2250D01*
X9954Y2230D01*
X9974D01*
Y2250D01*
X9954Y2270D01*
X9974Y2290D01*
Y2310D01*
X9954D01*
X9934Y2290D01*
X9914Y2310D01*
X9894D01*
Y2290D01*
X9914Y2270D01*
X9894Y2250D01*
Y2230D01*
X10164Y2180D02*
X10204D01*
X10244Y2220D01*
X10284Y2180D01*
X10324D01*
Y2220D01*
X10284Y2260D01*
X10324Y2300D01*
Y2340D01*
X10284D01*
X10244Y2300D01*
X10204Y2340D01*
X10164D01*
Y2300D01*
X10204Y2260D01*
X10164Y2220D01*
Y2180D01*
X10204Y2220D02*
X10224D01*
X10244Y2240D01*
X10264Y2220D01*
X10284D01*
Y2240D01*
X10264Y2260D01*
X10284Y2280D01*
Y2300D01*
X10264D01*
X10244Y2280D01*
X10224Y2300D01*
X10204D01*
Y2280D01*
X10224Y2260D01*
X10204Y2240D01*
Y2220D01*
X9844Y1870D02*
X9884D01*
X9924Y1910D01*
X9964Y1870D01*
X10004D01*
Y1910D01*
X9964Y1950D01*
X10004Y1990D01*
Y2030D01*
X9964D01*
X9924Y1990D01*
X9884Y2030D01*
X9844D01*
Y1990D01*
X9884Y1950D01*
X9844Y1910D01*
Y1870D01*
X9884Y1910D02*
X9904D01*
X9924Y1930D01*
X9944Y1910D01*
X9964D01*
Y1930D01*
X9944Y1950D01*
X9964Y1970D01*
Y1990D01*
X9944D01*
X9924Y1970D01*
X9904Y1990D01*
X9884D01*
Y1970D01*
X9904Y1950D01*
X9884Y1930D01*
Y1910D01*
X23920Y31912D02*
X23960D01*
X24000Y31952D01*
X24040Y31912D01*
X24080D01*
Y31952D01*
X24040Y31992D01*
X24080Y32032D01*
Y32072D01*
X24040D01*
X24000Y32032D01*
X23960Y32072D01*
X23920D01*
Y32032D01*
X23960Y31992D01*
X23920Y31952D01*
Y31912D01*
X23960Y31952D02*
X23980D01*
X24000Y31972D01*
X24020Y31952D01*
X24040D01*
Y31972D01*
X24020Y31992D01*
X24040Y32012D01*
Y32032D01*
X24020D01*
X24000Y32012D01*
X23980Y32032D01*
X23960D01*
Y32012D01*
X23980Y31992D01*
X23960Y31972D01*
Y31952D01*
X24660Y31880D02*
X24700D01*
X24740Y31920D01*
X24780Y31880D01*
X24820D01*
Y31920D01*
X24780Y31960D01*
X24820Y32000D01*
Y32040D01*
X24780D01*
X24740Y32000D01*
X24700Y32040D01*
X24660D01*
Y32000D01*
X24700Y31960D01*
X24660Y31920D01*
Y31880D01*
X24700Y31920D02*
X24720D01*
X24740Y31940D01*
X24760Y31920D01*
X24780D01*
Y31940D01*
X24760Y31960D01*
X24780Y31980D01*
Y32000D01*
X24760D01*
X24740Y31980D01*
X24720Y32000D01*
X24700D01*
Y31980D01*
X24720Y31960D01*
X24700Y31940D01*
Y31920D01*
X14388Y31892D02*
X14428D01*
X14468Y31932D01*
X14508Y31892D01*
X14548D01*
Y31932D01*
X14508Y31972D01*
X14548Y32012D01*
Y32052D01*
X14508D01*
X14468Y32012D01*
X14428Y32052D01*
X14388D01*
Y32012D01*
X14428Y31972D01*
X14388Y31932D01*
Y31892D01*
X14428Y31932D02*
X14448D01*
X14468Y31952D01*
X14488Y31932D01*
X14508D01*
Y31952D01*
X14488Y31972D01*
X14508Y31992D01*
Y32012D01*
X14488D01*
X14468Y31992D01*
X14448Y32012D01*
X14428D01*
Y31992D01*
X14448Y31972D01*
X14428Y31952D01*
Y31932D01*
X17888Y31912D02*
X17928D01*
X17968Y31952D01*
X18008Y31912D01*
X18048D01*
Y31952D01*
X18008Y31992D01*
X18048Y32032D01*
Y32072D01*
X18008D01*
X17968Y32032D01*
X17928Y32072D01*
X17888D01*
Y32032D01*
X17928Y31992D01*
X17888Y31952D01*
Y31912D01*
X17928Y31952D02*
X17948D01*
X17968Y31972D01*
X17988Y31952D01*
X18008D01*
Y31972D01*
X17988Y31992D01*
X18008Y32012D01*
Y32032D01*
X17988D01*
X17968Y32012D01*
X17948Y32032D01*
X17928D01*
Y32012D01*
X17948Y31992D01*
X17928Y31972D01*
Y31952D01*
X23420Y31898D02*
X23460D01*
X23500Y31938D01*
X23540Y31898D01*
X23580D01*
Y31938D01*
X23540Y31978D01*
X23580Y32018D01*
Y32058D01*
X23540D01*
X23500Y32018D01*
X23460Y32058D01*
X23420D01*
Y32018D01*
X23460Y31978D01*
X23420Y31938D01*
Y31898D01*
X23460Y31938D02*
X23480D01*
X23500Y31958D01*
X23520Y31938D01*
X23540D01*
Y31958D01*
X23520Y31978D01*
X23540Y31998D01*
Y32018D01*
X23520D01*
X23500Y31998D01*
X23480Y32018D01*
X23460D01*
Y31998D01*
X23480Y31978D01*
X23460Y31958D01*
Y31938D01*
X20920Y31912D02*
X20960D01*
X21000Y31952D01*
X21040Y31912D01*
X21080D01*
Y31952D01*
X21040Y31992D01*
X21080Y32032D01*
Y32072D01*
X21040D01*
X21000Y32032D01*
X20960Y32072D01*
X20920D01*
Y32032D01*
X20960Y31992D01*
X20920Y31952D01*
Y31912D01*
X20960Y31952D02*
X20980D01*
X21000Y31972D01*
X21020Y31952D01*
X21040D01*
Y31972D01*
X21020Y31992D01*
X21040Y32012D01*
Y32032D01*
X21020D01*
X21000Y32012D01*
X20980Y32032D01*
X20960D01*
Y32012D01*
X20980Y31992D01*
X20960Y31972D01*
Y31952D01*
X20420Y31898D02*
X20460D01*
X20500Y31938D01*
X20540Y31898D01*
X20580D01*
Y31938D01*
X20540Y31978D01*
X20580Y32018D01*
Y32058D01*
X20540D01*
X20500Y32018D01*
X20460Y32058D01*
X20420D01*
Y32018D01*
X20460Y31978D01*
X20420Y31938D01*
Y31898D01*
X20460Y31938D02*
X20480D01*
X20500Y31958D01*
X20520Y31938D01*
X20540D01*
Y31958D01*
X20520Y31978D01*
X20540Y31998D01*
Y32018D01*
X20520D01*
X20500Y31998D01*
X20480Y32018D01*
X20460D01*
Y31998D01*
X20480Y31978D01*
X20460Y31958D01*
Y31938D01*
X21920Y31912D02*
X21960D01*
X22000Y31952D01*
X22040Y31912D01*
X22080D01*
Y31952D01*
X22040Y31992D01*
X22080Y32032D01*
Y32072D01*
X22040D01*
X22000Y32032D01*
X21960Y32072D01*
X21920D01*
Y32032D01*
X21960Y31992D01*
X21920Y31952D01*
Y31912D01*
X21960Y31952D02*
X21980D01*
X22000Y31972D01*
X22020Y31952D01*
X22040D01*
Y31972D01*
X22020Y31992D01*
X22040Y32012D01*
Y32032D01*
X22020D01*
X22000Y32012D01*
X21980Y32032D01*
X21960D01*
Y32012D01*
X21980Y31992D01*
X21960Y31972D01*
Y31952D01*
X21420Y31898D02*
X21460D01*
X21500Y31938D01*
X21540Y31898D01*
X21580D01*
Y31938D01*
X21540Y31978D01*
X21580Y32018D01*
Y32058D01*
X21540D01*
X21500Y32018D01*
X21460Y32058D01*
X21420D01*
Y32018D01*
X21460Y31978D01*
X21420Y31938D01*
Y31898D01*
X21460Y31938D02*
X21480D01*
X21500Y31958D01*
X21520Y31938D01*
X21540D01*
Y31958D01*
X21520Y31978D01*
X21540Y31998D01*
Y32018D01*
X21520D01*
X21500Y31998D01*
X21480Y32018D01*
X21460D01*
Y31998D01*
X21480Y31978D01*
X21460Y31958D01*
Y31938D01*
X22920Y31912D02*
X22960D01*
X23000Y31952D01*
X23040Y31912D01*
X23080D01*
Y31952D01*
X23040Y31992D01*
X23080Y32032D01*
Y32072D01*
X23040D01*
X23000Y32032D01*
X22960Y32072D01*
X22920D01*
Y32032D01*
X22960Y31992D01*
X22920Y31952D01*
Y31912D01*
X22960Y31952D02*
X22980D01*
X23000Y31972D01*
X23020Y31952D01*
X23040D01*
Y31972D01*
X23020Y31992D01*
X23040Y32012D01*
Y32032D01*
X23020D01*
X23000Y32012D01*
X22980Y32032D01*
X22960D01*
Y32012D01*
X22980Y31992D01*
X22960Y31972D01*
Y31952D01*
X22420Y31898D02*
X22460D01*
X22500Y31938D01*
X22540Y31898D01*
X22580D01*
Y31938D01*
X22540Y31978D01*
X22580Y32018D01*
Y32058D01*
X22540D01*
X22500Y32018D01*
X22460Y32058D01*
X22420D01*
Y32018D01*
X22460Y31978D01*
X22420Y31938D01*
Y31898D01*
X22460Y31938D02*
X22480D01*
X22500Y31958D01*
X22520Y31938D01*
X22540D01*
Y31958D01*
X22520Y31978D01*
X22540Y31998D01*
Y32018D01*
X22520D01*
X22500Y31998D01*
X22480Y32018D01*
X22460D01*
Y31998D01*
X22480Y31978D01*
X22460Y31958D01*
Y31938D01*
X16888Y31898D02*
X16928D01*
X16968Y31938D01*
X17008Y31898D01*
X17048D01*
Y31938D01*
X17008Y31978D01*
X17048Y32018D01*
Y32058D01*
X17008D01*
X16968Y32018D01*
X16928Y32058D01*
X16888D01*
Y32018D01*
X16928Y31978D01*
X16888Y31938D01*
Y31898D01*
X16928Y31938D02*
X16948D01*
X16968Y31958D01*
X16988Y31938D01*
X17008D01*
Y31958D01*
X16988Y31978D01*
X17008Y31998D01*
Y32018D01*
X16988D01*
X16968Y31998D01*
X16948Y32018D01*
X16928D01*
Y31998D01*
X16948Y31978D01*
X16928Y31958D01*
Y31938D01*
X17388Y31912D02*
X17428D01*
X17468Y31952D01*
X17508Y31912D01*
X17548D01*
Y31952D01*
X17508Y31992D01*
X17548Y32032D01*
Y32072D01*
X17508D01*
X17468Y32032D01*
X17428Y32072D01*
X17388D01*
Y32032D01*
X17428Y31992D01*
X17388Y31952D01*
Y31912D01*
X17428Y31952D02*
X17448D01*
X17468Y31972D01*
X17488Y31952D01*
X17508D01*
Y31972D01*
X17488Y31992D01*
X17508Y32012D01*
Y32032D01*
X17488D01*
X17468Y32012D01*
X17448Y32032D01*
X17428D01*
Y32012D01*
X17448Y31992D01*
X17428Y31972D01*
Y31952D01*
X13710Y24490D02*
X13750D01*
X13790Y24530D01*
X13830Y24490D01*
X13870D01*
Y24530D01*
X13830Y24570D01*
X13870Y24610D01*
Y24650D01*
X13830D01*
X13790Y24610D01*
X13750Y24650D01*
X13710D01*
Y24610D01*
X13750Y24570D01*
X13710Y24530D01*
Y24490D01*
X13750Y24530D02*
X13770D01*
X13790Y24550D01*
X13810Y24530D01*
X13830D01*
Y24550D01*
X13810Y24570D01*
X13830Y24590D01*
Y24610D01*
X13810D01*
X13790Y24590D01*
X13770Y24610D01*
X13750D01*
Y24590D01*
X13770Y24570D01*
X13750Y24550D01*
Y24530D01*
X13700Y25040D02*
X13740D01*
X13780Y25080D01*
X13820Y25040D01*
X13860D01*
Y25080D01*
X13820Y25120D01*
X13860Y25160D01*
Y25200D01*
X13820D01*
X13780Y25160D01*
X13740Y25200D01*
X13700D01*
Y25160D01*
X13740Y25120D01*
X13700Y25080D01*
Y25040D01*
X13740Y25080D02*
X13760D01*
X13780Y25100D01*
X13800Y25080D01*
X13820D01*
Y25100D01*
X13800Y25120D01*
X13820Y25140D01*
Y25160D01*
X13800D01*
X13780Y25140D01*
X13760Y25160D01*
X13740D01*
Y25140D01*
X13760Y25120D01*
X13740Y25100D01*
Y25080D01*
X23440Y23060D02*
X23480D01*
X23520Y23100D01*
X23560Y23060D01*
X23600D01*
Y23100D01*
X23560Y23140D01*
X23600Y23180D01*
Y23220D01*
X23560D01*
X23520Y23180D01*
X23480Y23220D01*
X23440D01*
Y23180D01*
X23480Y23140D01*
X23440Y23100D01*
Y23060D01*
X23480Y23100D02*
X23500D01*
X23520Y23120D01*
X23540Y23100D01*
X23560D01*
Y23120D01*
X23540Y23140D01*
X23560Y23160D01*
Y23180D01*
X23540D01*
X23520Y23160D01*
X23500Y23180D01*
X23480D01*
Y23160D01*
X23500Y23140D01*
X23480Y23120D01*
Y23100D01*
X26330Y17920D02*
X26370D01*
X26410Y17960D01*
X26450Y17920D01*
X26490D01*
Y17960D01*
X26450Y18000D01*
X26490Y18040D01*
Y18080D01*
X26450D01*
X26410Y18040D01*
X26370Y18080D01*
X26330D01*
Y18040D01*
X26370Y18000D01*
X26330Y17960D01*
Y17920D01*
X26370Y17960D02*
X26390D01*
X26410Y17980D01*
X26430Y17960D01*
X26450D01*
Y17980D01*
X26430Y18000D01*
X26450Y18020D01*
Y18040D01*
X26430D01*
X26410Y18020D01*
X26390Y18040D01*
X26370D01*
Y18020D01*
X26390Y18000D01*
X26370Y17980D01*
Y17960D01*
X26890Y17930D02*
X26930D01*
X26970Y17970D01*
X27010Y17930D01*
X27050D01*
Y17970D01*
X27010Y18010D01*
X27050Y18050D01*
Y18090D01*
X27010D01*
X26970Y18050D01*
X26930Y18090D01*
X26890D01*
Y18050D01*
X26930Y18010D01*
X26890Y17970D01*
Y17930D01*
X26930Y17970D02*
X26950D01*
X26970Y17990D01*
X26990Y17970D01*
X27010D01*
Y17990D01*
X26990Y18010D01*
X27010Y18030D01*
Y18050D01*
X26990D01*
X26970Y18030D01*
X26950Y18050D01*
X26930D01*
Y18030D01*
X26950Y18010D01*
X26930Y17990D01*
Y17970D01*
X25850Y18475D02*
X25890D01*
X25930Y18515D01*
X25970Y18475D01*
X26010D01*
Y18515D01*
X25970Y18555D01*
X26010Y18595D01*
Y18635D01*
X25970D01*
X25930Y18595D01*
X25890Y18635D01*
X25850D01*
Y18595D01*
X25890Y18555D01*
X25850Y18515D01*
Y18475D01*
X25890Y18515D02*
X25910D01*
X25930Y18535D01*
X25950Y18515D01*
X25970D01*
Y18535D01*
X25950Y18555D01*
X25970Y18575D01*
Y18595D01*
X25950D01*
X25930Y18575D01*
X25910Y18595D01*
X25890D01*
Y18575D01*
X25910Y18555D01*
X25890Y18535D01*
Y18515D01*
X25520Y20940D02*
X25560D01*
X25600Y20980D01*
X25640Y20940D01*
X25680D01*
Y20980D01*
X25640Y21020D01*
X25680Y21060D01*
Y21100D01*
X25640D01*
X25600Y21060D01*
X25560Y21100D01*
X25520D01*
Y21060D01*
X25560Y21020D01*
X25520Y20980D01*
Y20940D01*
X25560Y20980D02*
X25580D01*
X25600Y21000D01*
X25620Y20980D01*
X25640D01*
Y21000D01*
X25620Y21020D01*
X25640Y21040D01*
Y21060D01*
X25620D01*
X25600Y21040D01*
X25580Y21060D01*
X25560D01*
Y21040D01*
X25580Y21020D01*
X25560Y21000D01*
Y20980D01*
X20500Y16110D02*
X20540D01*
X20580Y16150D01*
X20620Y16110D01*
X20660D01*
Y16150D01*
X20620Y16190D01*
X20660Y16230D01*
Y16270D01*
X20620D01*
X20580Y16230D01*
X20540Y16270D01*
X20500D01*
Y16230D01*
X20540Y16190D01*
X20500Y16150D01*
Y16110D01*
X20540Y16150D02*
X20560D01*
X20580Y16170D01*
X20600Y16150D01*
X20620D01*
Y16170D01*
X20600Y16190D01*
X20620Y16210D01*
Y16230D01*
X20600D01*
X20580Y16210D01*
X20560Y16230D01*
X20540D01*
Y16210D01*
X20560Y16190D01*
X20540Y16170D01*
Y16150D01*
X20300Y16730D02*
X20340D01*
X20380Y16770D01*
X20420Y16730D01*
X20460D01*
Y16770D01*
X20420Y16810D01*
X20460Y16850D01*
Y16890D01*
X20420D01*
X20380Y16850D01*
X20340Y16890D01*
X20300D01*
Y16850D01*
X20340Y16810D01*
X20300Y16770D01*
Y16730D01*
X20340Y16770D02*
X20360D01*
X20380Y16790D01*
X20400Y16770D01*
X20420D01*
Y16790D01*
X20400Y16810D01*
X20420Y16830D01*
Y16850D01*
X20400D01*
X20380Y16830D01*
X20360Y16850D01*
X20340D01*
Y16830D01*
X20360Y16810D01*
X20340Y16790D01*
Y16770D01*
X27350Y17900D02*
X27390D01*
X27430Y17940D01*
X27470Y17900D01*
X27510D01*
Y17940D01*
X27470Y17980D01*
X27510Y18020D01*
Y18060D01*
X27470D01*
X27430Y18020D01*
X27390Y18060D01*
X27350D01*
Y18020D01*
X27390Y17980D01*
X27350Y17940D01*
Y17900D01*
X27390Y17940D02*
X27410D01*
X27430Y17960D01*
X27450Y17940D01*
X27470D01*
Y17960D01*
X27450Y17980D01*
X27470Y18000D01*
Y18020D01*
X27450D01*
X27430Y18000D01*
X27410Y18020D01*
X27390D01*
Y18000D01*
X27410Y17980D01*
X27390Y17960D01*
Y17940D01*
X25850Y17930D02*
X25890D01*
X25930Y17970D01*
X25970Y17930D01*
X26010D01*
Y17970D01*
X25970Y18010D01*
X26010Y18050D01*
Y18090D01*
X25970D01*
X25930Y18050D01*
X25890Y18090D01*
X25850D01*
Y18050D01*
X25890Y18010D01*
X25850Y17970D01*
Y17930D01*
X25890Y17970D02*
X25910D01*
X25930Y17990D01*
X25950Y17970D01*
X25970D01*
Y17990D01*
X25950Y18010D01*
X25970Y18030D01*
Y18050D01*
X25950D01*
X25930Y18030D01*
X25910Y18050D01*
X25890D01*
Y18030D01*
X25910Y18010D01*
X25890Y17990D01*
Y17970D01*
X25850Y19020D02*
X25890D01*
X25930Y19060D01*
X25970Y19020D01*
X26010D01*
Y19060D01*
X25970Y19100D01*
X26010Y19140D01*
Y19180D01*
X25970D01*
X25930Y19140D01*
X25890Y19180D01*
X25850D01*
Y19140D01*
X25890Y19100D01*
X25850Y19060D01*
Y19020D01*
X25890Y19060D02*
X25910D01*
X25930Y19080D01*
X25950Y19060D01*
X25970D01*
Y19080D01*
X25950Y19100D01*
X25970Y19120D01*
Y19140D01*
X25950D01*
X25930Y19120D01*
X25910Y19140D01*
X25890D01*
Y19120D01*
X25910Y19100D01*
X25890Y19080D01*
Y19060D01*
X13770Y14970D02*
X13810D01*
X13850Y15010D01*
X13890Y14970D01*
X13930D01*
Y15010D01*
X13890Y15050D01*
X13930Y15090D01*
Y15130D01*
X13890D01*
X13850Y15090D01*
X13810Y15130D01*
X13770D01*
Y15090D01*
X13810Y15050D01*
X13770Y15010D01*
Y14970D01*
X13810Y15010D02*
X13830D01*
X13850Y15030D01*
X13870Y15010D01*
X13890D01*
Y15030D01*
X13870Y15050D01*
X13890Y15070D01*
Y15090D01*
X13870D01*
X13850Y15070D01*
X13830Y15090D01*
X13810D01*
Y15070D01*
X13830Y15050D01*
X13810Y15030D01*
Y15010D01*
X14195Y14970D02*
X14235D01*
X14275Y15010D01*
X14315Y14970D01*
X14355D01*
Y15010D01*
X14315Y15050D01*
X14355Y15090D01*
Y15130D01*
X14315D01*
X14275Y15090D01*
X14235Y15130D01*
X14195D01*
Y15090D01*
X14235Y15050D01*
X14195Y15010D01*
Y14970D01*
X14235Y15010D02*
X14255D01*
X14275Y15030D01*
X14295Y15010D01*
X14315D01*
Y15030D01*
X14295Y15050D01*
X14315Y15070D01*
Y15090D01*
X14295D01*
X14275Y15070D01*
X14255Y15090D01*
X14235D01*
Y15070D01*
X14255Y15050D01*
X14235Y15030D01*
Y15010D01*
X14995Y14970D02*
X15035D01*
X15075Y15010D01*
X15115Y14970D01*
X15155D01*
Y15010D01*
X15115Y15050D01*
X15155Y15090D01*
Y15130D01*
X15115D01*
X15075Y15090D01*
X15035Y15130D01*
X14995D01*
Y15090D01*
X15035Y15050D01*
X14995Y15010D01*
Y14970D01*
X15035Y15010D02*
X15055D01*
X15075Y15030D01*
X15095Y15010D01*
X15115D01*
Y15030D01*
X15095Y15050D01*
X15115Y15070D01*
Y15090D01*
X15095D01*
X15075Y15070D01*
X15055Y15090D01*
X15035D01*
Y15070D01*
X15055Y15050D01*
X15035Y15030D01*
Y15010D01*
X12330Y14971D02*
X12370D01*
X12410Y15011D01*
X12450Y14971D01*
X12490D01*
Y15011D01*
X12450Y15051D01*
X12490Y15091D01*
Y15131D01*
X12450D01*
X12410Y15091D01*
X12370Y15131D01*
X12330D01*
Y15091D01*
X12370Y15051D01*
X12330Y15011D01*
Y14971D01*
X12370Y15011D02*
X12390D01*
X12410Y15031D01*
X12430Y15011D01*
X12450D01*
Y15031D01*
X12430Y15051D01*
X12450Y15071D01*
Y15091D01*
X12430D01*
X12410Y15071D01*
X12390Y15091D01*
X12370D01*
Y15071D01*
X12390Y15051D01*
X12370Y15031D01*
Y15011D01*
X12711Y14960D02*
X12751D01*
X12791Y15000D01*
X12831Y14960D01*
X12871D01*
Y15000D01*
X12831Y15040D01*
X12871Y15080D01*
Y15120D01*
X12831D01*
X12791Y15080D01*
X12751Y15120D01*
X12711D01*
Y15080D01*
X12751Y15040D01*
X12711Y15000D01*
Y14960D01*
X12751Y15000D02*
X12771D01*
X12791Y15020D01*
X12811Y15000D01*
X12831D01*
Y15020D01*
X12811Y15040D01*
X12831Y15060D01*
Y15080D01*
X12811D01*
X12791Y15060D01*
X12771Y15080D01*
X12751D01*
Y15060D01*
X12771Y15040D01*
X12751Y15020D01*
Y15000D01*
X18870Y21330D02*
X18910D01*
X18950Y21370D01*
X18990Y21330D01*
X19030D01*
Y21370D01*
X18990Y21410D01*
X19030Y21450D01*
Y21490D01*
X18990D01*
X18950Y21450D01*
X18910Y21490D01*
X18870D01*
Y21450D01*
X18910Y21410D01*
X18870Y21370D01*
Y21330D01*
X18910Y21370D02*
X18930D01*
X18950Y21390D01*
X18970Y21370D01*
X18990D01*
Y21390D01*
X18970Y21410D01*
X18990Y21430D01*
Y21450D01*
X18970D01*
X18950Y21430D01*
X18930Y21450D01*
X18910D01*
Y21430D01*
X18930Y21410D01*
X18910Y21390D01*
Y21370D01*
X19329Y17510D02*
X19369D01*
X19409Y17550D01*
X19449Y17510D01*
X19489D01*
Y17550D01*
X19449Y17590D01*
X19489Y17630D01*
Y17670D01*
X19449D01*
X19409Y17630D01*
X19369Y17670D01*
X19329D01*
Y17630D01*
X19369Y17590D01*
X19329Y17550D01*
Y17510D01*
X19369Y17550D02*
X19389D01*
X19409Y17570D01*
X19429Y17550D01*
X19449D01*
Y17570D01*
X19429Y17590D01*
X19449Y17610D01*
Y17630D01*
X19429D01*
X19409Y17610D01*
X19389Y17630D01*
X19369D01*
Y17610D01*
X19389Y17590D01*
X19369Y17570D01*
Y17550D01*
X19329Y17940D02*
X19369D01*
X19409Y17980D01*
X19449Y17940D01*
X19489D01*
Y17980D01*
X19449Y18020D01*
X19489Y18060D01*
Y18100D01*
X19449D01*
X19409Y18060D01*
X19369Y18100D01*
X19329D01*
Y18060D01*
X19369Y18020D01*
X19329Y17980D01*
Y17940D01*
X19369Y17980D02*
X19389D01*
X19409Y18000D01*
X19429Y17980D01*
X19449D01*
Y18000D01*
X19429Y18020D01*
X19449Y18040D01*
Y18060D01*
X19429D01*
X19409Y18040D01*
X19389Y18060D01*
X19369D01*
Y18040D01*
X19389Y18020D01*
X19369Y18000D01*
Y17980D01*
X19580Y19320D02*
X19620D01*
X19660Y19360D01*
X19700Y19320D01*
X19740D01*
Y19360D01*
X19700Y19400D01*
X19740Y19440D01*
Y19480D01*
X19700D01*
X19660Y19440D01*
X19620Y19480D01*
X19580D01*
Y19440D01*
X19620Y19400D01*
X19580Y19360D01*
Y19320D01*
X19620Y19360D02*
X19640D01*
X19660Y19380D01*
X19680Y19360D01*
X19700D01*
Y19380D01*
X19680Y19400D01*
X19700Y19420D01*
Y19440D01*
X19680D01*
X19660Y19420D01*
X19640Y19440D01*
X19620D01*
Y19420D01*
X19640Y19400D01*
X19620Y19380D01*
Y19360D01*
X19190Y19320D02*
X19230D01*
X19270Y19360D01*
X19310Y19320D01*
X19350D01*
Y19360D01*
X19310Y19400D01*
X19350Y19440D01*
Y19480D01*
X19310D01*
X19270Y19440D01*
X19230Y19480D01*
X19190D01*
Y19440D01*
X19230Y19400D01*
X19190Y19360D01*
Y19320D01*
X19230Y19360D02*
X19250D01*
X19270Y19380D01*
X19290Y19360D01*
X19310D01*
Y19380D01*
X19290Y19400D01*
X19310Y19420D01*
Y19440D01*
X19290D01*
X19270Y19420D01*
X19250Y19440D01*
X19230D01*
Y19420D01*
X19250Y19400D01*
X19230Y19380D01*
Y19360D01*
X20463Y19320D02*
X20503D01*
X20543Y19360D01*
X20583Y19320D01*
X20623D01*
Y19360D01*
X20583Y19400D01*
X20623Y19440D01*
Y19480D01*
X20583D01*
X20543Y19440D01*
X20503Y19480D01*
X20463D01*
Y19440D01*
X20503Y19400D01*
X20463Y19360D01*
Y19320D01*
X20503Y19360D02*
X20523D01*
X20543Y19380D01*
X20563Y19360D01*
X20583D01*
Y19380D01*
X20563Y19400D01*
X20583Y19420D01*
Y19440D01*
X20563D01*
X20543Y19420D01*
X20523Y19440D01*
X20503D01*
Y19420D01*
X20523Y19400D01*
X20503Y19380D01*
Y19360D01*
X20040Y19838D02*
X20080D01*
X20120Y19878D01*
X20160Y19838D01*
X20200D01*
Y19878D01*
X20160Y19918D01*
X20200Y19958D01*
Y19998D01*
X20160D01*
X20120Y19958D01*
X20080Y19998D01*
X20040D01*
Y19958D01*
X20080Y19918D01*
X20040Y19878D01*
Y19838D01*
X20080Y19878D02*
X20100D01*
X20120Y19898D01*
X20140Y19878D01*
X20160D01*
Y19898D01*
X20140Y19918D01*
X20160Y19938D01*
Y19958D01*
X20140D01*
X20120Y19938D01*
X20100Y19958D01*
X20080D01*
Y19938D01*
X20100Y19918D01*
X20080Y19898D01*
Y19878D01*
X20457Y19838D02*
X20497D01*
X20537Y19878D01*
X20577Y19838D01*
X20617D01*
Y19878D01*
X20577Y19918D01*
X20617Y19958D01*
Y19998D01*
X20577D01*
X20537Y19958D01*
X20497Y19998D01*
X20457D01*
Y19958D01*
X20497Y19918D01*
X20457Y19878D01*
Y19838D01*
X20497Y19878D02*
X20517D01*
X20537Y19898D01*
X20557Y19878D01*
X20577D01*
Y19898D01*
X20557Y19918D01*
X20577Y19938D01*
Y19958D01*
X20557D01*
X20537Y19938D01*
X20517Y19958D01*
X20497D01*
Y19938D01*
X20517Y19918D01*
X20497Y19898D01*
Y19878D01*
X20457Y20263D02*
X20497D01*
X20537Y20303D01*
X20577Y20263D01*
X20617D01*
Y20303D01*
X20577Y20343D01*
X20617Y20383D01*
Y20423D01*
X20577D01*
X20537Y20383D01*
X20497Y20423D01*
X20457D01*
Y20383D01*
X20497Y20343D01*
X20457Y20303D01*
Y20263D01*
X20497Y20303D02*
X20517D01*
X20537Y20323D01*
X20557Y20303D01*
X20577D01*
Y20323D01*
X20557Y20343D01*
X20577Y20363D01*
Y20383D01*
X20557D01*
X20537Y20363D01*
X20517Y20383D01*
X20497D01*
Y20363D01*
X20517Y20343D01*
X20497Y20323D01*
Y20303D01*
X20027Y20263D02*
X20067D01*
X20107Y20303D01*
X20147Y20263D01*
X20187D01*
Y20303D01*
X20147Y20343D01*
X20187Y20383D01*
Y20423D01*
X20147D01*
X20107Y20383D01*
X20067Y20423D01*
X20027D01*
Y20383D01*
X20067Y20343D01*
X20027Y20303D01*
Y20263D01*
X20067Y20303D02*
X20087D01*
X20107Y20323D01*
X20127Y20303D01*
X20147D01*
Y20323D01*
X20127Y20343D01*
X20147Y20363D01*
Y20383D01*
X20127D01*
X20107Y20363D01*
X20087Y20383D01*
X20067D01*
Y20363D01*
X20087Y20343D01*
X20067Y20323D01*
Y20303D01*
X20450Y21030D02*
X20490D01*
X20530Y21070D01*
X20570Y21030D01*
X20610D01*
Y21070D01*
X20570Y21110D01*
X20610Y21150D01*
Y21190D01*
X20570D01*
X20530Y21150D01*
X20490Y21190D01*
X20450D01*
Y21150D01*
X20490Y21110D01*
X20450Y21070D01*
Y21030D01*
X20490Y21070D02*
X20510D01*
X20530Y21090D01*
X20550Y21070D01*
X20570D01*
Y21090D01*
X20550Y21110D01*
X20570Y21130D01*
Y21150D01*
X20550D01*
X20530Y21130D01*
X20510Y21150D01*
X20490D01*
Y21130D01*
X20510Y21110D01*
X20490Y21090D01*
Y21070D01*
X20863Y21023D02*
X20903D01*
X20943Y21063D01*
X20983Y21023D01*
X21023D01*
Y21063D01*
X20983Y21103D01*
X21023Y21143D01*
Y21183D01*
X20983D01*
X20943Y21143D01*
X20903Y21183D01*
X20863D01*
Y21143D01*
X20903Y21103D01*
X20863Y21063D01*
Y21023D01*
X20903Y21063D02*
X20923D01*
X20943Y21083D01*
X20963Y21063D01*
X20983D01*
Y21083D01*
X20963Y21103D01*
X20983Y21123D01*
Y21143D01*
X20963D01*
X20943Y21123D01*
X20923Y21143D01*
X20903D01*
Y21123D01*
X20923Y21103D01*
X20903Y21083D01*
Y21063D01*
X4495Y2470D02*
X4535D01*
X4575Y2510D01*
X4615Y2470D01*
X4655D01*
Y2510D01*
X4615Y2550D01*
X4655Y2590D01*
Y2630D01*
X4615D01*
X4575Y2590D01*
X4535Y2630D01*
X4495D01*
Y2590D01*
X4535Y2550D01*
X4495Y2510D01*
Y2470D01*
X4535Y2510D02*
X4555D01*
X4575Y2530D01*
X4595Y2510D01*
X4615D01*
Y2530D01*
X4595Y2550D01*
X4615Y2570D01*
Y2590D01*
X4595D01*
X4575Y2570D01*
X4555Y2590D01*
X4535D01*
Y2570D01*
X4555Y2550D01*
X4535Y2530D01*
Y2510D01*
X4145Y2470D02*
X4185D01*
X4225Y2510D01*
X4265Y2470D01*
X4305D01*
Y2510D01*
X4265Y2550D01*
X4305Y2590D01*
Y2630D01*
X4265D01*
X4225Y2590D01*
X4185Y2630D01*
X4145D01*
Y2590D01*
X4185Y2550D01*
X4145Y2510D01*
Y2470D01*
X4185Y2510D02*
X4205D01*
X4225Y2530D01*
X4245Y2510D01*
X4265D01*
Y2530D01*
X4245Y2550D01*
X4265Y2570D01*
Y2590D01*
X4245D01*
X4225Y2570D01*
X4205Y2590D01*
X4185D01*
Y2570D01*
X4205Y2550D01*
X4185Y2530D01*
Y2510D01*
X14888Y28420D02*
X14928D01*
X14968Y28460D01*
X15008Y28420D01*
X15048D01*
Y28460D01*
X15008Y28500D01*
X15048Y28540D01*
Y28580D01*
X15008D01*
X14968Y28540D01*
X14928Y28580D01*
X14888D01*
Y28540D01*
X14928Y28500D01*
X14888Y28460D01*
Y28420D01*
X14928Y28460D02*
X14948D01*
X14968Y28480D01*
X14988Y28460D01*
X15008D01*
Y28480D01*
X14988Y28500D01*
X15008Y28520D01*
Y28540D01*
X14988D01*
X14968Y28520D01*
X14948Y28540D01*
X14928D01*
Y28520D01*
X14948Y28500D01*
X14928Y28480D01*
Y28460D01*
X15388Y28420D02*
X15428D01*
X15468Y28460D01*
X15508Y28420D01*
X15548D01*
Y28460D01*
X15508Y28500D01*
X15548Y28540D01*
Y28580D01*
X15508D01*
X15468Y28540D01*
X15428Y28580D01*
X15388D01*
Y28540D01*
X15428Y28500D01*
X15388Y28460D01*
Y28420D01*
X15428Y28460D02*
X15448D01*
X15468Y28480D01*
X15488Y28460D01*
X15508D01*
Y28480D01*
X15488Y28500D01*
X15508Y28520D01*
Y28540D01*
X15488D01*
X15468Y28520D01*
X15448Y28540D01*
X15428D01*
Y28520D01*
X15448Y28500D01*
X15428Y28480D01*
Y28460D01*
X15888Y28420D02*
X15928D01*
X15968Y28460D01*
X16008Y28420D01*
X16048D01*
Y28460D01*
X16008Y28500D01*
X16048Y28540D01*
Y28580D01*
X16008D01*
X15968Y28540D01*
X15928Y28580D01*
X15888D01*
Y28540D01*
X15928Y28500D01*
X15888Y28460D01*
Y28420D01*
X15928Y28460D02*
X15948D01*
X15968Y28480D01*
X15988Y28460D01*
X16008D01*
Y28480D01*
X15988Y28500D01*
X16008Y28520D01*
Y28540D01*
X15988D01*
X15968Y28520D01*
X15948Y28540D01*
X15928D01*
Y28520D01*
X15948Y28500D01*
X15928Y28480D01*
Y28460D01*
X16388Y28420D02*
X16428D01*
X16468Y28460D01*
X16508Y28420D01*
X16548D01*
Y28460D01*
X16508Y28500D01*
X16548Y28540D01*
Y28580D01*
X16508D01*
X16468Y28540D01*
X16428Y28580D01*
X16388D01*
Y28540D01*
X16428Y28500D01*
X16388Y28460D01*
Y28420D01*
X16428Y28460D02*
X16448D01*
X16468Y28480D01*
X16488Y28460D01*
X16508D01*
Y28480D01*
X16488Y28500D01*
X16508Y28520D01*
Y28540D01*
X16488D01*
X16468Y28520D01*
X16448Y28540D01*
X16428D01*
Y28520D01*
X16448Y28500D01*
X16428Y28480D01*
Y28460D01*
X16888Y28420D02*
X16928D01*
X16968Y28460D01*
X17008Y28420D01*
X17048D01*
Y28460D01*
X17008Y28500D01*
X17048Y28540D01*
Y28580D01*
X17008D01*
X16968Y28540D01*
X16928Y28580D01*
X16888D01*
Y28540D01*
X16928Y28500D01*
X16888Y28460D01*
Y28420D01*
X16928Y28460D02*
X16948D01*
X16968Y28480D01*
X16988Y28460D01*
X17008D01*
Y28480D01*
X16988Y28500D01*
X17008Y28520D01*
Y28540D01*
X16988D01*
X16968Y28520D01*
X16948Y28540D01*
X16928D01*
Y28520D01*
X16948Y28500D01*
X16928Y28480D01*
Y28460D01*
X17888Y28420D02*
X17928D01*
X17968Y28460D01*
X18008Y28420D01*
X18048D01*
Y28460D01*
X18008Y28500D01*
X18048Y28540D01*
Y28580D01*
X18008D01*
X17968Y28540D01*
X17928Y28580D01*
X17888D01*
Y28540D01*
X17928Y28500D01*
X17888Y28460D01*
Y28420D01*
X17928Y28460D02*
X17948D01*
X17968Y28480D01*
X17988Y28460D01*
X18008D01*
Y28480D01*
X17988Y28500D01*
X18008Y28520D01*
Y28540D01*
X17988D01*
X17968Y28520D01*
X17948Y28540D01*
X17928D01*
Y28520D01*
X17948Y28500D01*
X17928Y28480D01*
Y28460D01*
X15378Y29880D02*
X15418D01*
X15458Y29920D01*
X15498Y29880D01*
X15538D01*
Y29920D01*
X15498Y29960D01*
X15538Y30000D01*
Y30040D01*
X15498D01*
X15458Y30000D01*
X15418Y30040D01*
X15378D01*
Y30000D01*
X15418Y29960D01*
X15378Y29920D01*
Y29880D01*
X15418Y29920D02*
X15438D01*
X15458Y29940D01*
X15478Y29920D01*
X15498D01*
Y29940D01*
X15478Y29960D01*
X15498Y29980D01*
Y30000D01*
X15478D01*
X15458Y29980D01*
X15438Y30000D01*
X15418D01*
Y29980D01*
X15438Y29960D01*
X15418Y29940D01*
Y29920D01*
X21410Y29880D02*
X21450D01*
X21490Y29920D01*
X21530Y29880D01*
X21570D01*
Y29920D01*
X21530Y29960D01*
X21570Y30000D01*
Y30040D01*
X21530D01*
X21490Y30000D01*
X21450Y30040D01*
X21410D01*
Y30000D01*
X21450Y29960D01*
X21410Y29920D01*
Y29880D01*
X21450Y29920D02*
X21470D01*
X21490Y29940D01*
X21510Y29920D01*
X21530D01*
Y29940D01*
X21510Y29960D01*
X21530Y29980D01*
Y30000D01*
X21510D01*
X21490Y29980D01*
X21470Y30000D01*
X21450D01*
Y29980D01*
X21470Y29960D01*
X21450Y29940D01*
Y29920D01*
X23920Y28420D02*
X23960D01*
X24000Y28460D01*
X24040Y28420D01*
X24080D01*
Y28460D01*
X24040Y28500D01*
X24080Y28540D01*
Y28580D01*
X24040D01*
X24000Y28540D01*
X23960Y28580D01*
X23920D01*
Y28540D01*
X23960Y28500D01*
X23920Y28460D01*
Y28420D01*
X23960Y28460D02*
X23980D01*
X24000Y28480D01*
X24020Y28460D01*
X24040D01*
Y28480D01*
X24020Y28500D01*
X24040Y28520D01*
Y28540D01*
X24020D01*
X24000Y28520D01*
X23980Y28540D01*
X23960D01*
Y28520D01*
X23980Y28500D01*
X23960Y28480D01*
Y28460D01*
X22920Y28420D02*
X22960D01*
X23000Y28460D01*
X23040Y28420D01*
X23080D01*
Y28460D01*
X23040Y28500D01*
X23080Y28540D01*
Y28580D01*
X23040D01*
X23000Y28540D01*
X22960Y28580D01*
X22920D01*
Y28540D01*
X22960Y28500D01*
X22920Y28460D01*
Y28420D01*
X22960Y28460D02*
X22980D01*
X23000Y28480D01*
X23020Y28460D01*
X23040D01*
Y28480D01*
X23020Y28500D01*
X23040Y28520D01*
Y28540D01*
X23020D01*
X23000Y28520D01*
X22980Y28540D01*
X22960D01*
Y28520D01*
X22980Y28500D01*
X22960Y28480D01*
Y28460D01*
X22420Y28420D02*
X22460D01*
X22500Y28460D01*
X22540Y28420D01*
X22580D01*
Y28460D01*
X22540Y28500D01*
X22580Y28540D01*
Y28580D01*
X22540D01*
X22500Y28540D01*
X22460Y28580D01*
X22420D01*
Y28540D01*
X22460Y28500D01*
X22420Y28460D01*
Y28420D01*
X22460Y28460D02*
X22480D01*
X22500Y28480D01*
X22520Y28460D01*
X22540D01*
Y28480D01*
X22520Y28500D01*
X22540Y28520D01*
Y28540D01*
X22520D01*
X22500Y28520D01*
X22480Y28540D01*
X22460D01*
Y28520D01*
X22480Y28500D01*
X22460Y28480D01*
Y28460D01*
X20420Y28420D02*
X20460D01*
X20500Y28460D01*
X20540Y28420D01*
X20580D01*
Y28460D01*
X20540Y28500D01*
X20580Y28540D01*
Y28580D01*
X20540D01*
X20500Y28540D01*
X20460Y28580D01*
X20420D01*
Y28540D01*
X20460Y28500D01*
X20420Y28460D01*
Y28420D01*
X20460Y28460D02*
X20480D01*
X20500Y28480D01*
X20520Y28460D01*
X20540D01*
Y28480D01*
X20520Y28500D01*
X20540Y28520D01*
Y28540D01*
X20520D01*
X20500Y28520D01*
X20480Y28540D01*
X20460D01*
Y28520D01*
X20480Y28500D01*
X20460Y28480D01*
Y28460D01*
X21920Y28420D02*
X21960D01*
X22000Y28460D01*
X22040Y28420D01*
X22080D01*
Y28460D01*
X22040Y28500D01*
X22080Y28540D01*
Y28580D01*
X22040D01*
X22000Y28540D01*
X21960Y28580D01*
X21920D01*
Y28540D01*
X21960Y28500D01*
X21920Y28460D01*
Y28420D01*
X21960Y28460D02*
X21980D01*
X22000Y28480D01*
X22020Y28460D01*
X22040D01*
Y28480D01*
X22020Y28500D01*
X22040Y28520D01*
Y28540D01*
X22020D01*
X22000Y28520D01*
X21980Y28540D01*
X21960D01*
Y28520D01*
X21980Y28500D01*
X21960Y28480D01*
Y28460D01*
X21420Y28420D02*
X21460D01*
X21500Y28460D01*
X21540Y28420D01*
X21580D01*
Y28460D01*
X21540Y28500D01*
X21580Y28540D01*
Y28580D01*
X21540D01*
X21500Y28540D01*
X21460Y28580D01*
X21420D01*
Y28540D01*
X21460Y28500D01*
X21420Y28460D01*
Y28420D01*
X21460Y28460D02*
X21480D01*
X21500Y28480D01*
X21520Y28460D01*
X21540D01*
Y28480D01*
X21520Y28500D01*
X21540Y28520D01*
Y28540D01*
X21520D01*
X21500Y28520D01*
X21480Y28540D01*
X21460D01*
Y28520D01*
X21480Y28500D01*
X21460Y28480D01*
Y28460D01*
X20920Y28420D02*
X20960D01*
X21000Y28460D01*
X21040Y28420D01*
X21080D01*
Y28460D01*
X21040Y28500D01*
X21080Y28540D01*
Y28580D01*
X21040D01*
X21000Y28540D01*
X20960Y28580D01*
X20920D01*
Y28540D01*
X20960Y28500D01*
X20920Y28460D01*
Y28420D01*
X20960Y28460D02*
X20980D01*
X21000Y28480D01*
X21020Y28460D01*
X21040D01*
Y28480D01*
X21020Y28500D01*
X21040Y28520D01*
Y28540D01*
X21020D01*
X21000Y28520D01*
X20980Y28540D01*
X20960D01*
Y28520D01*
X20980Y28500D01*
X20960Y28480D01*
Y28460D01*
X21860Y16730D02*
X21900D01*
X21940Y16770D01*
X21980Y16730D01*
X22020D01*
Y16770D01*
X21980Y16810D01*
X22020Y16850D01*
Y16890D01*
X21980D01*
X21940Y16850D01*
X21900Y16890D01*
X21860D01*
Y16850D01*
X21900Y16810D01*
X21860Y16770D01*
Y16730D01*
X21900Y16770D02*
X21920D01*
X21940Y16790D01*
X21960Y16770D01*
X21980D01*
Y16790D01*
X21960Y16810D01*
X21980Y16830D01*
Y16850D01*
X21960D01*
X21940Y16830D01*
X21920Y16850D01*
X21900D01*
Y16830D01*
X21920Y16810D01*
X21900Y16790D01*
Y16770D01*
X19329Y21329D02*
X19369D01*
X19409Y21369D01*
X19449Y21329D01*
X19489D01*
Y21369D01*
X19449Y21409D01*
X19489Y21449D01*
Y21489D01*
X19449D01*
X19409Y21449D01*
X19369Y21489D01*
X19329D01*
Y21449D01*
X19369Y21409D01*
X19329Y21369D01*
Y21329D01*
X19369Y21369D02*
X19389D01*
X19409Y21389D01*
X19429Y21369D01*
X19449D01*
Y21389D01*
X19429Y21409D01*
X19449Y21429D01*
Y21449D01*
X19429D01*
X19409Y21429D01*
X19389Y21449D01*
X19369D01*
Y21429D01*
X19389Y21409D01*
X19369Y21389D01*
Y21369D01*
X15540Y18870D02*
X15580D01*
X15620Y18910D01*
X15660Y18870D01*
X15700D01*
Y18910D01*
X15660Y18950D01*
X15700Y18990D01*
Y19030D01*
X15660D01*
X15620Y18990D01*
X15580Y19030D01*
X15540D01*
Y18990D01*
X15580Y18950D01*
X15540Y18910D01*
Y18870D01*
X15580Y18910D02*
X15600D01*
X15620Y18930D01*
X15640Y18910D01*
X15660D01*
Y18930D01*
X15640Y18950D01*
X15660Y18970D01*
Y18990D01*
X15640D01*
X15620Y18970D01*
X15600Y18990D01*
X15580D01*
Y18970D01*
X15600Y18950D01*
X15580Y18930D01*
Y18910D01*
X22700Y22010D02*
X22740D01*
X22780Y22050D01*
X22820Y22010D01*
X22860D01*
Y22050D01*
X22820Y22090D01*
X22860Y22130D01*
Y22170D01*
X22820D01*
X22780Y22130D01*
X22740Y22170D01*
X22700D01*
Y22130D01*
X22740Y22090D01*
X22700Y22050D01*
Y22010D01*
X22740Y22050D02*
X22760D01*
X22780Y22070D01*
X22800Y22050D01*
X22820D01*
Y22070D01*
X22800Y22090D01*
X22820Y22110D01*
Y22130D01*
X22800D01*
X22780Y22110D01*
X22760Y22130D01*
X22740D01*
Y22110D01*
X22760Y22090D01*
X22740Y22070D01*
Y22050D01*
X23480Y24920D02*
X23520D01*
X23560Y24960D01*
X23600Y24920D01*
X23640D01*
Y24960D01*
X23600Y25000D01*
X23640Y25040D01*
Y25080D01*
X23600D01*
X23560Y25040D01*
X23520Y25080D01*
X23480D01*
Y25040D01*
X23520Y25000D01*
X23480Y24960D01*
Y24920D01*
X23520Y24960D02*
X23540D01*
X23560Y24980D01*
X23580Y24960D01*
X23600D01*
Y24980D01*
X23580Y25000D01*
X23600Y25020D01*
Y25040D01*
X23580D01*
X23560Y25020D01*
X23540Y25040D01*
X23520D01*
Y25020D01*
X23540Y25000D01*
X23520Y24980D01*
Y24960D01*
X22230Y25900D02*
X22270D01*
X22310Y25940D01*
X22350Y25900D01*
X22390D01*
Y25940D01*
X22350Y25980D01*
X22390Y26020D01*
Y26060D01*
X22350D01*
X22310Y26020D01*
X22270Y26060D01*
X22230D01*
Y26020D01*
X22270Y25980D01*
X22230Y25940D01*
Y25900D01*
X22270Y25940D02*
X22290D01*
X22310Y25960D01*
X22330Y25940D01*
X22350D01*
Y25960D01*
X22330Y25980D01*
X22350Y26000D01*
Y26020D01*
X22330D01*
X22310Y26000D01*
X22290Y26020D01*
X22270D01*
Y26000D01*
X22290Y25980D01*
X22270Y25960D01*
Y25940D01*
X20910Y25370D02*
X20950D01*
X20990Y25410D01*
X21030Y25370D01*
X21070D01*
Y25410D01*
X21030Y25450D01*
X21070Y25490D01*
Y25530D01*
X21030D01*
X20990Y25490D01*
X20950Y25530D01*
X20910D01*
Y25490D01*
X20950Y25450D01*
X20910Y25410D01*
Y25370D01*
X20950Y25410D02*
X20970D01*
X20990Y25430D01*
X21010Y25410D01*
X21030D01*
Y25430D01*
X21010Y25450D01*
X21030Y25470D01*
Y25490D01*
X21010D01*
X20990Y25470D01*
X20970Y25490D01*
X20950D01*
Y25470D01*
X20970Y25450D01*
X20950Y25430D01*
Y25410D01*
X20850Y24490D02*
X20890D01*
X20930Y24530D01*
X20970Y24490D01*
X21010D01*
Y24530D01*
X20970Y24570D01*
X21010Y24610D01*
Y24650D01*
X20970D01*
X20930Y24610D01*
X20890Y24650D01*
X20850D01*
Y24610D01*
X20890Y24570D01*
X20850Y24530D01*
Y24490D01*
X20890Y24530D02*
X20910D01*
X20930Y24550D01*
X20950Y24530D01*
X20970D01*
Y24550D01*
X20950Y24570D01*
X20970Y24590D01*
Y24610D01*
X20950D01*
X20930Y24590D01*
X20910Y24610D01*
X20890D01*
Y24590D01*
X20910Y24570D01*
X20890Y24550D01*
Y24530D01*
X19887Y24687D02*
X19927D01*
X19967Y24727D01*
X20007Y24687D01*
X20047D01*
Y24727D01*
X20007Y24767D01*
X20047Y24807D01*
Y24847D01*
X20007D01*
X19967Y24807D01*
X19927Y24847D01*
X19887D01*
Y24807D01*
X19927Y24767D01*
X19887Y24727D01*
Y24687D01*
X19927Y24727D02*
X19947D01*
X19967Y24747D01*
X19987Y24727D01*
X20007D01*
Y24747D01*
X19987Y24767D01*
X20007Y24787D01*
Y24807D01*
X19987D01*
X19967Y24787D01*
X19947Y24807D01*
X19927D01*
Y24787D01*
X19947Y24767D01*
X19927Y24747D01*
Y24727D01*
X20270Y25620D02*
X20310D01*
X20350Y25660D01*
X20390Y25620D01*
X20430D01*
Y25660D01*
X20390Y25700D01*
X20430Y25740D01*
Y25780D01*
X20390D01*
X20350Y25740D01*
X20310Y25780D01*
X20270D01*
Y25740D01*
X20310Y25700D01*
X20270Y25660D01*
Y25620D01*
X20310Y25660D02*
X20330D01*
X20350Y25680D01*
X20370Y25660D01*
X20390D01*
Y25680D01*
X20370Y25700D01*
X20390Y25720D01*
Y25740D01*
X20370D01*
X20350Y25720D01*
X20330Y25740D01*
X20310D01*
Y25720D01*
X20330Y25700D01*
X20310Y25680D01*
Y25660D01*
X18660Y25970D02*
X18700D01*
X18740Y26010D01*
X18780Y25970D01*
X18820D01*
Y26010D01*
X18780Y26050D01*
X18820Y26090D01*
Y26130D01*
X18780D01*
X18740Y26090D01*
X18700Y26130D01*
X18660D01*
Y26090D01*
X18700Y26050D01*
X18660Y26010D01*
Y25970D01*
X18700Y26010D02*
X18720D01*
X18740Y26030D01*
X18760Y26010D01*
X18780D01*
Y26030D01*
X18760Y26050D01*
X18780Y26070D01*
Y26090D01*
X18760D01*
X18740Y26070D01*
X18720Y26090D01*
X18700D01*
Y26070D01*
X18720Y26050D01*
X18700Y26030D01*
Y26010D01*
X17380Y25950D02*
X17420D01*
X17460Y25990D01*
X17500Y25950D01*
X17540D01*
Y25990D01*
X17500Y26030D01*
X17540Y26070D01*
Y26110D01*
X17500D01*
X17460Y26070D01*
X17420Y26110D01*
X17380D01*
Y26070D01*
X17420Y26030D01*
X17380Y25990D01*
Y25950D01*
X17420Y25990D02*
X17440D01*
X17460Y26010D01*
X17480Y25990D01*
X17500D01*
Y26010D01*
X17480Y26030D01*
X17500Y26050D01*
Y26070D01*
X17480D01*
X17460Y26050D01*
X17440Y26070D01*
X17420D01*
Y26050D01*
X17440Y26030D01*
X17420Y26010D01*
Y25990D01*
X17020Y24830D02*
X17060D01*
X17100Y24870D01*
X17140Y24830D01*
X17180D01*
Y24870D01*
X17140Y24910D01*
X17180Y24950D01*
Y24990D01*
X17140D01*
X17100Y24950D01*
X17060Y24990D01*
X17020D01*
Y24950D01*
X17060Y24910D01*
X17020Y24870D01*
Y24830D01*
X17060Y24870D02*
X17080D01*
X17100Y24890D01*
X17120Y24870D01*
X17140D01*
Y24890D01*
X17120Y24910D01*
X17140Y24930D01*
Y24950D01*
X17120D01*
X17100Y24930D01*
X17080Y24950D01*
X17060D01*
Y24930D01*
X17080Y24910D01*
X17060Y24890D01*
Y24870D01*
X17970Y23250D02*
X18010D01*
X18050Y23290D01*
X18090Y23250D01*
X18130D01*
Y23290D01*
X18090Y23330D01*
X18130Y23370D01*
Y23410D01*
X18090D01*
X18050Y23370D01*
X18010Y23410D01*
X17970D01*
Y23370D01*
X18010Y23330D01*
X17970Y23290D01*
Y23250D01*
X18010Y23290D02*
X18030D01*
X18050Y23310D01*
X18070Y23290D01*
X18090D01*
Y23310D01*
X18070Y23330D01*
X18090Y23350D01*
Y23370D01*
X18070D01*
X18050Y23350D01*
X18030Y23370D01*
X18010D01*
Y23350D01*
X18030Y23330D01*
X18010Y23310D01*
Y23290D01*
X19350Y22580D02*
X19390D01*
X19430Y22620D01*
X19470Y22580D01*
X19510D01*
Y22620D01*
X19470Y22660D01*
X19510Y22700D01*
Y22740D01*
X19470D01*
X19430Y22700D01*
X19390Y22740D01*
X19350D01*
Y22700D01*
X19390Y22660D01*
X19350Y22620D01*
Y22580D01*
X19390Y22620D02*
X19410D01*
X19430Y22640D01*
X19450Y22620D01*
X19470D01*
Y22640D01*
X19450Y22660D01*
X19470Y22680D01*
Y22700D01*
X19450D01*
X19430Y22680D01*
X19410Y22700D01*
X19390D01*
Y22680D01*
X19410Y22660D01*
X19390Y22640D01*
Y22620D01*
X20240Y23090D02*
X20280D01*
X20320Y23130D01*
X20360Y23090D01*
X20400D01*
Y23130D01*
X20360Y23170D01*
X20400Y23210D01*
Y23250D01*
X20360D01*
X20320Y23210D01*
X20280Y23250D01*
X20240D01*
Y23210D01*
X20280Y23170D01*
X20240Y23130D01*
Y23090D01*
X20280Y23130D02*
X20300D01*
X20320Y23150D01*
X20340Y23130D01*
X20360D01*
Y23150D01*
X20340Y23170D01*
X20360Y23190D01*
Y23210D01*
X20340D01*
X20320Y23190D01*
X20300Y23210D01*
X20280D01*
Y23190D01*
X20300Y23170D01*
X20280Y23150D01*
Y23130D01*
X12430Y4260D02*
X12470D01*
X12510Y4300D01*
X12550Y4260D01*
X12590D01*
Y4300D01*
X12550Y4340D01*
X12590Y4380D01*
Y4420D01*
X12550D01*
X12510Y4380D01*
X12470Y4420D01*
X12430D01*
Y4380D01*
X12470Y4340D01*
X12430Y4300D01*
Y4260D01*
X12470Y4300D02*
X12490D01*
X12510Y4320D01*
X12530Y4300D01*
X12550D01*
Y4320D01*
X12530Y4340D01*
X12550Y4360D01*
Y4380D01*
X12530D01*
X12510Y4360D01*
X12490Y4380D01*
X12470D01*
Y4360D01*
X12490Y4340D01*
X12470Y4320D01*
Y4300D01*
X4740Y4055D02*
X4780D01*
X4820Y4095D01*
X4860Y4055D01*
X4900D01*
Y4095D01*
X4860Y4135D01*
X4900Y4175D01*
Y4215D01*
X4860D01*
X4820Y4175D01*
X4780Y4215D01*
X4740D01*
Y4175D01*
X4780Y4135D01*
X4740Y4095D01*
Y4055D01*
X4780Y4095D02*
X4800D01*
X4820Y4115D01*
X4840Y4095D01*
X4860D01*
Y4115D01*
X4840Y4135D01*
X4860Y4155D01*
Y4175D01*
X4840D01*
X4820Y4155D01*
X4800Y4175D01*
X4780D01*
Y4155D01*
X4800Y4135D01*
X4780Y4115D01*
Y4095D01*
X5120Y4060D02*
X5160D01*
X5200Y4100D01*
X5240Y4060D01*
X5280D01*
Y4100D01*
X5240Y4140D01*
X5280Y4180D01*
Y4220D01*
X5240D01*
X5200Y4180D01*
X5160Y4220D01*
X5120D01*
Y4180D01*
X5160Y4140D01*
X5120Y4100D01*
Y4060D01*
X5160Y4100D02*
X5180D01*
X5200Y4120D01*
X5220Y4100D01*
X5240D01*
Y4120D01*
X5220Y4140D01*
X5240Y4160D01*
Y4180D01*
X5220D01*
X5200Y4160D01*
X5180Y4180D01*
X5160D01*
Y4160D01*
X5180Y4140D01*
X5160Y4120D01*
Y4100D01*
X3430Y1870D02*
X3470D01*
X3510Y1910D01*
X3550Y1870D01*
X3590D01*
Y1910D01*
X3550Y1950D01*
X3590Y1990D01*
Y2030D01*
X3550D01*
X3510Y1990D01*
X3470Y2030D01*
X3430D01*
Y1990D01*
X3470Y1950D01*
X3430Y1910D01*
Y1870D01*
X3470Y1910D02*
X3490D01*
X3510Y1930D01*
X3530Y1910D01*
X3550D01*
Y1930D01*
X3530Y1950D01*
X3550Y1970D01*
Y1990D01*
X3530D01*
X3510Y1970D01*
X3490Y1990D01*
X3470D01*
Y1970D01*
X3490Y1950D01*
X3470Y1930D01*
Y1910D01*
X3750Y2180D02*
X3790D01*
X3830Y2220D01*
X3870Y2180D01*
X3910D01*
Y2220D01*
X3870Y2260D01*
X3910Y2300D01*
Y2340D01*
X3870D01*
X3830Y2300D01*
X3790Y2340D01*
X3750D01*
Y2300D01*
X3790Y2260D01*
X3750Y2220D01*
Y2180D01*
X3790Y2220D02*
X3810D01*
X3830Y2240D01*
X3850Y2220D01*
X3870D01*
Y2240D01*
X3850Y2260D01*
X3870Y2280D01*
Y2300D01*
X3850D01*
X3830Y2280D01*
X3810Y2300D01*
X3790D01*
Y2280D01*
X3810Y2260D01*
X3790Y2240D01*
Y2220D01*
X3440Y2190D02*
X3480D01*
X3520Y2230D01*
X3560Y2190D01*
X3600D01*
Y2230D01*
X3560Y2270D01*
X3600Y2310D01*
Y2350D01*
X3560D01*
X3520Y2310D01*
X3480Y2350D01*
X3440D01*
Y2310D01*
X3480Y2270D01*
X3440Y2230D01*
Y2190D01*
X3480Y2230D02*
X3500D01*
X3520Y2250D01*
X3540Y2230D01*
X3560D01*
Y2250D01*
X3540Y2270D01*
X3560Y2290D01*
Y2310D01*
X3540D01*
X3520Y2290D01*
X3500Y2310D01*
X3480D01*
Y2290D01*
X3500Y2270D01*
X3480Y2250D01*
Y2230D01*
X9330Y6440D02*
X9370D01*
X9410Y6480D01*
X9450Y6440D01*
X9490D01*
Y6480D01*
X9450Y6520D01*
X9490Y6560D01*
Y6600D01*
X9450D01*
X9410Y6560D01*
X9370Y6600D01*
X9330D01*
Y6560D01*
X9370Y6520D01*
X9330Y6480D01*
Y6440D01*
X9370Y6480D02*
X9390D01*
X9410Y6500D01*
X9430Y6480D01*
X9450D01*
Y6500D01*
X9430Y6520D01*
X9450Y6540D01*
Y6560D01*
X9430D01*
X9410Y6540D01*
X9390Y6560D01*
X9370D01*
Y6540D01*
X9390Y6520D01*
X9370Y6500D01*
Y6480D01*
X8260Y6540D02*
X8300D01*
X8340Y6580D01*
X8380Y6540D01*
X8420D01*
Y6580D01*
X8380Y6620D01*
X8420Y6660D01*
Y6700D01*
X8380D01*
X8340Y6660D01*
X8300Y6700D01*
X8260D01*
Y6660D01*
X8300Y6620D01*
X8260Y6580D01*
Y6540D01*
X8300Y6580D02*
X8320D01*
X8340Y6600D01*
X8360Y6580D01*
X8380D01*
Y6600D01*
X8360Y6620D01*
X8380Y6640D01*
Y6660D01*
X8360D01*
X8340Y6640D01*
X8320Y6660D01*
X8300D01*
Y6640D01*
X8320Y6620D01*
X8300Y6600D01*
Y6580D01*
X6810Y3280D02*
X6850D01*
X6890Y3320D01*
X6930Y3280D01*
X6970D01*
Y3320D01*
X6930Y3360D01*
X6970Y3400D01*
Y3440D01*
X6930D01*
X6890Y3400D01*
X6850Y3440D01*
X6810D01*
Y3400D01*
X6850Y3360D01*
X6810Y3320D01*
Y3280D01*
X6850Y3320D02*
X6870D01*
X6890Y3340D01*
X6910Y3320D01*
X6930D01*
Y3340D01*
X6910Y3360D01*
X6930Y3380D01*
Y3400D01*
X6910D01*
X6890Y3380D01*
X6870Y3400D01*
X6850D01*
Y3380D01*
X6870Y3360D01*
X6850Y3340D01*
Y3320D01*
X6550Y3820D02*
X6590D01*
X6630Y3860D01*
X6670Y3820D01*
X6710D01*
Y3860D01*
X6670Y3900D01*
X6710Y3940D01*
Y3980D01*
X6670D01*
X6630Y3940D01*
X6590Y3980D01*
X6550D01*
Y3940D01*
X6590Y3900D01*
X6550Y3860D01*
Y3820D01*
X6590Y3860D02*
X6610D01*
X6630Y3880D01*
X6650Y3860D01*
X6670D01*
Y3880D01*
X6650Y3900D01*
X6670Y3920D01*
Y3940D01*
X6650D01*
X6630Y3920D01*
X6610Y3940D01*
X6590D01*
Y3920D01*
X6610Y3900D01*
X6590Y3880D01*
Y3860D01*
X7870Y2870D02*
X7910D01*
X7950Y2910D01*
X7990Y2870D01*
X8030D01*
Y2910D01*
X7990Y2950D01*
X8030Y2990D01*
Y3030D01*
X7990D01*
X7950Y2990D01*
X7910Y3030D01*
X7870D01*
Y2990D01*
X7910Y2950D01*
X7870Y2910D01*
Y2870D01*
X7910Y2910D02*
X7930D01*
X7950Y2930D01*
X7970Y2910D01*
X7990D01*
Y2930D01*
X7970Y2950D01*
X7990Y2970D01*
Y2990D01*
X7970D01*
X7950Y2970D01*
X7930Y2990D01*
X7910D01*
Y2970D01*
X7930Y2950D01*
X7910Y2930D01*
Y2910D01*
X8740Y2470D02*
X8780D01*
X8820Y2510D01*
X8860Y2470D01*
X8900D01*
Y2510D01*
X8860Y2550D01*
X8900Y2590D01*
Y2630D01*
X8860D01*
X8820Y2590D01*
X8780Y2630D01*
X8740D01*
Y2590D01*
X8780Y2550D01*
X8740Y2510D01*
Y2470D01*
X8780Y2510D02*
X8800D01*
X8820Y2530D01*
X8840Y2510D01*
X8860D01*
Y2530D01*
X8840Y2550D01*
X8860Y2570D01*
Y2590D01*
X8840D01*
X8820Y2570D01*
X8800Y2590D01*
X8780D01*
Y2570D01*
X8800Y2550D01*
X8780Y2530D01*
Y2510D01*
X9190Y3400D02*
X9230D01*
X9270Y3440D01*
X9310Y3400D01*
X9350D01*
Y3440D01*
X9310Y3480D01*
X9350Y3520D01*
Y3560D01*
X9310D01*
X9270Y3520D01*
X9230Y3560D01*
X9190D01*
Y3520D01*
X9230Y3480D01*
X9190Y3440D01*
Y3400D01*
X9230Y3440D02*
X9250D01*
X9270Y3460D01*
X9290Y3440D01*
X9310D01*
Y3460D01*
X9290Y3480D01*
X9310Y3500D01*
Y3520D01*
X9290D01*
X9270Y3500D01*
X9250Y3520D01*
X9230D01*
Y3500D01*
X9250Y3480D01*
X9230Y3460D01*
Y3440D01*
X9180Y4360D02*
X9220D01*
X9260Y4400D01*
X9300Y4360D01*
X9340D01*
Y4400D01*
X9300Y4440D01*
X9340Y4480D01*
Y4520D01*
X9300D01*
X9260Y4480D01*
X9220Y4520D01*
X9180D01*
Y4480D01*
X9220Y4440D01*
X9180Y4400D01*
Y4360D01*
X9220Y4400D02*
X9240D01*
X9260Y4420D01*
X9280Y4400D01*
X9300D01*
Y4420D01*
X9280Y4440D01*
X9300Y4460D01*
Y4480D01*
X9280D01*
X9260Y4460D01*
X9240Y4480D01*
X9220D01*
Y4460D01*
X9240Y4440D01*
X9220Y4420D01*
Y4400D01*
X9200Y5310D02*
X9240D01*
X9280Y5350D01*
X9320Y5310D01*
X9360D01*
Y5350D01*
X9320Y5390D01*
X9360Y5430D01*
Y5470D01*
X9320D01*
X9280Y5430D01*
X9240Y5470D01*
X9200D01*
Y5430D01*
X9240Y5390D01*
X9200Y5350D01*
Y5310D01*
X9240Y5350D02*
X9260D01*
X9280Y5370D01*
X9300Y5350D01*
X9320D01*
Y5370D01*
X9300Y5390D01*
X9320Y5410D01*
Y5430D01*
X9300D01*
X9280Y5410D01*
X9260Y5430D01*
X9240D01*
Y5410D01*
X9260Y5390D01*
X9240Y5370D01*
Y5350D01*
X8670Y5950D02*
X8710D01*
X8750Y5990D01*
X8790Y5950D01*
X8830D01*
Y5990D01*
X8790Y6030D01*
X8830Y6070D01*
Y6110D01*
X8790D01*
X8750Y6070D01*
X8710Y6110D01*
X8670D01*
Y6070D01*
X8710Y6030D01*
X8670Y5990D01*
Y5950D01*
X8710Y5990D02*
X8730D01*
X8750Y6010D01*
X8770Y5990D01*
X8790D01*
Y6010D01*
X8770Y6030D01*
X8790Y6050D01*
Y6070D01*
X8770D01*
X8750Y6050D01*
X8730Y6070D01*
X8710D01*
Y6050D01*
X8730Y6030D01*
X8710Y6010D01*
Y5990D01*
X7870Y5650D02*
X7910D01*
X7950Y5690D01*
X7990Y5650D01*
X8030D01*
Y5690D01*
X7990Y5730D01*
X8030Y5770D01*
Y5810D01*
X7990D01*
X7950Y5770D01*
X7910Y5810D01*
X7870D01*
Y5770D01*
X7910Y5730D01*
X7870Y5690D01*
Y5650D01*
X7910Y5690D02*
X7930D01*
X7950Y5710D01*
X7970Y5690D01*
X7990D01*
Y5710D01*
X7970Y5730D01*
X7990Y5750D01*
Y5770D01*
X7970D01*
X7950Y5750D01*
X7930Y5770D01*
X7910D01*
Y5750D01*
X7930Y5730D01*
X7910Y5710D01*
Y5690D01*
X6290Y4710D02*
X6330D01*
X6370Y4750D01*
X6410Y4710D01*
X6450D01*
Y4750D01*
X6410Y4790D01*
X6450Y4830D01*
Y4870D01*
X6410D01*
X6370Y4830D01*
X6330Y4870D01*
X6290D01*
Y4830D01*
X6330Y4790D01*
X6290Y4750D01*
Y4710D01*
X6330Y4750D02*
X6350D01*
X6370Y4770D01*
X6390Y4750D01*
X6410D01*
Y4770D01*
X6390Y4790D01*
X6410Y4810D01*
Y4830D01*
X6390D01*
X6370Y4810D01*
X6350Y4830D01*
X6330D01*
Y4810D01*
X6350Y4790D01*
X6330Y4770D01*
Y4750D01*
X5450Y3800D02*
X5490D01*
X5530Y3840D01*
X5570Y3800D01*
X5610D01*
Y3840D01*
X5570Y3880D01*
X5610Y3920D01*
Y3960D01*
X5570D01*
X5530Y3920D01*
X5490Y3960D01*
X5450D01*
Y3920D01*
X5490Y3880D01*
X5450Y3840D01*
Y3800D01*
X5490Y3840D02*
X5510D01*
X5530Y3860D01*
X5550Y3840D01*
X5570D01*
Y3860D01*
X5550Y3880D01*
X5570Y3900D01*
Y3920D01*
X5550D01*
X5530Y3900D01*
X5510Y3920D01*
X5490D01*
Y3900D01*
X5510Y3880D01*
X5490Y3860D01*
Y3840D01*
X3680Y10080D02*
X3720D01*
X3760Y10120D01*
X3800Y10080D01*
X3840D01*
Y10120D01*
X3800Y10160D01*
X3840Y10200D01*
Y10240D01*
X3800D01*
X3760Y10200D01*
X3720Y10240D01*
X3680D01*
Y10200D01*
X3720Y10160D01*
X3680Y10120D01*
Y10080D01*
X3720Y10120D02*
X3740D01*
X3760Y10140D01*
X3780Y10120D01*
X3800D01*
Y10140D01*
X3780Y10160D01*
X3800Y10180D01*
Y10200D01*
X3780D01*
X3760Y10180D01*
X3740Y10200D01*
X3720D01*
Y10180D01*
X3740Y10160D01*
X3720Y10140D01*
Y10120D01*
X8110Y9200D02*
X8150D01*
X8190Y9240D01*
X8230Y9200D01*
X8270D01*
Y9240D01*
X8230Y9280D01*
X8270Y9320D01*
Y9360D01*
X8230D01*
X8190Y9320D01*
X8150Y9360D01*
X8110D01*
Y9320D01*
X8150Y9280D01*
X8110Y9240D01*
Y9200D01*
X8150Y9240D02*
X8170D01*
X8190Y9260D01*
X8210Y9240D01*
X8230D01*
Y9260D01*
X8210Y9280D01*
X8230Y9300D01*
Y9320D01*
X8210D01*
X8190Y9300D01*
X8170Y9320D01*
X8150D01*
Y9300D01*
X8170Y9280D01*
X8150Y9260D01*
Y9240D01*
X7530Y9200D02*
X7570D01*
X7610Y9240D01*
X7650Y9200D01*
X7690D01*
Y9240D01*
X7650Y9280D01*
X7690Y9320D01*
Y9360D01*
X7650D01*
X7610Y9320D01*
X7570Y9360D01*
X7530D01*
Y9320D01*
X7570Y9280D01*
X7530Y9240D01*
Y9200D01*
X7570Y9240D02*
X7590D01*
X7610Y9260D01*
X7630Y9240D01*
X7650D01*
Y9260D01*
X7630Y9280D01*
X7650Y9300D01*
Y9320D01*
X7630D01*
X7610Y9300D01*
X7590Y9320D01*
X7570D01*
Y9300D01*
X7590Y9280D01*
X7570Y9260D01*
Y9240D01*
X7010Y9200D02*
X7050D01*
X7090Y9240D01*
X7130Y9200D01*
X7170D01*
Y9240D01*
X7130Y9280D01*
X7170Y9320D01*
Y9360D01*
X7130D01*
X7090Y9320D01*
X7050Y9360D01*
X7010D01*
Y9320D01*
X7050Y9280D01*
X7010Y9240D01*
Y9200D01*
X7050Y9240D02*
X7070D01*
X7090Y9260D01*
X7110Y9240D01*
X7130D01*
Y9260D01*
X7110Y9280D01*
X7130Y9300D01*
Y9320D01*
X7110D01*
X7090Y9300D01*
X7070Y9320D01*
X7050D01*
Y9300D01*
X7070Y9280D01*
X7050Y9260D01*
Y9240D01*
X5550Y10760D02*
X5590D01*
X5630Y10800D01*
X5670Y10760D01*
X5710D01*
Y10800D01*
X5670Y10840D01*
X5710Y10880D01*
Y10920D01*
X5670D01*
X5630Y10880D01*
X5590Y10920D01*
X5550D01*
Y10880D01*
X5590Y10840D01*
X5550Y10800D01*
Y10760D01*
X5590Y10800D02*
X5610D01*
X5630Y10820D01*
X5650Y10800D01*
X5670D01*
Y10820D01*
X5650Y10840D01*
X5670Y10860D01*
Y10880D01*
X5650D01*
X5630Y10860D01*
X5610Y10880D01*
X5590D01*
Y10860D01*
X5610Y10840D01*
X5590Y10820D01*
Y10800D01*
X4890Y10420D02*
X4930D01*
X4970Y10460D01*
X5010Y10420D01*
X5050D01*
Y10460D01*
X5010Y10500D01*
X5050Y10540D01*
Y10580D01*
X5010D01*
X4970Y10540D01*
X4930Y10580D01*
X4890D01*
Y10540D01*
X4930Y10500D01*
X4890Y10460D01*
Y10420D01*
X4930Y10460D02*
X4950D01*
X4970Y10480D01*
X4990Y10460D01*
X5010D01*
Y10480D01*
X4990Y10500D01*
X5010Y10520D01*
Y10540D01*
X4990D01*
X4970Y10520D01*
X4950Y10540D01*
X4930D01*
Y10520D01*
X4950Y10500D01*
X4930Y10480D01*
Y10460D01*
X5215Y10760D02*
X5255D01*
X5295Y10800D01*
X5335Y10760D01*
X5375D01*
Y10800D01*
X5335Y10840D01*
X5375Y10880D01*
Y10920D01*
X5335D01*
X5295Y10880D01*
X5255Y10920D01*
X5215D01*
Y10880D01*
X5255Y10840D01*
X5215Y10800D01*
Y10760D01*
X5255Y10800D02*
X5275D01*
X5295Y10820D01*
X5315Y10800D01*
X5335D01*
Y10820D01*
X5315Y10840D01*
X5335Y10860D01*
Y10880D01*
X5315D01*
X5295Y10860D01*
X5275Y10880D01*
X5255D01*
Y10860D01*
X5275Y10840D01*
X5255Y10820D01*
Y10800D01*
X4880Y10760D02*
X4920D01*
X4960Y10800D01*
X5000Y10760D01*
X5040D01*
Y10800D01*
X5000Y10840D01*
X5040Y10880D01*
Y10920D01*
X5000D01*
X4960Y10880D01*
X4920Y10920D01*
X4880D01*
Y10880D01*
X4920Y10840D01*
X4880Y10800D01*
Y10760D01*
X4920Y10800D02*
X4940D01*
X4960Y10820D01*
X4980Y10800D01*
X5000D01*
Y10820D01*
X4980Y10840D01*
X5000Y10860D01*
Y10880D01*
X4980D01*
X4960Y10860D01*
X4940Y10880D01*
X4920D01*
Y10860D01*
X4940Y10840D01*
X4920Y10820D01*
Y10800D01*
X5950Y13570D02*
X5990D01*
X6030Y13610D01*
X6070Y13570D01*
X6110D01*
Y13610D01*
X6070Y13650D01*
X6110Y13690D01*
Y13730D01*
X6070D01*
X6030Y13690D01*
X5990Y13730D01*
X5950D01*
Y13690D01*
X5990Y13650D01*
X5950Y13610D01*
Y13570D01*
X5990Y13610D02*
X6010D01*
X6030Y13630D01*
X6050Y13610D01*
X6070D01*
Y13630D01*
X6050Y13650D01*
X6070Y13670D01*
Y13690D01*
X6050D01*
X6030Y13670D01*
X6010Y13690D01*
X5990D01*
Y13670D01*
X6010Y13650D01*
X5990Y13630D01*
Y13610D01*
X5950Y14090D02*
X5990D01*
X6030Y14130D01*
X6070Y14090D01*
X6110D01*
Y14130D01*
X6070Y14170D01*
X6110Y14210D01*
Y14250D01*
X6070D01*
X6030Y14210D01*
X5990Y14250D01*
X5950D01*
Y14210D01*
X5990Y14170D01*
X5950Y14130D01*
Y14090D01*
X5990Y14130D02*
X6010D01*
X6030Y14150D01*
X6050Y14130D01*
X6070D01*
Y14150D01*
X6050Y14170D01*
X6070Y14190D01*
Y14210D01*
X6050D01*
X6030Y14190D01*
X6010Y14210D01*
X5990D01*
Y14190D01*
X6010Y14170D01*
X5990Y14150D01*
Y14130D01*
X5510Y14090D02*
X5550D01*
X5590Y14130D01*
X5630Y14090D01*
X5670D01*
Y14130D01*
X5630Y14170D01*
X5670Y14210D01*
Y14250D01*
X5630D01*
X5590Y14210D01*
X5550Y14250D01*
X5510D01*
Y14210D01*
X5550Y14170D01*
X5510Y14130D01*
Y14090D01*
X5550Y14130D02*
X5570D01*
X5590Y14150D01*
X5610Y14130D01*
X5630D01*
Y14150D01*
X5610Y14170D01*
X5630Y14190D01*
Y14210D01*
X5610D01*
X5590Y14190D01*
X5570Y14210D01*
X5550D01*
Y14190D01*
X5570Y14170D01*
X5550Y14150D01*
Y14130D01*
X5070Y14090D02*
X5110D01*
X5150Y14130D01*
X5190Y14090D01*
X5230D01*
Y14130D01*
X5190Y14170D01*
X5230Y14210D01*
Y14250D01*
X5190D01*
X5150Y14210D01*
X5110Y14250D01*
X5070D01*
Y14210D01*
X5110Y14170D01*
X5070Y14130D01*
Y14090D01*
X5110Y14130D02*
X5130D01*
X5150Y14150D01*
X5170Y14130D01*
X5190D01*
Y14150D01*
X5170Y14170D01*
X5190Y14190D01*
Y14210D01*
X5170D01*
X5150Y14190D01*
X5130Y14210D01*
X5110D01*
Y14190D01*
X5130Y14170D01*
X5110Y14150D01*
Y14130D01*
X6532Y16338D02*
X6572D01*
X6612Y16378D01*
X6652Y16338D01*
X6692D01*
Y16378D01*
X6652Y16418D01*
X6692Y16458D01*
Y16498D01*
X6652D01*
X6612Y16458D01*
X6572Y16498D01*
X6532D01*
Y16458D01*
X6572Y16418D01*
X6532Y16378D01*
Y16338D01*
X6572Y16378D02*
X6592D01*
X6612Y16398D01*
X6632Y16378D01*
X6652D01*
Y16398D01*
X6632Y16418D01*
X6652Y16438D01*
Y16458D01*
X6632D01*
X6612Y16438D01*
X6592Y16458D01*
X6572D01*
Y16438D01*
X6592Y16418D01*
X6572Y16398D01*
Y16378D01*
X5800Y16340D02*
X5840D01*
X5880Y16380D01*
X5920Y16340D01*
X5960D01*
Y16380D01*
X5920Y16420D01*
X5960Y16460D01*
Y16500D01*
X5920D01*
X5880Y16460D01*
X5840Y16500D01*
X5800D01*
Y16460D01*
X5840Y16420D01*
X5800Y16380D01*
Y16340D01*
X5840Y16380D02*
X5860D01*
X5880Y16400D01*
X5900Y16380D01*
X5920D01*
Y16400D01*
X5900Y16420D01*
X5920Y16440D01*
Y16460D01*
X5900D01*
X5880Y16440D01*
X5860Y16460D01*
X5840D01*
Y16440D01*
X5860Y16420D01*
X5840Y16400D01*
Y16380D01*
X4670Y15900D02*
X4710D01*
X4750Y15940D01*
X4790Y15900D01*
X4830D01*
Y15940D01*
X4790Y15980D01*
X4830Y16020D01*
Y16060D01*
X4790D01*
X4750Y16020D01*
X4710Y16060D01*
X4670D01*
Y16020D01*
X4710Y15980D01*
X4670Y15940D01*
Y15900D01*
X4710Y15940D02*
X4730D01*
X4750Y15960D01*
X4770Y15940D01*
X4790D01*
Y15960D01*
X4770Y15980D01*
X4790Y16000D01*
Y16020D01*
X4770D01*
X4750Y16000D01*
X4730Y16020D01*
X4710D01*
Y16000D01*
X4730Y15980D01*
X4710Y15960D01*
Y15940D01*
X5280Y16340D02*
X5320D01*
X5360Y16380D01*
X5400Y16340D01*
X5440D01*
Y16380D01*
X5400Y16420D01*
X5440Y16460D01*
Y16500D01*
X5400D01*
X5360Y16460D01*
X5320Y16500D01*
X5280D01*
Y16460D01*
X5320Y16420D01*
X5280Y16380D01*
Y16340D01*
X5320Y16380D02*
X5340D01*
X5360Y16400D01*
X5380Y16380D01*
X5400D01*
Y16400D01*
X5380Y16420D01*
X5400Y16440D01*
Y16460D01*
X5380D01*
X5360Y16440D01*
X5340Y16460D01*
X5320D01*
Y16440D01*
X5340Y16420D01*
X5320Y16400D01*
Y16380D01*
X4700Y16340D02*
X4740D01*
X4780Y16380D01*
X4820Y16340D01*
X4860D01*
Y16380D01*
X4820Y16420D01*
X4860Y16460D01*
Y16500D01*
X4820D01*
X4780Y16460D01*
X4740Y16500D01*
X4700D01*
Y16460D01*
X4740Y16420D01*
X4700Y16380D01*
Y16340D01*
X4740Y16380D02*
X4760D01*
X4780Y16400D01*
X4800Y16380D01*
X4820D01*
Y16400D01*
X4800Y16420D01*
X4820Y16440D01*
Y16460D01*
X4800D01*
X4780Y16440D01*
X4760Y16460D01*
X4740D01*
Y16440D01*
X4760Y16420D01*
X4740Y16400D01*
Y16380D01*
X8080Y16340D02*
X8120D01*
X8160Y16380D01*
X8200Y16340D01*
X8240D01*
Y16380D01*
X8200Y16420D01*
X8240Y16460D01*
Y16500D01*
X8200D01*
X8160Y16460D01*
X8120Y16500D01*
X8080D01*
Y16460D01*
X8120Y16420D01*
X8080Y16380D01*
Y16340D01*
X8120Y16380D02*
X8140D01*
X8160Y16400D01*
X8180Y16380D01*
X8200D01*
Y16400D01*
X8180Y16420D01*
X8200Y16440D01*
Y16460D01*
X8180D01*
X8160Y16440D01*
X8140Y16460D01*
X8120D01*
Y16440D01*
X8140Y16420D01*
X8120Y16400D01*
Y16380D01*
X7675Y16340D02*
X7715D01*
X7755Y16380D01*
X7795Y16340D01*
X7835D01*
Y16380D01*
X7795Y16420D01*
X7835Y16460D01*
Y16500D01*
X7795D01*
X7755Y16460D01*
X7715Y16500D01*
X7675D01*
Y16460D01*
X7715Y16420D01*
X7675Y16380D01*
Y16340D01*
X7715Y16380D02*
X7735D01*
X7755Y16400D01*
X7775Y16380D01*
X7795D01*
Y16400D01*
X7775Y16420D01*
X7795Y16440D01*
Y16460D01*
X7775D01*
X7755Y16440D01*
X7735Y16460D01*
X7715D01*
Y16440D01*
X7735Y16420D01*
X7715Y16400D01*
Y16380D01*
X8090Y15860D02*
X8130D01*
X8170Y15900D01*
X8210Y15860D01*
X8250D01*
Y15900D01*
X8210Y15940D01*
X8250Y15980D01*
Y16020D01*
X8210D01*
X8170Y15980D01*
X8130Y16020D01*
X8090D01*
Y15980D01*
X8130Y15940D01*
X8090Y15900D01*
Y15860D01*
X8130Y15900D02*
X8150D01*
X8170Y15920D01*
X8190Y15900D01*
X8210D01*
Y15920D01*
X8190Y15940D01*
X8210Y15960D01*
Y15980D01*
X8190D01*
X8170Y15960D01*
X8150Y15980D01*
X8130D01*
Y15960D01*
X8150Y15940D01*
X8130Y15920D01*
Y15900D01*
X7270Y16340D02*
X7310D01*
X7350Y16380D01*
X7390Y16340D01*
X7430D01*
Y16380D01*
X7390Y16420D01*
X7430Y16460D01*
Y16500D01*
X7390D01*
X7350Y16460D01*
X7310Y16500D01*
X7270D01*
Y16460D01*
X7310Y16420D01*
X7270Y16380D01*
Y16340D01*
X7310Y16380D02*
X7330D01*
X7350Y16400D01*
X7370Y16380D01*
X7390D01*
Y16400D01*
X7370Y16420D01*
X7390Y16440D01*
Y16460D01*
X7370D01*
X7350Y16440D01*
X7330Y16460D01*
X7310D01*
Y16440D01*
X7330Y16420D01*
X7310Y16400D01*
Y16380D01*
X5740Y18280D02*
X5780D01*
X5820Y18320D01*
X5860Y18280D01*
X5900D01*
Y18320D01*
X5860Y18360D01*
X5900Y18400D01*
Y18440D01*
X5860D01*
X5820Y18400D01*
X5780Y18440D01*
X5740D01*
Y18400D01*
X5780Y18360D01*
X5740Y18320D01*
Y18280D01*
X5780Y18320D02*
X5800D01*
X5820Y18340D01*
X5840Y18320D01*
X5860D01*
Y18340D01*
X5840Y18360D01*
X5860Y18380D01*
Y18400D01*
X5840D01*
X5820Y18380D01*
X5800Y18400D01*
X5780D01*
Y18380D01*
X5800Y18360D01*
X5780Y18340D01*
Y18320D01*
X5450Y23990D02*
X5490D01*
X5530Y24030D01*
X5570Y23990D01*
X5610D01*
Y24030D01*
X5570Y24070D01*
X5610Y24110D01*
Y24150D01*
X5570D01*
X5530Y24110D01*
X5490Y24150D01*
X5450D01*
Y24110D01*
X5490Y24070D01*
X5450Y24030D01*
Y23990D01*
X5490Y24030D02*
X5510D01*
X5530Y24050D01*
X5550Y24030D01*
X5570D01*
Y24050D01*
X5550Y24070D01*
X5570Y24090D01*
Y24110D01*
X5550D01*
X5530Y24090D01*
X5510Y24110D01*
X5490D01*
Y24090D01*
X5510Y24070D01*
X5490Y24050D01*
Y24030D01*
X4760Y27650D02*
X4800D01*
X4840Y27690D01*
X4880Y27650D01*
X4920D01*
Y27690D01*
X4880Y27730D01*
X4920Y27770D01*
Y27810D01*
X4880D01*
X4840Y27770D01*
X4800Y27810D01*
X4760D01*
Y27770D01*
X4800Y27730D01*
X4760Y27690D01*
Y27650D01*
X4800Y27690D02*
X4820D01*
X4840Y27710D01*
X4860Y27690D01*
X4880D01*
Y27710D01*
X4860Y27730D01*
X4880Y27750D01*
Y27770D01*
X4860D01*
X4840Y27750D01*
X4820Y27770D01*
X4800D01*
Y27750D01*
X4820Y27730D01*
X4800Y27710D01*
Y27690D01*
X7180Y26090D02*
X7220D01*
X7260Y26130D01*
X7300Y26090D01*
X7340D01*
Y26130D01*
X7300Y26170D01*
X7340Y26210D01*
Y26250D01*
X7300D01*
X7260Y26210D01*
X7220Y26250D01*
X7180D01*
Y26210D01*
X7220Y26170D01*
X7180Y26130D01*
Y26090D01*
X7220Y26130D02*
X7240D01*
X7260Y26150D01*
X7280Y26130D01*
X7300D01*
Y26150D01*
X7280Y26170D01*
X7300Y26190D01*
Y26210D01*
X7280D01*
X7260Y26190D01*
X7240Y26210D01*
X7220D01*
Y26190D01*
X7240Y26170D01*
X7220Y26150D01*
Y26130D01*
X5350Y29290D02*
X5390D01*
X5430Y29330D01*
X5470Y29290D01*
X5510D01*
Y29330D01*
X5470Y29370D01*
X5510Y29410D01*
Y29450D01*
X5470D01*
X5430Y29410D01*
X5390Y29450D01*
X5350D01*
Y29410D01*
X5390Y29370D01*
X5350Y29330D01*
Y29290D01*
X5390Y29330D02*
X5410D01*
X5430Y29350D01*
X5450Y29330D01*
X5470D01*
Y29350D01*
X5450Y29370D01*
X5470Y29390D01*
Y29410D01*
X5450D01*
X5430Y29390D01*
X5410Y29410D01*
X5390D01*
Y29390D01*
X5410Y29370D01*
X5390Y29350D01*
Y29330D01*
X6850Y29045D02*
X6890D01*
X6930Y29085D01*
X6970Y29045D01*
X7010D01*
Y29085D01*
X6970Y29125D01*
X7010Y29165D01*
Y29205D01*
X6970D01*
X6930Y29165D01*
X6890Y29205D01*
X6850D01*
Y29165D01*
X6890Y29125D01*
X6850Y29085D01*
Y29045D01*
X6890Y29085D02*
X6910D01*
X6930Y29105D01*
X6950Y29085D01*
X6970D01*
Y29105D01*
X6950Y29125D01*
X6970Y29145D01*
Y29165D01*
X6950D01*
X6930Y29145D01*
X6910Y29165D01*
X6890D01*
Y29145D01*
X6910Y29125D01*
X6890Y29105D01*
Y29085D01*
X6350Y29045D02*
X6390D01*
X6430Y29085D01*
X6470Y29045D01*
X6510D01*
Y29085D01*
X6470Y29125D01*
X6510Y29165D01*
Y29205D01*
X6470D01*
X6430Y29165D01*
X6390Y29205D01*
X6350D01*
Y29165D01*
X6390Y29125D01*
X6350Y29085D01*
Y29045D01*
X6390Y29085D02*
X6410D01*
X6430Y29105D01*
X6450Y29085D01*
X6470D01*
Y29105D01*
X6450Y29125D01*
X6470Y29145D01*
Y29165D01*
X6450D01*
X6430Y29145D01*
X6410Y29165D01*
X6390D01*
Y29145D01*
X6410Y29125D01*
X6390Y29105D01*
Y29085D01*
X6850Y31880D02*
X6890D01*
X6930Y31920D01*
X6970Y31880D01*
X7010D01*
Y31920D01*
X6970Y31960D01*
X7010Y32000D01*
Y32040D01*
X6970D01*
X6930Y32000D01*
X6890Y32040D01*
X6850D01*
Y32000D01*
X6890Y31960D01*
X6850Y31920D01*
Y31880D01*
X6890Y31920D02*
X6910D01*
X6930Y31940D01*
X6950Y31920D01*
X6970D01*
Y31940D01*
X6950Y31960D01*
X6970Y31980D01*
Y32000D01*
X6950D01*
X6930Y31980D01*
X6910Y32000D01*
X6890D01*
Y31980D01*
X6910Y31960D01*
X6890Y31940D01*
Y31920D01*
X6350Y31880D02*
X6390D01*
X6430Y31920D01*
X6470Y31880D01*
X6510D01*
Y31920D01*
X6470Y31960D01*
X6510Y32000D01*
Y32040D01*
X6470D01*
X6430Y32000D01*
X6390Y32040D01*
X6350D01*
Y32000D01*
X6390Y31960D01*
X6350Y31920D01*
Y31880D01*
X6390Y31920D02*
X6410D01*
X6430Y31940D01*
X6450Y31920D01*
X6470D01*
Y31940D01*
X6450Y31960D01*
X6470Y31980D01*
Y32000D01*
X6450D01*
X6430Y31980D01*
X6410Y32000D01*
X6390D01*
Y31980D01*
X6410Y31960D01*
X6390Y31940D01*
Y31920D01*
X6340Y33290D02*
X6380D01*
X6420Y33330D01*
X6460Y33290D01*
X6500D01*
Y33330D01*
X6460Y33370D01*
X6500Y33410D01*
Y33450D01*
X6460D01*
X6420Y33410D01*
X6380Y33450D01*
X6340D01*
Y33410D01*
X6380Y33370D01*
X6340Y33330D01*
Y33290D01*
X6380Y33330D02*
X6400D01*
X6420Y33350D01*
X6440Y33330D01*
X6460D01*
Y33350D01*
X6440Y33370D01*
X6460Y33390D01*
Y33410D01*
X6440D01*
X6420Y33390D01*
X6400Y33410D01*
X6380D01*
Y33390D01*
X6400Y33370D01*
X6380Y33350D01*
Y33330D01*
X5450Y33300D02*
X5490D01*
X5530Y33340D01*
X5570Y33300D01*
X5610D01*
Y33340D01*
X5570Y33380D01*
X5610Y33420D01*
Y33460D01*
X5570D01*
X5530Y33420D01*
X5490Y33460D01*
X5450D01*
Y33420D01*
X5490Y33380D01*
X5450Y33340D01*
Y33300D01*
X5490Y33340D02*
X5510D01*
X5530Y33360D01*
X5550Y33340D01*
X5570D01*
Y33360D01*
X5550Y33380D01*
X5570Y33400D01*
Y33420D01*
X5550D01*
X5530Y33400D01*
X5510Y33420D01*
X5490D01*
Y33400D01*
X5510Y33380D01*
X5490Y33360D01*
Y33340D01*
X3823Y38023D02*
X3863D01*
X3903Y38063D01*
X3943Y38023D01*
X3983D01*
Y38063D01*
X3943Y38103D01*
X3983Y38143D01*
Y38183D01*
X3943D01*
X3903Y38143D01*
X3863Y38183D01*
X3823D01*
Y38143D01*
X3863Y38103D01*
X3823Y38063D01*
Y38023D01*
X3863Y38063D02*
X3883D01*
X3903Y38083D01*
X3923Y38063D01*
X3943D01*
Y38083D01*
X3923Y38103D01*
X3943Y38123D01*
Y38143D01*
X3923D01*
X3903Y38123D01*
X3883Y38143D01*
X3863D01*
Y38123D01*
X3883Y38103D01*
X3863Y38083D01*
Y38063D01*
X3823Y36703D02*
X3863D01*
X3903Y36743D01*
X3943Y36703D01*
X3983D01*
Y36743D01*
X3943Y36783D01*
X3983Y36823D01*
Y36863D01*
X3943D01*
X3903Y36823D01*
X3863Y36863D01*
X3823D01*
Y36823D01*
X3863Y36783D01*
X3823Y36743D01*
Y36703D01*
X3863Y36743D02*
X3883D01*
X3903Y36763D01*
X3923Y36743D01*
X3943D01*
Y36763D01*
X3923Y36783D01*
X3943Y36803D01*
Y36823D01*
X3923D01*
X3903Y36803D01*
X3883Y36823D01*
X3863D01*
Y36803D01*
X3883Y36783D01*
X3863Y36763D01*
Y36743D01*
X3823Y35383D02*
X3863D01*
X3903Y35423D01*
X3943Y35383D01*
X3983D01*
Y35423D01*
X3943Y35463D01*
X3983Y35503D01*
Y35543D01*
X3943D01*
X3903Y35503D01*
X3863Y35543D01*
X3823D01*
Y35503D01*
X3863Y35463D01*
X3823Y35423D01*
Y35383D01*
X3863Y35423D02*
X3883D01*
X3903Y35443D01*
X3923Y35423D01*
X3943D01*
Y35443D01*
X3923Y35463D01*
X3943Y35483D01*
Y35503D01*
X3923D01*
X3903Y35483D01*
X3883Y35503D01*
X3863D01*
Y35483D01*
X3883Y35463D01*
X3863Y35443D01*
Y35423D01*
X3823Y34063D02*
X3863D01*
X3903Y34103D01*
X3943Y34063D01*
X3983D01*
Y34103D01*
X3943Y34143D01*
X3983Y34183D01*
Y34223D01*
X3943D01*
X3903Y34183D01*
X3863Y34223D01*
X3823D01*
Y34183D01*
X3863Y34143D01*
X3823Y34103D01*
Y34063D01*
X3863Y34103D02*
X3883D01*
X3903Y34123D01*
X3923Y34103D01*
X3943D01*
Y34123D01*
X3923Y34143D01*
X3943Y34163D01*
Y34183D01*
X3923D01*
X3903Y34163D01*
X3883Y34183D01*
X3863D01*
Y34163D01*
X3883Y34143D01*
X3863Y34123D01*
Y34103D01*
X6545Y34063D02*
X6585D01*
X6625Y34103D01*
X6665Y34063D01*
X6705D01*
Y34103D01*
X6665Y34143D01*
X6705Y34183D01*
Y34223D01*
X6665D01*
X6625Y34183D01*
X6585Y34223D01*
X6545D01*
Y34183D01*
X6585Y34143D01*
X6545Y34103D01*
Y34063D01*
X6585Y34103D02*
X6605D01*
X6625Y34123D01*
X6645Y34103D01*
X6665D01*
Y34123D01*
X6645Y34143D01*
X6665Y34163D01*
Y34183D01*
X6645D01*
X6625Y34163D01*
X6605Y34183D01*
X6585D01*
Y34163D01*
X6605Y34143D01*
X6585Y34123D01*
Y34103D01*
X6545Y35383D02*
X6585D01*
X6625Y35423D01*
X6665Y35383D01*
X6705D01*
Y35423D01*
X6665Y35463D01*
X6705Y35503D01*
Y35543D01*
X6665D01*
X6625Y35503D01*
X6585Y35543D01*
X6545D01*
Y35503D01*
X6585Y35463D01*
X6545Y35423D01*
Y35383D01*
X6585Y35423D02*
X6605D01*
X6625Y35443D01*
X6645Y35423D01*
X6665D01*
Y35443D01*
X6645Y35463D01*
X6665Y35483D01*
Y35503D01*
X6645D01*
X6625Y35483D01*
X6605Y35503D01*
X6585D01*
Y35483D01*
X6605Y35463D01*
X6585Y35443D01*
Y35423D01*
X6545Y36703D02*
X6585D01*
X6625Y36743D01*
X6665Y36703D01*
X6705D01*
Y36743D01*
X6665Y36783D01*
X6705Y36823D01*
Y36863D01*
X6665D01*
X6625Y36823D01*
X6585Y36863D01*
X6545D01*
Y36823D01*
X6585Y36783D01*
X6545Y36743D01*
Y36703D01*
X6585Y36743D02*
X6605D01*
X6625Y36763D01*
X6645Y36743D01*
X6665D01*
Y36763D01*
X6645Y36783D01*
X6665Y36803D01*
Y36823D01*
X6645D01*
X6625Y36803D01*
X6605Y36823D01*
X6585D01*
Y36803D01*
X6605Y36783D01*
X6585Y36763D01*
Y36743D01*
X6553Y38023D02*
X6593D01*
X6633Y38063D01*
X6673Y38023D01*
X6713D01*
Y38063D01*
X6673Y38103D01*
X6713Y38143D01*
Y38183D01*
X6673D01*
X6633Y38143D01*
X6593Y38183D01*
X6553D01*
Y38143D01*
X6593Y38103D01*
X6553Y38063D01*
Y38023D01*
X6593Y38063D02*
X6613D01*
X6633Y38083D01*
X6653Y38063D01*
X6673D01*
Y38083D01*
X6653Y38103D01*
X6673Y38123D01*
Y38143D01*
X6653D01*
X6633Y38123D01*
X6613Y38143D01*
X6593D01*
Y38123D01*
X6613Y38103D01*
X6593Y38083D01*
Y38063D01*
X13190Y34812D02*
X13230D01*
X13270Y34852D01*
X13310Y34812D01*
X13350D01*
Y34852D01*
X13310Y34892D01*
X13350Y34932D01*
Y34972D01*
X13310D01*
X13270Y34932D01*
X13230Y34972D01*
X13190D01*
Y34932D01*
X13230Y34892D01*
X13190Y34852D01*
Y34812D01*
X13230Y34852D02*
X13250D01*
X13270Y34872D01*
X13290Y34852D01*
X13310D01*
Y34872D01*
X13290Y34892D01*
X13310Y34912D01*
Y34932D01*
X13290D01*
X13270Y34912D01*
X13250Y34932D01*
X13230D01*
Y34912D01*
X13250Y34892D01*
X13230Y34872D01*
Y34852D01*
X13190Y38132D02*
X13230D01*
X13270Y38172D01*
X13310Y38132D01*
X13350D01*
Y38172D01*
X13310Y38212D01*
X13350Y38252D01*
Y38292D01*
X13310D01*
X13270Y38252D01*
X13230Y38292D01*
X13190D01*
Y38252D01*
X13230Y38212D01*
X13190Y38172D01*
Y38132D01*
X13230Y38172D02*
X13250D01*
X13270Y38192D01*
X13290Y38172D01*
X13310D01*
Y38192D01*
X13290Y38212D01*
X13310Y38232D01*
Y38252D01*
X13290D01*
X13270Y38232D01*
X13250Y38252D01*
X13230D01*
Y38232D01*
X13250Y38212D01*
X13230Y38192D01*
Y38172D01*
X13190Y32422D02*
X13230D01*
X13270Y32462D01*
X13310Y32422D01*
X13350D01*
Y32462D01*
X13310Y32502D01*
X13350Y32542D01*
Y32582D01*
X13310D01*
X13270Y32542D01*
X13230Y32582D01*
X13190D01*
Y32542D01*
X13230Y32502D01*
X13190Y32462D01*
Y32422D01*
X13230Y32462D02*
X13250D01*
X13270Y32482D01*
X13290Y32462D01*
X13310D01*
Y32482D01*
X13290Y32502D01*
X13310Y32522D01*
Y32542D01*
X13290D01*
X13270Y32522D01*
X13250Y32542D01*
X13230D01*
Y32522D01*
X13250Y32502D01*
X13230Y32482D01*
Y32462D01*
X13190Y35742D02*
X13230D01*
X13270Y35782D01*
X13310Y35742D01*
X13350D01*
Y35782D01*
X13310Y35822D01*
X13350Y35862D01*
Y35902D01*
X13310D01*
X13270Y35862D01*
X13230Y35902D01*
X13190D01*
Y35862D01*
X13230Y35822D01*
X13190Y35782D01*
Y35742D01*
X13230Y35782D02*
X13250D01*
X13270Y35802D01*
X13290Y35782D01*
X13310D01*
Y35802D01*
X13290Y35822D01*
X13310Y35842D01*
Y35862D01*
X13290D01*
X13270Y35842D01*
X13250Y35862D01*
X13230D01*
Y35842D01*
X13250Y35822D01*
X13230Y35802D01*
Y35782D01*
X25510Y35740D02*
X25550D01*
X25590Y35780D01*
X25630Y35740D01*
X25670D01*
Y35780D01*
X25630Y35820D01*
X25670Y35860D01*
Y35900D01*
X25630D01*
X25590Y35860D01*
X25550Y35900D01*
X25510D01*
Y35860D01*
X25550Y35820D01*
X25510Y35780D01*
Y35740D01*
X25550Y35780D02*
X25570D01*
X25590Y35800D01*
X25610Y35780D01*
X25630D01*
Y35800D01*
X25610Y35820D01*
X25630Y35840D01*
Y35860D01*
X25610D01*
X25590Y35840D01*
X25570Y35860D01*
X25550D01*
Y35840D01*
X25570Y35820D01*
X25550Y35800D01*
Y35780D01*
X25510Y32420D02*
X25550D01*
X25590Y32460D01*
X25630Y32420D01*
X25670D01*
Y32460D01*
X25630Y32500D01*
X25670Y32540D01*
Y32580D01*
X25630D01*
X25590Y32540D01*
X25550Y32580D01*
X25510D01*
Y32540D01*
X25550Y32500D01*
X25510Y32460D01*
Y32420D01*
X25550Y32460D02*
X25570D01*
X25590Y32480D01*
X25610Y32460D01*
X25630D01*
Y32480D01*
X25610Y32500D01*
X25630Y32520D01*
Y32540D01*
X25610D01*
X25590Y32520D01*
X25570Y32540D01*
X25550D01*
Y32520D01*
X25570Y32500D01*
X25550Y32480D01*
Y32460D01*
X25510Y38130D02*
X25550D01*
X25590Y38170D01*
X25630Y38130D01*
X25670D01*
Y38170D01*
X25630Y38210D01*
X25670Y38250D01*
Y38290D01*
X25630D01*
X25590Y38250D01*
X25550Y38290D01*
X25510D01*
Y38250D01*
X25550Y38210D01*
X25510Y38170D01*
Y38130D01*
X25550Y38170D02*
X25570D01*
X25590Y38190D01*
X25610Y38170D01*
X25630D01*
Y38190D01*
X25610Y38210D01*
X25630Y38230D01*
Y38250D01*
X25610D01*
X25590Y38230D01*
X25570Y38250D01*
X25550D01*
Y38230D01*
X25570Y38210D01*
X25550Y38190D01*
Y38170D01*
X25510Y34810D02*
X25550D01*
X25590Y34850D01*
X25630Y34810D01*
X25670D01*
Y34850D01*
X25630Y34890D01*
X25670Y34930D01*
Y34970D01*
X25630D01*
X25590Y34930D01*
X25550Y34970D01*
X25510D01*
Y34930D01*
X25550Y34890D01*
X25510Y34850D01*
Y34810D01*
X25550Y34850D02*
X25570D01*
X25590Y34870D01*
X25610Y34850D01*
X25630D01*
Y34870D01*
X25610Y34890D01*
X25630Y34910D01*
Y34930D01*
X25610D01*
X25590Y34910D01*
X25570Y34930D01*
X25550D01*
Y34910D01*
X25570Y34890D01*
X25550Y34870D01*
Y34850D01*
X28870Y32620D02*
X28910D01*
X28950Y32660D01*
X28990Y32620D01*
X29030D01*
Y32660D01*
X28990Y32700D01*
X29030Y32740D01*
Y32780D01*
X28990D01*
X28950Y32740D01*
X28910Y32780D01*
X28870D01*
Y32740D01*
X28910Y32700D01*
X28870Y32660D01*
Y32620D01*
X28910Y32660D02*
X28930D01*
X28950Y32680D01*
X28970Y32660D01*
X28990D01*
Y32680D01*
X28970Y32700D01*
X28990Y32720D01*
Y32740D01*
X28970D01*
X28950Y32720D01*
X28930Y32740D01*
X28910D01*
Y32720D01*
X28930Y32700D01*
X28910Y32680D01*
Y32660D01*
X28430Y32620D02*
X28470D01*
X28510Y32660D01*
X28550Y32620D01*
X28590D01*
Y32660D01*
X28550Y32700D01*
X28590Y32740D01*
Y32780D01*
X28550D01*
X28510Y32740D01*
X28470Y32780D01*
X28430D01*
Y32740D01*
X28470Y32700D01*
X28430Y32660D01*
Y32620D01*
X28470Y32660D02*
X28490D01*
X28510Y32680D01*
X28530Y32660D01*
X28550D01*
Y32680D01*
X28530Y32700D01*
X28550Y32720D01*
Y32740D01*
X28530D01*
X28510Y32720D01*
X28490Y32740D01*
X28470D01*
Y32720D01*
X28490Y32700D01*
X28470Y32680D01*
Y32660D01*
X28430Y33020D02*
X28470D01*
X28510Y33060D01*
X28550Y33020D01*
X28590D01*
Y33060D01*
X28550Y33100D01*
X28590Y33140D01*
Y33180D01*
X28550D01*
X28510Y33140D01*
X28470Y33180D01*
X28430D01*
Y33140D01*
X28470Y33100D01*
X28430Y33060D01*
Y33020D01*
X28470Y33060D02*
X28490D01*
X28510Y33080D01*
X28530Y33060D01*
X28550D01*
Y33080D01*
X28530Y33100D01*
X28550Y33120D01*
Y33140D01*
X28530D01*
X28510Y33120D01*
X28490Y33140D01*
X28470D01*
Y33120D01*
X28490Y33100D01*
X28470Y33080D01*
Y33060D01*
X27875Y33828D02*
X27915D01*
X27955Y33867D01*
X27995Y33828D01*
X28035D01*
Y33867D01*
X27995Y33907D01*
X28035Y33948D01*
Y33988D01*
X27995D01*
X27955Y33948D01*
X27915Y33988D01*
X27875D01*
Y33948D01*
X27915Y33907D01*
X27875Y33867D01*
Y33828D01*
X27915Y33867D02*
X27935D01*
X27955Y33888D01*
X27975Y33867D01*
X27995D01*
Y33888D01*
X27975Y33907D01*
X27995Y33928D01*
Y33948D01*
X27975D01*
X27955Y33928D01*
X27935Y33948D01*
X27915D01*
Y33928D01*
X27935Y33907D01*
X27915Y33888D01*
Y33867D01*
X28200Y33830D02*
X28240D01*
X28280Y33870D01*
X28320Y33830D01*
X28360D01*
Y33870D01*
X28320Y33910D01*
X28360Y33950D01*
Y33990D01*
X28320D01*
X28280Y33950D01*
X28240Y33990D01*
X28200D01*
Y33950D01*
X28240Y33910D01*
X28200Y33870D01*
Y33830D01*
X28240Y33870D02*
X28260D01*
X28280Y33890D01*
X28300Y33870D01*
X28320D01*
Y33890D01*
X28300Y33910D01*
X28320Y33930D01*
Y33950D01*
X28300D01*
X28280Y33930D01*
X28260Y33950D01*
X28240D01*
Y33930D01*
X28260Y33910D01*
X28240Y33890D01*
Y33870D01*
X28510Y36240D02*
X28550D01*
X28590Y36280D01*
X28630Y36240D01*
X28670D01*
Y36280D01*
X28630Y36320D01*
X28670Y36360D01*
Y36400D01*
X28630D01*
X28590Y36360D01*
X28550Y36400D01*
X28510D01*
Y36360D01*
X28550Y36320D01*
X28510Y36280D01*
Y36240D01*
X28550Y36280D02*
X28570D01*
X28590Y36300D01*
X28610Y36280D01*
X28630D01*
Y36300D01*
X28610Y36320D01*
X28630Y36340D01*
Y36360D01*
X28610D01*
X28590Y36340D01*
X28570Y36360D01*
X28550D01*
Y36340D01*
X28570Y36320D01*
X28550Y36300D01*
Y36280D01*
X28970Y36240D02*
X29010D01*
X29050Y36280D01*
X29090Y36240D01*
X29130D01*
Y36280D01*
X29090Y36320D01*
X29130Y36360D01*
Y36400D01*
X29090D01*
X29050Y36360D01*
X29010Y36400D01*
X28970D01*
Y36360D01*
X29010Y36320D01*
X28970Y36280D01*
Y36240D01*
X29010Y36280D02*
X29030D01*
X29050Y36300D01*
X29070Y36280D01*
X29090D01*
Y36300D01*
X29070Y36320D01*
X29090Y36340D01*
Y36360D01*
X29070D01*
X29050Y36340D01*
X29030Y36360D01*
X29010D01*
Y36340D01*
X29030Y36320D01*
X29010Y36300D01*
Y36280D01*
X28970Y36580D02*
X29010D01*
X29050Y36620D01*
X29090Y36580D01*
X29130D01*
Y36620D01*
X29090Y36660D01*
X29130Y36700D01*
Y36740D01*
X29090D01*
X29050Y36700D01*
X29010Y36740D01*
X28970D01*
Y36700D01*
X29010Y36660D01*
X28970Y36620D01*
Y36580D01*
X29010Y36620D02*
X29030D01*
X29050Y36640D01*
X29070Y36620D01*
X29090D01*
Y36640D01*
X29070Y36660D01*
X29090Y36680D01*
Y36700D01*
X29070D01*
X29050Y36680D01*
X29030Y36700D01*
X29010D01*
Y36680D01*
X29030Y36660D01*
X29010Y36640D01*
Y36620D01*
X28510Y36570D02*
X28550D01*
X28590Y36610D01*
X28630Y36570D01*
X28670D01*
Y36610D01*
X28630Y36650D01*
X28670Y36690D01*
Y36730D01*
X28630D01*
X28590Y36690D01*
X28550Y36730D01*
X28510D01*
Y36690D01*
X28550Y36650D01*
X28510Y36610D01*
Y36570D01*
X28550Y36610D02*
X28570D01*
X28590Y36630D01*
X28610Y36610D01*
X28630D01*
Y36630D01*
X28610Y36650D01*
X28630Y36670D01*
Y36690D01*
X28610D01*
X28590Y36670D01*
X28570Y36690D01*
X28550D01*
Y36670D01*
X28570Y36650D01*
X28550Y36630D01*
Y36610D01*
X32600Y26416D02*
X32640D01*
X32680Y26456D01*
X32720Y26416D01*
X32760D01*
Y26456D01*
X32720Y26496D01*
X32760Y26536D01*
Y26576D01*
X32720D01*
X32680Y26536D01*
X32640Y26576D01*
X32600D01*
Y26536D01*
X32640Y26496D01*
X32600Y26456D01*
Y26416D01*
X32640Y26456D02*
X32660D01*
X32680Y26476D01*
X32700Y26456D01*
X32720D01*
Y26476D01*
X32700Y26496D01*
X32720Y26516D01*
Y26536D01*
X32700D01*
X32680Y26516D01*
X32660Y26536D01*
X32640D01*
Y26516D01*
X32660Y26496D01*
X32640Y26476D01*
Y26456D01*
X33274Y25916D02*
X33314D01*
X33354Y25956D01*
X33394Y25916D01*
X33434D01*
Y25956D01*
X33394Y25996D01*
X33434Y26036D01*
Y26076D01*
X33394D01*
X33354Y26036D01*
X33314Y26076D01*
X33274D01*
Y26036D01*
X33314Y25996D01*
X33274Y25956D01*
Y25916D01*
X33314Y25956D02*
X33334D01*
X33354Y25976D01*
X33374Y25956D01*
X33394D01*
Y25976D01*
X33374Y25996D01*
X33394Y26016D01*
Y26036D01*
X33374D01*
X33354Y26016D01*
X33334Y26036D01*
X33314D01*
Y26016D01*
X33334Y25996D01*
X33314Y25976D01*
Y25956D01*
X32640Y21340D02*
X32680D01*
X32720Y21380D01*
X32760Y21340D01*
X32800D01*
Y21380D01*
X32760Y21420D01*
X32800Y21460D01*
Y21500D01*
X32760D01*
X32720Y21460D01*
X32680Y21500D01*
X32640D01*
Y21460D01*
X32680Y21420D01*
X32640Y21380D01*
Y21340D01*
X32680Y21380D02*
X32700D01*
X32720Y21400D01*
X32740Y21380D01*
X32760D01*
Y21400D01*
X32740Y21420D01*
X32760Y21440D01*
Y21460D01*
X32740D01*
X32720Y21440D01*
X32700Y21460D01*
X32680D01*
Y21440D01*
X32700Y21420D01*
X32680Y21400D01*
Y21380D01*
X32690Y16070D02*
X32730D01*
X32770Y16110D01*
X32810Y16070D01*
X32850D01*
Y16110D01*
X32810Y16150D01*
X32850Y16190D01*
Y16230D01*
X32810D01*
X32770Y16190D01*
X32730Y16230D01*
X32690D01*
Y16190D01*
X32730Y16150D01*
X32690Y16110D01*
Y16070D01*
X32730Y16110D02*
X32750D01*
X32770Y16130D01*
X32790Y16110D01*
X32810D01*
Y16130D01*
X32790Y16150D01*
X32810Y16170D01*
Y16190D01*
X32790D01*
X32770Y16170D01*
X32750Y16190D01*
X32730D01*
Y16170D01*
X32750Y16150D01*
X32730Y16130D01*
Y16110D01*
X32690Y12630D02*
X32730D01*
X32770Y12670D01*
X32810Y12630D01*
X32850D01*
Y12670D01*
X32810Y12710D01*
X32850Y12750D01*
Y12790D01*
X32810D01*
X32770Y12750D01*
X32730Y12790D01*
X32690D01*
Y12750D01*
X32730Y12710D01*
X32690Y12670D01*
Y12630D01*
X32730Y12670D02*
X32750D01*
X32770Y12690D01*
X32790Y12670D01*
X32810D01*
Y12690D01*
X32790Y12710D01*
X32810Y12730D01*
Y12750D01*
X32790D01*
X32770Y12730D01*
X32750Y12750D01*
X32730D01*
Y12730D01*
X32750Y12710D01*
X32730Y12690D01*
Y12670D01*
X33690Y12630D02*
X33730D01*
X33770Y12670D01*
X33810Y12630D01*
X33850D01*
Y12670D01*
X33810Y12710D01*
X33850Y12750D01*
Y12790D01*
X33810D01*
X33770Y12750D01*
X33730Y12790D01*
X33690D01*
Y12750D01*
X33730Y12710D01*
X33690Y12670D01*
Y12630D01*
X33730Y12670D02*
X33750D01*
X33770Y12690D01*
X33790Y12670D01*
X33810D01*
Y12690D01*
X33790Y12710D01*
X33810Y12730D01*
Y12750D01*
X33790D01*
X33770Y12730D01*
X33750Y12750D01*
X33730D01*
Y12730D01*
X33750Y12710D01*
X33730Y12690D01*
Y12670D01*
X31960Y18020D02*
X32000D01*
X32040Y18060D01*
X32080Y18020D01*
X32120D01*
Y18060D01*
X32080Y18100D01*
X32120Y18140D01*
Y18180D01*
X32080D01*
X32040Y18140D01*
X32000Y18180D01*
X31960D01*
Y18140D01*
X32000Y18100D01*
X31960Y18060D01*
Y18020D01*
X32000Y18060D02*
X32020D01*
X32040Y18080D01*
X32060Y18060D01*
X32080D01*
Y18080D01*
X32060Y18100D01*
X32080Y18120D01*
Y18140D01*
X32060D01*
X32040Y18120D01*
X32020Y18140D01*
X32000D01*
Y18120D01*
X32020Y18100D01*
X32000Y18080D01*
Y18060D01*
X31450Y16610D02*
X31490D01*
X31530Y16650D01*
X31570Y16610D01*
X31610D01*
Y16650D01*
X31570Y16690D01*
X31610Y16730D01*
Y16770D01*
X31570D01*
X31530Y16730D01*
X31490Y16770D01*
X31450D01*
Y16730D01*
X31490Y16690D01*
X31450Y16650D01*
Y16610D01*
X31490Y16650D02*
X31510D01*
X31530Y16670D01*
X31550Y16650D01*
X31570D01*
Y16670D01*
X31550Y16690D01*
X31570Y16710D01*
Y16730D01*
X31550D01*
X31530Y16710D01*
X31510Y16730D01*
X31490D01*
Y16710D01*
X31510Y16690D01*
X31490Y16670D01*
Y16650D01*
X17980Y9350D02*
X18020D01*
X18060Y9390D01*
X18100Y9350D01*
X18140D01*
Y9390D01*
X18100Y9430D01*
X18140Y9470D01*
Y9510D01*
X18100D01*
X18060Y9470D01*
X18020Y9510D01*
X17980D01*
Y9470D01*
X18020Y9430D01*
X17980Y9390D01*
Y9350D01*
X18020Y9390D02*
X18040D01*
X18060Y9410D01*
X18080Y9390D01*
X18100D01*
Y9410D01*
X18080Y9430D01*
X18100Y9450D01*
Y9470D01*
X18080D01*
X18060Y9450D01*
X18040Y9470D01*
X18020D01*
Y9450D01*
X18040Y9430D01*
X18020Y9410D01*
Y9390D01*
X18480Y9350D02*
X18520D01*
X18560Y9390D01*
X18600Y9350D01*
X18640D01*
Y9390D01*
X18600Y9430D01*
X18640Y9470D01*
Y9510D01*
X18600D01*
X18560Y9470D01*
X18520Y9510D01*
X18480D01*
Y9470D01*
X18520Y9430D01*
X18480Y9390D01*
Y9350D01*
X18520Y9390D02*
X18540D01*
X18560Y9410D01*
X18580Y9390D01*
X18600D01*
Y9410D01*
X18580Y9430D01*
X18600Y9450D01*
Y9470D01*
X18580D01*
X18560Y9450D01*
X18540Y9470D01*
X18520D01*
Y9450D01*
X18540Y9430D01*
X18520Y9410D01*
Y9390D01*
X19580Y9350D02*
X19620D01*
X19660Y9390D01*
X19700Y9350D01*
X19740D01*
Y9390D01*
X19700Y9430D01*
X19740Y9470D01*
Y9510D01*
X19700D01*
X19660Y9470D01*
X19620Y9510D01*
X19580D01*
Y9470D01*
X19620Y9430D01*
X19580Y9390D01*
Y9350D01*
X19620Y9390D02*
X19640D01*
X19660Y9410D01*
X19680Y9390D01*
X19700D01*
Y9410D01*
X19680Y9430D01*
X19700Y9450D01*
Y9470D01*
X19680D01*
X19660Y9450D01*
X19640Y9470D01*
X19620D01*
Y9450D01*
X19640Y9430D01*
X19620Y9410D01*
Y9390D01*
X18980Y9350D02*
X19020D01*
X19060Y9390D01*
X19100Y9350D01*
X19140D01*
Y9390D01*
X19100Y9430D01*
X19140Y9470D01*
Y9510D01*
X19100D01*
X19060Y9470D01*
X19020Y9510D01*
X18980D01*
Y9470D01*
X19020Y9430D01*
X18980Y9390D01*
Y9350D01*
X19020Y9390D02*
X19040D01*
X19060Y9410D01*
X19080Y9390D01*
X19100D01*
Y9410D01*
X19080Y9430D01*
X19100Y9450D01*
Y9470D01*
X19080D01*
X19060Y9450D01*
X19040Y9470D01*
X19020D01*
Y9450D01*
X19040Y9430D01*
X19020Y9410D01*
Y9390D01*
X21780Y9340D02*
X21820D01*
X21860Y9380D01*
X21900Y9340D01*
X21940D01*
Y9380D01*
X21900Y9420D01*
X21940Y9460D01*
Y9500D01*
X21900D01*
X21860Y9460D01*
X21820Y9500D01*
X21780D01*
Y9460D01*
X21820Y9420D01*
X21780Y9380D01*
Y9340D01*
X21820Y9380D02*
X21840D01*
X21860Y9400D01*
X21880Y9380D01*
X21900D01*
Y9400D01*
X21880Y9420D01*
X21900Y9440D01*
Y9460D01*
X21880D01*
X21860Y9440D01*
X21840Y9460D01*
X21820D01*
Y9440D01*
X21840Y9420D01*
X21820Y9400D01*
Y9380D01*
X20980Y9350D02*
X21020D01*
X21060Y9390D01*
X21100Y9350D01*
X21140D01*
Y9390D01*
X21100Y9430D01*
X21140Y9470D01*
Y9510D01*
X21100D01*
X21060Y9470D01*
X21020Y9510D01*
X20980D01*
Y9470D01*
X21020Y9430D01*
X20980Y9390D01*
Y9350D01*
X21020Y9390D02*
X21040D01*
X21060Y9410D01*
X21080Y9390D01*
X21100D01*
Y9410D01*
X21080Y9430D01*
X21100Y9450D01*
Y9470D01*
X21080D01*
X21060Y9450D01*
X21040Y9470D01*
X21020D01*
Y9450D01*
X21040Y9430D01*
X21020Y9410D01*
Y9390D01*
X23430Y7300D02*
X23470D01*
X23510Y7340D01*
X23550Y7300D01*
X23590D01*
Y7340D01*
X23550Y7380D01*
X23590Y7420D01*
Y7460D01*
X23550D01*
X23510Y7420D01*
X23470Y7460D01*
X23430D01*
Y7420D01*
X23470Y7380D01*
X23430Y7340D01*
Y7300D01*
X23470Y7340D02*
X23490D01*
X23510Y7360D01*
X23530Y7340D01*
X23550D01*
Y7360D01*
X23530Y7380D01*
X23550Y7400D01*
Y7420D01*
X23530D01*
X23510Y7400D01*
X23490Y7420D01*
X23470D01*
Y7400D01*
X23490Y7380D01*
X23470Y7360D01*
Y7340D01*
X20980Y6240D02*
X21020D01*
X21060Y6280D01*
X21100Y6240D01*
X21140D01*
Y6280D01*
X21100Y6320D01*
X21140Y6360D01*
Y6400D01*
X21100D01*
X21060Y6360D01*
X21020Y6400D01*
X20980D01*
Y6360D01*
X21020Y6320D01*
X20980Y6280D01*
Y6240D01*
X21020Y6280D02*
X21040D01*
X21060Y6300D01*
X21080Y6280D01*
X21100D01*
Y6300D01*
X21080Y6320D01*
X21100Y6340D01*
Y6360D01*
X21080D01*
X21060Y6340D01*
X21040Y6360D01*
X21020D01*
Y6340D01*
X21040Y6320D01*
X21020Y6300D01*
Y6280D01*
X-105970Y-63760D02*
Y-63627D01*
X-105903Y-63560D01*
X-105837Y-63627D01*
Y-63760D01*
Y-63660D01*
X-105970D01*
X13310Y14800D02*
Y14600D01*
X13410D01*
X13443Y14633D01*
Y14667D01*
X13410Y14700D01*
X13310D01*
X13410D01*
X13443Y14733D01*
Y14767D01*
X13410Y14800D01*
X13310D01*
X15590Y14100D02*
Y13900D01*
X15690D01*
X15723Y13933D01*
Y13967D01*
X15690Y14000D01*
X15590D01*
X15690D01*
X15723Y14033D01*
Y14067D01*
X15690Y14100D01*
X15590D01*
X18710Y14480D02*
Y14280D01*
X18810D01*
X18843Y14313D01*
Y14347D01*
X18810Y14380D01*
X18710D01*
X18810D01*
X18843Y14413D01*
Y14447D01*
X18810Y14480D01*
X18710D01*
X21270Y15920D02*
Y15720D01*
X21370D01*
X21403Y15753D01*
Y15787D01*
X21370Y15820D01*
X21270D01*
X21370D01*
X21403Y15853D01*
Y15887D01*
X21370Y15920D01*
X21270D01*
X23400Y15860D02*
Y15660D01*
X23500D01*
X23533Y15693D01*
Y15727D01*
X23500Y15760D01*
X23400D01*
X23500D01*
X23533Y15793D01*
Y15827D01*
X23500Y15860D01*
X23400D01*
X25590Y15850D02*
Y15650D01*
X25690D01*
X25723Y15683D01*
Y15717D01*
X25690Y15750D01*
X25590D01*
X25690D01*
X25723Y15783D01*
Y15817D01*
X25690Y15850D01*
X25590D01*
X24630Y18040D02*
Y17840D01*
X24730D01*
X24763Y17873D01*
Y17907D01*
X24730Y17940D01*
X24630D01*
X24730D01*
X24763Y17973D01*
Y18007D01*
X24730Y18040D01*
X24630D01*
X27800Y24780D02*
Y24580D01*
X27900D01*
X27933Y24613D01*
Y24647D01*
X27900Y24680D01*
X27800D01*
X27900D01*
X27933Y24713D01*
Y24747D01*
X27900Y24780D01*
X27800D01*
X26710Y23590D02*
Y23390D01*
X26810D01*
X26843Y23423D01*
Y23457D01*
X26810Y23490D01*
X26710D01*
X26810D01*
X26843Y23523D01*
Y23557D01*
X26810Y23590D01*
X26710D01*
X27750Y23570D02*
Y23370D01*
X27850D01*
X27883Y23403D01*
Y23437D01*
X27850Y23470D01*
X27750D01*
X27850D01*
X27883Y23503D01*
Y23537D01*
X27850Y23570D01*
X27750D01*
X26740Y22900D02*
Y22700D01*
X26840D01*
X26873Y22733D01*
Y22767D01*
X26840Y22800D01*
X26740D01*
X26840D01*
X26873Y22833D01*
Y22867D01*
X26840Y22900D01*
X26740D01*
X28030Y22840D02*
Y22640D01*
X28130D01*
X28163Y22673D01*
Y22707D01*
X28130Y22740D01*
X28030D01*
X28130D01*
X28163Y22773D01*
Y22807D01*
X28130Y22840D01*
X28030D01*
X28470Y27120D02*
Y26920D01*
X28570D01*
X28603Y26953D01*
Y26987D01*
X28570Y27020D01*
X28470D01*
X28570D01*
X28603Y27053D01*
Y27087D01*
X28570Y27120D01*
X28470D01*
X28070Y26690D02*
Y26490D01*
X28170D01*
X28203Y26523D01*
Y26557D01*
X28170Y26590D01*
X28070D01*
X28170D01*
X28203Y26623D01*
Y26657D01*
X28170Y26690D01*
X28070D01*
X26570Y25940D02*
Y25740D01*
X26670D01*
X26703Y25773D01*
Y25807D01*
X26670Y25840D01*
X26570D01*
X26670D01*
X26703Y25873D01*
Y25907D01*
X26670Y25940D01*
X26570D01*
X28150Y27530D02*
Y27330D01*
X28250D01*
X28283Y27363D01*
Y27397D01*
X28250Y27430D01*
X28150D01*
X28250D01*
X28283Y27463D01*
Y27497D01*
X28250Y27530D01*
X28150D01*
X26750Y27670D02*
Y27470D01*
X26850D01*
X26883Y27503D01*
Y27537D01*
X26850Y27570D01*
X26750D01*
X26850D01*
X26883Y27603D01*
Y27637D01*
X26850Y27670D01*
X26750D01*
X29230Y30040D02*
Y29840D01*
X29330D01*
X29363Y29873D01*
Y29907D01*
X29330Y29940D01*
X29230D01*
X29330D01*
X29363Y29973D01*
Y30007D01*
X29330Y30040D01*
X29230D01*
X18460Y36380D02*
Y36180D01*
X18560D01*
X18593Y36213D01*
Y36247D01*
X18560Y36280D01*
X18460D01*
X18560D01*
X18593Y36313D01*
Y36347D01*
X18560Y36380D01*
X18460D01*
X18510Y35030D02*
Y34830D01*
X18610D01*
X18643Y34863D01*
Y34897D01*
X18610Y34930D01*
X18510D01*
X18610D01*
X18643Y34963D01*
Y34997D01*
X18610Y35030D01*
X18510D01*
X14090Y36300D02*
Y36100D01*
X14190D01*
X14223Y36133D01*
Y36167D01*
X14190Y36200D01*
X14090D01*
X14190D01*
X14223Y36233D01*
Y36267D01*
X14190Y36300D01*
X14090D01*
X14990Y35220D02*
Y35020D01*
X15090D01*
X15123Y35053D01*
Y35087D01*
X15090Y35120D01*
X14990D01*
X15090D01*
X15123Y35153D01*
Y35187D01*
X15090Y35220D01*
X14990D01*
X10050Y36260D02*
Y36060D01*
X10150D01*
X10183Y36093D01*
Y36127D01*
X10150Y36160D01*
X10050D01*
X10150D01*
X10183Y36193D01*
Y36227D01*
X10150Y36260D01*
X10050D01*
X9910Y33480D02*
Y33280D01*
X10010D01*
X10043Y33313D01*
Y33347D01*
X10010Y33380D01*
X9910D01*
X10010D01*
X10043Y33413D01*
Y33447D01*
X10010Y33480D01*
X9910D01*
X10390Y30200D02*
Y30000D01*
X10490D01*
X10523Y30033D01*
Y30067D01*
X10490Y30100D01*
X10390D01*
X10490D01*
X10523Y30133D01*
Y30167D01*
X10490Y30200D01*
X10390D01*
X9510Y27230D02*
Y27030D01*
X9610D01*
X9643Y27063D01*
Y27097D01*
X9610Y27130D01*
X9510D01*
X9610D01*
X9643Y27163D01*
Y27197D01*
X9610Y27230D01*
X9510D01*
X8790Y24250D02*
Y24050D01*
X8890D01*
X8923Y24083D01*
Y24117D01*
X8890Y24150D01*
X8790D01*
X8890D01*
X8923Y24183D01*
Y24217D01*
X8890Y24250D01*
X8790D01*
X10150Y25460D02*
Y25260D01*
X10250D01*
X10283Y25293D01*
Y25327D01*
X10250Y25360D01*
X10150D01*
X10250D01*
X10283Y25393D01*
Y25427D01*
X10250Y25460D01*
X10150D01*
X8990Y22590D02*
Y22390D01*
X9090D01*
X9123Y22423D01*
Y22457D01*
X9090Y22490D01*
X8990D01*
X9090D01*
X9123Y22523D01*
Y22557D01*
X9090Y22590D01*
X8990D01*
X9870Y21600D02*
Y21400D01*
X9970D01*
X10003Y21433D01*
Y21467D01*
X9970Y21500D01*
X9870D01*
X9970D01*
X10003Y21533D01*
Y21567D01*
X9970Y21600D01*
X9870D01*
X9830Y22810D02*
Y22610D01*
X9930D01*
X9963Y22643D01*
Y22677D01*
X9930Y22710D01*
X9830D01*
X9930D01*
X9963Y22743D01*
Y22777D01*
X9930Y22810D01*
X9830D01*
X8390Y21880D02*
Y21680D01*
X8490D01*
X8523Y21713D01*
Y21747D01*
X8490Y21780D01*
X8390D01*
X8490D01*
X8523Y21813D01*
Y21847D01*
X8490Y21880D01*
X8390D01*
X3990Y18520D02*
Y18320D01*
X4090D01*
X4123Y18353D01*
Y18387D01*
X4090Y18420D01*
X3990D01*
X4090D01*
X4123Y18453D01*
Y18487D01*
X4090Y18520D01*
X3990D01*
X7160Y36700D02*
Y36500D01*
X7260D01*
X7293Y36533D01*
Y36567D01*
X7260Y36600D01*
X7160D01*
X7260D01*
X7293Y36633D01*
Y36667D01*
X7260Y36700D01*
X7160D01*
X8190Y34390D02*
Y34190D01*
X8290D01*
X8323Y34223D01*
Y34257D01*
X8290Y34290D01*
X8190D01*
X8290D01*
X8323Y34323D01*
Y34357D01*
X8290Y34390D01*
X8190D01*
X8110Y32690D02*
Y32490D01*
X8210D01*
X8243Y32523D01*
Y32557D01*
X8210Y32590D01*
X8110D01*
X8210D01*
X8243Y32623D01*
Y32657D01*
X8210Y32690D01*
X8110D01*
X9950Y26750D02*
Y26550D01*
X10050D01*
X10083Y26583D01*
Y26617D01*
X10050Y26650D01*
X9950D01*
X10050D01*
X10083Y26683D01*
Y26717D01*
X10050Y26750D01*
X9950D01*
D109*
X1230Y4200D02*
G03*
X1230Y4200I-80J0D01*
G01*
Y6200D02*
G03*
X1230Y6200I-80J0D01*
G01*
Y3200D02*
G03*
X1230Y3200I-80J0D01*
G01*
Y5200D02*
G03*
X1230Y5200I-80J0D01*
G01*
X1410Y34930D02*
G03*
X1410Y34930I-80J0D01*
G01*
Y32930D02*
G03*
X1410Y32930I-80J0D01*
G01*
Y35930D02*
G03*
X1410Y35930I-80J0D01*
G01*
Y33930D02*
G03*
X1410Y33930I-80J0D01*
G01*
X2776Y34930D02*
G03*
X2776Y34930I-80J0D01*
G01*
Y32930D02*
G03*
X2776Y32930I-80J0D01*
G01*
Y35930D02*
G03*
X2776Y35930I-80J0D01*
G01*
Y33930D02*
G03*
X2776Y33930I-80J0D01*
G01*
X1414Y30380D02*
G03*
X1414Y30380I-80J0D01*
G01*
Y28380D02*
G03*
X1414Y28380I-80J0D01*
G01*
Y31380D02*
G03*
X1414Y31380I-80J0D01*
G01*
Y29380D02*
G03*
X1414Y29380I-80J0D01*
G01*
X2776Y30380D02*
G03*
X2776Y30380I-80J0D01*
G01*
Y28380D02*
G03*
X2776Y28380I-80J0D01*
G01*
Y31380D02*
G03*
X2776Y31380I-80J0D01*
G01*
Y29380D02*
G03*
X2776Y29380I-80J0D01*
G01*
X8600Y38190D02*
G03*
X8600Y38190I-80J0D01*
G01*
X10600D02*
G03*
X10600Y38190I-80J0D01*
G01*
X7600D02*
G03*
X7600Y38190I-80J0D01*
G01*
X9600D02*
G03*
X9600Y38190I-80J0D01*
G01*
X8600Y37190D02*
G03*
X8600Y37190I-80J0D01*
G01*
X10600D02*
G03*
X10600Y37190I-80J0D01*
G01*
X7600D02*
G03*
X7600Y37190I-80J0D01*
G01*
X9600D02*
G03*
X9600Y37190I-80J0D01*
G01*
X9520Y23530D02*
G03*
X9520Y23530I-80J0D01*
G01*
Y24530D02*
G03*
X9520Y24530I-80J0D01*
G01*
Y25530D02*
G03*
X9520Y25530I-80J0D01*
G01*
X8370Y23530D02*
G03*
X8370Y23530I-80J0D01*
G01*
Y24530D02*
G03*
X8370Y24530I-80J0D01*
G01*
Y25530D02*
G03*
X8370Y25530I-80J0D01*
G01*
X2586Y10130D02*
G03*
X2586Y10130I-80J0D01*
G01*
Y9130D02*
G03*
X2586Y9130I-80J0D01*
G01*
Y8130D02*
G03*
X2586Y8130I-80J0D01*
G01*
X1224Y10130D02*
G03*
X1224Y10130I-80J0D01*
G01*
Y9130D02*
G03*
X1224Y9130I-80J0D01*
G01*
Y8130D02*
G03*
X1224Y8130I-80J0D01*
G01*
X17670Y5191D02*
G03*
X17670Y5191I-80J0D01*
G01*
X18761D02*
G03*
X18761Y5191I-80J0D01*
G01*
X19853D02*
G03*
X19853Y5191I-80J0D01*
G01*
X20945D02*
G03*
X20945Y5191I-80J0D01*
G01*
X22036D02*
G03*
X22036Y5191I-80J0D01*
G01*
X18220Y4074D02*
G03*
X18220Y4074I-80J0D01*
G01*
X19311D02*
G03*
X19311Y4074I-80J0D01*
G01*
X20403D02*
G03*
X20403Y4074I-80J0D01*
G01*
X21495D02*
G03*
X21495Y4074I-80J0D01*
G01*
X34500Y8980D02*
G03*
X34500Y8980I-80J0D01*
G01*
X32500D02*
G03*
X32500Y8980I-80J0D01*
G01*
X34500Y11480D02*
G03*
X34500Y11480I-80J0D01*
G01*
X32500D02*
G03*
X32500Y11480I-80J0D01*
G01*
X38345Y4630D02*
G03*
X38345Y4630I-80J0D01*
G01*
X36345D02*
G03*
X36345Y4630I-80J0D01*
G01*
X38345Y7130D02*
G03*
X38345Y7130I-80J0D01*
G01*
X36345D02*
G03*
X36345Y7130I-80J0D01*
G01*
X38345Y8980D02*
G03*
X38345Y8980I-80J0D01*
G01*
X36345D02*
G03*
X36345Y8980I-80J0D01*
G01*
X38345Y11480D02*
G03*
X38345Y11480I-80J0D01*
G01*
X36345D02*
G03*
X36345Y11480I-80J0D01*
G01*
X34500Y4630D02*
G03*
X34500Y4630I-80J0D01*
G01*
X32500D02*
G03*
X32500Y4630I-80J0D01*
G01*
X34500Y7130D02*
G03*
X34500Y7130I-80J0D01*
G01*
X32500D02*
G03*
X32500Y7130I-80J0D01*
G01*
X30720Y23850D02*
G03*
X30720Y23850I-80J0D01*
G01*
Y21850D02*
G03*
X30720Y21850I-80J0D01*
G01*
Y24850D02*
G03*
X30720Y24850I-80J0D01*
G01*
Y22850D02*
G03*
X30720Y22850I-80J0D01*
G01*
X38320Y33370D02*
G03*
X38320Y33370I-80J0D01*
G01*
Y32370D02*
G03*
X38320Y32370I-80J0D01*
G01*
Y31370D02*
G03*
X38320Y31370I-80J0D01*
G01*
Y36520D02*
G03*
X38320Y36520I-80J0D01*
G01*
Y35520D02*
G03*
X38320Y35520I-80J0D01*
G01*
Y34520D02*
G03*
X38320Y34520I-80J0D01*
G01*
X17160Y27350D02*
G03*
X17160Y27350I-80J0D01*
G01*
X16160D02*
G03*
X16160Y27350I-80J0D01*
G01*
X15160D02*
G03*
X15160Y27350I-80J0D01*
G01*
X23540Y27410D02*
G03*
X23540Y27410I-80J0D01*
G01*
X22540D02*
G03*
X22540Y27410I-80J0D01*
G01*
X21540D02*
G03*
X21540Y27410I-80J0D01*
G01*
X29130Y27120D02*
G03*
X29130Y27120I-80J0D01*
G01*
Y26120D02*
G03*
X29130Y26120I-80J0D01*
G01*
Y25120D02*
G03*
X29130Y25120I-80J0D01*
G01*
Y24120D02*
G03*
X29130Y24120I-80J0D01*
G01*
Y23120D02*
G03*
X29130Y23120I-80J0D01*
G01*
Y22120D02*
G03*
X29130Y22120I-80J0D01*
G01*
Y21120D02*
G03*
X29130Y21120I-80J0D01*
G01*
Y20120D02*
G03*
X29130Y20120I-80J0D01*
G01*
Y13120D02*
G03*
X29130Y13120I-80J0D01*
G01*
Y17120D02*
G03*
X29130Y17120I-80J0D01*
G01*
Y15120D02*
G03*
X29130Y15120I-80J0D01*
G01*
Y16120D02*
G03*
X29130Y16120I-80J0D01*
G01*
Y12120D02*
G03*
X29130Y12120I-80J0D01*
G01*
Y14120D02*
G03*
X29130Y14120I-80J0D01*
G01*
Y18120D02*
G03*
X29130Y18120I-80J0D01*
G01*
Y19120D02*
G03*
X29130Y19120I-80J0D01*
G01*
X2586Y17010D02*
G03*
X2586Y17010I-80J0D01*
G01*
Y16010D02*
G03*
X2586Y16010I-80J0D01*
G01*
Y15010D02*
G03*
X2586Y15010I-80J0D01*
G01*
X1224Y17010D02*
G03*
X1224Y17010I-80J0D01*
G01*
Y16010D02*
G03*
X1224Y16010I-80J0D01*
G01*
Y15010D02*
G03*
X1224Y15010I-80J0D01*
G01*
X10860Y27120D02*
G03*
X10860Y27120I-80J0D01*
G01*
Y26120D02*
G03*
X10860Y26120I-80J0D01*
G01*
Y25120D02*
G03*
X10860Y25120I-80J0D01*
G01*
Y24120D02*
G03*
X10860Y24120I-80J0D01*
G01*
Y23120D02*
G03*
X10860Y23120I-80J0D01*
G01*
Y22120D02*
G03*
X10860Y22120I-80J0D01*
G01*
Y21120D02*
G03*
X10860Y21120I-80J0D01*
G01*
Y20120D02*
G03*
X10860Y20120I-80J0D01*
G01*
Y13120D02*
G03*
X10860Y13120I-80J0D01*
G01*
Y17120D02*
G03*
X10860Y17120I-80J0D01*
G01*
Y15120D02*
G03*
X10860Y15120I-80J0D01*
G01*
Y16120D02*
G03*
X10860Y16120I-80J0D01*
G01*
Y12120D02*
G03*
X10860Y12120I-80J0D01*
G01*
Y14120D02*
G03*
X10860Y14120I-80J0D01*
G01*
Y18120D02*
G03*
X10860Y18120I-80J0D01*
G01*
Y19120D02*
G03*
X10860Y19120I-80J0D01*
G01*
D110*
X34460Y8980D02*
G03*
X34460Y8980I-40J0D01*
G01*
X32460D02*
G03*
X32460Y8980I-40J0D01*
G01*
X34460Y11480D02*
G03*
X34460Y11480I-40J0D01*
G01*
X32460D02*
G03*
X32460Y11480I-40J0D01*
G01*
X38305Y4630D02*
G03*
X38305Y4630I-40J0D01*
G01*
X36305D02*
G03*
X36305Y4630I-40J0D01*
G01*
X38305Y7130D02*
G03*
X38305Y7130I-40J0D01*
G01*
X36305D02*
G03*
X36305Y7130I-40J0D01*
G01*
X38305Y8980D02*
G03*
X38305Y8980I-40J0D01*
G01*
X36305D02*
G03*
X36305Y8980I-40J0D01*
G01*
X38305Y11480D02*
G03*
X38305Y11480I-40J0D01*
G01*
X36305D02*
G03*
X36305Y11480I-40J0D01*
G01*
X34460Y4630D02*
G03*
X34460Y4630I-40J0D01*
G01*
X32460D02*
G03*
X32460Y4630I-40J0D01*
G01*
X34460Y7130D02*
G03*
X34460Y7130I-40J0D01*
G01*
X32460D02*
G03*
X32460Y7130I-40J0D01*
G01*
X29090Y27120D02*
G03*
X29090Y27120I-40J0D01*
G01*
Y26120D02*
G03*
X29090Y26120I-40J0D01*
G01*
Y25120D02*
G03*
X29090Y25120I-40J0D01*
G01*
Y24120D02*
G03*
X29090Y24120I-40J0D01*
G01*
Y23120D02*
G03*
X29090Y23120I-40J0D01*
G01*
Y22120D02*
G03*
X29090Y22120I-40J0D01*
G01*
Y21120D02*
G03*
X29090Y21120I-40J0D01*
G01*
Y20120D02*
G03*
X29090Y20120I-40J0D01*
G01*
Y13120D02*
G03*
X29090Y13120I-40J0D01*
G01*
Y17120D02*
G03*
X29090Y17120I-40J0D01*
G01*
Y15120D02*
G03*
X29090Y15120I-40J0D01*
G01*
Y16120D02*
G03*
X29090Y16120I-40J0D01*
G01*
Y12120D02*
G03*
X29090Y12120I-40J0D01*
G01*
Y14120D02*
G03*
X29090Y14120I-40J0D01*
G01*
Y18120D02*
G03*
X29090Y18120I-40J0D01*
G01*
Y19120D02*
G03*
X29090Y19120I-40J0D01*
G01*
X10820Y27120D02*
G03*
X10820Y27120I-40J0D01*
G01*
Y26120D02*
G03*
X10820Y26120I-40J0D01*
G01*
Y25120D02*
G03*
X10820Y25120I-40J0D01*
G01*
Y24120D02*
G03*
X10820Y24120I-40J0D01*
G01*
Y23120D02*
G03*
X10820Y23120I-40J0D01*
G01*
Y22120D02*
G03*
X10820Y22120I-40J0D01*
G01*
Y21120D02*
G03*
X10820Y21120I-40J0D01*
G01*
Y20120D02*
G03*
X10820Y20120I-40J0D01*
G01*
Y13120D02*
G03*
X10820Y13120I-40J0D01*
G01*
Y17120D02*
G03*
X10820Y17120I-40J0D01*
G01*
Y15120D02*
G03*
X10820Y15120I-40J0D01*
G01*
Y16120D02*
G03*
X10820Y16120I-40J0D01*
G01*
Y12120D02*
G03*
X10820Y12120I-40J0D01*
G01*
Y14120D02*
G03*
X10820Y14120I-40J0D01*
G01*
Y18120D02*
G03*
X10820Y18120I-40J0D01*
G01*
Y19120D02*
G03*
X10820Y19120I-40J0D01*
G01*
M02*
